<svg width="280" height="73" viewBox="0 0 280 73" fill="none" xmlns="http://www.w3.org/2000/svg"><path d="M32.254 30.84c2.873-1.484 6.21-5.654 6.21-10.66 0-8.897-6.21-14.366-20.298-14.366H0v51.904h18.908c13.532 0 21.688-6.025 21.688-15.571 0-6.488-4.078-9.825-8.342-11.308zM14.83 17.4h3.892c3.059 0 4.913 1.298 4.913 4.078 0 2.966-1.669 4.356-4.357 4.356H14.83V17.4zM19 46.132h-4.17V37.05h4.634c3.707 0 5.56 1.483 5.56 4.356 0 3.152-2.502 4.727-6.024 4.727zM53.48 14.62c5.839 0 7.507-3.893 7.507-7.044 0-3.244-1.576-6.766-7.508-6.766-5.931 0-7.507 3.522-7.507 6.766-.093 3.15 1.575 7.044 7.507 7.044zm-1.577 3.614c-4.727 0-8.62 1.113-8.62 1.113v9.268h1.02c1.761 0 2.317.463 2.317 2.503v26.6h15.108V27.874c0-6.303-2.41-9.64-9.825-9.64zm35.035 0c-12.512 0-20.576 7.6-20.576 20.206 0 12.697 8.157 20.39 20.576 20.39 12.513 0 20.576-7.6 20.576-20.298 0-12.605-8.156-20.298-20.576-20.298zm0 29.752c-3.522 0-5.097-2.595-5.097-9.546 0-6.86 1.575-9.269 5.097-9.269 3.522 0 5.098 2.41 5.098 9.269 0 6.95-1.761 9.546-5.098 9.546zm85.27-4.078V11.19c0-6.302-2.688-9.639-10.103-9.639-4.449 0-8.341 1.112-8.341 1.112v9.269h1.019c1.761 0 2.317.463 2.317 2.502v31.05c0 8.434 3.522 13.346 12.142 13.346 4.542 0 7.137-1.112 7.137-1.112V47.523s-.742.092-1.483.092c-1.947.093-2.688-.741-2.688-3.707zm27.342-25.674c-12.513 0-20.576 7.6-20.576 20.206 0 12.697 8.156 20.39 20.576 20.39 12.512 0 20.576-7.6 20.576-20.298 0-12.605-8.064-20.298-20.576-20.298zm0 29.752c-3.522 0-5.098-2.595-5.098-9.546 0-6.86 1.576-9.269 5.098-9.269s5.097 2.41 5.097 9.269c0 6.95-1.668 9.546-5.097 9.546zm67.381-28.639l-4.356 23.634-5.005-23.634h-12.697l-4.542 23.727-4.912-23.727h-13.718l8.064 38.371h16.312l4.449-21.41 5.005 21.41h16.313L280 19.347h-13.069zM137.915 23.24c-1.854-2.874-5.469-5.006-10.566-5.006-9.454 0-16.591 6.674-16.591 19.557 0 12.976 6.21 18.259 15.571 18.259 4.449 0 7.6-2.225 9.361-4.82v2.966c0 4.82-1.946 7.322-5.653 7.322-2.41 0-4.635-1.761-4.82-3.615h-14.459c0 6.025 6.396 14.552 20.02 14.552 13.996 0 20.02-9.176 20.02-18.259v-34.85h-11.586l-1.297 3.893zm-6.303 20.112c-3.151 0-5.375-2.04-5.375-6.488 0-4.449 2.224-6.951 5.283-6.951 2.873 0 4.17 1.853 4.17 1.853v9.454s-1.39 2.132-4.078 2.132z" fill="#FF5C00"/></svg>