<svg width="280" height="72" viewBox="0 0 280 72" fill="none" xmlns="http://www.w3.org/2000/svg"><path d="M32.254 30.03c2.873-1.483 6.21-5.654 6.21-10.659 0-8.898-6.21-14.366-20.298-14.366H0v51.903h18.908c13.532 0 21.688-6.024 21.688-15.57 0-6.489-4.078-9.825-8.342-11.308zM14.83 16.59h3.892c3.059 0 4.913 1.298 4.913 4.079 0 2.965-1.669 4.356-4.357 4.356H14.83V16.59zM19 45.323h-4.17V36.24h4.634c3.707 0 5.56 1.482 5.56 4.356 0 3.151-2.502 4.727-6.024 4.727zM53.48 13.81c5.838 0 7.507-3.893 7.507-7.044C60.986 3.522 59.41 0 53.478 0s-7.507 3.522-7.507 6.766c-.093 3.151 1.575 7.044 7.507 7.044zm-1.577 3.615c-4.727 0-8.62 1.112-8.62 1.112v9.268h1.02c1.761 0 2.317.464 2.317 2.503v26.6h15.108V27.064c0-6.303-2.41-9.64-9.825-9.64zm35.035 0c-12.512 0-20.576 7.6-20.576 20.205 0 12.698 8.156 20.39 20.576 20.39 12.513 0 20.576-7.6 20.576-20.297 0-12.605-8.156-20.298-20.576-20.298zm0 29.751c-3.522 0-5.098-2.595-5.098-9.546 0-6.859 1.576-9.268 5.098-9.268s5.098 2.41 5.098 9.268c0 6.951-1.761 9.546-5.098 9.546zm85.27-4.077V10.38c0-6.303-2.688-9.64-10.103-9.64-4.449 0-8.341 1.113-8.341 1.113v9.268h1.019c1.761 0 2.317.464 2.317 2.503v31.05c0 8.434 3.522 13.346 12.142 13.346 4.542 0 7.137-1.112 7.137-1.112V46.713s-.742.093-1.483.093c-1.947.093-2.688-.741-2.688-3.707zm27.342-25.674c-12.513 0-20.576 7.6-20.576 20.205 0 12.698 8.156 20.39 20.576 20.39 12.512 0 20.576-7.6 20.576-20.297 0-12.605-8.064-20.298-20.576-20.298zm0 29.751c-3.522 0-5.098-2.595-5.098-9.546 0-6.859 1.576-9.268 5.098-9.268s5.097 2.41 5.097 9.268c0 6.951-1.668 9.546-5.097 9.546zm67.381-28.639l-4.356 23.635-5.005-23.635h-12.697l-4.542 23.727-4.912-23.727h-13.718l8.064 38.371h16.312l4.449-21.41 5.005 21.41h16.313L280 18.538h-13.069zM137.915 22.43c-1.854-2.873-5.469-5.005-10.566-5.005-9.454 0-16.591 6.673-16.591 19.556 0 12.976 6.21 18.26 15.571 18.26 4.449 0 7.6-2.225 9.361-4.82v2.965c0 4.82-1.946 7.322-5.654 7.322-2.409 0-4.634-1.76-4.819-3.614h-14.459c0 6.024 6.395 14.551 20.02 14.551 13.995 0 20.02-9.175 20.02-18.259V18.537h-11.586l-1.297 3.893zm-6.303 20.112c-3.151 0-5.376-2.039-5.376-6.488s2.225-6.95 5.283-6.95c2.874 0 4.171 1.853 4.171 1.853v9.454s-1.39 2.131-4.078 2.131z" fill="#fff" fill-opacity=".2"/></svg>