<svg width="76" height="84" viewBox="0 0 76 84" fill="none" xmlns="http://www.w3.org/2000/svg"><mask id="mask0" maskUnits="userSpaceOnUse" x="3" y="14" width="70" height="70"><circle r="34.47" transform="matrix(-1 0 0 1 37.97 49.106)" fill="#FFD15A"/></mask><g mask="url(#mask0)"><circle r="34.47" transform="matrix(-1 0 0 1 37.97 49.636)" fill="#FFD15A"/><path d="M24.892 91.564c7.404 1.228 9.777 2.241 12.877 2.241 3.088 0 4.352-.691 12.877-2.241 8.155-1.49 12.161.834 13.58 1.979l.453-.012.227-18.063-26.91-5.103-7.023 1.68-10.588 6.534L11.61 93.34c1.633-1.156 5.615-3.052 13.282-1.776z" fill="#F2BB99"/><path d="M86.546 111.737S75.91 78.507 69.877 73.202c-5.02-4.411-10.826-1.884-16.537-1.025-1.335.202-4.447.035-5.484-2.647l-10.016.37v24.835l22.618-2.373s4.102 1.515 4.436 2.182c1.24 2.48 4.518 20.21 6.605 23.059 3.517 4.805 15.047-5.866 15.047-5.866z" fill="#F2BB99"/><path opacity=".5" d="M69.877 73.202c-2.945-2.587-6.152-2.79-9.455-2.337l.012.155c1.908 2.266 7.416 21.414 1.205 21.068 0 0 .071.298.202.823 1.228.5 2.838 1.228 3.04 1.633 1.24 2.48 4.52 20.21 6.606 23.059 3.517 4.805 15.047-5.854 15.047-5.854S75.91 78.508 69.877 73.202z" fill="#E8A680"/><path d="M46.71 59.42l-8.321 2.598-8.323-1.55c1.3 3.28.322 9.825-3.827 12.055h24.3c-4.15-2.218-5.14-9.825-3.828-13.104z" fill="url(#paint0_linear)"/><path d="M34.168 70.555c.12-.704.358-.918.74-.835.011 0 .023.012.035.012.203-1.168-.215-1.573-.512-1.669-.346-.12-.597.084-.775.74-.167.655-.454 1.812-.203 2.014.214.18.44.239.644.191.023-.167.047-.322.071-.453z" fill="#F6D9C5"/><path opacity=".3" d="M34.168 70.555c.12-.704.358-.918.74-.835.011 0 .023.012.035.012.203-1.168-.215-1.573-.512-1.669-.346-.12-.597.084-.775.74-.167.655-.454 1.812-.203 2.014.214.18.44.239.644.191.023-.167.047-.322.071-.453z" fill="#F2BB99"/><path d="M38.854 73.333c-.596.49-1.252.084-1.455-.894-.274-1.311.167-1.752.477-1.86.346-.119.596.084.775.74.167.655.453 1.812.203 2.014zm-1.121-4.185c-.167-.656-.417-.858-.775-.74-.31.108-.751.55-.477 1.849.048.203.107.381.179.536.036-.023.06-.047.095-.071.286-.215.584-.286.775-.322.203-.036.31-.024.31-.024s.06 0 .155-.012a8.72 8.72 0 00-.262-1.216zm-3.601 3.506c.668.453 1.3-.024 1.431-1.05.167-1.382-.322-1.788-.656-1.871-.37-.096-.62.13-.739.834-.12.68-.31 1.896-.036 2.087z" fill="#F6D9C5"/><path d="M27.86 109.031c-.989-1.431-1.823-4.054-2.539-5.652-.5.358-2.754 1.562-3.577 1.955-2.23 1.062-14.08 4.71-17.455 5.318-3.374.608-5.401 1.002-5.401 1.002l12.984-16.812 19.506-14.725 1.192-11.589c-.56 0 .93.048.37.024-1.169-.06-1.586-1.777-2.73-1.92-.549 2.683-2.469 4.471-4.448 5.294-4.125 1.705-11.196-4.15-18.337 2.158C.915 79.831-3.425 88.261-8.6 96.583c-4.733 7.583-13.64 21.461-13.866 24.704-.239 3.244 1.812 7.595 7.273 7.464 5.46-.131 20.817-5.759 27.518-9.407 4.09-2.23 12.841-6.975 17.682-9.526-.382-.501-1.789-.275-2.146-.787z" fill="#F2BB99"/><path d="M57.847 68.362c-15.107-7.118-23.965-5.783-39.537.834l-6.665-6.533 6.26-24.347 40.097-5.187 3.863 3.696-4.018 31.537z" fill="#4D2F0E"/><path d="M20.123 39.078c-.477-1.717-1.336-2.754-2.456-2.551-1.121.203-2.087 3.016-1.372 5.008.728 1.99 1.658 2.241 1.443 3.648-.214 1.407 2.134 3.84 2.754 1.657.644-2.194-.37-7.762-.37-7.762z" fill="#F2BB99"/><path opacity=".5" d="M20.123 39.078c-.477-1.717-1.336-2.754-2.456-2.551-1.121.203-2.087 3.016-1.372 5.008.728 1.99 1.658 2.241 1.443 3.648-.214 1.407 2.134 3.84 2.754 1.657.644-2.194-.37-7.762-.37-7.762z" fill="#E8A680"/><path d="M17.678 36.515c.966-.179 1.73.572 2.23 1.872l-.393 3.708c.06-1.586-1.05-6.546-3.22-3.696.275-.99.811-1.777 1.383-1.884zm37.462 2.098c.251-1.752.978-2.897 2.111-2.837 1.133.06 2.456 2.73 1.98 4.793-.466 2.074-1.372 2.432-.979 3.791.382 1.371-1.633 4.078-2.527 1.991-.894-2.086-.584-7.738-.584-7.738z" fill="#F2BB99"/><path opacity=".5" d="M55.14 38.613c.251-1.752.978-2.897 2.111-2.837 1.133.06 2.456 2.73 1.98 4.793-.466 2.074-1.372 2.432-.979 3.791.382 1.371-1.633 4.078-2.527 1.991-.894-2.086-.584-7.738-.584-7.738z" fill="#E8A680"/><path d="M57.25 35.775c-.977-.047-1.644.787-1.978 2.135l.858 3.636c-.25-1.562.227-6.63 2.73-4.066-.405-.965-1.025-1.68-1.61-1.705z" fill="#F2BB99"/><path d="M47.32 60.04l-8.8 2.742-8.8-1.646c1.372 3.458.323 10.385-4.041 12.734l12.83.012 12.828.012c-4.364-2.36-5.389-10.397-4.018-13.855z" fill="url(#paint1_linear)"/><path d="M41.203 11.393c6.581 1.192 12.28 6.486 14.152 11.709 1.86 5.222 1.383 9.454.918 13.496-.453 4.042 1.646 9.61-.37 13.867-2.646 5.58-11.66 12.078-13.174 13.21-1.514 1.133-4.03 2.075-8.978-.13-4.948-2.218-12.293-7.512-13.76-12.722-1.132-4.007.24-8.191-.989-12.293-1.228-4.102-4.46-13.032.024-19.065 4.495-6.021 12.22-9.884 22.177-8.072z" fill="#F2BB99"/><path opacity=".3" d="M57.99 19.966c-.715 5.89-9.073 9.717-18.66 8.56-9.585-1.156-16.787-6.879-16.071-12.769.715-5.89 9.061-9.717 18.659-8.56 9.586 1.168 16.776 6.88 16.072 12.77z" fill="url(#paint2_radial)"/><path d="M41.298 12.049c6.367 1.156 11.875 6.271 13.676 11.315 1.8 5.043 1.74 9.324 1.3 13.234-.442 3.911 1.18 9.11-.764 13.211-2.551 5.39-11.267 11.673-12.722 12.77-1.454 1.097-3.898 2.015-8.668-.132-4.78-2.146-11.875-7.249-13.294-12.292-1.109-3.863-.513-8.513-1.693-12.472-1.18-3.958-3.589-11.994.74-17.825 4.34-5.818 11.803-9.55 21.425-7.81z" fill="#FAF1E3"/><path opacity=".3" d="M37.65 16.115c2.181 4.185-.645 9.968-6.32 12.925-5.663 2.956-12.03 1.955-14.212-2.23-2.182-4.185.656-9.968 6.32-12.913 5.675-2.969 12.03-1.967 14.211 2.218z" fill="url(#paint3_radial)"/><path d="M42.156 19.131c.322 2.921 11.53 8.704 15.68 10.29 0 0 2.42-5.675.774-10.504-2.55-7.524-11.398-17.707-16.716-10.23l.262 10.444z" fill="#593515"/><path d="M42.156 19.131c-.953 5.187-23.858 2.85-24.251 19.184 0 0-6.725 1.205-5.532-9.36 1.204-10.563 7.487-19.219 17.18-23.13 6.928-2.79 13.712-.512 14.595 2.468.87 2.993-1.992 10.838-1.992 10.838z" fill="#593515"/><path d="M12.373 28.956c-.585 3.267-1.884 27.983-2.743 39.537 0 0 4.054 2.623 11.446.703 0 0-3.78-27.172-1.92-36.46l-6.783-3.78zm40.967-18.85c10.063 9.86 11.172 32.645 14.022 57.731 0 0-5.127 2.79-10.469 1.872 0 0 1.813-22.642-1.574-44.735L53.34 10.106z" fill="#593515"/><path d="M27.396 26.798c-3.363.691-6.403 3.362-7.31 5.83-.607 1.645-.536 3.565.037 6.45.75 3.804 3.398 6.427 7.26 6.427 3.876 0 6.88-2.873 7.405-6.63.25-1.835-.143-3.576-.227-6.092-.035-1.36.263-2.575.18-4.101-.132-2.552-3.196-2.755-7.345-1.884zm20.924-.001c3.315.883 5.867 2.85 6.773 5.306.608 1.646 1.073 4.09.5 6.975-.75 3.804-3.397 6.427-7.26 6.427-3.875 0-6.88-2.874-7.405-6.63-.25-1.836.084-4.28.513-6.76.25-1.454.167-1.908.25-3.434.143-2.551 2.588-2.957 6.63-1.884z" fill="#F2BB99"/><path d="M43.706 27.358c-.202.024-.572.167-.691.441-.358.764-.406 1.741.095 1.8.715.084 6.462-.238 8.132.967 2.181 1.585 4.137 3.433 4.137 3.433s-.358-2.885-4.018-5.389c-2.265-1.538-6.462-1.359-7.655-1.252zm-10.647-.155c.19.036.632.036.787.513.262.799.37 1.729-.298 1.717-.573-.012-6.093-.489-7.941.417-2.063 1.014-5.52 3.518-5.52 3.518s2.67-4.138 5.615-5.461c2.492-1.12 6.176-.942 7.357-.704zM44.004 40.33s.108-.166.322-.428c.215-.263.525-.644.966-1.05.215-.202.465-.405.751-.608.286-.202.596-.405.942-.56.346-.155.715-.322 1.133-.417a4.508 4.508 0 011.276-.132c.214.012.44.048.632.072.19.036.37.072.56.107.346.06.703.131 1.05.155.679.084 1.323.12 1.871.096.274-.012.525-.048.74-.084.214-.047.405-.095.548-.167.143-.071.262-.13.334-.19.071-.06.107-.084.107-.084s-.024.048-.072.131a1.166 1.166 0 01-.25.334c-.25.25-.703.537-1.3.703-.584.18-1.3.275-2.038.263-.37 0-.764-.024-1.157-.072a8.256 8.256 0 01-.572-.083c-.18-.012-.334-.048-.501-.048a4.725 4.725 0 00-1.002.072c-.334.06-.655.143-.977.262-.31.12-.62.238-.895.382-.286.143-.548.274-.798.417-.49.274-.907.524-1.193.691-.31.143-.477.239-.477.239z" fill="#4D2F0E"/><path d="M44.53 37.422s.13-.823.595-2.004c.12-.298.25-.608.43-.93a6.45 6.45 0 01.631-.977c.25-.322.56-.632.966-.859.107-.047.215-.107.322-.143l.358-.083c.155-.036.226-.012.334-.024.095-.012.202 0 .322.012.465.036.87.143 1.275.274a8.22 8.22 0 011.145.477c.358.167.691.37.99.56.31.191.584.394.834.585.5.381.87.763 1.12 1.037.12.131.216.25.263.334.06.083.084.119.084.119s-.143-.155-.43-.37a11.464 11.464 0 00-1.228-.846 16.425 16.425 0 00-1.848-.978 9.92 9.92 0 00-1.097-.405c-.37-.108-.775-.215-1.144-.227a3.058 3.058 0 00-.573 0l-.25.048c-.083.036-.155.071-.238.107a2.92 2.92 0 00-.847.692 6.34 6.34 0 00-.644.87c-.19.298-.346.584-.5.859a21.157 21.157 0 00-.656 1.347c-.132.334-.215.525-.215.525zm1.108 3.672l.06-.06c.035-.035.095-.083.178-.143a3.64 3.64 0 01.727-.381c.62-.274 1.49-.513 2.397-.596.227-.024.453-.024.668-.036.226-.012.44.012.655.024.43.035.811.119 1.145.202.167.048.31.108.441.155.131.036.239.108.322.155.179.096.274.143.274.143s-.107-.012-.298-.047c-.095-.012-.202-.036-.346-.048-.13-.012-.286-.024-.44-.048-.168 0-.334-.012-.525-.024h-.584c-.406.012-.835.024-1.252.072-.43.024-.859.095-1.252.155-.394.072-.775.131-1.097.203-.322.06-.584.13-.763.178-.203.048-.31.096-.31.096z" fill="#E8A680"/><path d="M62.616 54.137s-.047-.286-.155-.763c-.095-.477-.238-1.18-.381-2.015a84.957 84.957 0 01-.441-2.861c-.06-.525-.144-1.061-.203-1.622-.06-.548-.12-1.109-.179-1.67-.048-.56-.095-1.12-.143-1.668-.06-.549-.072-1.097-.12-1.622a54.68 54.68 0 01-.118-2.885c-.036-1.693.035-2.838.035-2.838s.298 1.097.596 2.778c.155.835.31 1.813.454 2.862.071.524.154 1.06.202 1.621.06.549.12 1.11.191 1.67l.143 1.68c.048.55.072 1.097.107 1.622.06 1.061.096 2.05.096 2.897.012.847-.012 1.562-.036 2.063 0 .477-.048.751-.048.751zm-1.013 12.675s-.06-.37-.167-.978c-.107-.62-.25-1.514-.405-2.575a185.667 185.667 0 01-.49-3.66c-.07-.668-.166-1.36-.226-2.063a118.111 118.111 0 01-.37-4.28c-.059-.704-.095-1.408-.142-2.075a95.38 95.38 0 01-.167-3.697c-.06-2.17-.012-3.624-.012-3.624s.322 1.419.644 3.553a92.66 92.66 0 01.5 3.66c.072.668.167 1.36.239 2.075l.215 2.134c.06.716.119 1.443.166 2.146.06.704.096 1.407.132 2.075.071 1.347.13 2.611.143 3.696a63.636 63.636 0 010 2.635c-.012.62-.06.978-.06.978zM13.696 48.784s.024.286.084.775c.047.489.13 1.192.19 2.039.072.846.131 1.836.18 2.885.011.525.047 1.073.059 1.634.012.56.024 1.12.024 1.68 0 .561 0 1.133-.012 1.682 0 .548-.024 1.097-.036 1.633a80.401 80.401 0 01-.143 2.886c-.12 1.693-.298 2.825-.298 2.825s-.203-1.12-.346-2.813a56.624 56.624 0 01-.19-2.886c-.013-.524-.06-1.073-.06-1.633-.012-.56-.024-1.121-.024-1.681s.012-1.133.012-1.681c0-.56.024-1.097.036-1.634.035-1.061.095-2.05.166-2.885.072-.847.155-1.55.227-2.051.072-.5.131-.775.131-.775zm1.991-7.512s.024.286.084.775c.047.49.13 1.193.19 2.04.072.846.132 1.835.18 2.884.011.525.047 1.074.059 1.634.012.56.024 1.12.024 1.681 0 .56 0 1.133-.012 1.681 0 .56-.024 1.097-.036 1.634a80.618 80.618 0 01-.143 2.885c-.12 1.693-.298 2.826-.298 2.826s-.19-1.121-.346-2.814a56.621 56.621 0 01-.19-2.886c-.024-.524-.06-1.073-.06-1.633l-.036-1.681c0-.56.012-1.133.012-1.681 0-.56.024-1.097.036-1.634.036-1.06.095-2.05.167-2.897.071-.846.155-1.55.226-2.05.072-.49.143-.764.143-.764zM42.288 14.41s-.036.107-.096.298c-.083.19-.19.489-.405.823-.406.691-1.169 1.574-2.242 2.408-1.061.859-2.432 1.67-3.934 2.397-1.515.727-3.172 1.359-4.841 1.907-.847.263-1.681.525-2.516.752-.405.107-.799.226-1.192.333l-.608.18c-.18.059-.358.13-.537.19-.179.06-.358.12-.525.179-.178.071-.345.143-.512.214-.167.072-.346.143-.513.215-.167.084-.322.155-.477.238-.632.299-1.204.656-1.717 1.002-.488.37-.942.727-1.287 1.085a8.661 8.661 0 00-.87 1.014c-.203.31-.37.56-.466.739-.095.178-.143.286-.143.286s-.036-.453.203-1.216c.131-.37.286-.847.584-1.324.131-.25.31-.489.489-.763.19-.25.405-.512.644-.763a10.98 10.98 0 011.693-1.478c.167-.12.334-.227.5-.346.18-.107.358-.203.537-.31.179-.107.358-.215.549-.31.202-.096.393-.19.596-.274.202-.096.405-.191.608-.275.19-.071.393-.143.584-.214.203-.072.394-.143.596-.227.215-.071.43-.143.644-.202.81-.263 1.633-.525 2.444-.8 3.28-1.06 6.51-2.157 8.787-3.266 1.133-.56 2.027-1.133 2.588-1.634.286-.25.5-.453.632-.608.13-.167.203-.25.203-.25z" fill="#6E431E"/><path d="M42.109 14.374s-.024.083-.072.226c-.06.143-.143.358-.322.597-.167.238-.417.488-.727.75a6.217 6.217 0 01-1.157.728c-.226.107-.453.226-.703.322-.25.107-.501.203-.775.298-.263.095-.549.19-.835.274a18.91 18.91 0 01-.882.239c-.596.155-1.228.274-1.872.393-.644.096-1.288.203-1.944.274-.643.072-1.3.155-1.931.227-.632.107-1.24.179-1.836.322-.298.06-.584.13-.87.203-.287.071-.56.142-.823.226-.525.167-1.026.346-1.455.56-.214.108-.43.203-.62.31a4.73 4.73 0 00-.548.31c-.334.203-.608.43-.823.608-.43.382-.596.656-.596.656s.131-.31.524-.739c.203-.203.454-.453.776-.704.31-.25.703-.5 1.144-.739.441-.238.93-.465 1.467-.655a13.803 13.803 0 011.716-.537c.597-.155 1.24-.274 1.884-.381.644-.084 1.288-.168 1.944-.25.644-.06 1.287-.168 1.92-.251.631-.108 1.251-.203 1.848-.334.298-.06.584-.131.87-.203.286-.06.56-.131.823-.214a7.64 7.64 0 00.775-.25c.25-.084.477-.18.703-.275.894-.37 1.574-.835 1.932-1.264.19-.215.298-.405.37-.537l.095-.19zm2.253 3.028l.072.143c.047.096.119.227.226.37.095.155.25.322.405.525.167.19.37.405.597.62.226.226.477.453.75.691.263.25.573.465.871.727.62.49 1.3.978 2.003 1.443.346.239.716.453 1.061.68.358.203.704.429 1.05.62.357.179.68.393 1.001.548.334.155.632.334.918.465.286.131.56.262.787.382.239.107.453.203.62.286.346.167.549.262.549.262s-.215-.012-.608-.048c-.382-.035-.93-.119-1.574-.286-.322-.071-.668-.19-1.026-.31-.37-.107-.727-.274-1.109-.429a20.437 20.437 0 01-1.156-.56 15.957 15.957 0 01-1.133-.692c-.37-.25-.739-.5-1.073-.787-.346-.262-.656-.572-.966-.846a10.88 10.88 0 01-.822-.883 9.69 9.69 0 01-.656-.858 7.222 7.222 0 01-.465-.799c-.12-.25-.215-.465-.262-.668-.072-.19-.072-.333-.084-.44.024-.108.024-.156.024-.156zm-1.49-9.264l-.382-.107c-.25-.084-.62-.143-1.097-.215a11.639 11.639 0 00-1.705-.119c-.656-.024-1.407.024-2.206.084-.81.083-1.669.226-2.587.393-.906.19-1.86.43-2.826.715a29.71 29.71 0 00-2.92 1.05c-.978.393-1.944.858-2.886 1.37-.954.49-1.86 1.062-2.73 1.658-.847.62-1.694 1.216-2.433 1.896a27.94 27.94 0 00-2.074 2.027c-.31.345-.585.691-.87 1.025-.263.346-.525.68-.776 1.002-.453.667-.882 1.287-1.216 1.86-.358.56-.596 1.096-.846 1.514-.418.87-.668 1.371-.668 1.371s.036-.131.083-.393c.06-.25.131-.632.263-1.097.155-.454.298-1.05.572-1.67.131-.31.262-.655.43-1.001.166-.346.357-.704.548-1.085.214-.37.44-.751.68-1.145.262-.381.524-.775.822-1.156.596-.775 1.252-1.574 2.027-2.313a22.023 22.023 0 012.504-2.135c.918-.643 1.872-1.275 2.873-1.812a29.96 29.96 0 013.112-1.395c1.037-.417 2.099-.703 3.136-.966 1.025-.274 2.05-.417 3.016-.536a19.88 19.88 0 012.743-.12 16.13 16.13 0 012.3.215c.68.108 1.265.274 1.73.43.238.071.44.166.62.238.178.071.322.143.429.215l.334.202zm2.11 1.682s.31.083.823.25c.262.095.572.179.93.334.346.155.751.322 1.18.536.418.227.87.465 1.336.751.44.31.942.608 1.407.978.465.37.953.751 1.395 1.18.465.418.894.894 1.323 1.36.405.488.823.965 1.168 1.49.37.5.692 1.025 1.002 1.538.286.525.56 1.025.775 1.526.238.489.417.966.572 1.419.322.894.501 1.657.608 2.194.096.536.132.858.132.858s-.18-.262-.442-.739c-.143-.238-.322-.513-.5-.835-.191-.31-.418-.667-.656-1.06-.25-.382-.513-.788-.799-1.229-.274-.44-.62-.87-.93-1.323a35.05 35.05 0 00-1.05-1.371c-.357-.465-.75-.907-1.132-1.36-.405-.44-.787-.894-1.204-1.3-.406-.428-.823-.822-1.228-1.215-.406-.394-.811-.74-1.193-1.097a18.953 18.953 0 01-1.108-.954c-.358-.274-.68-.537-.966-.775-.286-.239-.56-.43-.775-.596-.441-.358-.668-.56-.668-.56zm4.841 0s.19.107.513.31c.167.095.357.226.572.38.215.156.465.335.715.55.25.202.525.44.8.703.285.25.548.548.834.846.262.322.56.632.81.978.275.346.525.704.776 1.061.238.37.476.74.691 1.109.227.37.417.751.608 1.109a21.3 21.3 0 01.894 2.063c.239.608.382 1.144.49 1.502.095.37.154.584.154.584s-.095-.19-.25-.548a53.197 53.197 0 00-.68-1.42c-.274-.584-.644-1.251-1.037-1.955-.203-.357-.417-.703-.632-1.073a27.042 27.042 0 00-.692-1.073 30.817 30.817 0 00-1.502-2.027c-.274-.298-.5-.62-.75-.882-.251-.274-.49-.537-.716-.763-.453-.453-.847-.835-1.145-1.073-.286-.239-.453-.382-.453-.382z" fill="#6E431E"/><path d="M33.07 12.93s-.393.096-1.096.251c-.358.072-.775.18-1.252.298-.477.12-1.025.25-1.61.43-.584.155-1.216.357-1.872.572a8.406 8.406 0 00-1.001.358c-.346.13-.692.262-1.037.393-.692.31-1.407.596-2.099.966-.715.334-1.383.763-2.063 1.18-.643.465-1.311.894-1.883 1.419-.608.489-1.121 1.061-1.634 1.586-.429.596-.93 1.12-1.252 1.729-.179.298-.357.572-.512.846-.143.286-.275.573-.394.847-.286.536-.417 1.073-.596 1.526-.072.238-.167.453-.215.656-.047.214-.095.405-.13.572l-.263 1.097s.012-.405.048-1.133l.035-.596c.012-.215.084-.453.12-.692.107-.488.166-1.073.405-1.657.107-.298.215-.608.322-.93.131-.322.31-.62.465-.942.298-.667.763-1.276 1.216-1.931.525-.584 1.025-1.252 1.681-1.777.608-.584 1.3-1.049 1.991-1.55.728-.417 1.443-.87 2.194-1.204.727-.382 1.502-.632 2.23-.918.739-.227 1.454-.477 2.158-.632.346-.084.68-.155 1.013-.239.322-.071.644-.107.954-.166.31-.048.596-.108.882-.143.287-.024.549-.06.8-.084.5-.06.941-.095 1.299-.095.691-.036 1.097-.036 1.097-.036z" fill="#6E431E"/><path d="M30.83 41.022s-.108-.048-.287-.108a6.172 6.172 0 00-.763-.178c-.322-.06-.691-.131-1.097-.191-.405-.06-.834-.131-1.263-.179-.43-.06-.859-.107-1.264-.143-.406-.036-.787-.072-1.11-.072a8.544 8.544 0 00-.786 0c-.19.012-.31.012-.31.012s.095-.047.286-.119a3.51 3.51 0 01.787-.203c.334-.06.727-.095 1.145-.095.417-.012.87.036 1.311.084.883.119 1.753.357 2.385.62.31.13.56.274.727.393.083.048.131.107.179.143a.17.17 0 01.06.036z" fill="#E8A680"/><path d="M20.35 37.564c.333.12.69.132 1.299.108.298-.012.62-.06.942-.131.167-.036.298-.084.477-.155.167-.072.393-.144.596-.191a11.186 11.186 0 012.575-.43 8.442 8.442 0 011.348.048c.226.024.453.06.667.12l.167.035.107.024.072.024c.095.036.19.06.298.107.453.167.775.382 1.109.596.322.215.596.441.846.656.99.87 1.49 1.598 1.49 1.598s-.19-.108-.512-.298a74.134 74.134 0 00-1.335-.775c-.274-.143-.584-.31-.894-.453a7.178 7.178 0 00-.978-.382c-.084-.024-.19-.048-.286-.071l-.072-.024c.024.012-.036 0-.048 0l-.143-.024a9.257 9.257 0 00-.572-.06 13.468 13.468 0 00-1.204-.012c-.81.036-1.634.131-2.397.263-.19.035-.346.071-.548.119a3.75 3.75 0 01-.62.107c-.406.036-.787 0-1.12-.06-.68-.119-1.432-.81-1.265-.739z" fill="#4D2F0E"/><path d="M22.376 35.907s.036-.048.107-.131c.072-.084.18-.215.334-.358.298-.298.752-.715 1.348-1.133.298-.214.62-.429.977-.644.358-.214.74-.44 1.157-.631.417-.203.846-.382 1.311-.537a7.181 7.181 0 011.455-.334c.5-.06 1.05-.024 1.538.19.203.072.453.263.656.418.179.179.358.346.489.549.298.37.489.775.68 1.156.166.382.31.763.429 1.109.238.691.345 1.288.429 1.705.071.417.095.656.095.656s-.071-.227-.203-.632c-.119-.405-.333-.966-.608-1.622-.274-.655-.643-1.407-1.192-2.074-.131-.167-.286-.31-.441-.465-.167-.108-.286-.239-.525-.322-.37-.155-.822-.191-1.275-.131-.454.035-.907.155-1.348.286-.44.143-.87.298-1.276.477-.405.178-.798.357-1.156.536-.37.18-.703.37-1.014.56-.608.37-1.12.692-1.442.955a3.16 3.16 0 00-.382.31l-.143.107z" fill="#E8A680"/><path d="M29.66 51.586c2.564.346 6.2-.477 7.715-.036 1.514.441 1.956-.095 2.707-.203.977-.143 5.973.465 7.046.048 0 0-3.84 3.04-7.201 3.291-3.363.262-9.062-1.824-9.062-1.824l-1.204-1.276z" fill="#E49084"/><path d="M29.66 51.586c.192 1.252 2.612 7.75 8.729 7.654 6.116-.107 8.74-7.845 8.74-7.845l-8.395 4.614-9.073-4.423z" fill="#E49084"/><path d="M29.66 51.586c1.456.918 5.796 1.645 9.623 1.49 3.827-.167 6.855-1.18 7.845-1.681 0 0-3.16 5.7-8.847 5.663-5.77-.047-8.62-5.472-8.62-5.472z" fill="#812A1F"/><path d="M44.768 53.16c.095-.263.155-.644.202-.99a25.28 25.28 0 01-5.687.894c-2.73.12-5.711-.215-7.726-.751.012.417 1.05 1.908 2.003 2.29.978.38 4.352.881 7.273.393 2.91-.49 3.72-1.264 3.935-1.837z" fill="#fff"/><path d="M44.35 53.732c-.119-.096-11.255.346-11.434.465-.12.071-.334.381-.489.644 1.407 1.156 3.35 2.182 5.855 2.206 2.813.023 4.995-1.36 6.498-2.767a1.227 1.227 0 00-.43-.548z" fill="#fff"/><path opacity=".5" d="M32.904 54.197s.68.298 1.753.537c.262.071.56.119.87.179.31.035.644.107.978.119.68.071 1.419.083 2.146.048.37 0 .727-.06 1.085-.084.358-.036.703-.107 1.05-.155.333-.06.655-.155.965-.215.31-.06.584-.166.846-.25.263-.095.513-.143.716-.238.203-.084.393-.155.536-.215.299-.12.465-.179.465-.179l-.465.203c-.143.06-.321.143-.536.238-.203.096-.453.167-.704.263-.262.083-.548.202-.858.262-.31.071-.632.167-.966.238-.346.06-.691.132-1.05.18-.357.035-.726.095-1.096.095-.74.023-1.478 0-2.17-.072-.346-.024-.668-.095-.99-.143-.31-.072-.608-.12-.87-.19a10.315 10.315 0 01-1.705-.62z" fill="#812A1F"/><path d="M35.348 46.864s.012.93 1.002.858c.107-.011.346-.083.453-.083.203.012.334.083.477.155.262.155.489.334.691.465.215.131.394.155.585.072.25-.108.453-.239.703-.406.62-.357 1.479.143 2.039-.167.358-.202.036-1.025.036-1.025s1.12.668.536 1.574c-.155.226-.596.298-.846.31-.12.012-.632 0-1.05.226-.536.298-1.073.74-1.228.811a.992.992 0 01-.56.072 1.397 1.397 0 01-.489-.191c-.274-.167-.477-.406-.87-.668-.334-.155-.942.048-1.383-.405-.811-.668-.096-1.586-.096-1.598z" fill="#F2BB99"/><path d="M35.337 47.008s0 .035-.012.107a1.124 1.124 0 000 .286c.011.12.035.262.107.405a.728.728 0 00.37.334c.166.072.381.108.596.096.06 0 .107-.012.167-.024.107-.012.119-.024.226-.012.203.012.334.083.477.155.262.155.489.334.691.465.215.131.394.155.585.072.25-.108.453-.239.703-.406a2.33 2.33 0 01.847-.358c.286-.06.596-.035.81-.035.132 0 .203-.012.299-.036a.46.46 0 00.226-.12c.12-.107.155-.285.167-.44 0-.155-.036-.31-.083-.418-.084-.226-.191-.334-.191-.334s.024.024.083.06c.048.048.131.12.203.227.072.107.143.262.179.44.036.18.047.442-.131.668-.155.227-.477.334-.728.346-.274.024-.5.036-.739.096-.238.06-.441.178-.667.321a5.309 5.309 0 01-.776.465.992.992 0 01-.56.072 1.496 1.496 0 01-.489-.19c-.274-.168-.465-.37-.667-.502a.954.954 0 00-.263-.119c-.024-.012-.143-.012-.155-.012-.071 0-.143.012-.214 0a1.5 1.5 0 01-.74-.226.948.948 0 01-.405-.525 1.195 1.195 0 01-.036-.489c.048-.25.131-.37.12-.37z" fill="#E8A680"/><path d="M18.155 31.46c-.417-.334-.632-.06-1.049-.394-.417-.333-.19-.608-.608-.942-.417-.333-.632-.06-1.05-.393l-.595-.477-.716-.584-.071-.06a.109.109 0 00-.143.012l-.143.179a.109.109 0 00.012.143l.071.06.716.584.596.477c.417.334.632.06 1.049.393.417.334.19.608.608.942.417.334.632.06 1.05.394.405.322.202.596.595.918 0 .012 0 .012.012.024l.25.202c.072.12.55.859.895.441.346-.429-.489-.727-.62-.775l-.25-.202c-.012 0-.012 0-.024-.012v-.012c-.394-.262-.18-.596-.585-.918z" fill="#47ACD1"/><path opacity=".5" d="M19.705 33.236c-.345.43-.822-.321-.894-.44l-.25-.203s0-.012-.012-.024c-.382-.322-.179-.596-.596-.918-.418-.334-.632-.06-1.05-.394-.417-.334-.19-.608-.608-.942-.417-.334-.632-.06-1.049-.393l-.596-.477-.715-.584-.072-.06c-.012-.012-.024-.036-.036-.048l-.035.048a.109.109 0 00.011.143l.072.06.716.584.596.477c.417.334.632.06 1.049.393.417.334.19.609.608.942.417.334.632.06 1.05.394.405.322.202.596.595.918 0 .012 0 .012.012.024l.25.202c.072.12.55.859.895.441a.435.435 0 00.083-.166.026.026 0 00-.024.023z" fill="#47ACD1"/><path d="M17.893 32.843c-.381-.37-.62-.12-1.002-.49-.381-.369-.13-.62-.512-.989-.382-.37-.62-.12-1.002-.489l-.548-.536-.656-.644-.072-.072a.109.109 0 00-.143 0l-.155.167a.109.109 0 000 .143l.072.072.656.644.548.536c.382.37.62.12 1.002.489.381.37.13.62.512.99s.62.119 1.002.489c.37.37.143.608.5.977 0 .012 0 .012.013.024l.226.226c.06.132.465.919.847.525.381-.393-.406-.775-.537-.834l-.226-.227s-.012 0-.024-.012v-.012c-.382-.31-.131-.608-.501-.977z" fill="#47ACD1"/><path opacity=".5" d="M19.252 34.762c-.381.393-.787-.394-.846-.525l-.227-.226s0-.012-.012-.024c-.357-.358-.13-.608-.5-.978-.382-.37-.62-.119-1.002-.489s-.131-.62-.513-.99c-.381-.369-.62-.118-1.001-.488l-.549-.537-.655-.643-.072-.072a.091.091 0 01-.024-.06l-.048.048a.109.109 0 000 .143l.072.072.656.644.548.536c.382.37.62.12 1.002.489.381.37.13.62.512.99s.62.119 1.002.489c.37.37.143.608.5.977 0 .012 0 .012.013.024l.226.226c.06.132.465.919.847.525a.4.4 0 00.095-.167c-.012.012-.012.024-.024.036z" fill="#47ACD1"/><path d="M56.19 27.418c.417-.334.632-.06 1.05-.394.416-.334.19-.608.607-.942.417-.333.632-.06 1.05-.393l.596-.477.715-.584.072-.06a.109.109 0 01.143.012l.143.179a.109.109 0 01-.012.143l-.072.06-.715.584-.596.477c-.418.334-.632.06-1.05.393-.417.334-.19.608-.608.942-.417.334-.632.06-1.049.394-.405.322-.203.596-.596.918 0 0 0 .012-.012.024l-.25.202c-.072.12-.549.859-.895.441-.345-.429.49-.727.62-.775l.25-.202c.013 0 .013 0 .025-.012v-.012c.405-.262.178-.596.584-.918z" fill="#47ACD1"/><path opacity=".5" d="M54.652 29.195c.345.429.822-.322.894-.442l.25-.202s0-.012.012-.024c.382-.322.179-.596.596-.918.418-.334.632-.06 1.05-.394.417-.334.19-.608.608-.942.417-.334.632-.06 1.049-.393l.596-.477.715-.584.072-.06c.012-.012.024-.036.036-.048l.047.048a.109.109 0 01-.012.143l-.071.06-.715.584-.597.477c-.417.334-.632.06-1.049.393-.417.334-.19.608-.608.942-.417.334-.632.06-1.05.394-.405.322-.202.596-.595.918 0 0 0 .012-.012.024l-.25.202c-.072.12-.55.859-.895.442a.438.438 0 01-.083-.167s0 .012.012.024z" fill="#47ACD1"/><path d="M56.524 28.503c.417-.334.632-.06 1.049-.393.417-.334.19-.608.608-.942.417-.334.632-.06 1.05-.394l.595-.477.716-.584.071-.06a.109.109 0 01.143.012l.143.18a.109.109 0 01-.011.142l-.072.06-.716.584-.596.477c-.417.334-.631.06-1.049.393-.417.334-.19.609-.608.942-.417.334-.632.06-1.05.394-.404.322-.202.596-.595.918 0 0 0 .012-.012.024l-.25.203c-.072.119-.55.858-.895.44-.346-.429.489-.727.62-.774l.25-.203h.024v-.012c.394-.274.18-.608.585-.93z" fill="#47ACD1"/><path opacity=".5" d="M54.986 30.28c.346.429.823-.322.894-.442l.25-.202s0-.012.012-.024c.382-.322.18-.596.596-.918.418-.334.632-.06 1.05-.393.417-.334.19-.609.608-.942.417-.334.632-.06 1.049-.394l.596-.477.716-.584.071-.06c.012-.012.024-.035.036-.047l.036.047a.109.109 0 01-.012.143l-.072.06-.715.584-.596.477c-.418.334-.632.06-1.05.394-.417.334-.19.608-.608.942-.417.333-.632.06-1.049.393-.405.322-.203.596-.596.918 0 0 0 .012-.012.024l-.25.203c-.072.119-.549.858-.895.44a.436.436 0 01-.083-.166l.024.024z" fill="#47ACD1"/><path d="M63.713 73.882c1.097 2.647 4.078 16.788 4.865 23.393.775 6.617.453 20.77 6.402 25.682 5.95 4.912 9.431 2.909 10.516 1.204 1.097-1.705 1.968-6.402 1.515-10.063-.346-2.802-2.158-8.393-4.817-14.367-3.41-7.654-10.29-21.461-11.053-23.894-.751-2.42-7.428-1.955-7.428-1.955z" fill="#F2BB99"/><path d="M71.141 75.85c-.62-1.74-.143-3.41-.823-4.269-.68-.858-1.68-2.48-1.99-4.495-.31-2.015-.025-5.937.142-6.855.155-.93.823-4.28-.06-5.08-.882-.798-1.847-4.018-2.324-5.723-.477-1.705-2.04-4.173-2.492-4.793-.453-.62-3.816-4.09-4.114-4.018-.298.084-1.144.907-.405 2.385 0 0-.918-.954-1.073-.954-.143-.012-1.371 1.335.107 2.814 1.479 1.478 3.506 4.268 3.673 4.77.167.5 1.001 3.41 1.001 3.41s-1.74-1.944-2.873-2.66c-1.133-.715-4.185-2.253-4.543-1.979-.358.274-.334 1.36 1.884 2.683 2.23 1.335 3.064 2.718 3.064 2.718s1.276 2.254 1.288 2.898c.012.643.19 2.23-.632 4.34-.835 2.11-1.3 4.733 1.252 9.287 2.551 4.555 3.648 11.769 3.648 11.769l6.904-2.35-1.634-3.898z" fill="#F2BB99"/><path opacity=".5" d="M59.087 43.014s.143.178.405.477c.275.286.644.715 1.133 1.192a54.961 54.961 0 011.61 1.645c.286.31.56.632.822.978.131.167.25.358.358.525.12.202.203.393.298.584.382.799.715 1.645 1.037 2.42.322.787.62 1.514.883 2.146.25.632.489 1.145.644 1.514.166.358.262.56.262.56l-.167-.595c-.107-.382-.25-.93-.453-1.574s-.43-1.407-.716-2.206a31.494 31.494 0 00-.99-2.48 14.167 14.167 0 00-.321-.608 7.223 7.223 0 00-.406-.584 10.38 10.38 0 00-.894-.99c-.608-.608-1.24-1.097-1.752-1.538-1.062-.894-1.753-1.466-1.753-1.466zm6.129 13.079l-2.73-3.362c.19.203.31.334.31.334s-.168-.585-.37-1.264l2.79 4.292z" fill="#E8A680"/><path d="M59.564 52.91c.537.548.763.93.763.93s1.276 2.253 1.288 2.896c0 .418.083 1.24-.084 2.35-.262-.764-1.097-2.254-1.514-2.91-.417-.644-1.204-1.812-1.18-2.444 0-.549.357-.751.727-.823z" fill="#F2BB99"/><path opacity=".5" d="M59.564 52.91c.537.548.763.93.763.93s1.276 2.253 1.288 2.896c0 .418.083 1.24-.084 2.35-.262-.764-1.097-2.254-1.514-2.91-.417-.644-1.204-1.812-1.18-2.444 0-.549.357-.751.727-.823z" fill="#E8A680"/><path d="M61.293 42.203c-.179.536-.763.655-1.371.083-.823-.775-.895-1.276-.74-1.562.155-.274.513-.107.954.263.465.37 1.216 1.049 1.157 1.216zm-1.407 1.502c-.203.525-.787.632-1.371.024-.787-.81-.835-1.312-.668-1.586.155-.274.513-.083.942.298.43.382 1.157 1.097 1.097 1.264zm-2.218 5.52c-.012.56-.524.859-1.276.49-1.013-.502-1.228-.955-1.168-1.265.06-.31.453-.25.99-.036.536.215 1.466.644 1.454.811z" fill="#F6D9C5"/></g><mask id="mask1" maskUnits="userSpaceOnUse" x="0" y="0" width="76" height="81"><ellipse rx="37.121" ry="39.773" transform="matrix(-1 0 0 1 37.97 40.621)" fill="#FFD15A"/></mask><g mask="url(#mask1)"><path d="M24.892 91.034c7.404 1.228 9.777 2.241 12.877 2.241 3.088 0 4.352-.691 12.877-2.241 8.155-1.49 12.161.834 13.58 1.979l.453-.012.227-18.064-26.91-5.102-7.023 1.68-10.588 6.534L11.61 92.81c1.633-1.156 5.615-3.052 13.282-1.776z" fill="#F2BB99"/><path d="M86.546 111.208S75.91 77.978 69.877 72.672c-5.02-4.411-10.826-1.883-16.537-1.025-1.335.203-4.447.036-5.484-2.647l-10.016.37v24.835l22.618-2.372s4.102 1.514 4.436 2.181c1.24 2.48 4.518 20.21 6.605 23.06 3.517 4.805 15.047-5.866 15.047-5.866z" fill="#F2BB99"/><path opacity=".5" d="M69.877 72.672c-2.945-2.587-6.152-2.79-9.455-2.337l.012.155c1.908 2.265 7.416 21.414 1.205 21.068 0 0 .071.298.202.823 1.228.5 2.838 1.228 3.04 1.633 1.24 2.48 4.52 20.21 6.606 23.059 3.517 4.805 15.047-5.854 15.047-5.854S75.91 77.978 69.877 72.672z" fill="#E8A680"/><path d="M46.711 58.889l-8.322 2.6-8.322-1.55c1.3 3.278.322 9.824-3.828 12.053h24.3c-4.15-2.217-5.14-9.824-3.828-13.103z" fill="url(#paint4_linear)"/><path d="M34.168 70.025c.12-.704.358-.918.74-.835.011 0 .023.012.035.012.203-1.168-.215-1.574-.512-1.669-.346-.12-.597.084-.775.74-.167.655-.454 1.812-.203 2.014.214.18.44.239.644.191.023-.167.047-.322.071-.453z" fill="#F6D9C5"/><path opacity=".3" d="M34.168 70.025c.12-.704.358-.918.74-.835.011 0 .023.012.035.012.203-1.168-.215-1.574-.512-1.669-.346-.12-.597.084-.775.74-.167.655-.454 1.812-.203 2.014.214.18.44.239.644.191.023-.167.047-.322.071-.453z" fill="#F2BB99"/><path d="M38.854 72.803c-.596.49-1.252.084-1.455-.894-.274-1.311.167-1.753.477-1.86.346-.12.596.084.775.74.167.655.453 1.812.203 2.014zm-1.121-4.185c-.167-.656-.417-.858-.775-.74-.31.108-.751.55-.477 1.849.048.203.107.381.179.536.036-.023.06-.047.095-.071.286-.215.584-.286.775-.322.203-.036.31-.024.31-.024s.06 0 .155-.012a8.722 8.722 0 00-.262-1.216zm-3.601 3.506c.668.453 1.3-.024 1.431-1.05.167-1.382-.322-1.788-.656-1.871-.37-.096-.62.131-.739.834-.12.68-.31 1.896-.036 2.087z" fill="#F6D9C5"/><path d="M27.86 108.501c-.989-1.431-1.823-4.054-2.539-5.652-.5.358-2.754 1.562-3.577 1.955-2.23 1.062-14.08 4.71-17.455 5.318-3.374.608-5.401 1.002-5.401 1.002l12.984-16.812 19.506-14.725 1.192-11.589c-.56 0 .93.048.37.024-1.169-.06-1.586-1.777-2.73-1.92-.549 2.683-2.469 4.471-4.448 5.294-4.125 1.705-11.196-4.15-18.337 2.158C.915 79.301-3.425 87.731-8.6 96.053c-4.733 7.583-13.64 21.461-13.866 24.704-.239 3.243 1.812 7.595 7.273 7.464 5.46-.131 20.817-5.759 27.518-9.407 4.09-2.23 12.841-6.975 17.682-9.527-.382-.5-1.789-.274-2.146-.786z" fill="#F2BB99"/><path d="M57.847 67.832c-15.107-7.118-23.965-5.783-39.537.834l-6.665-6.533 6.26-24.347 40.097-5.187 3.863 3.696-4.018 31.537z" fill="#4D2F0E"/><path d="M20.123 38.548c-.477-1.717-1.336-2.754-2.456-2.551-1.121.202-2.087 3.016-1.372 5.007.728 1.991 1.658 2.242 1.443 3.649-.214 1.407 2.134 3.839 2.754 1.657.644-2.194-.37-7.762-.37-7.762z" fill="#F2BB99"/><path opacity=".5" d="M20.123 38.548c-.477-1.717-1.336-2.754-2.456-2.551-1.121.202-2.087 3.016-1.372 5.007.728 1.991 1.658 2.242 1.443 3.649-.214 1.407 2.134 3.839 2.754 1.657.644-2.194-.37-7.762-.37-7.762z" fill="#E8A680"/><path d="M17.678 35.985c.966-.179 1.73.572 2.23 1.872l-.393 3.708c.06-1.586-1.05-6.546-3.22-3.696.275-.99.811-1.777 1.383-1.884zm37.462 2.098c.251-1.752.978-2.897 2.111-2.837 1.133.06 2.456 2.73 1.98 4.793-.466 2.074-1.372 2.432-.979 3.791.382 1.371-1.633 4.078-2.527 1.991-.894-2.086-.584-7.738-.584-7.738z" fill="#F2BB99"/><path opacity=".5" d="M55.14 38.083c.251-1.752.978-2.897 2.111-2.837 1.133.06 2.456 2.73 1.98 4.793-.466 2.074-1.372 2.432-.979 3.791.382 1.371-1.633 4.078-2.527 1.991-.894-2.086-.584-7.738-.584-7.738z" fill="#E8A680"/><path d="M57.25 35.245c-.977-.047-1.644.787-1.978 2.135l.858 3.636c-.25-1.562.227-6.63 2.73-4.066-.405-.965-1.025-1.68-1.61-1.705z" fill="#F2BB99"/><path d="M47.32 59.509l-8.8 2.742-8.8-1.645c1.372 3.458.323 10.385-4.041 12.734l12.83.012 12.828.012c-4.364-2.361-5.389-10.397-4.018-13.855z" fill="url(#paint5_linear)"/><path d="M41.203 10.863c6.581 1.192 12.28 6.486 14.152 11.709 1.86 5.222 1.383 9.454.918 13.496-.453 4.042 1.646 9.61-.37 13.867-2.646 5.58-11.66 12.078-13.174 13.21-1.514 1.133-4.03 2.075-8.978-.13-4.948-2.218-12.293-7.512-13.76-12.723-1.132-4.006.24-8.19-.989-12.292-1.228-4.102-4.46-13.032.024-19.065 4.495-6.021 12.22-9.884 22.177-8.072z" fill="#F2BB99"/><path opacity=".3" d="M57.99 19.436c-.715 5.89-9.073 9.717-18.66 8.56-9.585-1.156-16.787-6.879-16.071-12.769.715-5.89 9.061-9.717 18.659-8.56 9.586 1.168 16.776 6.88 16.072 12.77z" fill="url(#paint6_radial)"/><path d="M41.298 11.519c6.367 1.156 11.875 6.271 13.676 11.315 1.8 5.043 1.74 9.323 1.3 13.234-.442 3.91 1.18 9.11-.764 13.21-2.551 5.39-11.267 11.674-12.722 12.77-1.454 1.097-3.898 2.015-8.668-.13-4.78-2.147-11.875-7.25-13.294-12.293-1.109-3.863-.513-8.513-1.693-12.472-1.18-3.958-3.589-11.994.74-17.825 4.34-5.818 11.803-9.55 21.425-7.81z" fill="#FAF1E3"/><path opacity=".3" d="M37.65 15.585c2.181 4.185-.645 9.968-6.32 12.924-5.663 2.957-12.03 1.956-14.212-2.23-2.182-4.184.656-9.967 6.32-12.912 5.675-2.969 12.03-1.967 14.211 2.218z" fill="url(#paint7_radial)"/><path d="M42.156 18.601c.322 2.921 11.53 8.704 15.68 10.29 0 0 2.42-5.676.774-10.504C56.06 10.863 47.212.68 41.894 8.157l.262 10.444z" fill="#593515"/><path d="M42.156 18.601c-.953 5.187-23.858 2.85-24.251 19.184 0 0-6.725 1.205-5.532-9.36 1.204-10.563 7.487-19.22 17.18-23.13 6.928-2.79 13.712-.513 14.595 2.468.87 2.993-1.992 10.838-1.992 10.838z" fill="#593515"/><path d="M12.373 28.426c-.585 3.267-1.884 27.983-2.743 39.537 0 0 4.054 2.623 11.446.703 0 0-3.78-27.172-1.92-36.46l-6.783-3.78zM53.34 9.576c10.063 9.86 11.172 32.645 14.022 57.731 0 0-5.127 2.79-10.469 1.872 0 0 1.813-22.642-1.573-44.735L53.34 9.576z" fill="#593515"/><path d="M27.396 26.267c-3.362.692-6.403 3.363-7.309 5.83-.608 1.646-.537 3.566.036 6.451.751 3.804 3.398 6.427 7.26 6.427 3.876 0 6.88-2.874 7.405-6.63.25-1.836-.143-3.576-.226-6.092-.036-1.36.262-2.576.178-4.102-.13-2.551-3.195-2.754-7.344-1.884zm20.924 0c3.315.883 5.867 2.85 6.773 5.306.608 1.645 1.073 4.09.5 6.975-.75 3.803-3.397 6.426-7.26 6.426-3.875 0-6.88-2.873-7.405-6.629-.25-1.836.084-4.28.513-6.76.25-1.455.167-1.908.25-3.434.143-2.551 2.588-2.957 6.63-1.884z" fill="#F2BB99"/><path d="M43.706 26.828c-.202.024-.572.167-.691.441-.358.763-.406 1.741.095 1.8.715.084 6.462-.238 8.132.966 2.181 1.586 4.137 3.434 4.137 3.434s-.358-2.885-4.018-5.389c-2.265-1.538-6.462-1.36-7.655-1.252zm-10.646-.155c.19.036.631.036.786.513.262.799.37 1.729-.298 1.717-.572-.012-6.093-.49-7.94.417-2.063 1.014-5.521 3.517-5.521 3.517s2.67-4.137 5.616-5.46c2.492-1.121 6.176-.942 7.356-.704zM44.004 39.8s.108-.167.322-.429c.215-.262.525-.644.966-1.05a6.96 6.96 0 01.751-.607c.286-.203.596-.406.942-.56.346-.156.715-.323 1.133-.418a4.508 4.508 0 011.276-.131c.214.012.44.048.632.071l.56.108c.346.06.703.13 1.05.155.679.083 1.323.119 1.871.095.274-.012.525-.048.74-.083.214-.048.405-.096.548-.167.143-.072.262-.131.334-.191.071-.06.107-.084.107-.084s-.024.048-.072.132a1.19 1.19 0 01-.25.334c-.25.25-.703.536-1.3.703-.584.179-1.3.274-2.038.262-.37 0-.764-.024-1.157-.071a8.196 8.196 0 01-.572-.084c-.18-.012-.334-.047-.501-.047a4.725 4.725 0 00-1.002.071 5.64 5.64 0 00-.977.262c-.31.12-.62.239-.895.382-.286.143-.548.274-.798.417-.49.275-.907.525-1.193.692-.31.143-.477.238-.477.238z" fill="#4D2F0E"/><path d="M44.53 36.891s.13-.823.595-2.003c.12-.298.25-.608.43-.93.178-.322.369-.656.631-.978.25-.322.56-.632.966-.858.107-.048.215-.108.322-.143l.358-.084c.155-.035.226-.012.334-.024.095-.011.202 0 .322.012.465.036.87.143 1.275.274.406.132.787.299 1.145.478.358.166.691.37.99.56.31.19.584.393.834.584.5.382.87.763 1.12 1.037.12.131.216.25.263.334l.084.12s-.143-.156-.43-.37a11.48 11.48 0 00-1.228-.847 16.425 16.425 0 00-1.848-.977 9.94 9.94 0 00-1.097-.406c-.37-.107-.775-.214-1.144-.226a3.058 3.058 0 00-.573 0l-.25.047c-.083.036-.155.072-.238.108a2.93 2.93 0 00-.847.691c-.25.275-.453.572-.644.87-.19.299-.346.585-.5.86a21.157 21.157 0 00-.656 1.346c-.132.334-.215.525-.215.525zm1.108 3.673l.06-.06c.035-.036.095-.083.178-.143.167-.12.406-.25.727-.382.62-.274 1.49-.512 2.397-.596.227-.024.453-.024.668-.036.226-.011.44.012.655.024.43.036.811.12 1.145.203.167.048.31.107.441.155.131.036.239.107.322.155.179.095.274.143.274.143s-.107-.012-.298-.048c-.095-.011-.202-.035-.346-.047-.13-.012-.286-.024-.44-.048-.168 0-.334-.012-.525-.024h-.584c-.406.012-.835.024-1.252.072-.43.024-.859.095-1.252.155-.394.071-.775.13-1.097.202-.322.06-.584.132-.763.18-.203.047-.31.095-.31.095z" fill="#E8A680"/><path d="M62.616 53.607s-.047-.286-.155-.763c-.095-.477-.238-1.18-.381-2.015a84.926 84.926 0 01-.441-2.861c-.06-.525-.144-1.062-.203-1.622-.06-.548-.12-1.109-.179-1.67-.048-.56-.095-1.12-.143-1.668-.06-.549-.072-1.097-.12-1.622a54.672 54.672 0 01-.118-2.885c-.036-1.693.035-2.838.035-2.838s.298 1.097.596 2.778c.155.835.31 1.812.454 2.862.071.524.154 1.06.202 1.621.06.549.12 1.109.191 1.67l.143 1.68c.048.549.072 1.097.107 1.622.06 1.061.096 2.05.096 2.897.012.847-.012 1.562-.036 2.063 0 .477-.048.751-.048.751zm-1.013 12.675s-.06-.37-.167-.978c-.107-.62-.25-1.514-.405-2.575a185.685 185.685 0 01-.49-3.66c-.07-.669-.166-1.36-.226-2.064a116.28 116.28 0 01-.202-2.134c-.06-.715-.12-1.43-.167-2.146-.06-.703-.096-1.407-.143-2.074a95.384 95.384 0 01-.167-3.697c-.06-2.17-.012-3.624-.012-3.624s.322 1.419.644 3.553a92.66 92.66 0 01.5 3.66c.072.668.167 1.36.239 2.075l.215 2.134c.06.715.119 1.443.166 2.146.06.704.096 1.407.132 2.075.071 1.347.13 2.611.143 3.696a63.636 63.636 0 010 2.635c-.012.62-.06.978-.06.978zM13.696 48.254s.024.286.084.775c.047.489.13 1.192.19 2.039.072.846.131 1.836.18 2.885.011.525.047 1.073.059 1.634.012.56.024 1.12.024 1.68 0 .561 0 1.133-.012 1.682 0 .548-.024 1.097-.036 1.633a80.413 80.413 0 01-.143 2.886 36.493 36.493 0 01-.298 2.825s-.203-1.12-.346-2.813a56.621 56.621 0 01-.19-2.886c-.013-.524-.06-1.073-.06-1.633-.012-.56-.024-1.121-.024-1.681s.012-1.133.012-1.681c0-.56.024-1.097.036-1.634.035-1.061.095-2.05.166-2.885.072-.847.155-1.55.227-2.051.072-.5.131-.775.131-.775zm1.991-7.512s.024.286.084.775c.047.489.13 1.192.19 2.039.072.846.132 1.836.18 2.885.011.525.047 1.073.059 1.634.012.56.024 1.12.024 1.68 0 .561 0 1.133-.012 1.682 0 .56-.024 1.097-.036 1.633a80.618 80.618 0 01-.143 2.886c-.12 1.693-.298 2.825-.298 2.825s-.19-1.12-.346-2.813a56.624 56.624 0 01-.19-2.886c-.024-.524-.06-1.073-.06-1.633l-.036-1.681c0-.56.012-1.133.012-1.681 0-.56.024-1.097.036-1.634a58 58 0 01.167-2.897c.071-.847.155-1.55.226-2.051a8.04 8.04 0 01.143-.763zM42.288 13.88s-.036.107-.096.298c-.083.19-.19.489-.405.822-.406.692-1.169 1.574-2.242 2.409-1.061.858-2.432 1.67-3.934 2.396-1.515.728-3.172 1.36-4.841 1.908-.847.262-1.681.525-2.516.751-.405.108-.799.227-1.192.334l-.608.179c-.18.06-.358.131-.537.19-.179.06-.358.12-.525.18-.178.071-.345.143-.512.214-.167.072-.346.143-.513.215-.167.083-.322.155-.477.238-.632.298-1.204.656-1.717 1.002-.488.37-.942.727-1.287 1.085a8.661 8.661 0 00-.87 1.013c-.203.31-.37.56-.466.74-.095.178-.143.286-.143.286s-.036-.454.203-1.217c.131-.37.286-.846.584-1.323.131-.25.31-.489.489-.763.19-.25.405-.513.644-.763a10.98 10.98 0 011.693-1.479c.167-.119.334-.226.5-.345.18-.108.358-.203.537-.31.179-.108.358-.215.549-.31.202-.096.393-.191.596-.275.202-.095.405-.19.608-.274.19-.071.393-.143.584-.215.203-.071.394-.142.596-.226.215-.072.43-.143.644-.203.81-.262 1.633-.524 2.444-.799 3.28-1.06 6.51-2.158 8.787-3.266 1.133-.56 2.027-1.133 2.588-1.634.286-.25.5-.453.632-.608a8.4 8.4 0 01.203-.25z" fill="#6E431E"/><path d="M42.109 13.844s-.024.083-.072.226c-.06.143-.143.358-.322.596-.167.239-.417.489-.727.751a6.27 6.27 0 01-1.157.728c-.226.107-.453.226-.703.322-.25.107-.501.202-.775.298-.263.095-.549.19-.835.274-.286.083-.584.167-.882.238a27.21 27.21 0 01-1.872.394c-.644.095-1.288.203-1.944.274-.643.072-1.3.155-1.931.227-.632.107-1.24.178-1.836.322-.298.06-.584.13-.87.202-.287.072-.56.143-.823.227-.525.167-1.026.346-1.455.56-.214.107-.43.203-.62.31a4.73 4.73 0 00-.548.31c-.334.203-.608.43-.823.608-.43.382-.596.656-.596.656s.131-.31.524-.74a8.1 8.1 0 01.776-.703c.31-.25.703-.5 1.144-.739.441-.238.93-.465 1.467-.656a13.803 13.803 0 011.716-.536 22.24 22.24 0 011.884-.382c.644-.083 1.288-.167 1.944-.25.644-.06 1.287-.167 1.92-.25.631-.108 1.251-.203 1.848-.334.298-.06.584-.132.87-.203.286-.06.56-.131.823-.215.274-.071.524-.155.775-.25.25-.084.477-.179.703-.274.894-.37 1.574-.835 1.932-1.264.19-.215.298-.406.37-.537l.095-.19zm2.253 3.028l.072.143c.047.095.119.227.226.37.096.155.25.322.406.524.167.191.37.406.596.62.226.227.477.453.751.692.262.25.572.465.87.727.62.49 1.3.978 2.003 1.443.346.238.716.453 1.062.68.357.202.703.429 1.049.62.358.178.68.393 1.001.548.334.155.632.334.918.465.287.131.56.262.787.381.239.108.453.203.62.287.346.167.549.262.549.262s-.215-.012-.608-.048a10.23 10.23 0 01-1.574-.286c-.322-.071-.668-.19-1.026-.31-.37-.107-.727-.274-1.108-.43a20.37 20.37 0 01-1.157-.56 16 16 0 01-1.133-.691c-.37-.25-.739-.5-1.073-.787-.345-.262-.655-.572-.965-.846-.298-.299-.585-.585-.823-.883a9.69 9.69 0 01-.656-.858 7.23 7.23 0 01-.465-.8c-.12-.25-.215-.464-.262-.667-.072-.19-.072-.334-.084-.44.024-.108.024-.156.024-.156zm-1.49-9.264l-.382-.107c-.25-.084-.62-.143-1.097-.215a11.639 11.639 0 00-1.705-.119c-.656-.024-1.407.024-2.206.083-.81.084-1.669.227-2.587.394-.906.19-1.86.43-2.826.715a29.71 29.71 0 00-2.92 1.05c-.978.393-1.944.858-2.886 1.37-.954.49-1.86 1.062-2.73 1.658-.847.62-1.694 1.216-2.433 1.896a27.92 27.92 0 00-2.074 2.027c-.31.346-.585.691-.87 1.025-.263.346-.525.68-.776 1.002-.453.667-.882 1.287-1.216 1.86-.358.56-.596 1.096-.846 1.514-.418.87-.668 1.371-.668 1.371s.036-.131.083-.394c.06-.25.131-.631.263-1.096.155-.453.298-1.05.572-1.67.131-.31.262-.655.43-1.001.166-.346.357-.704.548-1.085.214-.37.44-.751.68-1.145.262-.381.524-.775.822-1.156.596-.775 1.252-1.574 2.027-2.313a22.023 22.023 0 012.504-2.135c.918-.643 1.872-1.275 2.873-1.812a29.96 29.96 0 013.112-1.395c1.037-.417 2.099-.703 3.136-.966 1.025-.274 2.05-.417 3.016-.536a19.878 19.878 0 012.743-.12 16.13 16.13 0 012.3.215 10.6 10.6 0 011.73.43c.238.071.44.166.62.238a2.4 2.4 0 01.429.214c.215.132.334.203.334.203zm2.11 1.682s.31.083.823.25c.262.095.572.178.93.333.346.155.751.322 1.18.537.418.226.87.465 1.336.751.44.31.942.608 1.407.978.465.37.953.75 1.395 1.18.465.417.894.894 1.323 1.36.405.488.823.965 1.168 1.49.37.5.692 1.025 1.002 1.538.286.524.56 1.025.775 1.526.238.489.417.966.572 1.419.322.894.501 1.657.608 2.194.096.536.132.858.132.858s-.18-.262-.442-.74c-.143-.238-.322-.512-.5-.834-.191-.31-.418-.668-.656-1.061-.25-.381-.513-.787-.799-1.228-.274-.441-.62-.87-.93-1.324a35.05 35.05 0 00-1.05-1.37c-.357-.466-.75-.907-1.132-1.36-.405-.441-.787-.894-1.204-1.3-.406-.429-.823-.822-1.228-1.216-.406-.393-.811-.739-1.193-1.097a18.953 18.953 0 01-1.108-.953c-.358-.275-.68-.537-.966-.775-.286-.239-.56-.43-.775-.597-.441-.357-.668-.56-.668-.56zm4.841 0s.19.106.513.31c.167.094.357.226.572.38.215.156.465.334.715.55.25.202.525.44.8.703.285.25.548.548.834.846.262.322.56.632.81.978.275.345.525.703.776 1.06.238.37.476.74.691 1.11.227.37.417.75.608 1.109.37.727.656 1.442.894 2.062.239.608.382 1.145.49 1.503.095.37.154.584.154.584s-.095-.191-.25-.549a53.347 53.347 0 00-.68-1.419c-.274-.584-.644-1.251-1.037-1.955-.203-.358-.417-.703-.632-1.073a27.04 27.04 0 00-.692-1.073 30.82 30.82 0 00-1.502-2.027c-.274-.298-.5-.62-.75-.882-.251-.274-.49-.537-.716-.763-.453-.453-.847-.835-1.145-1.073-.286-.239-.453-.382-.453-.382z" fill="#6E431E"/><path d="M33.071 12.4s-.393.096-1.097.251c-.358.072-.775.18-1.252.298-.477.12-1.025.25-1.61.43a35.09 35.09 0 00-1.871.572 8.393 8.393 0 00-1.002.358c-.346.13-.691.262-1.037.393-.692.31-1.407.596-2.099.966-.715.334-1.383.763-2.062 1.18-.644.465-1.312.894-1.884 1.419-.608.489-1.12 1.061-1.634 1.586-.429.596-.93 1.12-1.252 1.729-.178.298-.357.572-.512.846-.143.286-.274.572-.394.847-.286.536-.417 1.073-.596 1.526-.071.238-.167.453-.214.656-.048.214-.096.405-.132.572-.166.703-.262 1.097-.262 1.097s.012-.406.048-1.133c.012-.179.024-.381.036-.596.012-.215.083-.453.119-.692.107-.488.167-1.073.405-1.657.107-.298.215-.608.322-.93.131-.322.31-.62.465-.942.298-.667.763-1.275 1.216-1.931.525-.585 1.026-1.252 1.681-1.777.608-.584 1.3-1.05 1.992-1.55.727-.417 1.442-.87 2.193-1.204.728-.382 1.503-.632 2.23-.918.74-.227 1.455-.477 2.158-.632.346-.083.68-.155 1.014-.239.322-.071.643-.107.953-.166.31-.048.597-.108.883-.143.286-.024.548-.06.798-.084.501-.06.942-.095 1.3-.095.692-.036 1.097-.036 1.097-.036z" fill="#6E431E"/><path d="M30.83 40.492s-.108-.048-.287-.108a6.172 6.172 0 00-.763-.178c-.322-.06-.691-.132-1.097-.191-.405-.06-.834-.131-1.263-.179-.43-.06-.859-.107-1.264-.143-.406-.036-.787-.072-1.11-.072a8.544 8.544 0 00-.786 0c-.19.012-.31.012-.31.012s.095-.047.286-.119c.179-.072.453-.155.787-.203.334-.06.727-.095 1.145-.095.417-.012.87.036 1.311.083.883.12 1.753.358 2.385.62.31.132.56.275.727.394.083.048.131.107.179.143a.17.17 0 01.06.036z" fill="#E8A680"/><path d="M20.35 37.034c.333.12.69.131 1.299.107.298-.011.62-.06.942-.13.167-.037.298-.084.477-.156.167-.071.393-.143.596-.19a11.18 11.18 0 012.575-.43 8.442 8.442 0 011.348.048c.226.024.453.06.667.12l.167.035.107.024.072.024c.095.035.19.06.298.107.453.167.775.381 1.109.596.322.215.596.441.846.656.99.87 1.49 1.598 1.49 1.598s-.19-.108-.512-.298a73.5 73.5 0 00-1.335-.776c-.274-.143-.584-.31-.894-.453a7.178 7.178 0 00-.978-.381c-.084-.024-.19-.048-.286-.072l-.072-.023c.024.011-.036 0-.048 0l-.143-.024a9.161 9.161 0 00-.572-.06 13.505 13.505 0 00-1.204-.012c-.81.036-1.634.131-2.397.262-.19.036-.346.072-.548.12a3.75 3.75 0 01-.62.107c-.406.036-.787 0-1.12-.06-.68-.119-1.432-.81-1.265-.739z" fill="#4D2F0E"/><path d="M22.376 35.377s.036-.048.107-.132c.072-.083.18-.214.334-.357.298-.298.752-.716 1.348-1.133.298-.215.62-.43.977-.644.358-.214.74-.441 1.157-.632.417-.203.846-.381 1.311-.536a7.181 7.181 0 011.455-.334c.5-.06 1.05-.024 1.538.19.203.072.453.263.656.418.179.179.358.346.489.548.298.37.489.775.68 1.157.166.381.31.763.429 1.109.238.691.345 1.287.429 1.705.071.417.095.656.095.656s-.071-.227-.203-.632c-.119-.406-.333-.966-.608-1.622-.274-.656-.643-1.407-1.192-2.075-.131-.166-.286-.31-.441-.465-.167-.107-.286-.238-.525-.322-.37-.155-.822-.19-1.275-.13-.454.035-.907.154-1.348.285-.44.144-.87.299-1.276.477-.405.18-.798.358-1.156.537-.37.179-.703.37-1.014.56-.608.37-1.12.692-1.442.954-.167.12-.298.227-.382.31l-.143.108z" fill="#E8A680"/><path d="M29.661 51.056c2.564.346 6.2-.477 7.714-.036 1.515.441 1.956-.096 2.707-.203.977-.143 5.973.465 7.046.048 0 0-3.839 3.04-7.201 3.29-3.362.263-9.062-1.824-9.062-1.824l-1.204-1.275z" fill="#E49084"/><path d="M29.661 51.056c.19 1.252 2.611 7.75 8.728 7.654 6.116-.107 8.74-7.845 8.74-7.845l-8.395 4.614-9.073-4.423z" fill="#E49084"/><path d="M29.661 51.056c1.455.918 5.795 1.645 9.622 1.49 3.827-.167 6.856-1.18 7.845-1.681 0 0-3.16 5.7-8.846 5.663-5.771-.047-8.62-5.472-8.62-5.472z" fill="#812A1F"/><path d="M44.768 52.63c.095-.263.155-.644.202-.99a25.286 25.286 0 01-5.687.894c-2.73.12-5.711-.215-7.726-.751.012.417 1.05 1.908 2.003 2.29.978.38 4.352.882 7.273.393 2.91-.49 3.72-1.264 3.935-1.837z" fill="#fff"/><path d="M44.35 53.202c-.119-.096-11.255.346-11.434.465-.12.071-.334.381-.489.644 1.407 1.156 3.35 2.182 5.855 2.206 2.813.023 4.995-1.36 6.498-2.767a1.227 1.227 0 00-.43-.548z" fill="#fff"/><path opacity=".5" d="M32.904 53.667s.68.298 1.753.536c.262.072.56.12.87.18.31.035.644.107.978.119.68.071 1.419.083 2.146.047.37 0 .727-.06 1.085-.083.358-.036.703-.108 1.05-.155.333-.06.655-.155.965-.215.31-.06.584-.167.846-.25.263-.096.513-.143.716-.239.203-.083.393-.155.536-.214.299-.12.465-.18.465-.18l-.465.204c-.143.06-.321.143-.536.238-.203.095-.453.167-.704.262-.262.084-.548.203-.858.263-.31.071-.632.167-.966.238-.346.06-.691.131-1.05.179-.357.036-.726.095-1.096.095-.74.024-1.478 0-2.17-.071-.346-.024-.668-.096-.99-.143-.31-.072-.608-.12-.87-.191a10.315 10.315 0 01-1.705-.62z" fill="#812A1F"/><path d="M35.348 46.334s.012.93 1.002.858c.107-.012.346-.083.453-.083.203.012.334.083.477.155.262.155.489.334.691.465.215.13.394.155.585.071.25-.107.453-.238.703-.405.62-.358 1.479.143 2.039-.167.358-.203.036-1.025.036-1.025s1.12.667.536 1.573c-.155.227-.596.299-.846.31-.12.012-.632 0-1.05.227-.536.298-1.073.74-1.228.81a.992.992 0 01-.56.072 1.397 1.397 0 01-.489-.19c-.274-.167-.477-.406-.87-.668-.334-.155-.942.048-1.383-.406-.811-.667-.096-1.585-.096-1.597z" fill="#F2BB99"/><path d="M35.337 46.477s0 .036-.012.108a1.124 1.124 0 000 .286c.011.12.035.262.107.405a.728.728 0 00.37.334c.166.072.381.107.596.096.06 0 .107-.013.167-.024.107-.012.119-.024.226-.012.203.012.334.083.477.155.262.155.489.333.691.465.215.13.394.155.585.071a4.25 4.25 0 00.703-.405 2.33 2.33 0 01.847-.358c.286-.06.596-.036.81-.036.132 0 .203-.011.299-.035a.46.46 0 00.226-.12c.12-.107.155-.286.167-.44 0-.156-.036-.31-.083-.418-.084-.227-.191-.334-.191-.334s.024.024.083.06c.048.047.131.119.203.226.072.108.143.263.179.441.036.18.047.441-.131.668-.155.227-.477.334-.728.346-.274.024-.5.036-.739.095-.238.06-.441.18-.667.322a5.34 5.34 0 01-.776.465.992.992 0 01-.56.072 1.496 1.496 0 01-.489-.191c-.274-.167-.465-.37-.667-.5a.951.951 0 00-.263-.12c-.024-.012-.143-.012-.155-.012-.071 0-.143.012-.214 0a1.5 1.5 0 01-.74-.227.949.949 0 01-.405-.524 1.195 1.195 0 01-.036-.489c.048-.25.131-.37.12-.37z" fill="#E8A680"/><path d="M18.155 30.93c-.417-.334-.632-.06-1.049-.394-.417-.334-.19-.608-.608-.942-.417-.333-.632-.06-1.05-.393l-.595-.477-.716-.584-.071-.06a.109.109 0 00-.143.012l-.143.179a.108.108 0 00.012.143l.071.06.716.584.596.477c.417.334.632.06 1.049.393.417.334.19.608.608.942.417.334.632.06 1.05.394.405.322.202.596.595.918 0 .012 0 .012.012.024l.25.202c.072.12.55.859.895.441.346-.429-.489-.727-.62-.775l-.25-.202c-.012 0-.012 0-.024-.012v-.012c-.394-.262-.18-.596-.585-.918z" fill="#47ACD1"/><path opacity=".5" d="M19.705 32.706c-.345.43-.822-.322-.894-.44l-.25-.203s0-.012-.012-.024c-.382-.322-.179-.596-.596-.918-.418-.334-.632-.06-1.05-.394-.417-.334-.19-.608-.608-.942-.417-.334-.632-.06-1.049-.393l-.596-.477-.715-.584-.072-.06c-.012-.012-.024-.036-.036-.048l-.035.048a.109.109 0 00.011.143l.072.06.716.584.596.477c.417.334.632.06 1.049.393.417.334.19.608.608.942.417.334.632.06 1.05.394.405.322.202.596.595.918 0 .012 0 .012.012.024l.25.202c.072.12.55.859.895.441a.435.435 0 00.083-.166c-.012 0-.024.011-.024.023z" fill="#47ACD1"/><path d="M17.893 32.312c-.381-.37-.62-.119-1.002-.488-.381-.37-.13-.62-.512-.99s-.62-.12-1.002-.489l-.548-.536-.656-.644-.072-.072a.109.109 0 00-.143 0l-.155.167a.109.109 0 000 .143l.072.072.656.644.548.536c.382.37.62.12 1.002.489.381.37.13.62.512.99s.62.119 1.002.488c.37.37.143.608.5.978 0 .012 0 .012.013.024l.226.226c.06.132.465.919.847.525.381-.393-.406-.775-.537-.834l-.226-.227s-.012 0-.024-.012v-.012c-.382-.31-.131-.608-.501-.978z" fill="#47ACD1"/><path opacity=".5" d="M19.252 34.232c-.381.393-.787-.394-.846-.525l-.227-.226s0-.012-.012-.024c-.357-.358-.13-.608-.5-.978-.382-.37-.62-.12-1.002-.489-.382-.37-.131-.62-.513-.99-.381-.369-.62-.119-1.001-.488l-.549-.537-.655-.644-.072-.071a.091.091 0 01-.024-.06l-.048.048a.109.109 0 000 .143l.072.072.656.643.548.537c.382.37.62.12 1.002.489.381.37.13.62.512.99.382.369.62.119 1.002.488.37.37.143.608.5.978 0 .012 0 .012.013.024l.226.226c.06.131.465.918.847.525a.4.4 0 00.095-.167c-.012.012-.012.024-.024.036z" fill="#47ACD1"/><path d="M56.19 26.888c.417-.334.632-.06 1.05-.394.416-.334.19-.608.607-.942.417-.333.632-.06 1.05-.393l.596-.477.715-.584.072-.06a.109.109 0 01.143.012l.143.179a.108.108 0 01-.012.143l-.072.06-.715.584-.596.477c-.418.334-.632.06-1.05.393-.417.334-.19.608-.608.942-.417.334-.632.06-1.049.394-.405.322-.203.596-.596.918 0 0 0 .012-.012.024l-.25.202c-.072.12-.549.859-.895.441-.345-.429.49-.727.62-.775l.25-.202c.013 0 .013 0 .025-.012v-.012c.405-.262.178-.596.584-.918z" fill="#47ACD1"/><path opacity=".5" d="M54.652 28.665c.346.429.822-.322.894-.442l.25-.202s0-.012.012-.024c.382-.322.18-.596.596-.918.418-.334.632-.06 1.05-.394.417-.334.19-.608.608-.942.417-.333.632-.06 1.049-.393l.596-.477.716-.584.071-.06c.012-.012.024-.036.036-.048l.048.048a.109.109 0 01-.012.143l-.072.06-.715.584-.596.477c-.418.334-.632.06-1.05.393-.417.334-.19.608-.608.942-.417.334-.632.06-1.049.394-.405.322-.203.596-.596.918 0 0 0 .012-.012.024l-.25.202c-.072.12-.549.859-.895.442a.435.435 0 01-.083-.167s0 .012.012.024z" fill="#47ACD1"/><path d="M56.524 27.973c.417-.334.632-.06 1.049-.393.417-.334.19-.608.608-.942.417-.334.632-.06 1.05-.394l.595-.477.716-.584.071-.06a.109.109 0 01.143.012l.143.18a.108.108 0 01-.011.142l-.072.06-.716.584-.596.477c-.417.334-.631.06-1.049.393-.417.334-.19.608-.608.942-.417.334-.632.06-1.05.394-.404.322-.202.596-.595.918 0 0 0 .012-.012.024l-.25.203c-.072.119-.55.858-.895.44-.346-.429.489-.727.62-.774l.25-.203h.024v-.012c.394-.274.18-.608.585-.93z" fill="#47ACD1"/><path opacity=".5" d="M54.986 29.75c.346.429.823-.322.894-.442l.25-.202s0-.012.012-.024c.382-.322.18-.596.596-.918.418-.334.632-.06 1.05-.394.417-.333.19-.608.608-.942.417-.333.632-.06 1.049-.393l.596-.477.716-.584.071-.06c.012-.012.024-.035.036-.047l.036.047a.109.109 0 01-.012.143l-.072.06-.715.584-.596.477c-.418.334-.632.06-1.05.394-.417.333-.19.608-.608.941-.417.334-.632.06-1.049.394-.405.322-.203.596-.596.918 0 0 0 .012-.012.024l-.25.203c-.072.119-.549.858-.895.44a.435.435 0 01-.083-.166l.024.024z" fill="#47ACD1"/><path d="M63.713 73.352c1.097 2.647 4.078 16.787 4.865 23.393.775 6.617.453 20.77 6.402 25.682 5.95 4.912 9.431 2.909 10.516 1.204 1.097-1.705 1.968-6.403 1.515-10.063-.346-2.802-2.158-8.394-4.817-14.367-3.41-7.655-10.29-21.462-11.053-23.894-.751-2.42-7.428-1.955-7.428-1.955z" fill="#F2BB99"/><path d="M71.141 75.32c-.62-1.741-.143-3.41-.823-4.269-.68-.858-1.68-2.48-1.99-4.495-.31-2.015-.025-5.938.142-6.856.155-.93.823-4.28-.06-5.079-.882-.799-1.847-4.018-2.324-5.723-.477-1.705-2.04-4.173-2.492-4.793-.453-.62-3.816-4.09-4.114-4.018-.298.083-1.144.906-.405 2.385 0 0-.918-.954-1.073-.954-.143-.012-1.371 1.335.107 2.814 1.479 1.478 3.506 4.268 3.673 4.769.167.5 1.001 3.41 1.001 3.41s-1.74-1.944-2.873-2.659c-1.133-.715-4.185-2.253-4.543-1.98-.358.275-.334 1.36 1.884 2.683 2.23 1.336 3.064 2.719 3.064 2.719s1.276 2.253 1.288 2.897c.012.644.19 2.23-.632 4.34-.835 2.11-1.3 4.734 1.252 9.288 2.551 4.555 3.648 11.768 3.648 11.768l6.904-2.349-1.634-3.898z" fill="#F2BB99"/><path opacity=".5" d="M59.087 42.483s.143.18.405.477c.275.286.644.716 1.133 1.193a54.839 54.839 0 011.61 1.645c.286.31.56.632.822.978.132.167.25.357.358.524.12.203.203.394.298.585.382.798.716 1.645 1.038 2.42.322.787.62 1.514.882 2.146.25.632.489 1.145.644 1.514l.262.56-.167-.596c-.107-.381-.25-.93-.453-1.573-.203-.644-.43-1.407-.715-2.206a31.587 31.587 0 00-.99-2.48 14.165 14.165 0 00-.322-.608 7.222 7.222 0 00-.405-.584 10.45 10.45 0 00-.895-.99c-.608-.608-1.24-1.097-1.752-1.538-1.061-.894-1.753-1.467-1.753-1.467zm6.129 13.08l-2.73-3.362c.19.202.31.334.31.334s-.168-.585-.37-1.264l2.79 4.292z" fill="#E8A680"/><path d="M59.564 52.379c.537.548.763.93.763.93s1.276 2.253 1.288 2.897c0 .417.083 1.24-.084 2.349-.262-.763-1.097-2.253-1.514-2.91-.417-.643-1.204-1.812-1.18-2.443 0-.549.357-.752.727-.823z" fill="#F2BB99"/><path opacity=".5" d="M59.564 52.379c.537.548.763.93.763.93s1.276 2.253 1.288 2.897c0 .417.083 1.24-.084 2.349-.262-.763-1.097-2.253-1.514-2.91-.417-.643-1.204-1.812-1.18-2.443 0-.549.357-.752.727-.823z" fill="#E8A680"/><path d="M61.293 41.672c-.179.537-.763.656-1.371.084-.823-.775-.895-1.276-.74-1.562.155-.274.513-.107.954.262.465.37 1.216 1.05 1.157 1.216zm-1.407 1.503c-.203.525-.787.632-1.371.024-.787-.81-.835-1.312-.668-1.586.155-.274.513-.083.942.298.43.382 1.157 1.097 1.097 1.264zm-2.218 5.52c-.012.56-.524.858-1.276.489-1.013-.5-1.228-.954-1.168-1.264.06-.31.453-.25.99-.036.536.215 1.466.644 1.454.811z" fill="#F6D9C5"/></g><defs><radialGradient id="paint2_radial" cx="0" cy="0" r="1" gradientUnits="userSpaceOnUse" gradientTransform="matrix(17.36676 2.1036 -1.29139 10.66137 40.617 17.859)"><stop stop-color="#E8A680"/><stop offset="1" stop-color="#fff"/></radialGradient><radialGradient id="paint3_radial" cx="0" cy="0" r="1" gradientUnits="userSpaceOnUse" gradientTransform="rotate(-27.509 57.529 -45.221) scale(11.5693 8.54133)"><stop stop-color="#E8A680"/><stop offset="1" stop-color="#fff"/></radialGradient><radialGradient id="paint6_radial" cx="0" cy="0" r="1" gradientUnits="userSpaceOnUse" gradientTransform="matrix(17.36676 2.1036 -1.29139 10.66137 40.617 17.329)"><stop stop-color="#E8A680"/><stop offset="1" stop-color="#fff"/></radialGradient><radialGradient id="paint7_radial" cx="0" cy="0" r="1" gradientUnits="userSpaceOnUse" gradientTransform="rotate(-27.509 56.446 -45.486) scale(11.5693 8.54133)"><stop stop-color="#E8A680"/><stop offset="1" stop-color="#fff"/></radialGradient><linearGradient id="paint0_linear" x1="38.38" y1="70.175" x2="38.38" y2="61.227" gradientUnits="userSpaceOnUse"><stop stop-color="#F2BB99"/><stop offset="1" stop-color="#E8A680"/></linearGradient><linearGradient id="paint1_linear" x1="38.516" y1="71.559" x2="38.524" y2="61.502" gradientUnits="userSpaceOnUse"><stop stop-color="#F2BB99"/><stop offset="1" stop-color="#E8A680"/></linearGradient><linearGradient id="paint4_linear" x1="38.38" y1="69.645" x2="38.38" y2="60.697" gradientUnits="userSpaceOnUse"><stop stop-color="#F2BB99"/><stop offset="1" stop-color="#E8A680"/></linearGradient><linearGradient id="paint5_linear" x1="38.516" y1="71.029" x2="38.524" y2="60.972" gradientUnits="userSpaceOnUse"><stop stop-color="#F2BB99"/><stop offset="1" stop-color="#E8A680"/></linearGradient></defs></svg>