<svg width="76" height="84" viewBox="0 0 76 84" fill="none" xmlns="http://www.w3.org/2000/svg"><mask id="mask0" maskUnits="userSpaceOnUse" x="3" y="14" width="70" height="70"><circle r="34.47" transform="matrix(-1 0 0 1 37.97 49.106)" fill="#FFD15A"/></mask><g mask="url(#mask0)"><circle r="34.47" transform="matrix(-1 0 0 1 37.97 49.636)" fill="#FFD15A"/><path opacity=".8" d="M19.479 42.991c-1.928 1.735-.513 8.88 4.695 10.533 5.197 1.653 1.415-8.921 1.415-8.921l-6.11-1.612zm37.817-2.731c-1.896.934-4.264 8.562-2.04 8.275 2.225-.288 4.132-5.544 4.132-5.544l-2.092-2.73z" fill="#EAA24B"/><path d="M54.047 42.088c.297-1.499.963-2.454 1.937-2.351.974.103 1.979 2.454 1.487 4.21-.492 1.755-1.282 2.032-1.005 3.222.277 1.191-1.579 3.43-2.255 1.592-.677-1.828-.164-6.673-.164-6.673z" fill="#F2BB99"/><path opacity=".5" d="M54.047 42.088c.297-1.499.963-2.454 1.937-2.351.974.103 1.979 2.454 1.487 4.21-.492 1.755-1.282 2.032-1.005 3.222.277 1.191-1.579 3.43-2.255 1.592-.677-1.828-.164-6.673-.164-6.673z" fill="#E8A680"/><path d="M55.984 39.747c-.84-.092-1.446.606-1.794 1.745l.574 3.162c-.144-1.365.482-5.687 2.532-3.377-.307-.842-.81-1.479-1.312-1.53zm-33.256 2.392c-.297-1.499-.963-2.454-1.937-2.35-.974.102-1.979 2.453-1.487 4.208.492 1.755 1.282 2.033 1.005 3.224-.277 1.19 1.579 3.428 2.255 1.59.677-1.827.164-6.672.164-6.672z" fill="#F2BB99"/><path opacity=".5" d="M22.728 42.139c-.297-1.499-.963-2.454-1.937-2.35-.974.102-1.979 2.453-1.487 4.208.492 1.755 1.282 2.033 1.005 3.224-.277 1.19 1.579 3.428 2.255 1.59.677-1.827.164-6.672.164-6.672z" fill="#E8A680"/><path d="M20.79 39.798c.841-.092 1.446.606 1.795 1.745l-.574 3.162c.153-1.355-.482-5.687-2.532-3.377.307-.842.82-1.479 1.312-1.53z" fill="#F2BB99"/><path d="M46.665 60.135L39.1 62.496l-7.566-1.406c1.179 2.977.287 8.941-3.475 10.964H50.12c-3.742-2.023-4.634-8.942-3.455-11.919z" fill="url(#paint0_linear)"/><path d="M39.828 64.94c2.624 0 7.555-4.548 10.046-7.176 2.491-2.628 5.464-6.303 5.72-11.816.267-5.513-.081-14.701-1.127-19.7-1.046-4.99-8.263-11.16-15.992-10.636-7.74.524-17.869 5.39-17.059 16.785.82 11.477.072 14.844 1.21 19.177 1.353 5.184 9.944 13.366 17.202 13.366z" fill="#F2BB99"/><path d="M26.1 39.45l.257-.144c.154-.093.39-.216.677-.36.574-.277 1.394-.605 2.265-.646.216-.021.43 0 .646.01.205.03.42.061.615.113.195.061.38.102.544.195.164.082.328.143.46.236.134.092.257.164.36.236.102.082.184.154.256.216l.215.184-.236-.174c-.071-.051-.163-.123-.266-.195-.113-.062-.236-.134-.38-.206-.133-.082-.297-.133-.46-.205-.165-.072-.35-.102-.534-.154-.184-.04-.39-.051-.584-.072-.205.01-.41 0-.605.031-.82.093-1.568.462-2.101.76-.267.154-.482.297-.636.4a4.048 4.048 0 01-.246.154l-.246-.38z" fill="#E8A680"/><path d="M25.588 42.098c-.143-.431-1.68-1.376-1.865-3.09 0 0 .912.482 3.034.205 2.132-.277 3.322-.277 4.665.719 1.353.995 1.824 2.72 1.855 4.209.02 1.211-7.689-2.043-7.689-2.043z" fill="#4D2F0E"/><path d="M25.435 41.615s.184 3.45 2.716 4.343c2.543.893 4.593-.493 4.593-.493l-7.31-3.85z" fill="#4D2F0E"/><path d="M33.38 45.106c-.964.739-3.599 1.314-5.547.236-1.947-1.078-2.614-4.538-2.614-4.538s2.368-.913 4.183-.718c1.814.184 3.906 2.094 3.977 5.02z" fill="#fff"/><path d="M29.822 45.198a2.742 2.742 0 003.065-2.3c-.738-1.652-2.183-2.679-3.485-2.812-.164-.02-.328-.02-.492-.02a2.748 2.748 0 00-1.446 2.063 2.75 2.75 0 002.358 3.07z" fill="#47ACD1"/><path d="M31.8 42.693a1.62 1.62 0 01-1.824 1.397 1.621 1.621 0 01-1.394-1.828 1.62 1.62 0 011.825-1.396c.881.113 1.507.934 1.394 1.827z" fill="#593515"/><path d="M30.089 41.913a.773.773 0 01-.872.667.774.774 0 01-.666-.872.768.768 0 01.871-.667c.42.05.718.441.667.872z" fill="#fff"/><path opacity=".3" d="M56.107 48.186c.246 2.002-2.665 3.993-6.5 4.455-3.823.462-7.124-.78-7.37-2.772-.246-2.002 2.665-3.993 6.5-4.455 3.823-.462 7.124.78 7.37 2.772z" fill="url(#paint1_radial)"/><path opacity=".3" d="M59.47 25.94c.471 5.081-4.829 9.485-14.537 10.378-9.708.893-17.96-2.494-18.432-7.586-.472-5.082 7.022-9.938 16.74-10.83 9.709-.894 15.757 2.956 16.229 8.037z" fill="url(#paint2_radial)"/><path opacity=".3" d="M34.405 26.884c1.876 3.603-.554 8.582-5.434 11.128-4.869 2.536-10.343 1.684-12.22-1.92-1.875-3.603.554-8.582 5.434-11.128 4.88-2.535 10.344-1.673 12.22 1.92z" fill="url(#paint3_radial)"/><path opacity=".3" d="M21.088 48.144c-.246 2.002 2.737 4.004 6.663 4.476 3.916.473 7.29-.76 7.535-2.75.246-2.003-2.737-4.005-6.663-4.477-3.916-.482-7.289.76-7.535 2.751z" fill="url(#paint4_radial)"/><path d="M50.879 39.87s-.092-.061-.236-.164a19.717 19.717 0 00-.635-.41c-.523-.309-1.282-.678-2.092-.78-.205-.042-.41-.032-.605-.042-.194.02-.4.02-.584.062-.184.051-.38.072-.533.143-.164.072-.328.113-.461.195l-.38.206c-.102.072-.194.144-.266.195-.154.102-.236.164-.236.164s.082-.072.226-.185c.071-.061.153-.133.256-.215.113-.072.236-.144.369-.236.133-.093.297-.154.461-.236.164-.093.36-.124.544-.196.194-.05.4-.082.615-.112.215 0 .43-.031.645 0 .872.04 1.692.38 2.266.667.287.144.523.277.677.37l.256.143-.287.431z" fill="#E8A680"/><path d="M51.617 42.129c.144-.431 1.692-1.355 1.897-3.07 0 0-.913.473-3.045.175-2.122-.308-3.311-.308-4.675.677-1.353.986-1.855 2.7-1.886 4.189-.03 1.211 7.71-1.971 7.71-1.971z" fill="#4D2F0E"/><path d="M51.781 41.646s-.205 3.45-2.758 4.322c-2.552.872-4.582-.534-4.582-.534l7.34-3.788z" fill="#4D2F0E"/><path d="M43.795 45.065c.964.75 3.588 1.345 5.546.287 1.958-1.057 2.655-4.517 2.655-4.517s-2.358-.934-4.172-.76c-1.814.165-3.926 2.064-4.029 4.99z" fill="#fff"/><path d="M47.352 45.188a2.733 2.733 0 01-3.044-2.33c.758-1.643 2.204-2.66 3.506-2.783.164-.01.328-.02.492-.02a2.735 2.735 0 011.425 2.073 2.738 2.738 0 01-2.379 3.06z" fill="#47ACD1"/><path d="M45.405 42.662a1.627 1.627 0 103.229-.4 1.627 1.627 0 10-3.23.4z" fill="#593515"/><path d="M45.272 42.282c.05.432.44.73.87.678a.777.777 0 00.677-.873.777.777 0 00-.87-.677.797.797 0 00-.677.872z" fill="#fff"/><path d="M40.935 42.283s-.02.102-.072.287a9.052 9.052 0 00-.123.76c-.041.308-.082.677-.113 1.078-.03.39-.061.81-.082 1.232-.03.42-.04.841-.051 1.242-.01.39-.01.76-.01 1.078a14.144 14.144 0 00.04 1.057s-.03-.103-.071-.287c-.02-.093-.041-.206-.072-.329a4.207 4.207 0 01-.072-.431 13.207 13.207 0 01-.061-2.35c.02-.432.062-.853.123-1.253.061-.4.123-.77.205-1.078.072-.308.174-.565.236-.74.072-.164.123-.266.123-.266zm-4.715 9.003s0 .03-.011.092c-.01.062-.01.154-.01.257.01.113.03.246.102.37a.765.765 0 00.339.307 1.144 1.144 0 00.697.072c.092-.01.112-.02.205-.01.184.01.307.072.43.144.246.144.441.308.636.42.195.114.359.145.533.062.226-.102.42-.215.646-.37a2.06 2.06 0 01.769-.318 3.07 3.07 0 01.738-.03c.123 0 .184-.01.277-.031a.444.444 0 00.205-.113c.112-.103.143-.267.143-.41 0-.144-.03-.278-.072-.38-.071-.216-.174-.308-.174-.308s.03.02.072.061a.96.96 0 01.184.206c.062.102.134.236.164.41.031.164.041.4-.112.606-.144.205-.441.297-.667.318-.246.02-.45.03-.666.082-.215.052-.4.154-.605.298a4.293 4.293 0 01-.707.42 1.075 1.075 0 01-.513.073 1.476 1.476 0 01-.45-.175c-.247-.154-.421-.339-.606-.452a.95.95 0 00-.236-.112c-.02-.01-.123 0-.143-.01-.062 0-.133.01-.195 0a1.314 1.314 0 01-.676-.206.852.852 0 01-.37-.472 1.13 1.13 0 01-.03-.442c.04-.246.113-.349.102-.36z" fill="#E8A680"/><path d="M32.744 54.95c1.958.237 4.736-.328 5.895-.03 1.148.308 1.496-.062 2.06-.144.738-.102 4.562.318 5.382.031 0 0-2.932 2.115-5.495 2.29-2.573.174-6.92-1.274-6.92-1.274l-.922-.872z" fill="#E49084"/><path d="M32.744 54.951c.143.873 1.989 5.39 6.663 5.318 4.665-.072 6.674-5.462 6.674-5.462l-6.407 3.203-6.93-3.059z" fill="#E49084"/><path d="M32.744 54.951c1.117.637 4.418 1.15 7.35 1.037 2.922-.113 5.239-.821 5.987-1.17 0 0-2.42 3.973-6.756 3.942-4.408-.03-6.581-3.809-6.581-3.809z" fill="#812A1F"/><path d="M44.277 56.05a3.23 3.23 0 00.154-.689 20.4 20.4 0 01-4.337.627c-2.08.082-4.357-.154-5.894-.524.01.287.8 1.324 1.527 1.591.738.267 3.322.616 5.546.277 2.225-.338 2.84-.883 3.004-1.283z" fill="#fff"/><path d="M43.96 56.45c-.093-.062-8.592.236-8.735.318-.093.051-.257.267-.37.452 1.077.81 2.564 1.519 4.47 1.53 2.143.01 3.814-.945 4.962-1.92-.092-.216-.256-.329-.328-.38z" fill="#fff"/><path opacity=".5" d="M35.225 56.778s.523.205 1.343.37c.205.05.43.082.666.123.236.03.492.072.748.082.523.051 1.087.051 1.64.03.278 0 .554-.04.831-.06.277-.032.543-.073.8-.114.256-.04.502-.103.738-.154.236-.04.45-.123.646-.174.194-.062.39-.103.543-.165.164-.061.297-.102.41-.143.226-.083.359-.123.359-.123s-.133.05-.349.143c-.112.041-.246.103-.41.164-.154.072-.338.113-.543.185-.205.062-.41.134-.656.185-.236.051-.482.113-.738.164-.257.041-.533.093-.8.123-.277.021-.553.062-.84.072a12.6 12.6 0 01-1.651-.051c-.267-.02-.513-.062-.759-.092-.235-.052-.46-.083-.666-.134-.81-.205-1.312-.431-1.312-.431z" fill="#812A1F"/><path d="M46.43 22.562s-.01.092-.031.256c-.01.154-.051.431-.051.657 0 .124-.01.257-.01.411l.03.524c.02.184.051.38.072.585.041.205.092.42.133.646.123.452.277.935.513 1.417.215.503.523.996.85 1.499.35.493.739.996 1.19 1.458.225.236.45.472.697.688.236.236.502.441.759.657.256.215.533.41.8.616.286.205.563.41.84.616.564.42 1.117.862 1.63 1.303.502.462.984.924 1.394 1.417.41.503.738 1.027.984 1.53.246.503.42.965.585 1.355.153.4.297.739.42 1.006.113.277.225.492.287.636.072.144.102.226.102.226l-.676.37s-.041-.083-.123-.226a18.03 18.03 0 01-.349-.637 30.534 30.534 0 01-.502-1.006c-.185-.38-.39-.81-.636-1.242a6.574 6.574 0 00-.943-1.252c-.38-.411-.85-.801-1.343-1.18-.512-.38-1.045-.75-1.62-1.12-.287-.185-.584-.37-.881-.554-.297-.206-.615-.38-.913-.606-.297-.215-.594-.42-.881-.657a13.709 13.709 0 01-.83-.708 14.282 14.282 0 01-1.487-1.571c-.43-.554-.84-1.119-1.148-1.714-.328-.575-.564-1.17-.77-1.715-.081-.277-.163-.554-.235-.81a31.497 31.497 0 00-.154-.75c-.03-.236-.061-.462-.082-.668-.02-.215-.02-.42-.03-.605-.02-.39 0-.585 0-.76 0-.164.01-.256.01-.256l2.399.164z" fill="#593515"/><path d="M34.856 19.215c-5.208.277-13.84 8.788-15.531 16.744-.041.185-.072.36-.103.534a25.942 25.942 0 002.902 1.755c1.076-9.814 22.307-3.12 23.537-14.762-.01.01-5.597-4.548-10.805-4.27z" fill="#593515"/><path d="M42.719 33.854c-.164.041-.451.226-.523.473-.195.698-.103 1.54.307 1.509.605-.031 5.32-1.099 6.859-.308 2.02 1.037 4.439 2.73 4.439 2.73s-1.24-2.782-4.603-4.404c-2.06-.995-5.516-.267-6.48 0zm-8.202.566c.164.05.533.091.615.512.144.709.154 1.52-.43 1.438-.492-.072-5.157-1.017-6.817-.421-1.856.667-5.054 2.464-5.054 2.464s2.686-3.275 5.33-4.117c2.245-.719 5.382-.195 6.356.123z" fill="#4D2F0E"/><path d="M22.718 51.943c-1.64-1.622-3.937-4.148-3.383-5.143.85-1.52 3.69-6.427 5.966-11.837 2.276-5.41 9.934-9.64 16.464-10.4 6.53-.76 14.855-7.699 14.29-12.678-.563-4.99-7-9.722-11.358-10.913C42.35.336 39.08 2.317 35.102 3.2c-3.393.75-7.473.298-9.995 1.15-5.485 1.858-7.381 6.93-6.244 8.202 0 0-9.749 8.285-3.977 11.837 0 0-3.311 7.104-1.23 13.11 2.08 6.005.666 7.104 2.747 10.399 1.487 2.35 5.382 5.133 7.494 6.54-.523-.873-.923-1.715-1.179-2.495z" fill="#FFDE80"/><path d="M55.882 13.815l-12.435 10.42c4.387 1.242 5.997 9.537 9.216 12.833 3.219 3.295 5.966 5.071 5.484 7.186-.277 1.242-1.763 3.162-2.952 4.527-.185.78-.42 1.52-.697 2.218 2.378-1.94 6.817-6.078 6.96-10.04.185-5.41-.092-10.236.667-11.755.39-.79-1.077-5.4-2.799-9.178-1.6-3.49-3.444-6.21-3.444-6.21z" fill="#FFDE80"/><path opacity=".6" d="M61.745 30.733c.082-.667.205-1.18.38-1.53.092-.194.061-.595-.062-1.139l-8.837-4.958c2.42 1.632 6.243 5.338 8.52 7.627zm-1.917 6.889c-.471 1.858-7.699-4.65-9.687-8.038-1.917-3.265-3.107-4.076-6.326-5.226 4.111 1.592 5.72 9.507 8.848 12.71 3.219 3.295 5.966 5.071 5.484 7.186-.277 1.242-1.763 3.162-2.952 4.527-.185.78-.42 1.52-.697 2.217 2.378-1.94 6.817-6.077 6.96-10.04.103-2.792.072-5.42.123-7.524-.02.082-1.291 2.35-1.753 4.188z" fill="#FFB95C"/><path opacity=".8" d="M55.205 48.781c-.185.78-.42 1.52-.697 2.217 2.173-1.765 6.069-5.379 6.827-9.013-1.281 1.273-1.814-.441-4.838-2.546-3.21-2.238-6.264-6.077-7.402-8.357 1.128 2.28 2.204 4.59 3.568 5.986 3.219 3.295 5.966 5.07 5.484 7.186-.277 1.242-1.763 3.162-2.942 4.527z" fill="#EAA24B"/><path d="M55.02 49.459c.749-.082 1.61-1.407 1.446-2.249-.42.555-.8.852-1.21 1.325-.051.236-.164.708-.236.924z" fill="#F2BB99"/><path opacity=".5" d="M55.02 49.459c.749-.082 1.61-1.407 1.446-2.249-.42.555-.8.852-1.21 1.325-.051.236-.164.708-.236.924z" fill="#E8A680"/><path opacity=".6" d="M19.407 20.878c-2.758-.144-5.998-1.211-5.372-2.648-1.24 2.238-1.62 4.63.86 6.149 3.66.616 19.643-4.148 19.643-4.148-5.751 1.027-10.6.873-15.131.647z" fill="#FFB95C"/><path opacity=".8" d="M18.69 22.46c3.464-.175 6.888-.658 6.888-.658s-3.455.246-6.9.185c-1.721-.031-3.444-.144-4.674-.39a6.883 6.883 0 01-.943-.247c0 .319.041.627.123.924.215.041.451.082.697.113 1.333.175 3.076.165 4.808.072z" fill="#EAA24B"/><path opacity=".6" d="M56.24 18.476c.923.236 3.763 4.21 4.9 6.098a51.816 51.816 0 00-1.814-4.548 46.504 46.504 0 00-3.444-6.21l-1.692 3.213-6.212 5.307c6.058-2.279 7.073-4.168 8.262-3.86z" fill="#FFB95C"/><path opacity=".8" d="M59.326 20.026c-1.589-3.49-3.434-6.21-3.444-6.21-.84 3.038-4.132 6.375-7.894 8.52a45.29 45.29 0 001.569-.626c3.003-1.848 5.433-4.26 6.253-4.815 1.025-.688 2.963 2.023 3.66 3.46a3.182 3.182 0 01-.144-.329z" fill="#EAA24B"/><path opacity=".6" d="M28.213 10.88c-2.01-.401-8.745-1.951-6.848-4.394-1.025.903-1.763 1.92-2.225 2.864-.01.01-.01.02-.02.03-.01.021-.02.052-.041.072-.01.021-.01.031-.02.052-.011.03-.021.051-.032.082-.01.02-.01.03-.02.051-.01.031-.02.052-.03.082-.011.02-.011.031-.021.052-.01.03-.02.051-.031.082-.01.01-.01.03-.02.04-.01.032-.021.052-.031.083-.01.01-.01.03-.02.041-.011.03-.021.051-.032.082 0 .01-.01.02-.01.031a.501.501 0 01-.04.113v.01c-.011.041-.021.082-.042.113-.287.975-.236 1.776.133 2.187 2.492 1.92 7.945 1.098 16.085.636 8.14-.462 10.692 3.84 10.692 3.84-1.906-4.415-10.487-5.482-17.427-6.15z" fill="#FFB95C"/><path opacity=".6" d="M56.066 11.875c-.164-1.427-.81-2.833-1.743-4.147 1.64 2.392 1.661 5.318.093 8.038-.02-1.088-.339-6.632-4.665-8.664 4.214 2.617 2.83 10.83-.123 13.232.03-.318.164-2.617-1.127-4.383.512 1.899.594 4.527-2.143 6.036-.492.195-.994.37-1.527.544-2.225.709-5.29.801-7.115 1.242-8.57 2.054-13.04 2.32-16.32 8.624-3.066 5.892-5.67 8.15-7.28 6.54 1.395 4.763.38 5.943 2.277 8.951 1.486 2.35 5.382 5.133 7.494 6.54-.523-.863-.933-1.705-1.18-2.485-1.64-1.622-3.936-4.147-3.382-5.143.85-1.52 3.69-6.427 5.966-11.837 2.276-5.41 9.934-9.64 16.464-10.4l.267-.03c.01 0 .03 0 .04-.01 6.5-.945 14.568-7.74 14.004-12.648z" fill="#FFB95C"/><path opacity=".8" d="M21.365 39.86c-2.932 6.53-4.93 8.161-2.706 10.574 1.732 1.58 3.864 3.09 5.238 4.004-.523-.863-.933-1.705-1.179-2.485-1.64-1.622-3.936-4.147-3.383-5.143.851-1.52 3.69-6.426 5.967-11.837 1.086-2.597 3.424-4.927 6.284-6.724-3.311 1.55-7.289 5.072-10.221 11.611z" fill="#EAA24B"/><path opacity=".6" d="M19.263 28.105c.328-.195.646-.38.943-.554.298-.174.605-.318.872-.462.533-.287 1.015-.482 1.332-.636.329-.144.513-.236.513-.236s-.195.061-.543.154c-.338.102-.84.225-1.425.441-.287.103-.615.195-.943.328-.328.134-.677.278-1.036.421-.348.165-.717.329-1.086.514-.36.195-.739.37-1.097.595-.36.205-.718.431-1.066.667-.349.226-.677.473-.995.698-.318.237-.615.473-.892.688-.277.216-.533.431-.769.596-.01 0-.01.01-.02.01a16.626 16.626 0 00-.082 2.156.938.938 0 00.133-.082c.103-.082.215-.165.338-.257.226-.185.462-.4.687-.626.236-.226.451-.472.697-.73.236-.256.492-.512.759-.78.267-.256.543-.533.83-.79.287-.267.595-.523.913-.77.307-.256.635-.482.953-.718.328-.206.666-.41.984-.627z" fill="#FFB95C"/><path opacity=".8" d="M14.886 42.478c.236 1.704.225 2.823.892 4.28a.706.706 0 01-.031-.081c-.656-1.212 6.838-12.566 6.838-12.566s-5.977 8.408-7.7 8.367z" fill="#EAA24B"/><path d="M23.097 56.47c-.195-.349-.4-.8-.533-1.345a5.796 5.796 0 01-.133-1.827c.051-.678.205-1.406.39-2.187.184-.78.379-1.632.47-2.556a8.288 8.288 0 00-.214-2.905c-.052-.246-.144-.493-.226-.74-.092-.225-.164-.43-.266-.656a9.929 9.929 0 01-.42-1.232 13.835 13.835 0 01-.216-.986 72.05 72.05 0 01-1.025 1.92c.113.298.236.595.38.883l.307.616c.071.185.164.37.225.575.287.79.39 1.632.38 2.464-.01.831-.134 1.663-.236 2.464-.103.8-.185 1.59-.154 2.32.03.728.154 1.406.38 1.96.215.555.491.996.737 1.325.246.338.472.575.626.728l.236.237s-.072-.093-.195-.277a4.623 4.623 0 01-.513-.78z" fill="#593515"/><path d="M44.03 25.457s-.01.061-.04.185a2.277 2.277 0 01-.195.523c-.205.442-.636 1.017-1.282 1.55-.635.544-1.476 1.037-2.409 1.468-.933.421-1.968.77-3.014 1.027a20.04 20.04 0 01-3.126.513c-.482.041-.954.082-1.395.123-.44.052-.86.103-1.25.144a22.68 22.68 0 00-1.866.308 9.367 9.367 0 00-.707.185s.184-.195.594-.452a8.77 8.77 0 011.774-.842c.379-.143.8-.277 1.25-.39.226-.061.462-.113.698-.174.235-.052.46-.103.717-.154a73.25 73.25 0 002.952-.637 40.449 40.449 0 002.892-.81c.45-.155.891-.298 1.291-.463.4-.164.78-.328 1.118-.503.666-.349 1.189-.718 1.496-1.037.154-.164.277-.287.349-.4.113-.113.154-.164.154-.164z" fill="#6E431E"/><path d="M42.309 26.432s-.113.092-.308.236a6.61 6.61 0 01-.902.493c-.39.174-.85.349-1.353.503a17.26 17.26 0 01-1.6.42c-1.096.227-2.214.37-3.054.411-.84.041-1.405-.01-1.405-.01s.544-.103 1.374-.257c.41-.082.882-.174 1.394-.277.513-.102 1.056-.205 1.59-.328a45.689 45.689 0 002.952-.709c.194-.061.379-.113.543-.164.154-.061.297-.113.41-.154.225-.113.359-.164.359-.164z" fill="#6E431E"/><path d="M-2.85 96.374s13.502-20.07 16.988-24.197c3.71-4.394 9.154-2.73 14.188-2.35 1.158.091 2.47-.627 3.003-1.808l8.499.698v21.395L20.38 88.069s-1.323.318-3.066 1.97c-2.552 2.434-6.058 5.924-7.862 8.388-3.025 4.137-13.01 16.415-13.01 16.415l.708-18.468z" fill="#F2BB99"/><path d="M47.014 68.02c.974 1.395 3.096 1.898 4.306 1.806 5.033-.39 10.958-2.053 14.66 2.351 3.474 4.127 14.351 42.675 14.351 42.675s-10.118-6.015-13.142-10.153c-3.024-4.137-4.06-15.162-4.06-15.162l-23.322.585V68.687l7.207-.668z" fill="#F2BB99"/><path opacity=".5" d="M9.391 98.499c-.02.03-.041.051-.051.072-.051.072-.113.154-.175.236l-.01.01c-.04.051-.082.113-.123.164a31.94 31.94 0 01-.266.36c-.072.092-.134.184-.205.277l-.01.01c-.052.062-.093.123-.144.185-.4.534-.861 1.119-1.343 1.745l-.226.288c-.01.02-.02.03-.04.051-.226.287-.462.585-.698.893-.01.01-.02.031-.04.051 0 .011-.011.011-.011.021a.18.18 0 01-.041.051c-.38.483-.769.975-1.169 1.478-.04.052-.082.103-.123.154-.04.052-.092.113-.133.165-.03.041-.072.082-.102.123-.021.02-.041.051-.062.072a.145.145 0 01-.03.041c-.021.031-.042.051-.062.082-.02.031-.041.051-.062.082-.02.031-.051.062-.071.092l-.124.154c-.04.052-.071.093-.112.144 0 0-.01.01-.01.021-.021.031-.052.061-.072.092l-.246.308c-.031.031-.052.072-.082.103a2.099 2.099 0 00-.144.185c-.04.041-.072.092-.113.143-.04.062-.092.113-.133.175-.051.061-.102.133-.154.195-.061.072-.123.154-.184.226a.227.227 0 01-.041.051c-.236.287-.462.575-.687.862-.041.052-.082.093-.113.144-.512.647-1.025 1.273-1.507 1.879-.01.01-.02.031-.04.051a3118.136 3118.136 0 01-3.958 4.897l.707-18.468s8.284-12.36 13.973-20.245c-1.968 7.012-3.957 15.327-3.957 15.327-1.989 9.814 10.16-5.184 10.16-5.184s-.79 3.952-.739 4.466c.01.05-.071.071-.102.102l-.995.965c-.338.329-.676.668-1.025 1.016-.266.267-.533.545-.8.811-.184.196-.379.39-.563.586-.226.236-.441.472-.666.698l-.431.462c-.072.082-.144.154-.215.226-.031.04-.072.082-.103.113-.072.082-.133.154-.205.225-.779.873-1.486 1.715-2.03 2.454-.051.062-.071.092-.092.113.01 0 0 0 0 0z" fill="#E8A680"/><path d="M11.226 74.097c-1.21 2.145-5.249 13.91-6.612 19.484-1.364 5.564-2.573 17.699-8.17 21.271-5.598 3.573-8.345 1.489-9.104-.082-.759-1.57-1.005-5.677-.236-8.757.585-2.361 2.727-6.94 5.628-11.764 3.711-6.18 10.672-16.939 11.584-18.94.903-2.013 6.91-1.212 6.91-1.212z" fill="#F2BB99"/><path opacity=".5" d="M29.75 52.517l-5.279-1.58-.964 2.812c1.046 1.94 2.789 4.055 4.89 5.924-1.26-1.468.646-2.67 1.538-3.686.902-1.016-1.025-1.806-1.855-2.238-.841-.43.235-.503 1.67-1.232z" fill="#E8A680"/><path d="M26.43 49.694c1.26-.554 4.284-1.755 5.3-1.324 1.014.431-.237 1.273.081 1.848.308.585-1.271 1.335-1.117 1.704.154.37-5.792 2.639-6.028 1.51-.236-1.13 1.763-3.738 1.763-3.738z" fill="#F2E9D8"/><path d="M27.905 49.982c.267-.657.236-1.581-.584-1.386-.81.195-2.82 1.273-3.557 1.653-.738.39-2.03 1.036-2.03 1.036v1.16l5.905-1.94.266-.523z" fill="#F2BB99"/><path opacity=".5" d="M21.744 51.286l.492-.247a32.83 32.83 0 002.204-.37c.698-.164 2.492-.615 3.517-.81-.02.102-.01.04-.052.133l-.266.513-4.972 1.633-.923.061v-.913z" fill="#E8A680"/><path d="M21.6 55.577c-.717.174-3.71 1.878-3.977 2.566-.266.688.256 3.532-1.035 5.688-1.077 1.806-.267 3.685-1.661 5.687-1.005 1.447-2.03 1.735-2.583 2.587-.615.934-1.692 3.305-1.887 3.675-.184.37-2.88-1.283-2.88-1.283l4.972-12.042 2.173-3.86 4.49-3.326 2.389.308z" fill="#F2BB99"/><path d="M4.306 75.298c1.446-2.495 1.712-4.086 2.85-5.493 1.138-1.416 3.24-7.33 4.04-9.372.799-2.054.86-3.82 2.5-4.733a204.98 204.98 0 006.182-3.675c1.559-.986 2.84-.78 3.834-.924.995-.144 4.829-1.417 5.895-1.489 1.066-.072.851 1.201 0 1.91-.85.708-5.392 1.91-5.751 2.053-.359.144-5.044 2.967-5.044 2.967l-5.044 3.46-1.137 8.1-3.076 5.84-5.249 1.356z" fill="#F2BB99"/><path d="M24.912 53.257c1.302.113 1.65.184 2.614.729.964.533 2.133.954 2.122 1.344 0 .462-.41.75-1.332.832-.933.082-2.471-.637-2.779-.596-.307.041-3.967.226-4.51.534-.544.308-3.096 1.93-3.168 2.813-.082.883-4.295 2.269-4.295 2.269l-.585-2.546s8.201-4.425 8.335-4.507c.133-.072 3.598-.872 3.598-.872z" fill="#F2BB99"/><path opacity=".5" d="M24.912 53.257s-.225-.021-.615-.041c-.39-.021-.953-.072-1.63-.103-.338-.01-.707-.031-1.087-.041-.39 0-.81-.041-1.25.082a5.65 5.65 0 00-1.24.513c-.4.216-.78.462-1.16.719-.737.523-1.445 1.088-2.1 1.601-.329.257-.647.514-.954.73-.308.215-.615.41-.902.595-.574.359-1.025.729-1.261 1.057-.123.164-.185.308-.226.4-.03.103-.051.154-.051.154s.02-.051.072-.143c.051-.093.133-.216.266-.36.257-.297.728-.585 1.313-.913.297-.165.615-.34.953-.544.328-.216.666-.442 1.005-.699.686-.492 1.383-1.047 2.122-1.55.358-.256.738-.492 1.117-.708.38-.205.759-.4 1.138-.513.369-.103.78-.103 1.158-.123.39-.01.749-.01 1.087-.021.677 0 1.24-.03 1.63-.041.39-.03.615-.051.615-.051z" fill="#E8A680"/><path d="M21.2 58.05c.514.124 3.015.986 3.394 1.263.39.278 1.681 2.793 1.59 3.142-.114.41-1.16.513-1.733-.277-.451-.616-.933-1.284-.933-1.284-1.18-.05-2.307-.605-2.573-.523-.267.082-2.42 1.334-2.738 1.601-.307.267-1.363 1.325-1.927 2.32-.564.996-1.568 2.66-1.568 2.66s.646-6.376.789-6.427c.144-.051 2.225-1.622 2.348-1.622.123 0 2.634-1.027 3.352-.852z" fill="#F2BB99"/><path d="M28.131 54.335c-.41.297-.277.739.318 1.026.8.39 1.056.288 1.22.103.164-.185.102-.41-.287-.636-.4-.237-1.077-.616-1.251-.493zm-2.194-5.175c-.02.463.472.555 1.066.34.84-.298.83-.596.79-.843-.041-.246-.257-.338-.677-.184-.43.154-1.179.482-1.179.688zm-.461 11.59c-.513.011-.687.493-.39 1.079.4.79.81.831 1.015.75.236-.093.277-.299.092-.71-.174-.41-.502-1.118-.717-1.118zm2.594-10.737c.04.564.471.79 1.158.554.933-.308 1.056-.575 1.035-.852-.02-.267-.287-.431-.768-.308-.472.123-1.436.36-1.425.606z" fill="#F6D9C5"/><path opacity=".5" d="M45.005 76.889l6.12-4.712s.933-1.088 1.825-2.515c4.633-.514 9.718-1.427 13.03 2.504 3.474 4.127 14.351 42.676 14.351 42.676s-10.118-6.016-13.142-10.153c-3.024-4.137-4.06-15.163-4.06-15.163l-15.172.38c1.579-1.365 2.973-2.587 2.973-2.587s-.615-4.404-1.968-6.334c-1.087-1.56-2.594-1.745-2.696-2.762-.021-.246-1.436-.903-1.261-1.334z" fill="#E8A680"/><path d="M45.794 69.107c.338-1.14 1.927-2.463 5.187-1.652 3.26.81 4.736 1.119 5.157.256 0 0 1.599 2.136.492 3.398-1.107 1.263-10.836-2.002-10.836-2.002z" fill="#FAF1E3"/><path d="M47.557 68.83l.072-.072c.061-.061.133-.123.246-.194.215-.144.533-.329.953-.432a4.02 4.02 0 011.435-.102c.257.02.523.072.78.123.256.051.523.092.789.144 1.056.174 2.122.297 2.922.267.4-.021.738-.072.943-.165.215-.092.287-.226.287-.226s-.062.134-.277.236c-.215.113-.543.185-.953.226-.81.082-1.897.02-2.963-.102-.266-.031-.533-.072-.8-.103a6.858 6.858 0 00-.758-.082 3.604 3.604 0 00-1.292.154 2.602 2.602 0 00-.8.41 1.6 1.6 0 00-.174.154c-.04.042-.061.072-.061.072l-.349-.308zm8.683-.81s.113.133.215.359c.113.225.236.554.287.893.062.338.052.708-.03.985a2.264 2.264 0 01-.123.329c-.041.072-.062.123-.062.123l-.38-.288s.021-.03.062-.071c.041-.041.082-.123.133-.216.093-.195.175-.503.165-.821 0-.318-.052-.647-.123-.893-.062-.247-.144-.4-.144-.4z" fill="#F2E9D8"/><path d="M57.265 70.904a.311.311 0 00-.184-.328c-.759-.329-2.799-.924-5.905-1.376-2.327-.339-4.552-.513-5.372-.493a.321.321 0 00-.318.267l-.994 7.576c-.02.165.102.319.287.34l11.133 1.539 1.353-7.525z" fill="#FF5C00"/><path d="M46.46 71.94c1.015-.266 2-.605 3.086-.369 0 0-1.087-.513-1.456-1.119-.369-.605-.287-1.53.954-1.385.615.071 4.603 1.15 5.474 1.59.882.442 2.296 1.253 2.84 1.859.543.605 2.419 2.926 2.716 3.85.175.523.574 2.587.738 4.568.134 1.755.533 4.876.82 5.964.646 2.475 4.02 7.874 4.02 7.874 1.076 1.684 2.572 3.942 3.567 5.092 1.691 1.961 9.38 8.439 10.59 11.703.758 2.105 1.301 3.83 1.363 4.599.215 2.423-.287 8.542-2.348 9.825-2.06 1.283-7.535-.431-10.805-6.19-3.27-5.77-5.187-12.597-6.612-16.303-1.425-3.706-3.711-9.886-4.49-10.594-.78-.708-3.414-1.57-4.05-4.763-.635-3.203-.779-4.384-1.066-5.523-.287-1.14-.697-2.239-1.168-2.68-.472-.441-1.487-1.57-1.692-1.601-.902-.134-2.501-.308-2.624-1.232-.134-1.037 1.548-.811 1.958-.914 0 0-2.286.123-2.46-.832-.206-1.088 1.055-1.334 2.234-1.457 0 0-2.173.41-2.614-.472-.44-.883.01-1.222 1.025-1.49z" fill="#F2BB99"/><path opacity=".5" d="M49.546 71.571l1.497.544c.44.165.963.37 1.486.616.267.124.533.267.79.421.266.154.491.308.738.524.45.39.902.831 1.332 1.232.42.4.82.78 1.159 1.098.338.329.635.585.84.77l.318.288s-.092-.124-.256-.34c-.175-.215-.41-.523-.708-.882a22.92 22.92 0 00-1.066-1.201c-.4-.431-.84-.873-1.332-1.294a6.093 6.093 0 00-.8-.544 7.952 7.952 0 00-.85-.4 11.479 11.479 0 00-1.58-.503c-.471-.123-.86-.185-1.137-.247a5.654 5.654 0 00-.431-.082z" fill="#E8A680"/><path d="M50.212 69.385c.175.544-.277.903-1.015.79-.984-.144-1.168-.564-1.158-.81.01-.278.215-.401.718-.35.512.041 1.384.133 1.455.37zm-2.962 2.351c.41.41.163.934-.534 1.17-.943.328-1.291.03-1.404-.195-.113-.257.01-.462.482-.647.461-.185 1.281-.493 1.456-.328zm.328 2.268c.41.411.164.935-.533 1.17-.944.319-1.292.032-1.405-.194-.113-.257.01-.462.482-.647.461-.185 1.281-.503 1.456-.329z" fill="#F6D9C5"/><path d="M51.545 68.8s.072.02.205.04c.133.021.318.032.533.042a15.9 15.9 0 002.502-.164c.276-.041.523-.093.738-.165.102-.03.194-.082.277-.112a1.07 1.07 0 00.194-.124l.144-.143s-.03.061-.113.174a1.486 1.486 0 01-.461.318 3.37 3.37 0 01-.749.247c-.276.072-.584.102-.881.133-.308.02-.605.041-.892.02-.287 0-.554-.04-.78-.071-.225-.03-.41-.093-.543-.134a.635.635 0 01-.174-.061z" fill="#F2E9D8"/><path opacity=".5" d="M47.578 73.994s.143-.051.42-.113a3.15 3.15 0 011.169-.051 9.332 9.332 0 013.28 1.17c.277.154.543.37.759.565.235.195.45.4.656.595.42.39.779.78 1.087 1.109.604.678.973 1.16.973 1.16s-.123-.092-.328-.267c-.205-.174-.502-.41-.85-.708-.35-.298-.749-.637-1.18-1.006-.215-.185-.44-.37-.666-.555a6.993 6.993 0 00-.707-.523 12.677 12.677 0 00-1.579-.8 11.87 11.87 0 00-1.486-.524 3.163 3.163 0 00-1.097-.103c-.298.02-.451.051-.451.051zm.472 2.29s.133-.02.358-.031c.236-.01.584 0 .984.113.78.226 1.764.667 2.604 1.314.205.154.41.349.564.523.174.175.328.36.482.534.297.35.564.688.779.986.43.585.677.996.677.996s-.093-.083-.246-.247c-.154-.154-.38-.37-.626-.647-.256-.267-.553-.585-.871-.913a23.636 23.636 0 01-.492-.514 4.716 4.716 0 00-.533-.482 10.61 10.61 0 00-1.23-.811c-.42-.236-.82-.431-1.18-.585a3.097 3.097 0 00-.912-.216c-.225-.02-.359-.02-.359-.02z" fill="#E8A680"/><path d="M48.347 76.232c.287.442-.031.863-.708.934-.902.103-1.158-.215-1.21-.441-.05-.246.093-.41.554-.482.461-.072 1.25-.195 1.364-.01z" fill="#F6D9C5"/></g><mask id="mask1" maskUnits="userSpaceOnUse" x="0" y="0" width="76" height="81"><ellipse rx="37.121" ry="39.773" transform="matrix(-1 0 0 1 37.97 40.621)" fill="#FFD15A"/></mask><g mask="url(#mask1)"><path opacity=".8" d="M19.479 42.991c-1.928 1.735-.513 8.88 4.695 10.533 5.197 1.653 1.415-8.921 1.415-8.921l-6.11-1.612zm37.817-2.731c-1.896.934-4.264 8.562-2.04 8.275 2.225-.288 4.132-5.544 4.132-5.544l-2.092-2.73z" fill="#EAA24B"/><path d="M54.047 42.088c.297-1.499.963-2.454 1.937-2.351.974.103 1.979 2.454 1.487 4.21-.492 1.755-1.282 2.032-1.005 3.222.277 1.191-1.579 3.43-2.255 1.592-.677-1.828-.164-6.673-.164-6.673z" fill="#F2BB99"/><path opacity=".5" d="M54.047 42.088c.297-1.499.963-2.454 1.937-2.351.974.103 1.979 2.454 1.487 4.21-.492 1.755-1.282 2.032-1.005 3.222.277 1.191-1.579 3.43-2.255 1.592-.677-1.828-.164-6.673-.164-6.673z" fill="#E8A680"/><path d="M55.984 39.747c-.84-.092-1.446.606-1.794 1.745l.574 3.162c-.144-1.365.482-5.687 2.532-3.377-.307-.842-.81-1.479-1.312-1.53zm-33.256 2.392c-.297-1.499-.963-2.454-1.937-2.35-.974.102-1.979 2.453-1.487 4.208.492 1.755 1.282 2.033 1.005 3.224-.277 1.19 1.579 3.428 2.255 1.59.677-1.827.164-6.672.164-6.672z" fill="#F2BB99"/><path opacity=".5" d="M22.728 42.139c-.297-1.499-.963-2.454-1.937-2.35-.974.102-1.979 2.453-1.487 4.208.492 1.755 1.282 2.033 1.005 3.224-.277 1.19 1.579 3.428 2.255 1.59.677-1.827.164-6.672.164-6.672z" fill="#E8A680"/><path d="M20.79 39.798c.841-.092 1.446.606 1.795 1.745l-.574 3.162c.153-1.355-.482-5.687-2.532-3.377.307-.842.82-1.479 1.312-1.53z" fill="#F2BB99"/><path d="M46.665 60.135L39.1 62.496l-7.566-1.406c1.179 2.977.287 8.941-3.475 10.964H50.12c-3.742-2.023-4.634-8.942-3.455-11.919z" fill="url(#paint5_linear)"/><path d="M39.828 64.94c2.624 0 7.555-4.548 10.046-7.176 2.491-2.628 5.464-6.303 5.72-11.816.267-5.513-.081-14.701-1.127-19.7-1.046-4.99-8.263-11.16-15.992-10.636-7.74.524-17.869 5.39-17.059 16.785.82 11.477.072 14.844 1.21 19.177 1.353 5.184 9.944 13.366 17.202 13.366z" fill="#F2BB99"/><path d="M26.1 39.45l.257-.144c.154-.093.39-.216.677-.36.574-.277 1.394-.605 2.265-.646.216-.021.43 0 .646.01.205.03.42.061.615.113.195.061.38.102.544.195.164.082.328.143.46.236.134.092.257.164.36.236.102.082.184.154.256.216l.215.184-.236-.174c-.071-.051-.163-.123-.266-.195-.113-.062-.236-.134-.38-.206-.133-.082-.297-.133-.46-.205-.165-.072-.35-.102-.534-.154-.184-.04-.39-.051-.584-.072-.205.01-.41 0-.605.031-.82.093-1.568.462-2.101.76-.267.154-.482.297-.636.4a4.048 4.048 0 01-.246.154l-.246-.38z" fill="#E8A680"/><path d="M25.588 42.098c-.143-.431-1.68-1.376-1.865-3.09 0 0 .912.482 3.034.205 2.132-.277 3.322-.277 4.665.719 1.353.995 1.824 2.72 1.855 4.209.02 1.211-7.689-2.043-7.689-2.043z" fill="#4D2F0E"/><path d="M25.435 41.615s.184 3.45 2.716 4.343c2.543.893 4.593-.493 4.593-.493l-7.31-3.85z" fill="#4D2F0E"/><path d="M33.38 45.106c-.964.739-3.599 1.314-5.547.236-1.947-1.078-2.614-4.538-2.614-4.538s2.368-.913 4.183-.718c1.814.184 3.906 2.094 3.977 5.02z" fill="#fff"/><path d="M29.822 45.198a2.742 2.742 0 003.065-2.3c-.738-1.652-2.183-2.679-3.485-2.812-.164-.02-.328-.02-.492-.02a2.748 2.748 0 00-1.446 2.063 2.75 2.75 0 002.358 3.07z" fill="#47ACD1"/><path d="M31.8 42.693a1.62 1.62 0 01-1.824 1.397 1.621 1.621 0 01-1.394-1.828 1.62 1.62 0 011.825-1.396c.881.113 1.507.934 1.394 1.827z" fill="#593515"/><path d="M30.089 41.913a.773.773 0 01-.872.667.774.774 0 01-.666-.872.768.768 0 01.871-.667c.42.05.718.441.667.872z" fill="#fff"/><path opacity=".3" d="M56.107 48.186c.246 2.002-2.665 3.993-6.5 4.455-3.823.462-7.124-.78-7.37-2.772-.246-2.002 2.665-3.993 6.5-4.455 3.823-.462 7.124.78 7.37 2.772z" fill="url(#paint6_radial)"/><path opacity=".3" d="M59.47 25.94c.471 5.081-4.829 9.485-14.537 10.378-9.708.893-17.96-2.494-18.432-7.586-.472-5.082 7.022-9.938 16.74-10.83 9.709-.894 15.757 2.956 16.229 8.037z" fill="url(#paint7_radial)"/><path opacity=".3" d="M34.405 26.884c1.876 3.603-.554 8.582-5.434 11.128-4.869 2.536-10.343 1.684-12.22-1.92-1.875-3.603.554-8.582 5.434-11.128 4.88-2.535 10.344-1.673 12.22 1.92z" fill="url(#paint8_radial)"/><path opacity=".3" d="M21.088 48.144c-.246 2.002 2.737 4.004 6.663 4.476 3.916.473 7.29-.76 7.535-2.75.246-2.003-2.737-4.005-6.663-4.477-3.916-.482-7.289.76-7.535 2.751z" fill="url(#paint9_radial)"/><path d="M50.879 39.87s-.092-.061-.236-.164a19.717 19.717 0 00-.635-.41c-.523-.309-1.282-.678-2.092-.78-.205-.042-.41-.032-.605-.042-.194.02-.4.02-.584.062-.184.051-.38.072-.533.143-.164.072-.328.113-.461.195l-.38.206c-.102.072-.194.144-.266.195-.154.102-.236.164-.236.164s.082-.072.226-.185c.071-.061.153-.133.256-.215.113-.072.236-.144.369-.236.133-.093.297-.154.461-.236.164-.093.36-.124.544-.196.194-.05.4-.082.615-.112.215 0 .43-.031.645 0 .872.04 1.692.38 2.266.667.287.144.523.277.677.37l.256.143-.287.431z" fill="#E8A680"/><path d="M51.617 42.129c.144-.431 1.692-1.355 1.897-3.07 0 0-.913.473-3.045.175-2.122-.308-3.311-.308-4.675.677-1.353.986-1.855 2.7-1.886 4.189-.03 1.211 7.71-1.971 7.71-1.971z" fill="#4D2F0E"/><path d="M51.781 41.646s-.205 3.45-2.758 4.322c-2.552.872-4.582-.534-4.582-.534l7.34-3.788z" fill="#4D2F0E"/><path d="M43.795 45.065c.964.75 3.588 1.345 5.546.287 1.958-1.057 2.655-4.517 2.655-4.517s-2.358-.934-4.172-.76c-1.814.165-3.926 2.064-4.029 4.99z" fill="#fff"/><path d="M47.352 45.188a2.733 2.733 0 01-3.044-2.33c.758-1.643 2.204-2.66 3.506-2.783.164-.01.328-.02.492-.02a2.735 2.735 0 011.425 2.073 2.738 2.738 0 01-2.379 3.06z" fill="#47ACD1"/><path d="M45.405 42.662a1.627 1.627 0 103.229-.4 1.627 1.627 0 10-3.23.4z" fill="#593515"/><path d="M45.272 42.282c.05.432.44.73.87.678a.777.777 0 00.677-.873.777.777 0 00-.87-.677.797.797 0 00-.677.872z" fill="#fff"/><path d="M40.935 42.283s-.02.102-.072.287a9.052 9.052 0 00-.123.76c-.041.308-.082.677-.113 1.078-.03.39-.061.81-.082 1.232-.03.42-.04.841-.051 1.242-.01.39-.01.76-.01 1.078a14.144 14.144 0 00.04 1.057s-.03-.103-.071-.287c-.02-.093-.041-.206-.072-.329a4.207 4.207 0 01-.072-.431 13.207 13.207 0 01-.061-2.35c.02-.432.062-.853.123-1.253.061-.4.123-.77.205-1.078.072-.308.174-.565.236-.74.072-.164.123-.266.123-.266zm-4.715 9.003s0 .03-.011.092c-.01.062-.01.154-.01.257.01.113.03.246.102.37a.765.765 0 00.339.307 1.144 1.144 0 00.697.072c.092-.01.112-.02.205-.01.184.01.307.072.43.144.246.144.441.308.636.42.195.114.359.145.533.062.226-.102.42-.215.646-.37a2.06 2.06 0 01.769-.318 3.07 3.07 0 01.738-.03c.123 0 .184-.01.277-.031a.444.444 0 00.205-.113c.112-.103.143-.267.143-.41 0-.144-.03-.278-.072-.38-.071-.216-.174-.308-.174-.308s.03.02.072.061a.96.96 0 01.184.206c.062.102.134.236.164.41.031.164.041.4-.112.606-.144.205-.441.297-.667.318-.246.02-.45.03-.666.082-.215.052-.4.154-.605.298a4.293 4.293 0 01-.707.42 1.075 1.075 0 01-.513.073 1.476 1.476 0 01-.45-.175c-.247-.154-.421-.339-.606-.452a.95.95 0 00-.236-.112c-.02-.01-.123 0-.143-.01-.062 0-.133.01-.195 0a1.314 1.314 0 01-.676-.206.852.852 0 01-.37-.472 1.13 1.13 0 01-.03-.442c.04-.246.113-.349.102-.36z" fill="#E8A680"/><path d="M32.744 54.95c1.958.237 4.736-.328 5.895-.03 1.148.308 1.496-.062 2.06-.144.738-.102 4.562.318 5.382.031 0 0-2.932 2.115-5.495 2.29-2.573.174-6.92-1.274-6.92-1.274l-.922-.872z" fill="#E49084"/><path d="M32.744 54.951c.143.873 1.989 5.39 6.663 5.318 4.665-.072 6.674-5.462 6.674-5.462l-6.407 3.203-6.93-3.059z" fill="#E49084"/><path d="M32.744 54.951c1.117.637 4.418 1.15 7.35 1.037 2.922-.113 5.239-.821 5.987-1.17 0 0-2.42 3.973-6.756 3.942-4.408-.03-6.581-3.809-6.581-3.809z" fill="#812A1F"/><path d="M44.277 56.05a3.23 3.23 0 00.154-.689 20.4 20.4 0 01-4.337.627c-2.08.082-4.357-.154-5.894-.524.01.287.8 1.324 1.527 1.591.738.267 3.322.616 5.546.277 2.225-.338 2.84-.883 3.004-1.283z" fill="#fff"/><path d="M43.96 56.45c-.093-.062-8.592.236-8.735.318-.093.051-.257.267-.37.452 1.077.81 2.564 1.519 4.47 1.53 2.143.01 3.814-.945 4.962-1.92-.092-.216-.256-.329-.328-.38z" fill="#fff"/><path opacity=".5" d="M35.225 56.778s.523.205 1.343.37c.205.05.43.082.666.123.236.03.492.072.748.082.523.051 1.087.051 1.64.03.278 0 .554-.04.831-.06.277-.032.543-.073.8-.114.256-.04.502-.103.738-.154.236-.04.45-.123.646-.174.194-.062.39-.103.543-.165.164-.061.297-.102.41-.143.226-.083.359-.123.359-.123s-.133.05-.349.143c-.112.041-.246.103-.41.164-.154.072-.338.113-.543.185-.205.062-.41.134-.656.185-.236.051-.482.113-.738.164-.257.041-.533.093-.8.123-.277.021-.553.062-.84.072a12.6 12.6 0 01-1.651-.051c-.267-.02-.513-.062-.759-.092-.235-.052-.46-.083-.666-.134-.81-.205-1.312-.431-1.312-.431z" fill="#812A1F"/><path d="M46.43 22.562s-.01.092-.031.256c-.01.154-.051.431-.051.657 0 .124-.01.257-.01.411l.03.524c.02.184.051.38.072.585.041.205.092.42.133.646.123.452.277.935.513 1.417.215.503.523.996.85 1.499.35.493.739.996 1.19 1.458.225.236.45.472.697.688.236.236.502.441.759.657.256.215.533.41.8.616.286.205.563.41.84.616.564.42 1.117.862 1.63 1.303.502.462.984.924 1.394 1.417.41.503.738 1.027.984 1.53.246.503.42.965.585 1.355.153.4.297.739.42 1.006.113.277.225.492.287.636.072.144.102.226.102.226l-.676.37s-.041-.083-.123-.226a18.03 18.03 0 01-.349-.637 30.534 30.534 0 01-.502-1.006c-.185-.38-.39-.81-.636-1.242a6.574 6.574 0 00-.943-1.252c-.38-.411-.85-.801-1.343-1.18-.512-.38-1.045-.75-1.62-1.12-.287-.185-.584-.37-.881-.554-.297-.206-.615-.38-.913-.606-.297-.215-.594-.42-.881-.657a13.709 13.709 0 01-.83-.708 14.282 14.282 0 01-1.487-1.571c-.43-.554-.84-1.119-1.148-1.714-.328-.575-.564-1.17-.77-1.715-.081-.277-.163-.554-.235-.81a31.497 31.497 0 00-.154-.75c-.03-.236-.061-.462-.082-.668-.02-.215-.02-.42-.03-.605-.02-.39 0-.585 0-.76 0-.164.01-.256.01-.256l2.399.164z" fill="#593515"/><path d="M34.856 19.215c-5.208.277-13.84 8.788-15.531 16.744-.041.185-.072.36-.103.534a25.942 25.942 0 002.902 1.755c1.076-9.814 22.307-3.12 23.537-14.762-.01.01-5.597-4.548-10.805-4.27z" fill="#593515"/><path d="M42.719 33.854c-.164.041-.451.226-.523.473-.195.698-.103 1.54.307 1.509.605-.031 5.32-1.099 6.859-.308 2.02 1.037 4.439 2.73 4.439 2.73s-1.24-2.782-4.603-4.404c-2.06-.995-5.516-.267-6.48 0zm-8.202.566c.164.05.533.091.615.512.144.709.154 1.52-.43 1.438-.492-.072-5.157-1.017-6.817-.421-1.856.667-5.054 2.464-5.054 2.464s2.686-3.275 5.33-4.117c2.245-.719 5.382-.195 6.356.123z" fill="#4D2F0E"/><path d="M22.718 51.943c-1.64-1.622-3.937-4.148-3.383-5.143.85-1.52 3.69-6.427 5.966-11.837 2.276-5.41 9.934-9.64 16.464-10.4 6.53-.76 14.855-7.699 14.29-12.678-.563-4.99-7-9.722-11.358-10.913C42.35.336 39.08 2.317 35.102 3.2c-3.393.75-7.473.298-9.995 1.15-5.485 1.858-7.381 6.93-6.244 8.202 0 0-9.749 8.285-3.977 11.837 0 0-3.311 7.104-1.23 13.11 2.08 6.005.666 7.104 2.747 10.399 1.487 2.35 5.382 5.133 7.494 6.54-.523-.873-.923-1.715-1.179-2.495z" fill="#FFDE80"/><path d="M55.882 13.815l-12.435 10.42c4.387 1.242 5.997 9.537 9.216 12.833 3.219 3.295 5.966 5.071 5.484 7.186-.277 1.242-1.763 3.162-2.952 4.527-.185.78-.42 1.52-.697 2.218 2.378-1.94 6.817-6.078 6.96-10.04.185-5.41-.092-10.236.667-11.755.39-.79-1.077-5.4-2.799-9.178-1.6-3.49-3.444-6.21-3.444-6.21z" fill="#FFDE80"/><path opacity=".6" d="M61.745 30.733c.082-.667.205-1.18.38-1.53.092-.194.061-.595-.062-1.139l-8.837-4.958c2.42 1.632 6.243 5.338 8.52 7.627zm-1.917 6.889c-.471 1.858-7.699-4.65-9.687-8.038-1.917-3.265-3.107-4.076-6.326-5.226 4.111 1.592 5.72 9.507 8.848 12.71 3.219 3.295 5.966 5.071 5.484 7.186-.277 1.242-1.763 3.162-2.952 4.527-.185.78-.42 1.52-.697 2.217 2.378-1.94 6.817-6.077 6.96-10.04.103-2.792.072-5.42.123-7.524-.02.082-1.291 2.35-1.753 4.188z" fill="#FFB95C"/><path opacity=".8" d="M55.205 48.781c-.185.78-.42 1.52-.697 2.217 2.173-1.765 6.069-5.379 6.827-9.013-1.281 1.273-1.814-.441-4.838-2.546-3.21-2.238-6.264-6.077-7.402-8.357 1.128 2.28 2.204 4.59 3.568 5.986 3.219 3.295 5.966 5.07 5.484 7.186-.277 1.242-1.763 3.162-2.942 4.527z" fill="#EAA24B"/><path d="M55.02 49.459c.749-.082 1.61-1.407 1.446-2.249-.42.555-.8.852-1.21 1.325-.051.236-.164.708-.236.924z" fill="#F2BB99"/><path opacity=".5" d="M55.02 49.459c.749-.082 1.61-1.407 1.446-2.249-.42.555-.8.852-1.21 1.325-.051.236-.164.708-.236.924z" fill="#E8A680"/><path opacity=".6" d="M19.407 20.878c-2.758-.144-5.998-1.211-5.372-2.648-1.24 2.238-1.62 4.63.86 6.149 3.66.616 19.643-4.148 19.643-4.148-5.751 1.027-10.6.873-15.131.647z" fill="#FFB95C"/><path opacity=".8" d="M18.69 22.46c3.464-.175 6.888-.658 6.888-.658s-3.455.246-6.9.185c-1.721-.031-3.444-.144-4.674-.39a6.883 6.883 0 01-.943-.247c0 .319.041.627.123.924.215.041.451.082.697.113 1.333.175 3.076.165 4.808.072z" fill="#EAA24B"/><path opacity=".6" d="M56.24 18.476c.923.236 3.763 4.21 4.9 6.098a51.816 51.816 0 00-1.814-4.548 46.504 46.504 0 00-3.444-6.21l-1.692 3.213-6.212 5.307c6.058-2.279 7.073-4.168 8.262-3.86z" fill="#FFB95C"/><path opacity=".8" d="M59.326 20.026c-1.589-3.49-3.434-6.21-3.444-6.21-.84 3.038-4.132 6.375-7.894 8.52a45.29 45.29 0 001.569-.626c3.003-1.848 5.433-4.26 6.253-4.815 1.025-.688 2.963 2.023 3.66 3.46a3.182 3.182 0 01-.144-.329z" fill="#EAA24B"/><path opacity=".6" d="M28.213 10.88c-2.01-.401-8.745-1.951-6.848-4.394-1.025.903-1.763 1.92-2.225 2.864-.01.01-.01.02-.02.03-.01.021-.02.052-.041.072-.01.021-.01.031-.02.052-.011.03-.021.051-.032.082-.01.02-.01.03-.02.051-.01.031-.02.052-.03.082-.011.02-.011.031-.021.052-.01.03-.02.051-.031.082-.01.01-.01.03-.02.04-.01.032-.021.052-.031.083-.01.01-.01.03-.02.041-.011.03-.021.051-.032.082 0 .01-.01.02-.01.031a.501.501 0 01-.04.113v.01c-.011.041-.021.082-.042.113-.287.975-.236 1.776.133 2.187 2.492 1.92 7.945 1.098 16.085.636 8.14-.462 10.692 3.84 10.692 3.84-1.906-4.415-10.487-5.482-17.427-6.15z" fill="#FFB95C"/><path opacity=".8" d="M19.366 8.918a8.644 8.644 0 00-.226.432.501.501 0 01-.03.071 2.339 2.339 0 00-.103.237v.01c-.02.03-.03.072-.041.103v.01c-.01.04-.03.072-.041.102v.01c-.01.042-.03.073-.041.114v.01c-.01.041-.03.072-.041.113a5.296 5.296 0 00-.215.862c1.763 1.9 6.95 1.715 8.97 1.376 2.265-.38 6.304 0 6.304 0s-1.896-.503-6.304-.565c-3.824-.04-7.607-1.078-8.232-2.885z" fill="#EAA24B"/><path opacity=".6" d="M56.066 11.875c-.164-1.427-.81-2.833-1.743-4.147 1.64 2.392 1.661 5.318.093 8.038-.02-1.088-.339-6.632-4.665-8.664 4.214 2.617 2.83 10.83-.123 13.232.03-.318.164-2.617-1.127-4.383.512 1.899.594 4.527-2.143 6.036-.492.195-.994.37-1.527.544-2.225.709-5.29.801-7.115 1.242-8.57 2.054-13.04 2.32-16.32 8.624-3.066 5.892-5.67 8.15-7.28 6.54 1.395 4.763.38 5.943 2.277 8.951 1.486 2.35 5.382 5.133 7.494 6.54-.523-.863-.933-1.705-1.18-2.485-1.64-1.622-3.936-4.147-3.382-5.143.85-1.52 3.69-6.427 5.966-11.837 2.276-5.41 9.934-9.64 16.464-10.4l.267-.03c.01 0 .03 0 .04-.01 6.5-.945 14.568-7.74 14.004-12.648z" fill="#FFB95C"/><path opacity=".8" d="M21.365 39.86c-2.932 6.53-4.93 8.161-2.706 10.574 1.732 1.58 3.864 3.09 5.238 4.004-.523-.863-.933-1.705-1.179-2.485-1.64-1.622-3.936-4.147-3.383-5.143.851-1.52 3.69-6.426 5.967-11.837 1.086-2.597 3.424-4.927 6.284-6.724-3.311 1.55-7.289 5.072-10.221 11.611z" fill="#EAA24B"/><path opacity=".6" d="M37.86 2.41c-.872.287-1.795.565-2.748.78-.748.164-1.528.277-2.317.35 2.122.102 5.71.79 8.53 2.596-.01 0-4.583-3.1-3.466-3.726zM19.263 28.105c.328-.195.646-.38.943-.554.298-.174.605-.318.872-.462.533-.287 1.015-.482 1.332-.636.329-.144.513-.236.513-.236s-.195.061-.543.154c-.338.102-.84.225-1.425.441-.287.103-.615.195-.943.328-.328.134-.677.278-1.036.421-.348.165-.717.329-1.086.514-.36.195-.739.37-1.097.595-.36.205-.718.431-1.066.667-.349.226-.677.473-.995.698-.318.237-.615.473-.892.688-.277.216-.533.431-.769.596-.01 0-.01.01-.02.01a16.626 16.626 0 00-.082 2.156.938.938 0 00.133-.082c.103-.082.215-.165.338-.257.226-.185.462-.4.687-.626.236-.226.451-.472.697-.73.236-.256.492-.512.759-.78.267-.256.543-.533.83-.79.287-.267.595-.523.913-.77.307-.256.635-.482.953-.718.328-.206.666-.41.984-.627z" fill="#FFB95C"/><path opacity=".8" d="M14.886 42.478c.236 1.704.225 2.823.892 4.28a.706.706 0 01-.031-.081c-.656-1.212 6.838-12.566 6.838-12.566s-5.977 8.408-7.7 8.367z" fill="#EAA24B"/><path d="M23.097 56.47c-.195-.349-.4-.8-.533-1.345a5.796 5.796 0 01-.133-1.827c.051-.678.205-1.406.39-2.187.184-.78.379-1.632.47-2.556a8.288 8.288 0 00-.214-2.905c-.052-.246-.144-.493-.226-.74-.092-.225-.164-.43-.266-.656a9.929 9.929 0 01-.42-1.232 13.835 13.835 0 01-.216-.986 72.05 72.05 0 01-1.025 1.92c.113.298.236.595.38.883l.307.616c.071.185.164.37.225.575.287.79.39 1.632.38 2.464-.01.831-.134 1.663-.236 2.464-.103.8-.185 1.59-.154 2.32.03.728.154 1.406.38 1.96.215.555.491.996.737 1.325.246.338.472.575.626.728l.236.237s-.072-.093-.195-.277a4.623 4.623 0 01-.513-.78z" fill="#593515"/><path d="M44.03 25.457s-.01.061-.04.185a2.277 2.277 0 01-.195.523c-.205.442-.636 1.017-1.282 1.55-.635.544-1.476 1.037-2.409 1.468-.933.421-1.968.77-3.014 1.027a20.04 20.04 0 01-3.126.513c-.482.041-.954.082-1.395.123-.44.052-.86.103-1.25.144a22.68 22.68 0 00-1.866.308 9.367 9.367 0 00-.707.185s.184-.195.594-.452a8.77 8.77 0 011.774-.842c.379-.143.8-.277 1.25-.39.226-.061.462-.113.698-.174.235-.052.46-.103.717-.154a73.25 73.25 0 002.952-.637 40.449 40.449 0 002.892-.81c.45-.155.891-.298 1.291-.463.4-.164.78-.328 1.118-.503.666-.349 1.189-.718 1.496-1.037.154-.164.277-.287.349-.4.113-.113.154-.164.154-.164z" fill="#6E431E"/><path d="M42.309 26.432s-.113.092-.308.236a6.61 6.61 0 01-.902.493c-.39.174-.85.349-1.353.503a17.26 17.26 0 01-1.6.42c-1.096.227-2.214.37-3.054.411-.84.041-1.405-.01-1.405-.01s.544-.103 1.374-.257c.41-.082.882-.174 1.394-.277.513-.102 1.056-.205 1.59-.328a45.689 45.689 0 002.952-.709c.194-.061.379-.113.543-.164.154-.061.297-.113.41-.154.225-.113.359-.164.359-.164z" fill="#6E431E"/><path d="M-2.85 96.374s13.502-20.07 16.988-24.197c3.71-4.394 9.154-2.73 14.188-2.35 1.158.091 2.47-.627 3.003-1.808l8.499.698v21.395L20.38 88.069s-1.323.318-3.066 1.97c-2.552 2.434-6.058 5.924-7.862 8.388-3.025 4.137-13.01 16.415-13.01 16.415l.708-18.468z" fill="#F2BB99"/><path d="M47.014 68.02c.974 1.395 3.096 1.898 4.306 1.806 5.033-.39 10.958-2.053 14.66 2.351 3.474 4.127 14.351 42.675 14.351 42.675s-10.118-6.015-13.142-10.153c-3.024-4.137-4.06-15.162-4.06-15.162l-23.322.585V68.687l7.207-.668z" fill="#F2BB99"/><path opacity=".5" d="M9.391 98.499c-.02.03-.041.051-.051.072-.051.072-.113.154-.175.236l-.01.01c-.04.051-.082.113-.123.164a31.94 31.94 0 01-.266.36c-.072.092-.134.184-.205.277l-.01.01c-.052.062-.093.123-.144.185-.4.534-.861 1.119-1.343 1.745l-.226.288c-.01.02-.02.03-.04.051-.226.287-.462.585-.698.893-.01.01-.02.031-.04.051 0 .011-.011.011-.011.021a.18.18 0 01-.041.051c-.38.483-.769.975-1.169 1.478-.04.052-.082.103-.123.154-.04.052-.092.113-.133.165-.03.041-.072.082-.102.123-.021.02-.041.051-.062.072a.145.145 0 01-.03.041c-.021.031-.042.051-.062.082-.02.031-.041.051-.062.082-.02.031-.051.062-.071.092l-.124.154c-.04.052-.071.093-.112.144 0 0-.01.01-.01.021-.021.031-.052.061-.072.092l-.246.308c-.031.031-.052.072-.082.103a2.099 2.099 0 00-.144.185c-.04.041-.072.092-.113.143-.04.062-.092.113-.133.175-.051.061-.102.133-.154.195-.061.072-.123.154-.184.226a.227.227 0 01-.041.051c-.236.287-.462.575-.687.862-.041.052-.082.093-.113.144-.512.647-1.025 1.273-1.507 1.879-.01.01-.02.031-.04.051a3118.136 3118.136 0 01-3.958 4.897l.707-18.468s8.284-12.36 13.973-20.245c-1.968 7.012-3.957 15.327-3.957 15.327-1.989 9.814 10.16-5.184 10.16-5.184s-.79 3.952-.739 4.466c.01.05-.071.071-.102.102l-.995.965c-.338.329-.676.668-1.025 1.016-.266.267-.533.545-.8.811-.184.196-.379.39-.563.586-.226.236-.441.472-.666.698l-.431.462c-.072.082-.144.154-.215.226-.031.04-.072.082-.103.113-.072.082-.133.154-.205.225-.779.873-1.486 1.715-2.03 2.454-.051.062-.071.092-.092.113.01 0 0 0 0 0z" fill="#E8A680"/><path d="M11.226 74.097c-1.21 2.145-5.249 13.91-6.612 19.484-1.364 5.564-2.573 17.699-8.17 21.271-5.598 3.573-8.345 1.489-9.104-.082-.759-1.57-1.005-5.677-.236-8.757.585-2.361 2.727-6.94 5.628-11.764 3.711-6.18 10.672-16.939 11.584-18.94.903-2.013 6.91-1.212 6.91-1.212z" fill="#F2BB99"/><path opacity=".5" d="M29.75 52.517l-5.279-1.58-.964 2.812c1.046 1.94 2.789 4.055 4.89 5.924-1.26-1.468.646-2.67 1.538-3.686.902-1.016-1.025-1.806-1.855-2.238-.841-.43.235-.503 1.67-1.232z" fill="#E8A680"/><path d="M26.43 49.694c1.26-.554 4.284-1.755 5.3-1.324 1.014.431-.237 1.273.081 1.848.308.585-1.271 1.335-1.117 1.704.154.37-5.792 2.639-6.028 1.51-.236-1.13 1.763-3.738 1.763-3.738z" fill="#F2E9D8"/><path d="M27.905 49.982c.267-.657.236-1.581-.584-1.386-.81.195-2.82 1.273-3.557 1.653-.738.39-2.03 1.036-2.03 1.036v1.16l5.905-1.94.266-.523z" fill="#F2BB99"/><path opacity=".5" d="M21.744 51.286l.492-.247a32.83 32.83 0 002.204-.37c.698-.164 2.492-.615 3.517-.81-.02.102-.01.04-.052.133l-.266.513-4.972 1.633-.923.061v-.913z" fill="#E8A680"/><path d="M21.6 55.577c-.717.174-3.71 1.878-3.977 2.566-.266.688.256 3.532-1.035 5.688-1.077 1.806-.267 3.685-1.661 5.687-1.005 1.447-2.03 1.735-2.583 2.587-.615.934-1.692 3.305-1.887 3.675-.184.37-2.88-1.283-2.88-1.283l4.972-12.042 2.173-3.86 4.49-3.326 2.389.308z" fill="#F2BB99"/><path d="M4.306 75.298c1.446-2.495 1.712-4.086 2.85-5.493 1.138-1.416 3.24-7.33 4.04-9.372.799-2.054.86-3.82 2.5-4.733a204.98 204.98 0 006.182-3.675c1.559-.986 2.84-.78 3.834-.924.995-.144 4.829-1.417 5.895-1.489 1.066-.072.851 1.201 0 1.91-.85.708-5.392 1.91-5.751 2.053-.359.144-5.044 2.967-5.044 2.967l-5.044 3.46-1.137 8.1-3.076 5.84-5.249 1.356z" fill="#F2BB99"/><path d="M24.912 53.257c1.302.113 1.65.184 2.614.729.964.533 2.133.954 2.122 1.344 0 .462-.41.75-1.332.832-.933.082-2.471-.637-2.779-.596-.307.041-3.967.226-4.51.534-.544.308-3.096 1.93-3.168 2.813-.082.883-4.295 2.269-4.295 2.269l-.585-2.546s8.201-4.425 8.335-4.507c.133-.072 3.598-.872 3.598-.872z" fill="#F2BB99"/><path opacity=".5" d="M24.912 53.257s-.225-.021-.615-.041c-.39-.021-.953-.072-1.63-.103-.338-.01-.707-.031-1.087-.041-.39 0-.81-.041-1.25.082a5.65 5.65 0 00-1.24.513c-.4.216-.78.462-1.16.719-.737.523-1.445 1.088-2.1 1.601-.329.257-.647.514-.954.73-.308.215-.615.41-.902.595-.574.359-1.025.729-1.261 1.057-.123.164-.185.308-.226.4-.03.103-.051.154-.051.154s.02-.051.072-.143c.051-.093.133-.216.266-.36.257-.297.728-.585 1.313-.913.297-.165.615-.34.953-.544.328-.216.666-.442 1.005-.699.686-.492 1.383-1.047 2.122-1.55.358-.256.738-.492 1.117-.708.38-.205.759-.4 1.138-.513.369-.103.78-.103 1.158-.123.39-.01.749-.01 1.087-.021.677 0 1.24-.03 1.63-.041.39-.03.615-.051.615-.051z" fill="#E8A680"/><path d="M21.2 58.05c.514.124 3.015.986 3.394 1.263.39.278 1.681 2.793 1.59 3.142-.114.41-1.16.513-1.733-.277-.451-.616-.933-1.284-.933-1.284-1.18-.05-2.307-.605-2.573-.523-.267.082-2.42 1.334-2.738 1.601-.307.267-1.363 1.325-1.927 2.32-.564.996-1.568 2.66-1.568 2.66s.646-6.376.789-6.427c.144-.051 2.225-1.622 2.348-1.622.123 0 2.634-1.027 3.352-.852z" fill="#F2BB99"/><path d="M28.131 54.335c-.41.297-.277.739.318 1.026.8.39 1.056.288 1.22.103.164-.185.102-.41-.287-.636-.4-.237-1.077-.616-1.251-.493zm-2.194-5.175c-.02.463.472.555 1.066.34.84-.298.83-.596.79-.843-.041-.246-.257-.338-.677-.184-.43.154-1.179.482-1.179.688zm-.461 11.59c-.513.011-.687.493-.39 1.079.4.79.81.831 1.015.75.236-.093.277-.299.092-.71-.174-.41-.502-1.118-.717-1.118zm2.594-10.737c.04.564.471.79 1.158.554.933-.308 1.056-.575 1.035-.852-.02-.267-.287-.431-.768-.308-.472.123-1.436.36-1.425.606z" fill="#F6D9C5"/><path opacity=".5" d="M45.005 76.889l6.12-4.712s.933-1.088 1.825-2.515c4.633-.514 9.718-1.427 13.03 2.504 3.474 4.127 14.351 42.676 14.351 42.676s-10.118-6.016-13.142-10.153c-3.024-4.137-4.06-15.163-4.06-15.163l-15.172.38c1.579-1.365 2.973-2.587 2.973-2.587s-.615-4.404-1.968-6.334c-1.087-1.56-2.594-1.745-2.696-2.762-.021-.246-1.436-.903-1.261-1.334z" fill="#E8A680"/><path d="M45.794 69.107c.338-1.14 1.927-2.463 5.187-1.652 3.26.81 4.736 1.119 5.157.256 0 0 1.599 2.136.492 3.398-1.107 1.263-10.836-2.002-10.836-2.002z" fill="#FAF1E3"/><path d="M47.557 68.83l.072-.072c.061-.061.133-.123.246-.194.215-.144.533-.329.953-.432a4.02 4.02 0 011.435-.102c.257.02.523.072.78.123.256.051.523.092.789.144 1.056.174 2.122.297 2.922.267.4-.021.738-.072.943-.165.215-.092.287-.226.287-.226s-.062.134-.277.236c-.215.113-.543.185-.953.226-.81.082-1.897.02-2.963-.102-.266-.031-.533-.072-.8-.103a6.858 6.858 0 00-.758-.082 3.604 3.604 0 00-1.292.154 2.602 2.602 0 00-.8.41 1.6 1.6 0 00-.174.154c-.04.042-.061.072-.061.072l-.349-.308zm8.683-.81s.113.133.215.359c.113.225.236.554.287.893.062.338.052.708-.03.985a2.264 2.264 0 01-.123.329c-.041.072-.062.123-.062.123l-.38-.288s.021-.03.062-.071c.041-.041.082-.123.133-.216.093-.195.175-.503.165-.821 0-.318-.052-.647-.123-.893-.062-.247-.144-.4-.144-.4z" fill="#F2E9D8"/><path d="M57.265 70.904a.311.311 0 00-.184-.328c-.759-.329-2.799-.924-5.905-1.376-2.327-.339-4.552-.513-5.372-.493a.321.321 0 00-.318.267l-.994 7.576c-.02.165.102.319.287.34l11.133 1.539 1.353-7.525z" fill="#FF5C00"/><path d="M46.46 71.94c1.015-.266 2-.605 3.086-.369 0 0-1.087-.513-1.456-1.119-.369-.605-.287-1.53.954-1.385.615.071 4.603 1.15 5.474 1.59.882.442 2.296 1.253 2.84 1.859.543.605 2.419 2.926 2.716 3.85.175.523.574 2.587.738 4.568.134 1.755.533 4.876.82 5.964.646 2.475 4.02 7.874 4.02 7.874 1.076 1.684 2.572 3.942 3.567 5.092 1.691 1.961 9.38 8.439 10.59 11.703.758 2.105 1.301 3.83 1.363 4.599.215 2.423-.287 8.542-2.348 9.825-2.06 1.283-7.535-.431-10.805-6.19-3.27-5.77-5.187-12.597-6.612-16.303-1.425-3.706-3.711-9.886-4.49-10.594-.78-.708-3.414-1.57-4.05-4.763-.635-3.203-.779-4.384-1.066-5.523-.287-1.14-.697-2.239-1.168-2.68-.472-.441-1.487-1.57-1.692-1.601-.902-.134-2.501-.308-2.624-1.232-.134-1.037 1.548-.811 1.958-.914 0 0-2.286.123-2.46-.832-.206-1.088 1.055-1.334 2.234-1.457 0 0-2.173.41-2.614-.472-.44-.883.01-1.222 1.025-1.49z" fill="#F2BB99"/><path opacity=".5" d="M49.546 71.571l1.497.544c.44.165.963.37 1.486.616.267.124.533.267.79.421.266.154.491.308.738.524.45.39.902.831 1.332 1.232.42.4.82.78 1.159 1.098.338.329.635.585.84.77l.318.288s-.092-.124-.256-.34c-.175-.215-.41-.523-.708-.882a22.92 22.92 0 00-1.066-1.201c-.4-.431-.84-.873-1.332-1.294a6.093 6.093 0 00-.8-.544 7.952 7.952 0 00-.85-.4 11.479 11.479 0 00-1.58-.503c-.471-.123-.86-.185-1.137-.247a5.654 5.654 0 00-.431-.082z" fill="#E8A680"/><path d="M50.212 69.385c.175.544-.277.903-1.015.79-.984-.144-1.168-.564-1.158-.81.01-.278.215-.401.718-.35.512.041 1.384.133 1.455.37zm-2.962 2.351c.41.41.163.934-.534 1.17-.943.328-1.291.03-1.404-.195-.113-.257.01-.462.482-.647.461-.185 1.281-.493 1.456-.328zm.328 2.268c.41.411.164.935-.533 1.17-.944.319-1.292.032-1.405-.194-.113-.257.01-.462.482-.647.461-.185 1.281-.503 1.456-.329z" fill="#F6D9C5"/><path d="M51.545 68.8s.072.02.205.04c.133.021.318.032.533.042a15.9 15.9 0 002.502-.164c.276-.041.523-.093.738-.165.102-.03.194-.082.277-.112a1.07 1.07 0 00.194-.124l.144-.143s-.03.061-.113.174a1.486 1.486 0 01-.461.318 3.37 3.37 0 01-.749.247c-.276.072-.584.102-.881.133-.308.02-.605.041-.892.02-.287 0-.554-.04-.78-.071-.225-.03-.41-.093-.543-.134a.635.635 0 01-.174-.061z" fill="#F2E9D8"/><path opacity=".5" d="M47.578 73.994s.143-.051.42-.113a3.15 3.15 0 011.169-.051 9.332 9.332 0 013.28 1.17c.277.154.543.37.759.565.235.195.45.4.656.595.42.39.779.78 1.087 1.109.604.678.973 1.16.973 1.16s-.123-.092-.328-.267c-.205-.174-.502-.41-.85-.708-.35-.298-.749-.637-1.18-1.006-.215-.185-.44-.37-.666-.555a6.993 6.993 0 00-.707-.523 12.677 12.677 0 00-1.579-.8 11.87 11.87 0 00-1.486-.524 3.163 3.163 0 00-1.097-.103c-.298.02-.451.051-.451.051zm.472 2.29s.133-.02.358-.031c.236-.01.584 0 .984.113.78.226 1.764.667 2.604 1.314.205.154.41.349.564.523.174.175.328.36.482.534.297.35.564.688.779.986.43.585.677.996.677.996s-.093-.083-.246-.247c-.154-.154-.38-.37-.626-.647-.256-.267-.553-.585-.871-.913a23.636 23.636 0 01-.492-.514 4.716 4.716 0 00-.533-.482 10.61 10.61 0 00-1.23-.811c-.42-.236-.82-.431-1.18-.585a3.097 3.097 0 00-.912-.216c-.225-.02-.359-.02-.359-.02z" fill="#E8A680"/><path d="M48.347 76.232c.287.442-.031.863-.708.934-.902.103-1.158-.215-1.21-.441-.05-.246.093-.41.554-.482.461-.072 1.25-.195 1.364-.01z" fill="#F6D9C5"/></g><defs><radialGradient id="paint1_radial" cx="0" cy="0" r="1" gradientUnits="userSpaceOnUse" gradientTransform="matrix(6.93166 -.84047 .4386 3.61733 49.172 49.028)"><stop stop-color="#E8A680"/><stop offset="1" stop-color="#fff" stop-opacity="0"/></radialGradient><radialGradient id="paint2_radial" cx="0" cy="0" r="1" gradientUnits="userSpaceOnUse" gradientTransform="matrix(17.03788 -1.57366 .82392 8.92053 42.976 27.217)"><stop stop-color="#E8A680"/><stop offset="1" stop-color="#fff" stop-opacity="0"/></radialGradient><radialGradient id="paint3_radial" cx="0" cy="0" r="1" gradientUnits="userSpaceOnUse" gradientTransform="matrix(8.82279 -4.60108 3.3996 6.51888 25.58 31.49)"><stop stop-color="#E8A680"/><stop offset="1" stop-color="#fff" stop-opacity="0"/></radialGradient><radialGradient id="paint4_radial" cx="0" cy="0" r="1" gradientUnits="userSpaceOnUse" gradientTransform="matrix(-7.0968 -.86057 .43864 -3.61733 28.187 49.008)"><stop stop-color="#E8A680"/><stop offset="1" stop-color="#fff" stop-opacity="0"/></radialGradient><radialGradient id="paint6_radial" cx="0" cy="0" r="1" gradientUnits="userSpaceOnUse" gradientTransform="matrix(6.93166 -.84047 .4386 3.61733 49.172 49.028)"><stop stop-color="#E8A680"/><stop offset="1" stop-color="#fff" stop-opacity="0"/></radialGradient><radialGradient id="paint7_radial" cx="0" cy="0" r="1" gradientUnits="userSpaceOnUse" gradientTransform="matrix(17.03788 -1.57366 .82392 8.92053 42.976 27.217)"><stop stop-color="#E8A680"/><stop offset="1" stop-color="#fff" stop-opacity="0"/></radialGradient><radialGradient id="paint8_radial" cx="0" cy="0" r="1" gradientUnits="userSpaceOnUse" gradientTransform="matrix(8.82279 -4.60108 3.3996 6.51888 25.58 31.49)"><stop stop-color="#E8A680"/><stop offset="1" stop-color="#fff" stop-opacity="0"/></radialGradient><radialGradient id="paint9_radial" cx="0" cy="0" r="1" gradientUnits="userSpaceOnUse" gradientTransform="matrix(-7.0968 -.86057 .43864 -3.61733 28.187 49.008)"><stop stop-color="#E8A680"/><stop offset="1" stop-color="#fff" stop-opacity="0"/></radialGradient><linearGradient id="paint0_linear" x1="39.105" y1="68.685" x2="39.105" y2="60.319" gradientUnits="userSpaceOnUse"><stop stop-color="#F2BB99"/><stop offset="1" stop-color="#E8A680"/></linearGradient><linearGradient id="paint5_linear" x1="39.105" y1="68.685" x2="39.105" y2="60.319" gradientUnits="userSpaceOnUse"><stop stop-color="#F2BB99"/><stop offset="1" stop-color="#E8A680"/></linearGradient></defs></svg>