<svg width="75" height="83" viewBox="0 0 75 83" fill="none" xmlns="http://www.w3.org/2000/svg"><mask id="mask0" maskUnits="userSpaceOnUse" x="3" y="14" width="69" height="69"><circle cx="37.67" cy="48.517" r="34.235" fill="#FFD15A"/></mask><g mask="url(#mask0)"><circle cx="37.67" cy="48.517" r="34.235" fill="#FFD15A"/><path d="M17.438 24.147c-2.12 6.686-3.027 17.317-3.143 26.313-.116 8.997-.221 14.365.443 15.03.665.664 3.491.748 6.096.2.992-.2 5.854-2.415 12.804-2.974L24.04 23.008l-6.602 1.139zm37.198-2.036c3.227 6.465 5.326 23.572 6 28.666.665 5.094.518 12.002.19 12.445-.337.443-4.735 2.352-5.842 2.457-1.118.116-8.29-3.786-14.86-3.448-5.347.274-4.64-4.04-4.64-4.04l19.152-36.08z" fill="#4D2F0E"/><path d="M52.98 40.042c.285-1.456.939-2.384 1.888-2.289.95.095 1.93 2.383 1.456 4.092-.486 1.709-1.245 1.972-.981 3.132.263 1.16-1.54 3.333-2.194 1.55-.665-1.771-.169-6.485-.169-6.485z" fill="#E7CCBC"/><path opacity=".5" d="M52.98 40.042c.285-1.456.939-2.384 1.888-2.289.95.095 1.93 2.383 1.456 4.092-.486 1.709-1.245 1.972-.981 3.132.263 1.16-1.54 3.333-2.194 1.55-.665-1.771-.169-6.485-.169-6.485z" fill="#E8A680"/><path d="M54.868 37.752c-.812-.084-1.413.58-1.74 1.698l.559 3.07c-.148-1.32.474-5.527 2.468-3.28-.306-.813-.802-1.435-1.287-1.488zM22.49 40.093c-.285-1.455-.939-2.383-1.888-2.289-.95.095-1.93 2.384-1.455 4.093.485 1.708 1.244 1.972.98 3.132-.263 1.16 1.54 3.333 2.194 1.55.665-1.782.169-6.486.169-6.486z" fill="#E7CCBC"/><path opacity=".5" d="M22.49 40.093c-.285-1.455-.939-2.383-1.888-2.289-.95.095-1.93 2.384-1.455 4.093.485 1.708 1.244 1.972.98 3.132-.263 1.16 1.54 3.333 2.194 1.55.665-1.782.169-6.486.169-6.486z" fill="#E8A680"/><path d="M20.602 37.804c.812-.084 1.414.58 1.74 1.699l-.558 3.08c.147-1.32-.475-5.527-2.468-3.28.306-.823.801-1.446 1.286-1.498z" fill="#E7CCBC"/><path d="M22.31 55.512c0-5.23-1.149-21.24-.558-25.322l-3.428-6.191-.875.148c-2.12 6.686-3.228 16.621-3.597 26.314-.348 8.985-.79 14.142-.116 14.807.359.358 2.616 1.044 5.738 1.044 1.75 0 3.3-.59 3.3-.59.317-.865-.463-5.369-.463-10.21zm39.899 5.558c-.095-3.522-.37-8.985-.58-11.042-.412-4.04-1.055-9.481-1.677-13.489-.907-5.8-1.614-10.473-4.114-15.799-2.668-5.705-1.518 1.677-1.75 2.12l-1.92-.96c-.042.074 1.856 1.108 1.856 1.192l-.748 10.241c-.095 4.851-.022 15.208.073 21.051.053 3.08-.2 10.863.211 11.56.222.368 3.702.062 4.409-.011 1.75-.18 3.3-.718 3.923-1.024a.63.63 0 00.338-.527c-.01-.728 0-2.362-.021-3.312z" fill="#593515"/><path d="M46.114 57.19l-7.361 2.299-7.362-1.371c1.15 2.9.285 8.69-3.385 10.662H49.5c-3.66-1.972-4.535-8.69-3.386-11.59z" fill="url(#paint0_linear)"/><path d="M39.27 62.21c2.552.105 7.361-4.883 9.787-7.436 2.425-2.552 4.387-6.127 4.64-11.495.253-5.369.38-14.302-.643-19.153-1.023-4.852-8.047-10.853-15.577-10.346-7.53.506-17.402 5.241-16.611 16.315.79 11.17.19 14.544 1.645 18.647.886 2.5 2.932 4.83 5.505 7.235 3.365 3.174 7.626 6.096 11.254 6.233z" fill="#E7CCBC"/><path d="M35.947 47.983s0 .031-.01.094c-.01.064-.01.148-.01.254.01.105.031.232.094.358.063.127.18.232.327.295.148.064.338.095.528.085.052 0 .094-.01.147-.021.095-.01.106-.021.2-.01.19.01.296.073.422.136.232.137.433.296.612.412.19.116.348.137.517.063.221-.095.4-.211.622-.359.211-.147.485-.263.749-.316.253-.053.527-.032.717-.032.127 0 .18-.01.264-.031a.407.407 0 00.2-.106c.106-.095.137-.253.137-.39a.956.956 0 00-.074-.37c-.073-.2-.168-.294-.168-.294s.02.02.074.052c.042.042.116.106.179.2.063.096.126.233.158.39.032.159.042.391-.116.591-.137.2-.422.296-.643.306-.243.021-.443.032-.654.085-.211.052-.39.158-.59.284a5.345 5.345 0 01-.686.412.877.877 0 01-.496.063 1.321 1.321 0 01-.432-.169c-.243-.147-.412-.327-.591-.443a.843.843 0 00-.232-.105c-.021-.01-.127 0-.137-.01-.063 0-.127.01-.19 0a1.327 1.327 0 01-.654-.201.839.839 0 01-.358-.464 1.058 1.058 0 01-.032-.432c.063-.212.126-.317.126-.328z" fill="#E8A680"/><path d="M45.619 19.338c-1.899 5.79-21.948 5.653-25.407 15.25 0 0-4.546-4.978-2.763-10.441 1.782-5.463 5.357-9.492 11.865-12.055 6.507-2.563 13.067-1.34 14.913 0 1.835 1.34 1.392 7.246 1.392 7.246z" fill="#593515"/><path d="M44.891 20.55c-.053 1.9 4.978 8.765 8.806 11.054 0 0 5.295.39 4.114-4.145-.327-1.255-.992-4.862-2.89-8.29-2.932-5.305-8.807-7.804-9.587-4.862-.95 3.575-.443 6.244-.443 6.244z" fill="#593515"/><path d="M52.8 34.082c-2.383-.549-3.743-2.173-5.663-2.236-1.92-.063-4.967 1.318-5.252 1.118-.285-.2-.643-1.403-.19-1.782.454-.39 5.042-1.108 6.244-.739.633.2 1.487.802 2.31 1.424a29.598 29.598 0 012.552 2.215zm-31.006.718c2.193-.444 4.355-2.458 6.412-2.606 2.057-.158 5.442 1.17 5.737.96.296-.21.612-1.424.095-1.793-.516-.37-5.073-1.086-6.307-.59-1.845.727-5.937 4.028-5.937 4.028z" fill="#4D2F0E"/><path d="M60.215 53.846s-.042-.253-.137-.675c-.084-.422-.21-1.044-.337-1.782a75.329 75.329 0 01-.39-2.532c-.053-.463-.127-.938-.18-1.434-.053-.485-.105-.98-.158-1.476l-.127-1.487c-.042-.486-.063-.97-.105-1.435a47.828 47.828 0 01-.106-2.552c-.031-1.498.032-2.51.032-2.51s.264.97.527 2.447c.137.738.274 1.603.401 2.53.063.465.137.94.18 1.435l.158 1.477.126 1.487c.042.485.063.97.095 1.445.053.938.084 1.803.084 2.563.011.748-.01 1.381-.031 1.824 0 .432-.032.675-.032.675zm-.896 11.211s-.043-.327-.148-.875a58.286 58.286 0 01-.358-2.278 113.04 113.04 0 01-.422-3.238c-.064-.59-.148-1.202-.2-1.824a601.22 601.22 0 01-.19-1.888c-.053-.633-.106-1.276-.148-1.899-.053-.622-.085-1.244-.127-1.835a84.216 84.216 0 01-.148-3.27c-.052-1.919-.01-3.205-.01-3.205s.285 1.255.57 3.143c.147.949.305 2.046.443 3.237.063.59.147 1.203.21 1.835.064.623.127 1.255.19 1.899.053.633.106 1.265.148 1.898.053.623.084 1.245.116 1.846a81.26 81.26 0 01.126 3.27c.021.96.011 1.76 0 2.33-.02.538-.052.854-.052.854zM16.942 49.11s.022.254.074.686c.043.432.116 1.055.169 1.804.063.748.116 1.624.158 2.552.01.464.042.95.053 1.445.01.495.021.991.021 1.487 0 .495 0 1.002-.01 1.487 0 .485-.022.97-.032 1.445a71.21 71.21 0 01-.127 2.552 36.3 36.3 0 01-.253 2.5s-.18-.992-.306-2.49a50.174 50.174 0 01-.168-2.552c-.021-.464-.053-.949-.053-1.445-.01-.485-.021-.99-.021-1.487 0-.495.01-1.002.01-1.487 0-.485.021-.97.032-1.445a50.99 50.99 0 01.148-2.552c.063-.749.137-1.37.2-1.814.042-.443.105-.685.105-.685zm1.751-6.643s.021.253.074.685c.042.432.116 1.055.169 1.803.063.75.116 1.625.158 2.553.01.464.042.949.053 1.445.01.495.02.991.02 1.487 0 .495 0 1.002-.01 1.487 0 .485-.02.97-.031 1.445a71.215 71.215 0 01-.127 2.552 36.3 36.3 0 01-.253 2.5s-.18-.992-.306-2.49a50.167 50.167 0 01-.169-2.552c-.01-.464-.052-.949-.052-1.445-.01-.495-.021-.991-.021-1.487 0-.495.01-1.002.01-1.487 0-.495.021-.97.032-1.445.031-.938.084-1.803.147-2.552a32.64 32.64 0 01.2-1.814c.043-.443.106-.685.106-.685zM43.9 17.05s-.032.094-.085.263c-.074.169-.169.432-.358.728-.359.611-1.034 1.392-1.994 2.13-.949.76-2.151 1.466-3.49 2.11a35.239 35.239 0 01-4.293 1.676c-.749.232-1.487.464-2.236.654-.359.095-.707.2-1.065.296-.18.052-.359.105-.538.147a8.55 8.55 0 00-.475.169c-.158.053-.316.105-.464.158-.158.063-.306.127-.453.19l-.454.19c-.147.074-.285.137-.422.21-.57.264-1.065.58-1.518.887-.433.327-.834.633-1.15.96-.316.316-.57.622-.77.885-.19.274-.337.496-.411.654-.084.158-.127.253-.127.253s-.02-.4.18-1.075c.116-.327.263-.75.516-1.171.116-.222.275-.433.433-.675a9.341 9.341 0 012.078-1.983c.147-.105.295-.2.442-.306.159-.095.317-.179.475-.274.158-.095.327-.19.485-.274.18-.085.348-.158.527-.243.18-.084.36-.158.538-.242.17-.064.348-.127.517-.19.18-.063.348-.127.527-.19.19-.063.38-.127.57-.18.717-.231 1.445-.463 2.173-.695 2.9-.928 5.758-1.888 7.783-2.869 1.002-.496 1.793-1.002 2.289-1.434a4.72 4.72 0 00.559-.538 4.52 4.52 0 00.21-.222z" fill="#6E431E"/><path d="M43.752 17.018s-.021.073-.063.2c-.053.127-.127.316-.285.527-.148.211-.37.433-.654.665a5.481 5.481 0 01-1.023.633c-.2.094-.4.2-.622.284-.222.095-.443.18-.686.264a8.568 8.568 0 01-.738.232 16.89 16.89 0 01-.78.21c-.528.127-1.087.233-1.656.338-.57.085-1.14.18-1.72.243-.569.063-1.149.127-1.718.2-.56.095-1.097.159-1.625.285-.263.053-.516.116-.77.18a12.076 12.076 0 00-2.024.685c-.19.084-.38.18-.549.274a4.18 4.18 0 00-.485.274c-.295.18-.538.37-.728.538-.38.338-.527.58-.527.58s.116-.274.464-.654c.18-.179.4-.4.686-.611a6.439 6.439 0 011.012-.644c.39-.21.823-.4 1.297-.58.475-.179.981-.348 1.519-.464a16.044 16.044 0 011.666-.327c.57-.074 1.14-.137 1.72-.21a31.58 31.58 0 001.708-.222c.559-.095 1.107-.18 1.635-.295.263-.053.516-.116.77-.17a7.08 7.08 0 00.727-.189c.243-.063.464-.137.686-.21.221-.075.422-.16.622-.243.791-.327 1.392-.728 1.72-1.118.168-.19.263-.359.337-.475.052-.137.084-.2.084-.2zm2.225 2.235s.01.053.021.137c.01.095.043.221.095.38.042.147.127.337.211.548.095.211.211.443.338.686.126.242.284.506.443.78.158.274.358.549.538.844.4.58.833 1.181 1.297 1.761.221.295.474.57.706.854.254.264.475.56.718.802.253.242.464.517.696.728.232.221.443.453.643.643.21.19.4.37.559.538.169.158.327.295.443.411.242.232.39.37.39.37s-.18-.075-.495-.212c-.317-.126-.75-.358-1.245-.664-.253-.148-.506-.338-.78-.538a9.095 9.095 0 01-.823-.664 18.636 18.636 0 01-.823-.78c-.263-.286-.527-.58-.77-.887a9.835 9.835 0 01-.685-.949c-.222-.316-.4-.654-.58-.97a11.127 11.127 0 01-.454-.96 6.64 6.64 0 01-.316-.907 7.42 7.42 0 01-.18-.79 3.514 3.514 0 01-.042-.634c-.01-.179.032-.306.053-.39.042-.095.042-.137.042-.137zm-3.237-6.096s-.117-.031-.338-.095c-.222-.074-.549-.126-.96-.19a10.24 10.24 0 00-1.508-.105c-.58-.01-1.244.032-1.951.095-.717.074-1.477.2-2.289.348-.801.169-1.645.38-2.5.633-.854.253-1.718.57-2.583.928-.865.348-1.72.76-2.553 1.213-.843.432-1.645.938-2.415 1.466-.748.548-1.497 1.075-2.151 1.677a24.71 24.71 0 00-1.835 1.793c-.274.305-.517.611-.77.906-.232.306-.464.602-.686.886-.4.591-.78 1.14-1.075 1.646-.317.495-.528.97-.75 1.34-.368.769-.59 1.212-.59 1.212s.032-.116.074-.348c.053-.222.116-.559.232-.97.148-.401.264-.928.517-1.477.116-.274.232-.58.38-.886.147-.306.316-.622.485-.96.19-.326.39-.664.6-1.012.233-.338.465-.686.728-1.023.528-.686 1.108-1.392 1.793-2.046A19.47 19.47 0 0124.81 16.3c.812-.57 1.656-1.128 2.542-1.603a24.354 24.354 0 012.732-1.234c.917-.37 1.856-.622 2.773-.854.907-.243 1.814-.37 2.669-.475a17.587 17.587 0 012.425-.105c.75.02 1.435.084 2.036.19a9.506 9.506 0 011.529.38c.21.063.39.147.538.21.158.063.285.127.38.19.2.095.305.158.305.158z" fill="#6E431E"/><path opacity=".15" d="M23.481 38.438c.043 1.54.791 4.619 3.829 5.357 3.027.738 5.569-2.215 4.904-4.134-.675-1.92-8.733-1.224-8.733-1.224zm28.676-.18c-.042 1.54-.801 4.62-3.838 5.358-3.038.738-5.59-2.215-4.926-4.134.675-1.92 8.764-1.224 8.764-1.224z" fill="#47ACD1"/><path d="M46.241 14.645s.232.073.622.221c.19.084.433.158.696.295.264.137.57.285.897.475.316.2.654.411 1.002.664.337.275.706.538 1.065.865.348.327.717.665 1.055 1.044.358.37.674.791 1.002 1.203.305.432.622.854.885 1.318.285.443.517.907.75 1.36.22.465.421.907.59 1.35.18.433.316.855.432 1.255.243.791.38 1.466.464 1.941.074.475.106.76.106.76s-.137-.233-.338-.655c-.105-.21-.242-.453-.38-.738-.147-.285-.316-.59-.495-.938-.19-.338-.39-.697-.601-1.087-.211-.39-.464-.77-.707-1.17-.253-.401-.506-.813-.79-1.213-.265-.412-.57-.802-.855-1.203-.306-.39-.601-.79-.907-1.15-.306-.379-.622-.727-.928-1.075-.306-.348-.612-.654-.897-.97-.306-.285-.58-.57-.843-.844a16.349 16.349 0 01-.728-.685c-.211-.211-.422-.38-.58-.528a23.745 23.745 0 01-.517-.495z" fill="#6E431E"/><path d="M49.331 14.36s.158.105.432.316c.138.095.296.232.475.38.18.147.39.327.59.538.212.2.422.432.644.685.232.243.443.527.675.812.21.296.443.59.643.918.211.316.412.654.602.991.179.338.369.686.527 1.034.169.348.316.696.453 1.033.275.675.475 1.33.633 1.878.169.558.253 1.033.316 1.36.064.338.085.527.085.527s-.074-.179-.18-.495c-.105-.317-.284-.77-.484-1.297-.2-.538-.475-1.15-.77-1.804-.148-.327-.317-.654-.475-.991-.169-.338-.348-.665-.527-1.002a25.184 25.184 0 00-1.16-1.899c-.211-.285-.39-.58-.602-.833-.19-.264-.39-.506-.57-.728-.368-.432-.674-.801-.917-1.033a11.08 11.08 0 01-.39-.39zM34.07 17.397s-.348.084-.97.222c-.317.063-.686.158-1.108.263-.421.106-.907.222-1.423.38-.517.137-1.076.316-1.656.506-.295.084-.59.19-.886.316l-.918.349c-.611.274-1.244.527-1.856.854-.633.295-1.223.675-1.824 1.044-.57.411-1.16.79-1.667 1.255-.538.432-.991.939-1.445 1.403-.38.527-.822.991-1.107 1.529-.158.264-.327.506-.454.749-.126.253-.242.506-.348.748-.253.475-.369.95-.527 1.35-.063.211-.148.401-.19.58-.042.18-.084.36-.116.507-.147.622-.232.97-.232.97s.01-.359.042-1.002c.011-.158.021-.337.032-.527.01-.19.074-.401.106-.612.095-.432.147-.95.358-1.466.095-.264.19-.538.285-.823.105-.284.274-.548.411-.833.264-.59.675-1.128 1.076-1.708.464-.517.907-1.108 1.487-1.572.527-.517 1.15-.928 1.75-1.37.644-.37 1.277-.77 1.941-1.066.644-.338 1.33-.559 1.973-.812.654-.2 1.286-.422 1.909-.559.305-.074.6-.137.896-.211.285-.063.57-.095.844-.148.274-.042.527-.095.78-.126.253-.021.485-.053.707-.074.443-.053.833-.084 1.15-.084l.98-.032z" fill="#6E431E"/><path d="M20.908 32.3c-.37-.296-.56-.053-.928-.349-.37-.295-.17-.538-.538-.833-.37-.295-.56-.053-.918-.348l-.527-.422-.633-.517-.063-.052a.096.096 0 00-.127.01l-.126.169a.096.096 0 00.01.127l.064.052.632.517.528.422c.369.295.559.053.928.348s.168.538.538.833c.369.295.559.053.928.348.358.285.179.527.517.812 0 .01 0 .01.01.021l.221.18c.064.105.486.759.791.39.306-.38-.432-.644-.548-.686l-.221-.179s-.01 0-.022-.01v-.011c-.348-.243-.158-.538-.516-.823z" fill="#47ACD1"/><path opacity=".5" d="M22.268 33.87c-.306.38-.727-.284-.79-.39l-.222-.179c-.01 0-.01-.01-.01-.02-.338-.286-.159-.528-.518-.813-.369-.295-.559-.053-.928-.348s-.168-.538-.538-.833c-.369-.295-.559-.053-.928-.348l-.527-.422-.633-.517-.063-.052c-.01-.011-.021-.032-.032-.043l-.031.053a.096.096 0 00.01.127l.064.052.632.517.528.422c.369.295.559.053.928.348s.168.538.538.833c.369.296.559.053.928.348.358.285.179.528.517.812 0 .01 0 .01.01.021l.221.18c.064.105.486.759.791.39a.385.385 0 00.074-.148c0-.01-.01 0-.02.01z" fill="#47ACD1"/><path d="M20.676 33.523c-.338-.327-.548-.106-.886-.433-.337-.326-.116-.548-.453-.875-.338-.327-.549-.105-.886-.432l-.486-.475-.58-.57-.063-.063a.098.098 0 00-.127 0l-.137.148a.098.098 0 000 .127l.064.052.58.57.485.474c.337.327.548.106.886.433.337.327.116.548.453.875.338.327.549.106.886.433.327.327.127.538.443.864 0 .011 0 .011.01.021l.201.2c.053.117.411.813.749.465.337-.348-.37-.686-.475-.738l-.2-.2s-.01 0-.021-.011l.01-.01c-.348-.264-.126-.539-.453-.855z" fill="#47ACD1"/><path opacity=".5" d="M21.878 35.22c-.337.349-.696-.347-.749-.463l-.2-.2s0-.011-.01-.022c-.317-.316-.117-.537-.444-.864-.337-.327-.548-.106-.886-.433-.337-.327-.116-.548-.453-.875-.338-.327-.549-.106-.886-.433l-.485-.474-.58-.57-.064-.052a.08.08 0 01-.02-.053l-.043.042a.096.096 0 000 .127l.063.052.58.57.486.474c.337.327.548.106.886.433.337.327.116.548.453.875.338.327.549.106.886.432.327.328.127.538.443.865 0 .01 0 .01.01.021l.2.2c.054.117.412.813.75.465a.353.353 0 00.084-.148c-.01.01-.01.021-.021.032z" fill="#47ACD1"/><path d="M54.383 30.253c.369-.295.559-.052.928-.348.37-.295.169-.538.538-.833.369-.295.559-.053.917-.348l.528-.422.633-.517.063-.052a.096.096 0 01.126.01l.127.159a.096.096 0 01-.01.126l-.064.053-.633.517-.527.421c-.37.296-.559.053-.928.349-.37.295-.169.537-.538.833-.37.295-.559.052-.928.348-.359.284-.18.527-.517.812 0 .01 0 .01-.01.02l-.222.18c-.063.106-.485.76-.79.39-.307-.38.431-.643.547-.685l.222-.18c.01 0 .01 0 .021-.01v-.01c.348-.233.158-.517.517-.813z" fill="#47ACD1"/><path opacity=".5" d="M53.022 31.825c.306.38.728-.285.791-.39l.222-.18c.01 0 0-.01.01-.02.338-.285.158-.528.517-.813.37-.295.56-.053.928-.348.37-.295.169-.538.538-.833.37-.295.56-.053.928-.348l.527-.422.633-.517.064-.052c.01-.011.02-.032.031-.043l.032.043a.096.096 0 01-.01.126l-.064.053-.633.517-.527.422c-.37.295-.559.052-.928.348-.37.295-.169.537-.538.833-.37.295-.559.052-.928.348-.359.285-.18.527-.517.812 0 .01 0 .01-.01.02l-.222.18c-.063.106-.485.76-.791.39a.388.388 0 01-.074-.147c.01.01.01.02.021.02z" fill="#47ACD1"/><path d="M54.615 31.487c.337-.327.548-.105.886-.432.337-.327.116-.549.453-.875.338-.327.549-.106.886-.433l.485-.474.58-.58.064-.064c.031-.031.095-.031.126 0l.137.148a.096.096 0 010 .126l-.063.053-.58.57-.485.474c-.338.327-.549.106-.886.433-.338.327-.116.548-.454.875-.337.327-.548.105-.886.432-.327.327-.126.538-.443.865 0 .01 0 .01-.01.021l-.2.2c-.053.117-.412.813-.75.465-.337-.348.36-.686.475-.738l.2-.2s.011 0 .022-.011v-.01c.337-.254.116-.528.443-.845z" fill="#47ACD1"/><path opacity=".5" d="M53.413 33.175c.337.348.696-.348.748-.464l.2-.2s0-.011.011-.022c.317-.316.106-.537.443-.864.338-.327.549-.106.886-.433.338-.327.116-.548.454-.875.337-.327.548-.106.886-.433l.485-.474.58-.57.063-.052a.08.08 0 00.021-.053l.043.042a.096.096 0 010 .127l-.064.052-.58.57-.485.474c-.337.327-.548.106-.886.433-.337.327-.116.548-.453.875-.338.327-.549.106-.886.433-.327.327-.127.538-.443.864 0 .011 0 .011-.01.022l-.201.2c-.053.116-.412.812-.749.464a.353.353 0 01-.084-.148c.01.021.02.021.02.032z" fill="#47ACD1"/><path d="M33.079 54.848c.738-1.128 3.596-2.773 4.851-2.531 1.255.243 1.15.095 2.1.063.948-.031 3.036 1.287 4.102 2.458 0 0-1.234.875-2.426 1.244-1.392.422-2.426.116-3.238.095-.654-.021-1.909.264-3.048-.19a19.722 19.722 0 01-2.341-1.139z" fill="#E49084"/><path d="M32.414 55.133s.053-.01.148-.032a9.84 9.84 0 00.39-.137c.327-.126.791-.285 1.371-.453.285-.085.612-.17.95-.232a15.87 15.87 0 011.096-.18c.38-.052.791-.073 1.192-.084.411-.01.823 0 1.245.021 1.677.074 3.343.306 4.492.654.285.084.549.169.77.264.222.084.412.168.56.242.147.074.263.127.347.169.074.042.116.063.116.063s-.031-.02-.105-.074c-.063-.052-.169-.116-.306-.2a7.192 7.192 0 00-1.276-.601c-.285-.106-.601-.2-.95-.295a10.24 10.24 0 00-1.117-.243 20.808 20.808 0 00-2.51-.264 13.332 13.332 0 00-1.298-.01c-.432.01-.854.053-1.255.116a10.894 10.894 0 00-2.078.506c-.569.2-1.001.411-1.307.559-.148.074-.264.127-.348.169-.074.02-.127.042-.127.042z" fill="#D97F73"/><path d="M23.08 37.098l.264-.316c.169-.2.422-.464.749-.77.643-.601 1.593-1.35 2.721-1.761a4.477 4.477 0 011.72-.296 3.79 3.79 0 011.465.38c.4.19.696.411.897.57.2.158.305.263.305.263s-.116-.095-.316-.242a4.935 4.935 0 00-.918-.507 3.536 3.536 0 00-1.423-.274 4.621 4.621 0 00-1.614.348c-1.055.443-1.94 1.203-2.542 1.804-.306.306-.527.58-.685.77-.158.19-.243.305-.243.305l-.38-.274z" fill="#E8A680"/><path d="M32.214 40.136c.032-1.287-.517-3.26-2.025-4.272-1.508-1.012-3.554-.527-4.757.063-1.002.496-2.404.918-3.448.465 0 0 .727 2.109 2.689 2.72 1.677.517 7.54 1.023 7.54 1.023z" fill="#4D2F0E"/><path d="M24.199 38.258s.548 3.354 3.417 4.24c3.259 1.002 4.345-1.487 4.345-1.487l-7.762-2.753z" fill="#4D2F0E"/><path d="M32.182 40.631c.254-1.244-.748-3.765-3.1-4.24-2.341-.474-4.883 1.867-4.883 1.867s1.107 3.934 5.22 4.134l2.763-1.76z" fill="#fff"/><path d="M30.421 37.868a2.321 2.321 0 00-2.763 1.761 2.33 2.33 0 001.761 2.763 2.33 2.33 0 002.763-1.761 2.33 2.33 0 00-1.761-2.763z" fill="#47ACD1"/><path d="M30.896 39.334a1.402 1.402 0 00-1.677 1.065 1.402 1.402 0 001.065 1.677 1.402 1.402 0 001.677-1.065 1.402 1.402 0 00-1.065-1.677z" fill="#4D2F0E"/><path d="M31.74 39.925a.79.79 0 11-1.583 0 .79.79 0 01.791-.791c.443 0 .791.348.791.79z" fill="#fff"/><path d="M51.778 37.372s-.316-.464-.886-1.086c-.57-.612-1.424-1.382-2.457-1.814a4.078 4.078 0 00-1.593-.337c-.517 0-1.012.116-1.403.284a5.36 5.36 0 00-.896.496l-.316.232s.105-.095.295-.253.485-.37.875-.57c.39-.19.876-.358 1.435-.39.548-.031 1.139.074 1.687.275 1.107.41 2.025 1.18 2.647 1.782.317.306.549.58.717.78.159.2.253.306.253.306l-.358.295z" fill="#E8A680"/><path d="M43.204 40.136c-.043-1.287.516-3.26 2.025-4.272 1.508-1.012 3.554-.527 4.756.063 1.002.496 2.036 1.203 3.449.928 0 0-.992 1.857-2.69 2.258-1.698.4-7.54 1.023-7.54 1.023z" fill="#4D2F0E"/><path d="M51.219 38.258s-.485 3.344-3.417 4.24c-3.26 1.002-4.346-1.487-4.346-1.487l7.763-2.753z" fill="#4D2F0E"/><path d="M43.246 40.631c-.253-1.244.748-3.765 3.1-4.24 2.342-.474 4.884 1.867 4.884 1.867s-1.108 3.934-5.221 4.135l-2.763-1.762z" fill="#fff"/><path d="M45.007 37.868a2.32 2.32 0 012.763 1.761 2.32 2.32 0 01-1.761 2.764 2.329 2.329 0 01-2.763-1.762 2.321 2.321 0 011.761-2.763z" fill="#47ACD1"/><path d="M44.532 39.334A1.402 1.402 0 0146.21 40.4a1.402 1.402 0 01-1.065 1.677 1.402 1.402 0 01-1.677-1.065 1.402 1.402 0 011.065-1.677z" fill="#4D2F0E"/><path d="M45.397 39.925a.79.79 0 11-1.582 0 .79.79 0 01.791-.791c.443 0 .791.348.791.79z" fill="#fff"/><path opacity=".3" d="M47.38 47.993a.907.907 0 11-.907-.907.9.9 0 01.907.907z" fill="#E69381"/><path opacity=".7" d="M46.884 47.993a.4.4 0 11-.4-.4c.221-.011.4.178.4.4z" fill="#E69381"/><path opacity=".3" d="M44.005 46.548a.73.73 0 01-.728.727.73.73 0 01-.727-.727.73.73 0 01.727-.728.73.73 0 01.728.728z" fill="#E69381"/><path opacity=".7" d="M43.615 46.548c0 .18-.148.327-.327.327a.329.329 0 01-.327-.327c0-.18.148-.327.327-.327.18 0 .327.148.327.327z" fill="#E69381"/><path d="M31.096 28.186s.865.064 2.152.169c1.286.084 3.005.169 4.714.18a38.548 38.548 0 004.693-.275c.633-.105 1.17-.169 1.53-.264l.58-.116s-.201.074-.56.211c-.358.137-.875.296-1.508.454-.633.126-1.392.285-2.194.369-.812.095-1.676.127-2.552.137-.865-.01-1.74-.042-2.552-.116-.812-.063-1.56-.19-2.204-.285a26.392 26.392 0 01-2.1-.464zm1.93-.865s2.51.116 5.01.116c1.255.01 2.5-.042 3.438-.105.939-.064 1.56-.148 1.56-.148s-.157.032-.421.095-.654.137-1.129.2a27.29 27.29 0 01-3.459.211c-1.255-.01-2.52-.074-3.448-.179-.94-.084-1.55-.19-1.55-.19zm19.121 14.333s-.084.359-.4.823a4.528 4.528 0 01-.612.717 4.899 4.899 0 01-.865.654 6.366 6.366 0 01-1.888.728c-.264.074-.496.074-.654.105l-.243.032s.348-.095.865-.274c.264-.085.549-.2.854-.327.306-.138.623-.296.928-.486.623-.347 1.15-.843 1.498-1.244.359-.4.517-.728.517-.728z" fill="#E8A680"/><path opacity=".5" d="M42.729 44.334c.01 0 .021.01.032.01-.011-.01-.022-.01-.032-.01zm9.597 3.184a5.17 5.17 0 00-1.877-.864c-.01 0-.169-.095-.401-.232-.01 0-.01-.011-.021-.011-.01-.01-.021-.01-.042-.021-.01-.01-.021-.01-.032-.021a115.63 115.63 0 01-1.53-.897c-.442-.263-1.339-.812-2.161-1.255-.032-.221-.749-.58-1.16-.759-.412-.18-.633-.105-.696.116-.349.169-.39.749-.253 1.245.02.094.01.042.042.137a4.65 4.65 0 01-.2-.064c-.148-.2-.77-.411-1.214-.548.01.348-.01 1.75-.643 2.12.074.369.295.78.643 1.097.348.316 1.614.843 2.68 1.265a6.68 6.68 0 00-.813.348c-.221.106-.453.211-.685.306-.222-.084-.876.264-1.276.443-1.435.633.274 2.162 1.328 2.278.95.106 2.384-.327 2.7-.274.264.053 2.932.337 4.103.643a16.38 16.38 0 002.13-4.62 24.306 24.306 0 00-.622-.432zm-3.28 7.257c.296-.306.58-.633.865-.981-.98.264-2.552.728-2.858.928-.2.127-.633.76-1.033 1.434-.222.074-.56.718-.76 1.097-.21.411-.18.633.053.739.074.084.2.158.348.19 1.297-1.214 2.5-2.469 3.385-3.407z" fill="#E8A680"/><path d="M81.667 101.718s-9.724-27.58-15.06-32.284c-4.441-3.902-11.328-2.193-16.506-1.793-1.192.095-2.184-.337-2.932-1.139h-8.902v21.969l20.007-2.099s3.607.918 3.892 1.508c1.097 2.194 6.254 19.617 8.11 22.148 3.112 4.261 11.39-8.31 11.39-8.31z" fill="#E7CCBC"/><path opacity=".5" d="M66.606 69.434c-2.658-2.34-6.19-2.657-9.713-2.457.622.686 1.518 1.856 2.404 3.744 2.1 4.461 2.416 10.715 1.298 12.15-1.066 1.37-4.05 2.099-6.866 2.31-.39.031-.327.632.063 1.666l4.482-.475s.137.032.359.095c.021 0 .032.01.053.01.137.032.295.085.464.127.042.01.074.021.116.032.02.01.053.01.074.021.052.01.105.032.158.053.031.01.053.02.084.02.074.022.137.043.211.064.032.01.053.021.084.032.032.01.053.02.085.031.074.022.147.043.221.074.907.296 1.825.654 1.973.939 1.096 2.194 6.254 19.617 8.11 22.148.169.232.358.411.559.548.01.011.031.021.042.032.127.084.264.147.4.2.011 0 .032.011.043.011.063.021.126.031.19.053a.1.1 0 01.052.01.284.284 0 00.095.011h.053c.148.01.306.01.454 0 .02 0 .031 0 .052-.011.032 0 .074-.01.106-.01.032-.011.074-.011.105-.022.032-.01.074-.01.106-.021.411-.095.844-.284 1.297-.548.063-.032.116-.074.18-.106.347-.221.706-.474 1.064-.759.043-.032.085-.063.117-.095.02-.021.042-.031.063-.053a1.18 1.18 0 00.116-.094c.137-.117.274-.243.422-.37a1.04 1.04 0 00.116-.105c.095-.095.2-.179.295-.274.116-.116.243-.232.359-.348a23.3 23.3 0 00.696-.728c.042-.042.073-.084.116-.127l.221-.253.222-.253c.052-.063.116-.126.168-.19.032-.042.074-.084.106-.126l.158-.19c.032-.042.074-.084.105-.127.254-.295.486-.59.718-.875.052-.063.095-.127.147-.179l.095-.127c.032-.042.064-.084.095-.116.032-.042.064-.084.095-.116.032-.042.063-.084.095-.116.116-.158.243-.306.348-.464.053-.074.116-.148.169-.221.274-.359.517-.697.728-.992.02-.031.042-.053.063-.084.474-.665.76-1.086.76-1.086s-9.714-27.57-15.05-32.263z" fill="#E8A680"/><path d="M30.42 66.418c-1.065.854-2.752 1.329-3.986 1.234-5.178-.4-11.274-2.11-15.082 2.415-3.585 4.24-14.765 43.842-14.765 43.842s10.41-6.18 13.52-10.43c3.112-4.25 4.167-15.578 4.167-15.578l23.993.602V66.47l-7.846-.053zM60.341 70.9c1.118 2.268 4.588 14.576 5.664 20.366 1.076 5.79 1.614 18.309 7.161 22.295 5.547 3.987 8.49 2.015 9.355.443.865-1.571 1.36-5.769.749-8.964-.475-2.458-2.394-7.278-5.094-12.393-3.46-6.55-9.988-17.992-10.8-20.102-.823-2.109-7.035-1.645-7.035-1.645zM44.595 45.209c-.243-.686-.148-1.635.675-1.392.823.242 2.826 1.466 3.554 1.898a106.67 106.67 0 002.025 1.181l-.063 1.192-5.938-2.33-.253-.549z" fill="#E7CCBC"/><path opacity=".5" d="M50.85 46.896l-.496-.285c-.623-.126-1.688-.348-2.247-.506-.706-.21-2.531-.77-3.565-1.044.022.105.011.042.043.137l.242.56 5.01 1.96.95.117.062-.939z" fill="#E8A680"/><path d="M50.754 51.304c.728.222 3.702 2.142 3.945 2.87.242.727-.464 3.606.727 5.895 1.002 1.92.064 3.796 1.382 5.927.95 1.55 1.983 1.898 2.5 2.795.57.991 1.55 3.49 1.719 3.88.169.391 3.027-1.149 3.027-1.149l-4.409-12.635-2.004-4.081-4.419-3.67-2.468.168z" fill="#E7CCBC"/><path d="M67.376 72.546c-1.34-2.637-1.519-4.282-2.605-5.801-1.086-1.519-2.911-7.699-3.607-9.85-.696-2.152-.665-3.966-2.289-5a182.624 182.624 0 01-6.127-4.123c-1.55-1.108-2.869-.96-3.881-1.16-1.013-.2-4.873-1.73-5.97-1.867-1.086-.137-.949 1.181-.116 1.961.833.77 5.432 2.268 5.79 2.437.359.168 5.01 3.332 5.01 3.332l4.978 3.85.707 8.374 2.816 6.17 5.294 1.677z" fill="#E7CCBC"/><path d="M47.485 48.742c-1.34.042-1.698.095-2.721.59-1.023.496-2.247.855-2.268 1.255-.02.475.38.791 1.33.928.949.138 2.573-.506 2.889-.453.316.053 4.06.464 4.598.812.538.348 3.07 2.151 3.09 3.07.032.917 4.282 2.572 4.282 2.572l.739-2.562-8.3-5.105c-.127-.084-3.64-1.107-3.64-1.107z" fill="#E7CCBC"/><path opacity=".5" d="M47.485 48.742s.232 0 .633-.01c.4 0 .98-.022 1.677-.011.348 0 .727.01 1.128.02.401.022.834.011 1.276.148.443.138.844.36 1.245.602.39.242.78.516 1.15.801a52.57 52.57 0 012.067 1.761c.327.285.632.56.938.802.306.243.612.464.886.664.57.401 1.013.802 1.234 1.15.116.169.169.327.2.422.032.105.043.158.043.158s-.021-.053-.064-.148a1.941 1.941 0 00-.253-.39c-.242-.316-.706-.643-1.297-1.012-.295-.19-.612-.38-.938-.622a19.586 19.586 0 01-.992-.77c-.675-.549-1.36-1.16-2.088-1.72a13.248 13.248 0 00-1.108-.79c-.38-.232-.759-.454-1.139-.591-.38-.127-.79-.158-1.191-.2-.39-.032-.77-.053-1.118-.085-.696-.042-1.266-.105-1.677-.137a6.283 6.283 0 01-.612-.042z" fill="#E8A680"/><path d="M51.018 53.878c-.527.106-3.153.833-3.565 1.097-.41.264-1.887 2.763-1.814 3.132.095.433 1.16.602 1.793-.179.496-.612 1.034-1.255 1.034-1.255 1.213.01 2.404-.485 2.679-.39.274.095 2.415 1.508 2.71 1.803.306.296 1.33 1.435 1.846 2.49a122.635 122.635 0 001.455 2.815s-.295-6.57-.443-6.634c-.137-.063-2.193-1.792-2.31-1.792-.115-.022-2.636-1.235-3.385-1.087z" fill="#E7CCBC"/><path d="M44.11 49.66c.4.337.243.77-.39 1.033-.844.348-1.108.242-1.255.042-.159-.2-.085-.432.337-.643.422-.211 1.14-.57 1.308-.433zm2.563-5.179c-.01.475-.517.538-1.107.285-.844-.359-.823-.665-.76-.918.053-.242.285-.337.707-.147.422.19 1.16.559 1.16.78zm-.211 11.918c.527.031.675.548.337 1.128-.453.791-.875.802-1.086.707-.232-.106-.274-.317-.053-.739.211-.4.591-1.107.802-1.096zM44.427 45.23c-.074.57-.528.78-1.224.506-.938-.369-1.054-.654-1.023-.928.032-.274.317-.422.812-.274.486.148 1.466.443 1.435.696z" fill="#F6D9C5"/></g><mask id="mask1" maskUnits="userSpaceOnUse" x="0" y="0" width="75" height="80"><ellipse cx="37.67" cy="40.09" rx="36.869" ry="39.502" fill="#FFD15A"/></mask><g mask="url(#mask1)"><path d="M17.438 24.147c-2.12 6.686-3.027 17.317-3.143 26.313-.116 8.997-.221 14.365.443 15.03.665.664 3.491.748 6.096.2.992-.2 5.854-2.415 12.804-2.974L24.04 23.008l-6.602 1.139zm37.198-2.036c3.227 6.465 5.326 23.572 6 28.666.665 5.094.518 12.002.19 12.445-.337.443-4.735 2.352-5.842 2.457-1.118.116-8.29-3.786-14.86-3.448-5.347.274-4.64-4.04-4.64-4.04l19.152-36.08z" fill="#4D2F0E"/><path d="M52.98 40.042c.285-1.456.939-2.384 1.888-2.289.95.095 1.93 2.383 1.456 4.092-.486 1.709-1.245 1.972-.981 3.132.263 1.16-1.54 3.333-2.194 1.55-.665-1.771-.169-6.485-.169-6.485z" fill="#E7CCBC"/><path opacity=".5" d="M52.98 40.042c.285-1.456.939-2.384 1.888-2.289.95.095 1.93 2.383 1.456 4.092-.486 1.709-1.245 1.972-.981 3.132.263 1.16-1.54 3.333-2.194 1.55-.665-1.771-.169-6.485-.169-6.485z" fill="#E8A680"/><path d="M54.868 37.752c-.812-.084-1.413.58-1.74 1.698l.559 3.07c-.148-1.32.474-5.527 2.468-3.28-.306-.813-.802-1.435-1.287-1.488zM22.49 40.093c-.285-1.455-.939-2.383-1.888-2.289-.95.095-1.93 2.384-1.455 4.093.485 1.708 1.244 1.972.98 3.132-.263 1.16 1.54 3.333 2.194 1.55.665-1.782.169-6.486.169-6.486z" fill="#E7CCBC"/><path opacity=".5" d="M22.49 40.093c-.285-1.455-.939-2.383-1.888-2.289-.95.095-1.93 2.384-1.455 4.093.485 1.708 1.244 1.972.98 3.132-.263 1.16 1.54 3.333 2.194 1.55.665-1.782.169-6.486.169-6.486z" fill="#E8A680"/><path d="M20.602 37.804c.812-.084 1.414.58 1.74 1.699l-.558 3.08c.147-1.32-.475-5.527-2.468-3.28.306-.823.801-1.446 1.286-1.498z" fill="#E7CCBC"/><path d="M22.31 55.512c0-5.23-1.149-21.24-.558-25.322l-3.428-6.191-.875.148c-2.12 6.686-3.228 16.621-3.597 26.314-.348 8.985-.79 14.142-.116 14.807.359.358 2.616 1.044 5.738 1.044 1.75 0 3.3-.59 3.3-.59.317-.865-.463-5.369-.463-10.21zm39.899 5.558c-.095-3.522-.37-8.985-.58-11.042-.412-4.04-1.055-9.481-1.677-13.489-.907-5.8-1.614-10.473-4.114-15.799-2.668-5.705-1.518 1.677-1.75 2.12l-1.92-.96c-.042.074 1.856 1.108 1.856 1.192l-.748 10.241c-.095 4.851-.022 15.208.073 21.051.053 3.08-.2 10.863.211 11.56.222.368 3.702.062 4.409-.011 1.75-.18 3.3-.718 3.923-1.024a.63.63 0 00.338-.527c-.01-.728 0-2.362-.021-3.312z" fill="#593515"/><path d="M46.114 57.19l-7.361 2.299-7.362-1.371c1.15 2.9.285 8.69-3.385 10.662H49.5c-3.66-1.972-4.535-8.69-3.386-11.59z" fill="url(#paint1_linear)"/><path d="M39.27 62.21c2.552.105 7.361-4.883 9.787-7.436 2.425-2.552 4.387-6.127 4.64-11.495.253-5.369.38-14.302-.643-19.153-1.023-4.852-8.047-10.853-15.577-10.346-7.53.506-17.402 5.241-16.611 16.315.79 11.17.19 14.544 1.645 18.647.886 2.5 2.932 4.83 5.505 7.235 3.365 3.174 7.626 6.096 11.254 6.233z" fill="#E7CCBC"/><path d="M35.947 47.983s0 .031-.01.094c-.01.064-.01.148-.01.254.01.105.031.232.094.358.063.127.18.232.327.295.148.064.338.095.528.085.052 0 .094-.01.147-.021.095-.01.106-.021.2-.01.19.01.296.073.422.136.232.137.433.296.612.412.19.116.348.137.517.063.221-.095.4-.211.622-.359.211-.147.485-.263.749-.316.253-.053.527-.032.717-.032.127 0 .18-.01.264-.031a.407.407 0 00.2-.106c.106-.095.137-.253.137-.39a.956.956 0 00-.074-.37c-.073-.2-.168-.294-.168-.294s.02.02.074.052c.042.042.116.106.179.2.063.096.126.233.158.39.032.159.042.391-.116.591-.137.2-.422.296-.643.306-.243.021-.443.032-.654.085-.211.052-.39.158-.59.284a5.345 5.345 0 01-.686.412.877.877 0 01-.496.063 1.321 1.321 0 01-.432-.169c-.243-.147-.412-.327-.591-.443a.843.843 0 00-.232-.105c-.021-.01-.127 0-.137-.01-.063 0-.127.01-.19 0a1.327 1.327 0 01-.654-.201.839.839 0 01-.358-.464 1.058 1.058 0 01-.032-.432c.063-.212.126-.317.126-.328z" fill="#E8A680"/><path d="M45.619 19.338c-1.899 5.79-21.948 5.653-25.407 15.25 0 0-4.546-4.978-2.763-10.441 1.782-5.463 5.357-9.492 11.865-12.055 6.507-2.563 13.067-1.34 14.913 0 1.835 1.34 1.392 7.246 1.392 7.246z" fill="#593515"/><path d="M44.891 20.55c-.053 1.9 4.978 8.765 8.806 11.054 0 0 5.295.39 4.114-4.145-.327-1.255-.992-4.862-2.89-8.29-2.932-5.305-8.807-7.804-9.587-4.862-.95 3.575-.443 6.244-.443 6.244z" fill="#593515"/><path d="M52.8 34.082c-2.383-.549-3.743-2.173-5.663-2.236-1.92-.063-4.967 1.318-5.252 1.118-.285-.2-.643-1.403-.19-1.782.454-.39 5.042-1.108 6.244-.739.633.2 1.487.802 2.31 1.424a29.598 29.598 0 012.552 2.215zm-31.006.718c2.193-.444 4.355-2.458 6.412-2.606 2.057-.158 5.442 1.17 5.737.96.296-.21.612-1.424.095-1.793-.516-.37-5.073-1.086-6.307-.59-1.845.727-5.937 4.028-5.937 4.028z" fill="#4D2F0E"/><path d="M60.215 53.846s-.042-.253-.137-.675c-.084-.422-.21-1.044-.337-1.782a75.329 75.329 0 01-.39-2.532c-.053-.463-.127-.938-.18-1.434-.053-.485-.105-.98-.158-1.476l-.127-1.487c-.042-.486-.063-.97-.105-1.435a47.828 47.828 0 01-.106-2.552c-.031-1.498.032-2.51.032-2.51s.264.97.527 2.447c.137.738.274 1.603.401 2.53.063.465.137.94.18 1.435l.158 1.477.126 1.487c.042.485.063.97.095 1.445.053.938.084 1.803.084 2.563.011.748-.01 1.381-.031 1.824 0 .432-.032.675-.032.675zm-.896 11.211s-.043-.327-.148-.875a58.286 58.286 0 01-.358-2.278 113.04 113.04 0 01-.422-3.238c-.064-.59-.148-1.202-.2-1.824a601.22 601.22 0 01-.19-1.888c-.053-.633-.106-1.276-.148-1.899-.053-.622-.085-1.244-.127-1.835a84.216 84.216 0 01-.148-3.27c-.052-1.919-.01-3.205-.01-3.205s.285 1.255.57 3.143c.147.949.305 2.046.443 3.237.063.59.147 1.203.21 1.835.064.623.127 1.255.19 1.899.053.633.106 1.265.148 1.898.053.623.084 1.245.116 1.846a81.26 81.26 0 01.126 3.27c.021.96.011 1.76 0 2.33-.02.538-.052.854-.052.854zM16.942 49.11s.022.254.074.686c.043.432.116 1.055.169 1.804.063.748.116 1.624.158 2.552.01.464.042.95.053 1.445.01.495.021.991.021 1.487 0 .495 0 1.002-.01 1.487 0 .485-.022.97-.032 1.445a71.21 71.21 0 01-.127 2.552 36.3 36.3 0 01-.253 2.5s-.18-.992-.306-2.49a50.174 50.174 0 01-.168-2.552c-.021-.464-.053-.949-.053-1.445-.01-.485-.021-.99-.021-1.487 0-.495.01-1.002.01-1.487 0-.485.021-.97.032-1.445a50.99 50.99 0 01.148-2.552c.063-.749.137-1.37.2-1.814.042-.443.105-.685.105-.685zm1.751-6.643s.021.253.074.685c.042.432.116 1.055.169 1.803.063.75.116 1.625.158 2.553.01.464.042.949.053 1.445.01.495.02.991.02 1.487 0 .495 0 1.002-.01 1.487 0 .485-.02.97-.031 1.445a71.215 71.215 0 01-.127 2.552 36.3 36.3 0 01-.253 2.5s-.18-.992-.306-2.49a50.167 50.167 0 01-.169-2.552c-.01-.464-.052-.949-.052-1.445-.01-.495-.021-.991-.021-1.487 0-.495.01-1.002.01-1.487 0-.495.021-.97.032-1.445.031-.938.084-1.803.147-2.552a32.64 32.64 0 01.2-1.814c.043-.443.106-.685.106-.685zM43.9 17.05s-.032.094-.085.263c-.074.169-.169.432-.358.728-.359.611-1.034 1.392-1.994 2.13-.949.76-2.151 1.466-3.49 2.11a35.239 35.239 0 01-4.293 1.676c-.749.232-1.487.464-2.236.654-.359.095-.707.2-1.065.296-.18.052-.359.105-.538.147a8.55 8.55 0 00-.475.169c-.158.053-.316.105-.464.158-.158.063-.306.127-.453.19l-.454.19c-.147.074-.285.137-.422.21-.57.264-1.065.58-1.518.887-.433.327-.834.633-1.15.96-.316.316-.57.622-.77.885-.19.274-.337.496-.411.654-.084.158-.127.253-.127.253s-.02-.4.18-1.075c.116-.327.263-.75.516-1.171.116-.222.275-.433.433-.675a9.341 9.341 0 012.078-1.983c.147-.105.295-.2.442-.306.159-.095.317-.179.475-.274.158-.095.327-.19.485-.274.18-.085.348-.158.527-.243.18-.084.36-.158.538-.242.17-.064.348-.127.517-.19.18-.063.348-.127.527-.19.19-.063.38-.127.57-.18.717-.231 1.445-.463 2.173-.695 2.9-.928 5.758-1.888 7.783-2.869 1.002-.496 1.793-1.002 2.289-1.434a4.72 4.72 0 00.559-.538 4.52 4.52 0 00.21-.222z" fill="#6E431E"/><path d="M43.752 17.018s-.021.073-.063.2c-.053.127-.127.316-.285.527-.148.211-.37.433-.654.665a5.481 5.481 0 01-1.023.633c-.2.094-.4.2-.622.284-.222.095-.443.18-.686.264a8.568 8.568 0 01-.738.232 16.89 16.89 0 01-.78.21c-.528.127-1.087.233-1.656.338-.57.085-1.14.18-1.72.243-.569.063-1.149.127-1.718.2-.56.095-1.097.159-1.625.285-.263.053-.516.116-.77.18a12.076 12.076 0 00-2.024.685c-.19.084-.38.18-.549.274a4.18 4.18 0 00-.485.274c-.295.18-.538.37-.728.538-.38.338-.527.58-.527.58s.116-.274.464-.654c.18-.179.4-.4.686-.611a6.439 6.439 0 011.012-.644c.39-.21.823-.4 1.297-.58.475-.179.981-.348 1.519-.464a16.044 16.044 0 011.666-.327c.57-.074 1.14-.137 1.72-.21a31.58 31.58 0 001.708-.222c.559-.095 1.107-.18 1.635-.295.263-.053.516-.116.77-.17a7.08 7.08 0 00.727-.189c.243-.063.464-.137.686-.21.221-.075.422-.16.622-.243.791-.327 1.392-.728 1.72-1.118.168-.19.263-.359.337-.475.052-.137.084-.2.084-.2zm2.225 2.235s.01.053.021.137c.01.095.043.221.095.38.042.147.127.337.211.548.095.211.211.443.338.686.126.242.284.506.443.78.158.274.358.549.538.844.4.58.833 1.181 1.297 1.761.221.295.474.57.706.854.254.264.475.56.718.802.253.242.464.517.696.728.232.221.443.453.643.643.21.19.4.37.559.538.169.158.327.295.443.411.242.232.39.37.39.37s-.18-.075-.495-.212c-.317-.126-.75-.358-1.245-.664-.253-.148-.506-.338-.78-.538a9.095 9.095 0 01-.823-.664 18.636 18.636 0 01-.823-.78c-.263-.286-.527-.58-.77-.887a9.835 9.835 0 01-.685-.949c-.222-.316-.4-.654-.58-.97a11.127 11.127 0 01-.454-.96 6.64 6.64 0 01-.316-.907 7.42 7.42 0 01-.18-.79 3.514 3.514 0 01-.042-.634c-.01-.179.032-.306.053-.39.042-.095.042-.137.042-.137zm-3.237-6.096s-.117-.031-.338-.095c-.222-.074-.549-.126-.96-.19a10.24 10.24 0 00-1.508-.105c-.58-.01-1.244.032-1.951.095-.717.074-1.477.2-2.289.348-.801.169-1.645.38-2.5.633-.854.253-1.718.57-2.583.928-.865.348-1.72.76-2.553 1.213-.843.432-1.645.938-2.415 1.466-.748.548-1.497 1.075-2.151 1.677a24.71 24.71 0 00-1.835 1.793c-.274.305-.517.611-.77.906-.232.306-.464.602-.686.886-.4.591-.78 1.14-1.075 1.646-.317.495-.528.97-.75 1.34-.368.769-.59 1.212-.59 1.212s.032-.116.074-.348c.053-.222.116-.559.232-.97.148-.401.264-.928.517-1.477.116-.274.232-.58.38-.886.147-.306.316-.622.485-.96.19-.326.39-.664.6-1.012.233-.338.465-.686.728-1.023.528-.686 1.108-1.392 1.793-2.046A19.47 19.47 0 0124.81 16.3c.812-.57 1.656-1.128 2.542-1.603a24.354 24.354 0 012.732-1.234c.917-.37 1.856-.622 2.773-.854.907-.243 1.814-.37 2.669-.475a17.587 17.587 0 012.425-.105c.75.02 1.435.084 2.036.19a9.506 9.506 0 011.529.38c.21.063.39.147.538.21.158.063.285.127.38.19.2.095.305.158.305.158z" fill="#6E431E"/><path opacity=".15" d="M23.481 38.438c.043 1.54.791 4.619 3.829 5.357 3.027.738 5.569-2.215 4.904-4.134-.675-1.92-8.733-1.224-8.733-1.224zm28.676-.18c-.042 1.54-.801 4.62-3.838 5.358-3.038.738-5.59-2.215-4.926-4.134.675-1.92 8.764-1.224 8.764-1.224z" fill="#47ACD1"/><path d="M46.241 14.645s.232.073.622.221c.19.084.433.158.696.295.264.137.57.285.897.475.316.2.654.411 1.002.664.337.275.706.538 1.065.865.348.327.717.665 1.055 1.044.358.37.674.791 1.002 1.203.305.432.622.854.885 1.318.285.443.517.907.75 1.36.22.465.421.907.59 1.35.18.433.316.855.432 1.255.243.791.38 1.466.464 1.941.074.475.106.76.106.76s-.137-.233-.338-.655c-.105-.21-.242-.453-.38-.738-.147-.285-.316-.59-.495-.938-.19-.338-.39-.697-.601-1.087-.211-.39-.464-.77-.707-1.17-.253-.401-.506-.813-.79-1.213-.265-.412-.57-.802-.855-1.203-.306-.39-.601-.79-.907-1.15-.306-.379-.622-.727-.928-1.075-.306-.348-.612-.654-.897-.97-.306-.285-.58-.57-.843-.844a16.349 16.349 0 01-.728-.685c-.211-.211-.422-.38-.58-.528a23.745 23.745 0 01-.517-.495z" fill="#6E431E"/><path d="M49.331 14.36s.158.105.432.316c.138.095.296.232.475.38.18.147.39.327.59.538.212.2.422.432.644.685.232.243.443.527.675.812.21.296.443.59.643.918.211.316.412.654.602.991.179.338.369.686.527 1.034.169.348.316.696.453 1.033.275.675.475 1.33.633 1.878.169.558.253 1.033.316 1.36.064.338.085.527.085.527s-.074-.179-.18-.495c-.105-.317-.284-.77-.484-1.297-.2-.538-.475-1.15-.77-1.804-.148-.327-.317-.654-.475-.991-.169-.338-.348-.665-.527-1.002a25.184 25.184 0 00-1.16-1.899c-.211-.285-.39-.58-.602-.833-.19-.264-.39-.506-.57-.728-.368-.432-.674-.801-.917-1.033a11.08 11.08 0 01-.39-.39zM34.07 17.397s-.348.084-.97.222c-.317.063-.686.158-1.108.263-.421.106-.907.222-1.423.38-.517.137-1.076.316-1.656.506-.295.084-.59.19-.886.316l-.918.349c-.611.274-1.244.527-1.856.854-.633.295-1.223.675-1.824 1.044-.57.411-1.16.79-1.667 1.255-.538.432-.991.939-1.445 1.403-.38.527-.822.991-1.107 1.529-.158.264-.327.506-.454.749-.126.253-.242.506-.348.748-.253.475-.369.95-.527 1.35-.063.211-.148.401-.19.58-.042.18-.084.36-.116.507-.147.622-.232.97-.232.97s.01-.359.042-1.002c.011-.158.021-.337.032-.527.01-.19.074-.401.106-.612.095-.432.147-.95.358-1.466.095-.264.19-.538.285-.823.105-.284.274-.548.411-.833.264-.59.675-1.128 1.076-1.708.464-.517.907-1.108 1.487-1.572.527-.517 1.15-.928 1.75-1.37.644-.37 1.277-.77 1.941-1.066.644-.338 1.33-.559 1.973-.812.654-.2 1.286-.422 1.909-.559.305-.074.6-.137.896-.211.285-.063.57-.095.844-.148.274-.042.527-.095.78-.126.253-.021.485-.053.707-.074.443-.053.833-.084 1.15-.084l.98-.032z" fill="#6E431E"/><path d="M20.908 32.3c-.37-.296-.56-.053-.928-.349-.37-.295-.17-.538-.538-.833-.37-.295-.56-.053-.918-.348l-.527-.422-.633-.517-.063-.052a.096.096 0 00-.127.01l-.126.169a.096.096 0 00.01.127l.064.052.632.517.528.422c.369.295.559.053.928.348s.168.538.538.833c.369.295.559.053.928.348.358.285.179.527.517.812 0 .01 0 .01.01.021l.221.18c.064.105.486.759.791.39.306-.38-.432-.644-.548-.686l-.221-.179s-.01 0-.022-.01v-.011c-.348-.243-.158-.538-.516-.823z" fill="#47ACD1"/><path opacity=".5" d="M22.268 33.87c-.306.38-.727-.284-.79-.39l-.222-.179c-.01 0-.01-.01-.01-.02-.338-.286-.159-.528-.518-.813-.369-.295-.559-.053-.928-.348s-.168-.538-.538-.833c-.369-.295-.559-.053-.928-.348l-.527-.422-.633-.517-.063-.052c-.01-.011-.021-.032-.032-.043l-.031.053a.096.096 0 00.01.127l.064.052.632.517.528.422c.369.295.559.053.928.348s.168.538.538.833c.369.296.559.053.928.348.358.285.179.528.517.812 0 .01 0 .01.01.021l.221.18c.064.105.486.759.791.39a.385.385 0 00.074-.148c0-.01-.01 0-.02.01z" fill="#47ACD1"/><path d="M20.676 33.523c-.338-.327-.548-.106-.886-.433-.337-.326-.116-.548-.453-.875-.338-.327-.549-.105-.886-.432l-.486-.475-.58-.57-.063-.063a.098.098 0 00-.127 0l-.137.148a.098.098 0 000 .127l.064.052.58.57.485.474c.337.327.548.106.886.433.337.327.116.548.453.875.338.327.549.106.886.433.327.327.127.538.443.864 0 .011 0 .011.01.021l.201.2c.053.117.411.813.749.465.337-.348-.37-.686-.475-.738l-.2-.2s-.01 0-.021-.011l.01-.01c-.348-.264-.126-.539-.453-.855z" fill="#47ACD1"/><path opacity=".5" d="M21.878 35.22c-.337.349-.696-.347-.749-.463l-.2-.2s0-.011-.01-.022c-.317-.316-.117-.537-.444-.864-.337-.327-.548-.106-.886-.433-.337-.327-.116-.548-.453-.875-.338-.327-.549-.106-.886-.433l-.485-.474-.58-.57-.064-.052a.08.08 0 01-.02-.053l-.043.042a.096.096 0 000 .127l.063.052.58.57.486.474c.337.327.548.106.886.433.337.327.116.548.453.875.338.327.549.106.886.432.327.328.127.538.443.865 0 .01 0 .01.01.021l.2.2c.054.117.412.813.75.465a.353.353 0 00.084-.148c-.01.01-.01.021-.021.032z" fill="#47ACD1"/><path d="M54.383 30.253c.369-.295.559-.052.928-.348.37-.295.169-.538.538-.833.369-.295.559-.053.917-.348l.528-.422.633-.517.063-.052a.096.096 0 01.126.01l.127.159a.096.096 0 01-.01.126l-.064.053-.633.517-.527.421c-.37.296-.559.053-.928.349-.37.295-.169.537-.538.833-.37.295-.559.052-.928.348-.359.284-.18.527-.517.812 0 .01 0 .01-.01.02l-.222.18c-.063.106-.485.76-.79.39-.307-.38.431-.643.547-.685l.222-.18c.01 0 .01 0 .021-.01v-.01c.348-.233.158-.517.517-.813z" fill="#47ACD1"/><path opacity=".5" d="M53.022 31.825c.306.38.728-.285.791-.39l.222-.18c.01 0 0-.01.01-.02.338-.285.158-.528.517-.813.37-.295.56-.053.928-.348.37-.295.169-.538.538-.833.37-.295.56-.053.928-.348l.527-.422.633-.517.064-.052c.01-.011.02-.032.031-.043l.032.043a.096.096 0 01-.01.126l-.064.053-.633.517-.527.422c-.37.295-.559.052-.928.348-.37.295-.169.537-.538.833-.37.295-.559.052-.928.348-.359.285-.18.527-.517.812 0 .01 0 .01-.01.02l-.222.18c-.063.106-.485.76-.791.39a.388.388 0 01-.074-.147c.01.01.01.02.021.02z" fill="#47ACD1"/><path d="M54.615 31.487c.337-.327.548-.105.886-.432.337-.327.116-.549.453-.875.338-.327.549-.106.886-.433l.485-.474.58-.58.064-.064c.031-.031.095-.031.126 0l.137.148a.096.096 0 010 .126l-.063.053-.58.57-.485.474c-.338.327-.549.106-.886.433-.338.327-.116.548-.454.875-.337.327-.548.105-.886.432-.327.327-.126.538-.443.865 0 .01 0 .01-.01.021l-.2.2c-.053.117-.412.813-.75.465-.337-.348.36-.686.475-.738l.2-.2s.011 0 .022-.011v-.01c.337-.254.116-.528.443-.845z" fill="#47ACD1"/><path opacity=".5" d="M53.413 33.175c.337.348.696-.348.748-.464l.2-.2s0-.011.011-.022c.317-.316.106-.537.443-.864.338-.327.549-.106.886-.433.338-.327.116-.548.454-.875.337-.327.548-.106.886-.433l.485-.474.58-.57.063-.052a.08.08 0 00.021-.053l.043.042a.096.096 0 010 .127l-.064.052-.58.57-.485.474c-.337.327-.548.106-.886.433-.337.327-.116.548-.453.875-.338.327-.549.106-.886.433-.327.327-.127.538-.443.864 0 .011 0 .011-.01.022l-.201.2c-.053.116-.412.812-.749.464a.353.353 0 01-.084-.148c.01.021.02.021.02.032z" fill="#47ACD1"/><path d="M33.079 54.848c.738-1.128 3.596-2.773 4.851-2.531 1.255.243 1.15.095 2.1.063.948-.031 3.036 1.287 4.102 2.458 0 0-1.234.875-2.426 1.244-1.392.422-2.426.116-3.238.095-.654-.021-1.909.264-3.048-.19a19.722 19.722 0 01-2.341-1.139z" fill="#E49084"/><path d="M32.414 55.133s.053-.01.148-.032a9.84 9.84 0 00.39-.137c.327-.126.791-.285 1.371-.453.285-.085.612-.17.95-.232a15.87 15.87 0 011.096-.18c.38-.052.791-.073 1.192-.084.411-.01.823 0 1.245.021 1.677.074 3.343.306 4.492.654.285.084.549.169.77.264.222.084.412.168.56.242.147.074.263.127.347.169.074.042.116.063.116.063s-.031-.02-.105-.074c-.063-.052-.169-.116-.306-.2a7.192 7.192 0 00-1.276-.601c-.285-.106-.601-.2-.95-.295a10.24 10.24 0 00-1.117-.243 20.808 20.808 0 00-2.51-.264 13.332 13.332 0 00-1.298-.01c-.432.01-.854.053-1.255.116a10.894 10.894 0 00-2.078.506c-.569.2-1.001.411-1.307.559-.148.074-.264.127-.348.169-.074.02-.127.042-.127.042z" fill="#D97F73"/><path d="M23.08 37.098l.264-.316c.169-.2.422-.464.749-.77.643-.601 1.593-1.35 2.721-1.761a4.477 4.477 0 011.72-.296 3.79 3.79 0 011.465.38c.4.19.696.411.897.57.2.158.305.263.305.263s-.116-.095-.316-.242a4.935 4.935 0 00-.918-.507 3.536 3.536 0 00-1.423-.274 4.621 4.621 0 00-1.614.348c-1.055.443-1.94 1.203-2.542 1.804-.306.306-.527.58-.685.77-.158.19-.243.305-.243.305l-.38-.274z" fill="#E8A680"/><path d="M32.214 40.136c.032-1.287-.517-3.26-2.025-4.272-1.508-1.012-3.554-.527-4.757.063-1.002.496-2.404.918-3.448.465 0 0 .727 2.109 2.689 2.72 1.677.517 7.54 1.023 7.54 1.023z" fill="#4D2F0E"/><path d="M24.199 38.258s.548 3.354 3.417 4.24c3.259 1.002 4.345-1.487 4.345-1.487l-7.762-2.753z" fill="#4D2F0E"/><path d="M32.182 40.631c.254-1.244-.748-3.765-3.1-4.24-2.341-.474-4.883 1.867-4.883 1.867s1.107 3.934 5.22 4.134l2.763-1.76z" fill="#fff"/><path d="M30.421 37.868a2.321 2.321 0 00-2.763 1.761 2.33 2.33 0 001.761 2.763 2.33 2.33 0 002.763-1.761 2.33 2.33 0 00-1.761-2.763z" fill="#47ACD1"/><path d="M30.896 39.334a1.402 1.402 0 00-1.677 1.065 1.402 1.402 0 001.065 1.677 1.402 1.402 0 001.677-1.065 1.402 1.402 0 00-1.065-1.677z" fill="#4D2F0E"/><path d="M31.74 39.925a.79.79 0 11-1.583 0 .79.79 0 01.791-.791c.443 0 .791.348.791.79z" fill="#fff"/><path d="M51.778 37.372s-.316-.464-.886-1.086c-.57-.612-1.424-1.382-2.457-1.814a4.078 4.078 0 00-1.593-.337c-.517 0-1.012.116-1.403.284a5.36 5.36 0 00-.896.496l-.316.232s.105-.095.295-.253.485-.37.875-.57c.39-.19.876-.358 1.435-.39.548-.031 1.139.074 1.687.275 1.107.41 2.025 1.18 2.647 1.782.317.306.549.58.717.78.159.2.253.306.253.306l-.358.295z" fill="#E8A680"/><path d="M43.204 40.136c-.043-1.287.516-3.26 2.025-4.272 1.508-1.012 3.554-.527 4.756.063 1.002.496 2.036 1.203 3.449.928 0 0-.992 1.857-2.69 2.258-1.698.4-7.54 1.023-7.54 1.023z" fill="#4D2F0E"/><path d="M51.219 38.258s-.485 3.344-3.417 4.24c-3.26 1.002-4.346-1.487-4.346-1.487l7.763-2.753z" fill="#4D2F0E"/><path d="M43.246 40.631c-.253-1.244.748-3.765 3.1-4.24 2.342-.474 4.884 1.867 4.884 1.867s-1.108 3.934-5.221 4.135l-2.763-1.762z" fill="#fff"/><path d="M45.007 37.868a2.32 2.32 0 012.763 1.761 2.32 2.32 0 01-1.761 2.764 2.329 2.329 0 01-2.763-1.762 2.321 2.321 0 011.761-2.763z" fill="#47ACD1"/><path d="M44.532 39.334A1.402 1.402 0 0146.21 40.4a1.402 1.402 0 01-1.065 1.677 1.402 1.402 0 01-1.677-1.065 1.402 1.402 0 011.065-1.677z" fill="#4D2F0E"/><path d="M45.397 39.925a.79.79 0 11-1.582 0 .79.79 0 01.791-.791c.443 0 .791.348.791.79z" fill="#fff"/><path opacity=".3" d="M47.38 47.993a.907.907 0 11-.907-.907.9.9 0 01.907.907z" fill="#E69381"/><path opacity=".7" d="M46.884 47.993a.4.4 0 11-.4-.4c.221-.011.4.178.4.4z" fill="#E69381"/><path opacity=".3" d="M44.005 46.548a.73.73 0 01-.728.727.73.73 0 01-.727-.727.73.73 0 01.727-.728.73.73 0 01.728.728z" fill="#E69381"/><path opacity=".7" d="M43.615 46.548c0 .18-.148.327-.327.327a.329.329 0 01-.327-.327c0-.18.148-.327.327-.327.18 0 .327.148.327.327z" fill="#E69381"/><path d="M31.096 28.186s.865.064 2.152.169c1.286.084 3.005.169 4.714.18a38.548 38.548 0 004.693-.275c.633-.105 1.17-.169 1.53-.264l.58-.116s-.201.074-.56.211c-.358.137-.875.296-1.508.454-.633.126-1.392.285-2.194.369-.812.095-1.676.127-2.552.137-.865-.01-1.74-.042-2.552-.116-.812-.063-1.56-.19-2.204-.285a26.392 26.392 0 01-2.1-.464zm1.93-.865s2.51.116 5.01.116c1.255.01 2.5-.042 3.438-.105.939-.064 1.56-.148 1.56-.148s-.157.032-.421.095-.654.137-1.129.2a27.29 27.29 0 01-3.459.211c-1.255-.01-2.52-.074-3.448-.179-.94-.084-1.55-.19-1.55-.19zm19.121 14.333s-.084.359-.4.823a4.528 4.528 0 01-.612.717 4.899 4.899 0 01-.865.654 6.366 6.366 0 01-1.888.728c-.264.074-.496.074-.654.105l-.243.032s.348-.095.865-.274c.264-.085.549-.2.854-.327.306-.138.623-.296.928-.486.623-.347 1.15-.843 1.498-1.244.359-.4.517-.728.517-.728z" fill="#E8A680"/><path opacity=".5" d="M42.729 44.334c.01 0 .021.01.032.01-.011-.01-.022-.01-.032-.01zm9.597 3.184a5.17 5.17 0 00-1.877-.864c-.01 0-.169-.095-.401-.232-.01 0-.01-.011-.021-.011-.01-.01-.021-.01-.042-.021-.01-.01-.021-.01-.032-.021a115.63 115.63 0 01-1.53-.897c-.442-.263-1.339-.812-2.161-1.255-.032-.221-.749-.58-1.16-.759-.412-.18-.633-.105-.696.116-.349.169-.39.749-.253 1.245.02.094.01.042.042.137a4.65 4.65 0 01-.2-.064c-.148-.2-.77-.411-1.214-.548.01.348-.01 1.75-.643 2.12.074.369.295.78.643 1.097.348.316 1.614.843 2.68 1.265a6.68 6.68 0 00-.813.348c-.221.106-.453.211-.685.306-.222-.084-.876.264-1.276.443-1.435.633.274 2.162 1.328 2.278.95.106 2.384-.327 2.7-.274.264.053 2.932.337 4.103.643a16.38 16.38 0 002.13-4.62 24.306 24.306 0 00-.622-.432zm-3.28 7.257c.296-.306.58-.633.865-.981-.98.264-2.552.728-2.858.928-.2.127-.633.76-1.033 1.434-.222.074-.56.718-.76 1.097-.21.411-.18.633.053.739.074.084.2.158.348.19 1.297-1.214 2.5-2.469 3.385-3.407z" fill="#E8A680"/><path d="M81.667 101.718s-9.724-27.58-15.06-32.284c-4.441-3.902-11.328-2.193-16.506-1.793-1.192.095-2.184-.337-2.932-1.139h-8.902v21.969l20.007-2.099s3.607.918 3.892 1.508c1.097 2.194 6.254 19.617 8.11 22.148 3.112 4.261 11.39-8.31 11.39-8.31z" fill="#E7CCBC"/><path opacity=".5" d="M66.606 69.434c-2.658-2.34-6.19-2.657-9.713-2.457.622.686 1.518 1.856 2.404 3.744 2.1 4.461 2.416 10.715 1.298 12.15-1.066 1.37-4.05 2.099-6.866 2.31-.39.031-.327.632.063 1.666l4.482-.475s.137.032.359.095c.021 0 .032.01.053.01.137.032.295.085.464.127.042.01.074.021.116.032.02.01.053.01.074.021.052.01.105.032.158.053.031.01.053.02.084.02.074.022.137.043.211.064.032.01.053.021.084.032.032.01.053.02.085.031.074.022.147.043.221.074.907.296 1.825.654 1.973.939 1.096 2.194 6.254 19.617 8.11 22.148.169.232.358.411.559.548.01.011.031.021.042.032.127.084.264.147.4.2.011 0 .032.011.043.011.063.021.126.031.19.053a.1.1 0 01.052.01.284.284 0 00.095.011h.053c.148.01.306.01.454 0 .02 0 .031 0 .052-.011.032 0 .074-.01.106-.01.032-.011.074-.011.105-.022.032-.01.074-.01.106-.021.411-.095.844-.284 1.297-.548.063-.032.116-.074.18-.106.347-.221.706-.474 1.064-.759.043-.032.085-.063.117-.095.02-.021.042-.031.063-.053a1.18 1.18 0 00.116-.094c.137-.117.274-.243.422-.37a1.04 1.04 0 00.116-.105c.095-.095.2-.179.295-.274.116-.116.243-.232.359-.348a23.3 23.3 0 00.696-.728c.042-.042.073-.084.116-.127l.221-.253.222-.253c.052-.063.116-.126.168-.19.032-.042.074-.084.106-.126l.158-.19c.032-.042.074-.084.105-.127.254-.295.486-.59.718-.875.052-.063.095-.127.147-.179l.095-.127c.032-.042.064-.084.095-.116.032-.042.064-.084.095-.116.032-.042.063-.084.095-.116.116-.158.243-.306.348-.464.053-.074.116-.148.169-.221.274-.359.517-.697.728-.992.02-.031.042-.053.063-.084.474-.665.76-1.086.76-1.086s-9.714-27.57-15.05-32.263z" fill="#E8A680"/><path d="M30.42 66.418c-1.065.854-2.752 1.329-3.986 1.234-5.178-.4-11.274-2.11-15.082 2.415-3.585 4.24-14.765 43.842-14.765 43.842s10.41-6.18 13.52-10.43c3.112-4.25 4.167-15.578 4.167-15.578l23.993.602V66.47l-7.846-.053zM60.341 70.9c1.118 2.268 4.588 14.576 5.664 20.366 1.076 5.79 1.614 18.309 7.161 22.295 5.547 3.987 8.49 2.015 9.355.443.865-1.571 1.36-5.769.749-8.964-.475-2.458-2.394-7.278-5.094-12.393-3.46-6.55-9.988-17.992-10.8-20.102-.823-2.109-7.035-1.645-7.035-1.645zM44.595 45.209c-.243-.686-.148-1.635.675-1.392.823.242 2.826 1.466 3.554 1.898a106.67 106.67 0 002.025 1.181l-.063 1.192-5.938-2.33-.253-.549z" fill="#E7CCBC"/><path opacity=".5" d="M50.85 46.896l-.496-.285c-.623-.126-1.688-.348-2.247-.506-.706-.21-2.531-.77-3.565-1.044.022.105.011.042.043.137l.242.56 5.01 1.96.95.117.062-.939z" fill="#E8A680"/><path d="M50.754 51.304c.728.222 3.702 2.142 3.945 2.87.242.727-.464 3.606.727 5.895 1.002 1.92.064 3.796 1.382 5.927.95 1.55 1.983 1.898 2.5 2.795.57.991 1.55 3.49 1.719 3.88.169.391 3.027-1.149 3.027-1.149l-4.409-12.635-2.004-4.081-4.419-3.67-2.468.168z" fill="#E7CCBC"/><path d="M67.376 72.546c-1.34-2.637-1.519-4.282-2.605-5.801-1.086-1.519-2.911-7.699-3.607-9.85-.696-2.152-.665-3.966-2.289-5a182.624 182.624 0 01-6.127-4.123c-1.55-1.108-2.869-.96-3.881-1.16-1.013-.2-4.873-1.73-5.97-1.867-1.086-.137-.949 1.181-.116 1.961.833.77 5.432 2.268 5.79 2.437.359.168 5.01 3.332 5.01 3.332l4.978 3.85.707 8.374 2.816 6.17 5.294 1.677z" fill="#E7CCBC"/><path d="M47.485 48.742c-1.34.042-1.698.095-2.721.59-1.023.496-2.247.855-2.268 1.255-.02.475.38.791 1.33.928.949.138 2.573-.506 2.889-.453.316.053 4.06.464 4.598.812.538.348 3.07 2.151 3.09 3.07.032.917 4.282 2.572 4.282 2.572l.739-2.562-8.3-5.105c-.127-.084-3.64-1.107-3.64-1.107z" fill="#E7CCBC"/><path opacity=".5" d="M47.485 48.742s.232 0 .633-.01c.4 0 .98-.022 1.677-.011.348 0 .727.01 1.128.02.401.022.834.011 1.276.148.443.138.844.36 1.245.602.39.242.78.516 1.15.801a52.57 52.57 0 012.067 1.761c.327.285.632.56.938.802.306.243.612.464.886.664.57.401 1.013.802 1.234 1.15.116.169.169.327.2.422.032.105.043.158.043.158s-.021-.053-.064-.148a1.941 1.941 0 00-.253-.39c-.242-.316-.706-.643-1.297-1.012-.295-.19-.612-.38-.938-.622a19.586 19.586 0 01-.992-.77c-.675-.549-1.36-1.16-2.088-1.72a13.248 13.248 0 00-1.108-.79c-.38-.232-.759-.454-1.139-.591-.38-.127-.79-.158-1.191-.2-.39-.032-.77-.053-1.118-.085-.696-.042-1.266-.105-1.677-.137a6.283 6.283 0 01-.612-.042z" fill="#E8A680"/><path d="M51.018 53.878c-.527.106-3.153.833-3.565 1.097-.41.264-1.887 2.763-1.814 3.132.095.433 1.16.602 1.793-.179.496-.612 1.034-1.255 1.034-1.255 1.213.01 2.404-.485 2.679-.39.274.095 2.415 1.508 2.71 1.803.306.296 1.33 1.435 1.846 2.49a122.635 122.635 0 001.455 2.815s-.295-6.57-.443-6.634c-.137-.063-2.193-1.792-2.31-1.792-.115-.022-2.636-1.235-3.385-1.087z" fill="#E7CCBC"/><path d="M44.11 49.66c.4.337.243.77-.39 1.033-.844.348-1.108.242-1.255.042-.159-.2-.085-.432.337-.643.422-.211 1.14-.57 1.308-.433zm2.563-5.179c-.01.475-.517.538-1.107.285-.844-.359-.823-.665-.76-.918.053-.242.285-.337.707-.147.422.19 1.16.559 1.16.78zm-.211 11.918c.527.031.675.548.337 1.128-.453.791-.875.802-1.086.707-.232-.106-.274-.317-.053-.739.211-.4.591-1.107.802-1.096zM44.427 45.23c-.074.57-.528.78-1.224.506-.938-.369-1.054-.654-1.023-.928.032-.274.317-.422.812-.274.486.148 1.466.443 1.435.696z" fill="#F6D9C5"/></g><defs><linearGradient id="paint0_linear" x1="38.754" y1="66.7" x2="38.754" y2="58.785" gradientUnits="userSpaceOnUse"><stop stop-color="#F2BB99"/><stop offset="1" stop-color="#E8A680"/></linearGradient><linearGradient id="paint1_linear" x1="38.754" y1="66.7" x2="38.754" y2="58.785" gradientUnits="userSpaceOnUse"><stop stop-color="#E7CCBC"/><stop offset="1" stop-color="#CBB1A2"/></linearGradient></defs></svg>