<svg width="76" height="84" viewBox="0 0 76 84" fill="none" xmlns="http://www.w3.org/2000/svg"><mask id="mask0" maskUnits="userSpaceOnUse" x="3" y="14" width="70" height="70"><circle r="34.47" transform="matrix(-1 0 0 1 37.97 49.1)" fill="#FFD15A"/></mask><g mask="url(#mask0)"><circle r="34.47" transform="matrix(-1 0 0 1 37.97 49.1)" fill="#FFD15A"/><path d="M77.647 103.154s-8.791-26.51-13.778-30.896c-4.148-3.648-8.948-2.5-13.667-1.799-1.101.167-3.678.026-4.537-2.192l-8.27.308v20.528l18.683-1.96s3.395 1.247 3.668 1.798c1.02 2.046 3.734 16.693 5.462 19.058 2.91 3.966 12.439-4.845 12.439-4.845z" fill="#F2BB99"/><path d="M-1.803 103.143s8.792-25.56 13.778-29.945c4.148-3.648 8.948-3.451 13.667-2.749 1.102.162 3.678.025 4.537-2.193l8.271.308v20.529l-18.684-1.966s-3.39 1.248-3.668 1.799c-1.02 2.046-3.734 16.693-5.462 19.058-2.91 3.971-12.439-4.841-12.439-4.841z" fill="#F2BB99"/><path opacity=".5" d="M63.869 72.258c-2.375-2.092-4.967-2.607-7.634-2.536 1.697 2.647 5.8 17.466.828 17.188l.167.672c.505.207 1.086.46 1.571.702.005 0 .01.005.015.005.026.015.05.025.076.04.005 0 .005.006.01.006.026.015.05.025.076.04.005 0 .005.005.01.005.05.03.106.056.152.086.005.005.01.005.015.01.02.01.035.02.056.03.01.005.015.005.02.01l.05.03c.005.006.01.006.015.011.046.025.086.056.127.08.005 0 .01.006.015.01.015.011.03.021.04.031.005.005.015.01.02.015.01.005.02.016.03.02.006.006.016.01.021.016.01.01.02.02.035.025.005 0 .005.005.01.01.016.01.03.02.04.035 0 .006.006.006.006.01.01.01.02.02.03.026l.01.01c.01.005.016.015.02.02.006.005.006.01.01.01.006.005.01.016.016.02 0 .006.005.006.005.01.005.01.015.02.015.03 1.02 2.047 3.734 16.694 5.462 19.059 2.905 3.971 12.434-4.841 12.434-4.841s-8.786-26.51-13.773-30.895z" fill="#E8A680"/><path d="M18.321 68.453c-2.041-2.703 2.93-4.042 5.962-2.551 4.108 2.02 6.836 2.521 10.357 1.248 3.517-1.273 3.178-1.46 7.923-.526 4.744.935 9.018-4.981 15.273.566 0 0 4.27-6.058 1.526-13.525-2.748-7.468-8.013-12.141-8.013-12.141L22.666 47.87l-7.397 7.806s-5.643 6.2 3.052 12.777z" fill="#4D2F0E"/><path d="M52.632 42.838c.283-1.44.925-2.35 1.865-2.253.934.096 1.904 2.354 1.43 4.041-.475 1.688-1.233 1.946-.97 3.093.262 1.141-1.521 3.289-2.168 1.53-.652-1.758-.157-6.411-.157-6.411z" fill="#F2BB99"/><path opacity=".5" d="M52.632 42.838c.283-1.44.925-2.35 1.865-2.253.934.096 1.904 2.354 1.43 4.041-.475 1.688-1.233 1.946-.97 3.093.262 1.141-1.521 3.289-2.168 1.53-.652-1.758-.157-6.411-.157-6.411z" fill="#E8A680"/><path d="M54.497 40.584c-.804-.086-1.39.576-1.723 1.677l.556 3.037c-.147-1.303.464-5.457 2.43-3.239-.298-.813-.788-1.424-1.263-1.475zM22.54 42.888c-.283-1.44-.93-2.355-1.864-2.253-.935.1-1.905 2.354-1.43 4.041.475 1.688 1.233 1.946.97 3.093-.263 1.141 1.52 3.289 2.167 1.53.647-1.763.157-6.411.157-6.411z" fill="#F2BB99"/><path opacity=".5" d="M22.54 42.888c-.283-1.44-.93-2.355-1.864-2.253-.935.1-1.905 2.354-1.43 4.041.475 1.688 1.233 1.946.97 3.093-.263 1.141 1.52 3.289 2.167 1.53.647-1.763.157-6.411.157-6.411z" fill="#E8A680"/><path d="M20.675 40.634c.804-.086 1.39.576 1.723 1.678l-.55 3.036c.141-1.303-.465-5.456-2.43-3.238.293-.814.778-1.425 1.258-1.476z" fill="#F2BB99"/><path d="M39.006 64.79c2.521 0 6.806-4.365 9.2-6.886 2.395-2.521 4.79-6.048 5.038-11.343.252-5.29.379-14.111-.632-18.901-1.01-4.79-7.937-10.711-15.374-10.206-7.433.505-17.168 5.169-16.39 16.107.783 11.02.525 14.248 1.621 18.406 1.309 4.972 9.57 12.823 16.537 12.823z" fill="#F2BB99"/><path opacity=".3" d="M59.73 26.675c.45 4.88-6.75 9.534-16.086 10.393-9.332.858-17.264-2.4-17.714-7.281-.45-4.876 6.755-9.529 16.087-10.393 9.332-.859 17.264 2.4 17.714 7.28z" fill="url(#paint0_radial)"/><path d="M15.578 34.041c1.526 3.461-6.255 5.154-2.749 13.122 1.768 4.021-7.17 16.238 5.492 21.29 0 0-5.487-4.097-3.052-9.624 1.774-4.032 6.351-6.361 6.351-12.651s-.773-12.616-.773-12.616l-5.27.48z" fill="#593515"/><path opacity=".3" d="M54.699 48.42c.232 1.915-2.633 3.84-6.402 4.3-3.769.455-7.007-.727-7.24-2.647-.232-1.92 2.633-3.845 6.402-4.3 3.764-.455 7.007.728 7.24 2.647z" fill="url(#paint1_radial)"/><path opacity=".3" d="M33.524 28.019c1.799 3.456-.536 8.235-5.22 10.675-4.683 2.44-9.937 1.612-11.741-1.844-1.799-3.456.536-8.235 5.22-10.676 4.683-2.44 9.942-1.616 11.741 1.845z" fill="url(#paint2_radial)"/><path opacity=".3" d="M20.731 48.42c-.232 1.915 2.632 3.84 6.402 4.3 3.769.455 7.007-.727 7.24-2.647.232-1.92-2.632-3.845-6.402-4.3-3.769-.455-7.012.728-7.24 2.647z" fill="url(#paint3_radial)"/><path d="M33.635 36.608c.152.06.505.126.56.536.092.692.046 1.465-.504 1.349-.46-.102-4.876-1.314-6.513-.85-1.824.516-5.007 2.032-5.007 2.032s2.79-2.961 5.381-3.598c2.193-.545 5.164.162 6.083.53zm8.347 0c-.157.06-.505.126-.561.536-.091.692-.046 1.465.505 1.349.46-.102 4.87-1.314 6.513-.85 1.824.516 5.007 2.032 5.007 2.032s-2.79-2.961-5.381-3.598c-2.193-.545-5.164.162-6.083.53z" fill="#4D2F0E"/><path d="M47.686 23.315c-.536 3.506-4.754 8.998-13.778 9.918-9.029.914-20.948 6.315-12.01 15.895 0 0-10.443-4.512-6.32-15.087C19.695 23.467 33.6 27.58 39.602 26.67c8.084-1.218 8.084-3.355 8.084-3.355z" fill="#593515"/><path d="M47.686 23.77c-2.466 4.729.08 8.24 4.042 10.984 3.966 2.743-3.138 8.038 3.814 15.743 7.67 8.508 2.29 16.693 2.29 16.693s8.477-5.628 2.591-17.446c-3.092-6.204 2.79-11.12 0-22.922-2.223-9.403-11.883-9.873-12.737-8.236 0 0-3.739-9.71-13.51-3.815-10.363 6.255-9.251 1.981-13.829 3.815-4.577 1.829-8.735 10.524-4.77 19.118 0 0 5.745-7.068 13.248-6.76 7.498.303 16.193-3.051 18.86-7.174z" fill="#593515"/><path d="M46.155 22.77s-.01.106-.035.298c-.01.096-.026.217-.046.358-.035.142-.08.298-.131.485-.046.187-.126.38-.212.586-.046.107-.091.213-.137.329l-.187.333c-.065.117-.131.233-.197.36a42.93 42.93 0 01-.237.358c-.157.252-.359.49-.566.737a12.3 12.3 0 01-1.48 1.48c-.581.466-1.213.935-1.915 1.335-.177.1-.354.202-.53.308-.188.09-.375.182-.562.273-.368.197-.768.343-1.162.51-.798.303-1.632.56-2.486.727-.217.04-.419.086-.646.122l-.611.09c-.4.066-.834.102-1.243.152a60.25 60.25 0 01-2.39.192c-.763.056-1.5.096-2.183.167a17.36 17.36 0 00-1.9.278c-.146.03-.288.066-.424.096-.136.04-.268.076-.4.116-.267.06-.5.162-.727.243-.444.181-.843.353-1.147.535-.318.167-.55.324-.717.43l-.253.161s.066-.08.182-.237c.127-.152.293-.394.566-.642a6.773 6.773 0 011.04-.864 8.043 8.043 0 011.562-.838c.298-.137.622-.233.95-.354.333-.096.677-.202 1.036-.283a31.826 31.826 0 012.233-.425c.763-.11 1.551-.227 2.35-.338l1.181-.182.612-.1.566-.117c.763-.142 1.51-.369 2.243-.601.722-.263 1.435-.526 2.097-.854a18.637 18.637 0 001.87-1.016c.565-.369 1.1-.727 1.55-1.111.233-.187.445-.38.637-.566.101-.091.197-.182.293-.273.086-.096.172-.187.248-.278.08-.09.161-.177.237-.263.07-.09.136-.176.197-.262.131-.167.258-.319.339-.47.096-.147.176-.283.252-.4.06-.126.116-.237.157-.323.076-.172.126-.262.126-.262z" fill="#6E431E"/><path d="M44.821 61.269c-2.036 1.864-4.26 3.521-5.815 3.521-2.693 0-5.578-1.177-8.18-2.9.722 3.017-.273 7.953-3.577 9.731h21.21c-3.208-1.728-4.244-7.16-3.638-10.352z" fill="url(#paint4_linear)"/><path d="M58.786 71.874c.904 2.183 3.37 13.869 4.012 19.33.641 5.462.369 17.164 5.29 21.226 4.916 4.057 7.786 2.4 8.695.995.904-1.404 1.627-5.29 1.258-8.311-.283-2.319-1.784-6.932-3.981-11.873-2.82-6.32-8.504-17.734-9.135-19.745-.632-2.006-6.139-1.622-6.139-1.622z" fill="#F2BB99"/><path d="M64.925 73.496c-.516-1.44-.117-2.815-.682-3.522-.566-.707-1.39-2.046-1.642-3.709-.253-1.662-.02-4.905.11-5.668.132-.763.683-3.537-.045-4.194-.727-.657-1.526-3.314-1.925-4.724-.394-1.41-1.682-3.45-2.056-3.961-.374-.515-3.153-3.385-3.4-3.32-.248.066-.945.748-.334 1.971 0 0-.763-.783-.884-.793-.121-.005-1.132 1.106.09 2.324 1.224 1.223 2.896 3.532 3.032 3.946.137.414.829 2.82.829 2.82s-1.44-1.602-2.375-2.194c-.94-.59-3.456-1.859-3.759-1.632-.298.223-.278 1.122 1.562 2.218 1.839 1.102 2.536 2.244 2.536 2.244s1.056 1.859 1.06 2.39c.006.53.163 1.839-.525 3.587-.687 1.743-1.07 3.915 1.036 7.674 2.107 3.764 3.011 9.721 3.011 9.721l5.705-1.94-1.344-3.238z" fill="#F2BB99"/><path opacity=".5" d="M54.951 46.364s.116.147.334.39c.222.242.535.59.934.985.4.394.86.858 1.334 1.359.238.252.465.525.677.803.106.141.207.293.293.434.096.167.172.324.248.486.318.661.59 1.354.854 2 .262.647.51 1.253.722 1.769.207.52.404.944.536 1.248.136.298.222.464.222.464l-.136-.495c-.091-.313-.208-.768-.374-1.303-.167-.536-.354-1.162-.591-1.824a23.79 23.79 0 00-.819-2.056 5.933 5.933 0 00-.601-.99 8.323 8.323 0 00-.743-.82c-.505-.5-1.02-.909-1.445-1.273-.864-.702-1.445-1.177-1.445-1.177zm5.073 10.802l-2.259-2.778c.162.171.258.278.258.278s-.136-.475-.303-1.046l2.304 3.546z" fill="#E8A680"/><path d="M55.355 54.54c.44.454.632.762.632.762s1.056 1.86 1.06 2.39c0 .343.072 1.025-.07 1.94-.217-.632-.904-1.864-1.258-2.4-.349-.535-.99-1.495-.98-2.021.01-.445.308-.611.616-.672z" fill="#F2BB99"/><path opacity=".5" d="M55.355 54.54c.44.454.632.762.632.762s1.056 1.86 1.06 2.39c0 .343.072 1.025-.07 1.94-.217-.632-.904-1.864-1.258-2.4-.349-.535-.99-1.495-.98-2.021.01-.445.308-.611.616-.672z" fill="#E8A680"/><path d="M56.78 45.692c-.146.445-.626.546-1.127.076-.682-.642-.737-1.056-.61-1.288.125-.228.419-.081.792.217.37.298.99.864.945.995zm-1.162 1.238c-.167.44-.652.52-1.132.025-.651-.667-.687-1.086-.555-1.308.136-.222.424-.066.783.247.358.314.955.91.904 1.036zm-1.828 4.572c-.01.47-.435.708-1.057.405-.843-.41-1.015-.788-.965-1.046.05-.258.374-.207.819-.03.444.176 1.202.53 1.202.671z" fill="#F6D9C5"/><path d="M48.727 23.315s-.01.278-.01.748c.005.475.03 1.142.136 1.92.111.778.298 1.662.672 2.516a6.54 6.54 0 001.632 2.319c.364.328.823.717 1.202 1.111.39.394.748.809 1.071 1.228.637.849 1.122 1.738 1.38 2.562.273.818.308 1.56.217 2.056a1.79 1.79 0 01-.182.55c-.06.117-.106.172-.106.172s.086-.272.015-.727c-.066-.455-.283-1.066-.667-1.733-.389-.667-.93-1.39-1.591-2.097a20.96 20.96 0 00-1.061-1.056c-.38-.353-.753-.657-1.198-1.05a6.502 6.502 0 01-1.137-1.365 6.781 6.781 0 01-.712-1.55 7.888 7.888 0 01-.313-2.911 8.29 8.29 0 01.384-1.986c.136-.46.268-.707.268-.707z" fill="#6E431E"/><path d="M49.242 27.584s.03.066.081.187c.045.127.142.298.263.505.126.208.303.44.515.698.222.252.49.52.798.798.617.556 1.395 1.147 2.224 1.814.409.338.843.682 1.258 1.066.414.389.828.793 1.212 1.238.374.454.723.934 1.01 1.45a6.8 6.8 0 01.642 1.606c.142.546.202 1.092.192 1.602-.005.253-.005.5-.045.738-.026.237-.06.465-.116.677-.076.43-.223.808-.329 1.136-.136.324-.253.607-.364.83-.237.444-.373.686-.373.686s.07-.278.202-.753c.065-.237.116-.535.197-.858.045-.339.12-.713.146-1.122a3.77 3.77 0 00.02-.637 5.045 5.045 0 00-.025-.672 6.732 6.732 0 00-.283-1.404c-.141-.475-.384-.935-.631-1.39a9.168 9.168 0 00-.94-1.293c-.697-.834-1.526-1.572-2.299-2.289-.778-.707-1.516-1.394-2.077-2.056a7.374 7.374 0 01-.702-.955 4.34 4.34 0 01-.399-.829 2.744 2.744 0 01-.146-.566 2.363 2.363 0 00-.03-.207zm4.552-2.097s.713.445 1.688 1.228c.495.39 1.04.874 1.602 1.43.267.293.565.57.823.904.273.319.526.662.773 1.01.126.172.222.37.339.546.11.182.217.37.308.561.09.192.192.38.263.576.07.197.136.394.202.591.075.192.106.394.146.586.036.198.086.38.086.571.015.187.025.37.04.546.006.177-.025.349-.035.51-.015.162-.015.319-.05.46-.036.142-.071.278-.106.404-.036.127-.066.243-.096.349-.046.101-.086.197-.127.283-.151.338-.247.52-.247.52s.025-.212.075-.57c.016-.087.026-.188.04-.294 0-.106.006-.222.006-.348.005-.122.01-.253.01-.39 0-.136-.02-.277-.035-.429-.02-.146-.016-.303-.05-.46-.036-.156-.067-.318-.102-.48-.025-.166-.09-.328-.147-.495-.065-.161-.09-.343-.176-.51-.076-.167-.147-.338-.223-.51-.09-.167-.176-.339-.267-.51a4.251 4.251 0 00-.293-.51c-.112-.168-.203-.34-.324-.501a14.79 14.79 0 00-.702-.97c-.238-.319-.49-.617-.733-.915-.252-.283-.48-.58-.717-.838l-.652-.753c-.404-.47-.743-.864-.97-1.152-.222-.268-.349-.44-.349-.44zm-5.461-4.895l.106-.091a1.82 1.82 0 01.343-.212c.157-.066.349-.167.582-.223.116-.035.237-.07.368-.106.132-.03.273-.045.42-.076a6.622 6.622 0 012.026.005c.373.036.742.157 1.121.253.364.142.758.258 1.107.46l.53.288c.172.1.329.227.49.338.334.218.607.49.874.753.278.248.486.546.693.814.1.136.207.262.283.399l.222.404c.136.258.273.485.349.712.085.223.146.42.197.581.1.324.141.51.141.51s-.147-.13-.379-.368a14.48 14.48 0 01-.4-.43c-.146-.166-.353-.328-.535-.52a6.645 6.645 0 00-.641-.581c-.238-.192-.46-.42-.733-.596-.131-.096-.263-.197-.399-.293-.126-.101-.283-.177-.424-.273-.142-.091-.288-.177-.43-.268l-.455-.237a2.963 2.963 0 00-.46-.223c-.156-.065-.308-.141-.464-.207-.324-.1-.627-.242-.94-.318-.308-.101-.616-.172-.914-.243-.294-.06-.582-.12-.844-.161-.268-.036-.516-.071-.733-.086-.222-.026-.414-.026-.576-.036-.146.01-.283-.01-.374.016l-.151.015zm-6.392 5.658s-.116.132-.328.35c-.111.1-.222.247-.404.368-.172.131-.37.278-.592.43-.227.13-.474.277-.747.414a17.26 17.26 0 01-.874.374c-.314.1-.632.217-.97.308-.334.08-.677.166-1.021.227-.687.121-1.384.197-2.031.217-.323.026-.642.01-.935.005a13.527 13.527 0 01-.838-.045c-1.036-.086-1.713-.283-1.713-.283s.692-.111 1.697-.242c.5-.071 1.087-.152 1.718-.238.314-.04.632-.096.96-.147.329-.045.652-.106.98-.166.329-.05.652-.132.975-.187.319-.07.632-.142.935-.212.298-.091.591-.162.864-.238.263-.096.526-.177.763-.252.222-.096.435-.177.627-.248.197-.066.353-.167.49-.227.283-.142.444-.207.444-.207zm2.875-7.028s-.086-.116-.248-.328a6.885 6.885 0 00-.788-.819 6.475 6.475 0 00-1.44-.97 5.462 5.462 0 00-2.096-.57c-.783-.046-1.632.126-2.44.51-.208.08-.395.222-.597.333-.217.121-.43.263-.647.4a14.76 14.76 0 01-1.43.767c-.99.47-2.04.895-3.137 1.223a39.012 39.012 0 01-3.345.844 62.66 62.66 0 01-3.38.55c-.268.04-.576.076-.813.117-.268.04-.556.075-.798.131-.496.096-1.006.227-1.48.389-.956.323-1.85.738-2.613 1.253a8.122 8.122 0 00-1.88 1.774c-.116.166-.237.323-.348.485a58.29 58.29 0 00-.283.495c-.046.08-.091.161-.142.237-.035.08-.07.167-.106.248l-.207.475c-.126.313-.197.621-.293.899-.09.278-.121.55-.177.788-.116.48-.126.87-.161 1.137l-.046.41-.03-.41c-.005-.268-.081-.662-.03-1.167.02-.253.01-.536.06-.839.05-.303.096-.631.182-.98.192-.682.44-1.475.935-2.228a8.062 8.062 0 011.925-2.158 10.56 10.56 0 012.814-1.566 12.605 12.605 0 011.637-.5c.293-.08.55-.116.828-.172.309-.055.556-.086.84-.136a68.683 68.683 0 003.303-.586 36.787 36.787 0 003.234-.763c1.046-.308 2.066-.637 3.016-1.051A21.2 21.2 0 0036 16.797c.228-.116.445-.242.678-.354.247-.116.47-.252.727-.338.98-.4 2.021-.5 2.925-.354.91.137 1.678.5 2.274.9a6.11 6.11 0 011.37 1.232c.328.39.525.738.656.97.121.243.187.37.187.37z" fill="#6E431E"/><path d="M24.55 22.855s.243-.055.668-.141c.207-.05.465-.106.753-.177.288-.081.616-.157.965-.263.348-.096.722-.222 1.116-.354.394-.136.803-.293 1.223-.46.424-.161.844-.363 1.278-.555.435-.192.864-.41 1.293-.637.435-.217.865-.444 1.284-.677.424-.227.844-.454 1.243-.677.813-.44 1.586-.844 2.299-1.111a4.816 4.816 0 011.005-.293c.308-.06.591-.06.819-.026.227.03.394.106.495.162.1.056.156.091.156.091s-.06-.015-.172-.04a1.708 1.708 0 00-.485-.026c-.414.026-.965.253-1.591.612-.627.358-1.334.838-2.112 1.334-.389.242-.793.51-1.218.752-.424.243-.858.49-1.303.723-.45.222-.904.434-1.36.631-.454.198-.914.36-1.363.506-.445.151-.89.262-1.309.358-.42.096-.824.167-1.197.213-.37.055-.718.07-1.021.096-.308.01-.57.015-.788.01-.43-.03-.677-.05-.677-.05zm22.413-2.263l-.192.293c-.126.187-.298.475-.55.823a6.633 6.633 0 01-1.031 1.178c-.455.409-1.05.783-1.743 1.08-.687.299-1.46.541-2.289.733-.823.197-1.708.354-2.617.47-.91.122-1.854.223-2.814.293-.95.071-1.92.142-2.885.212-1.925.152-3.845.364-5.613.688-.88.172-1.723.364-2.501.616-.773.253-1.48.556-2.087.915-.596.368-1.101.783-1.475 1.217a5.72 5.72 0 00-.819 1.253 9.685 9.685 0 00-.384.905c-.076.217-.11.333-.11.333s.024-.121.065-.343c.05-.223.116-.556.268-.96a5.94 5.94 0 01.717-1.39c.344-.505.839-1.005 1.455-1.445a9.882 9.882 0 012.147-1.122c.799-.303 1.663-.56 2.567-.757 1.804-.41 3.754-.647 5.7-.814 1.954-.151 3.88-.217 5.678-.399 1.794-.182 3.466-.43 4.805-.89.667-.232 1.248-.52 1.718-.853.47-.329.823-.702 1.101-1.016.566-.651.89-1.02.89-1.02zM15.547 54.291s-.126.172-.353.455c-.056.071-.121.152-.192.238l-.182.293a5.31 5.31 0 00-.404.707l-.207.414c-.056.152-.117.303-.177.465-.142.308-.197.667-.319 1.016-.065.364-.156.732-.186 1.121-.02.192-.051.384-.061.581l-.01.586c-.015.197.01.395.015.587.01.197.01.394.05.58.03.193.056.38.076.572.04.187.081.368.117.55.03.182.09.354.141.526.05.172.096.338.152.5l.191.455c.056.151.122.293.198.419.141.263.262.515.409.707.141.202.247.394.374.52.232.273.364.44.364.44s-.177-.106-.49-.308c-.167-.09-.324-.248-.516-.43-.202-.166-.389-.398-.586-.656-.217-.243-.369-.561-.566-.88-.152-.338-.344-.687-.444-1.08-.061-.198-.117-.395-.177-.597-.04-.202-.081-.414-.117-.621-.045-.212-.055-.425-.07-.642-.01-.217-.046-.43-.036-.647l.026-.651c.015-.218.055-.43.08-.642l.046-.313.08-.308c.056-.203.102-.405.168-.597.146-.379.272-.752.47-1.07l.262-.476c.106-.141.207-.278.303-.404.101-.126.177-.258.288-.364.106-.106.207-.202.303-.298.091-.09.182-.172.263-.252l.248-.177c.293-.207.47-.319.47-.319z" fill="#6E431E"/><path d="M70.346 36.578c-.222 5.76-4.072 5.76-4.072 5.76s3.845 0 4.072 5.764c.227-5.765 4.072-5.765 4.072-5.765s-3.85.005-4.072-5.76zM3.644 27.686c-.228 5.76-4.072 5.76-4.072 5.76s3.844 0 4.072 5.76c.227-5.76 4.072-5.76 4.072-5.76s-3.85.004-4.072-5.76zm54.531-17.027c-.177 4.522-3.198 4.522-3.198 4.522s3.02 0 3.198 4.522c.177-4.522 3.193-4.522 3.193-4.522s-3.016 0-3.193-4.522zm-30.28-6.154c-.212 5.482-3.875 5.482-3.875 5.482s3.658 0 3.875 5.482c.213-5.482 3.87-5.482 3.87-5.482s-3.657-.005-3.87-5.482zm38.96 20.048c-.096 2.48-1.753 2.48-1.753 2.48s1.657 0 1.753 2.482c.096-2.481 1.753-2.481 1.753-2.481s-1.657-.005-1.753-2.481zM19.154 10.815c-.08 2.107-1.49 2.107-1.49 2.107s1.41 0 1.49 2.107c.081-2.107 1.491-2.107 1.491-2.107s-1.405 0-1.49-2.107zM9.439 62.992C9.369 64.79 8.17 64.79 8.17 64.79s1.197 0 1.268 1.798c.07-1.798 1.268-1.798 1.268-1.798s-1.203 0-1.268-1.8zm56.835-15.92c-.142 3.612-2.552 3.612-2.552 3.612s2.41 0 2.552 3.613c.141-3.613 2.551-3.613 2.551-3.613s-2.41 0-2.551-3.612zM8.848 20.309c-.142 3.612-2.552 3.612-2.552 3.612s2.41 0 2.552 3.613c.141-3.613 2.551-3.613 2.551-3.613s-2.41 0-2.551-3.612zM7.716 39.286c-.126 3.223-2.279 3.223-2.279 3.223s2.153 0 2.28 3.224c.125-3.224 2.278-3.224 2.278-3.224s-2.153 0-2.279-3.223z" fill="#FFE08C"/><path d="M25.319 40.766s.085-.05.242-.136c.152-.086.38-.212.657-.349.556-.267 1.344-.58 2.177-.621.208-.02.415.005.617.01.202.03.404.055.586.111.182.06.369.101.52.187.157.08.314.136.44.227a9.1 9.1 0 00.349.228c.096.08.176.151.242.207l.212.182-.222-.167c-.07-.05-.157-.116-.258-.187-.106-.06-.227-.126-.358-.197-.127-.08-.288-.126-.445-.192-.157-.07-.338-.096-.515-.147-.182-.04-.374-.05-.566-.065-.192.005-.39-.005-.586.03-.783.091-1.511.44-2.021.733-.258.151-.46.288-.612.384l-.232.151-.227-.389z" fill="#E8A680"/><path d="M24.828 43.313c-.136-.415-1.616-1.319-1.793-2.96 0 0 .874.459 2.92.191 2.047-.268 3.193-.268 4.487.692 1.298.955 1.758 2.612 1.778 4.037.02 1.162-7.392-1.96-7.392-1.96z" fill="#4D2F0E"/><path d="M24.677 42.853s.172 3.31 2.617 4.168c2.44.86 4.41-.47 4.41-.47l-7.027-3.698z" fill="#4D2F0E"/><path d="M32.321 46.203c-.93.712-3.455 1.258-5.33.222-1.874-1.036-2.511-4.36-2.511-4.36s2.274-.874 4.017-.692c1.743.181 3.754 2.02 3.824 4.83z" fill="#fff"/><path d="M28.896 46.283a2.632 2.632 0 002.945-2.213c-.712-1.581-2.096-2.571-3.35-2.703a4.827 4.827 0 00-.474-.02 2.627 2.627 0 00-1.385 1.98 2.635 2.635 0 002.264 2.956z" fill="#47ACD1"/><path d="M30.796 43.884a1.569 1.569 0 01-1.759 1.344 1.569 1.569 0 01-1.344-1.759 1.57 1.57 0 011.759-1.343 1.572 1.572 0 011.344 1.758z" fill="#593515"/><path d="M29.154 43.136a.746.746 0 11-1.48-.197.746.746 0 111.48.197z" fill="#fff"/><path d="M49.136 41.18l-.233-.151a11.516 11.516 0 00-.606-.39c-.505-.297-1.228-.65-2.01-.747-.198-.04-.39-.03-.587-.04-.192.015-.384.02-.566.06-.177.046-.358.071-.515.142-.162.065-.318.106-.445.187-.131.07-.252.136-.358.197-.101.07-.187.136-.258.187l-.227.161s.075-.065.212-.177l.247-.207c.101-.065.223-.141.354-.222.126-.09.283-.147.44-.222.156-.086.338-.121.525-.182.182-.06.379-.081.581-.116.202-.005.41-.03.616-.005.84.045 1.622.363 2.173.636.278.142.5.268.652.354l.242.136-.237.4z" fill="#E8A680"/><path d="M49.848 43.338c.142-.414 1.627-1.304 1.819-2.946 0 0-.88.455-2.92.167-2.047-.288-3.188-.293-4.492.652-1.303.945-1.784 2.592-1.819 4.022-.035 1.162 7.412-1.895 7.412-1.895z" fill="#4D2F0E"/><path d="M50 42.878s-.202 3.31-2.653 4.143c-2.45.834-4.406-.51-4.406-.51L50 42.878z" fill="#4D2F0E"/><path d="M42.325 46.157c.924.723 3.446 1.289 5.33.273 1.885-1.016 2.552-4.335 2.552-4.335s-2.269-.894-4.012-.728c-1.743.167-3.774 1.986-3.87 4.79z" fill="#fff"/><path d="M45.75 46.273a2.63 2.63 0 01-2.925-2.238c.728-1.576 2.122-2.551 3.37-2.673a4.96 4.96 0 01.475-.02 2.624 2.624 0 011.37 1.99 2.635 2.635 0 01-2.29 2.941z" fill="#47ACD1"/><path d="M43.87 43.853a1.563 1.563 0 103.103-.383 1.563 1.563 0 00-3.102.383z" fill="#593515"/><path d="M43.75 43.495a.75.75 0 001.485-.182.75.75 0 00-1.485.182z" fill="#fff"/><path d="M35.045 52.134s-.005.03-.01.091c-.01.061-.006.147-.006.253a.91.91 0 00.096.354.722.722 0 00.329.293c.146.065.328.096.52.086.046 0 .096-.01.142-.016.09-.01.106-.015.197-.01.182.01.293.071.42.137.232.131.419.293.605.404.187.111.344.136.51.06.223-.095.4-.212.617-.353.212-.142.48-.263.738-.308.252-.05.515-.036.712-.03a.95.95 0 00.263-.03.455.455 0 00.197-.102c.106-.096.136-.253.141-.389a.999.999 0 00-.07-.369c-.076-.202-.167-.293-.167-.293l.07.056a.83.83 0 01.172.202c.061.096.127.227.162.389.03.156.046.384-.111.576-.137.192-.42.293-.642.303-.237.02-.434.03-.641.086-.208.045-.384.151-.581.283a4.806 4.806 0 01-.677.404.952.952 0 01-.49.066 1.218 1.218 0 01-.43-.172c-.237-.152-.41-.328-.581-.435a.949.949 0 00-.227-.106c-.02-.015-.122-.005-.137-.01-.06 0-.126.005-.187 0a1.32 1.32 0 01-.651-.197.799.799 0 01-.354-.455 1.064 1.064 0 01-.03-.424c.04-.232.11-.339.1-.344z" fill="#E8A680"/><path d="M31.705 55.65c1.885.233 4.552-.317 5.664-.024 1.106.293 1.435-.066 1.98-.137.713-.096 4.38.308 5.174.03 0 0-2.814 2.032-5.285 2.198-2.47.172-6.649-1.222-6.649-1.222l-.884-.844z" fill="#E49084"/><path d="M31.705 55.651c.137.84 1.915 5.18 6.401 5.108 4.487-.07 6.417-5.239 6.417-5.239l-6.159 3.077-6.659-2.946z" fill="#E49084"/><path d="M31.705 55.651c1.071.612 4.25 1.102 7.058.99 2.815-.11 5.033-.788 5.755-1.121 0 0-2.324 3.81-6.492 3.78-4.23-.026-6.32-3.649-6.32-3.649z" fill="#812A1F"/><path d="M42.79 56.702c.071-.177.117-.435.147-.662a20.226 20.226 0 01-4.173.601c-2.006.076-4.189-.146-5.67-.505h-.004c.015.273.768 1.278 1.475 1.53.712.259 3.193.587 5.335.264 2.138-.324 2.739-.844 2.89-1.228z" fill="#fff"/><path d="M42.487 57.09c-.086-.06-8.256.233-8.392.309-.086.045-.248.252-.359.434 1.031.773 2.46 1.46 4.295 1.47 2.061.016 3.668-.909 4.77-1.843-.087-.213-.248-.324-.314-.37z" fill="#fff"/><path opacity=".5" d="M34.09 57.399s.5.197 1.288.359c.197.045.414.075.637.116.232.025.47.066.722.08.5.046 1.041.056 1.577.031.267 0 .535-.035.798-.056.263-.025.52-.07.768-.106.247-.04.485-.1.707-.146.228-.04.43-.116.627-.167.192-.06.374-.096.525-.157.152-.055.288-.1.394-.14.223-.077.344-.122.344-.122l-.339.136c-.106.046-.237.096-.389.157-.146.066-.328.111-.52.172-.192.055-.4.131-.627.177-.227.05-.46.11-.712.156-.253.035-.51.086-.773.116-.263.02-.53.06-.803.066a11.91 11.91 0 01-1.592-.05c-.253-.016-.495-.066-.727-.092-.228-.045-.445-.075-.642-.126a7.556 7.556 0 01-1.263-.404z" fill="#812A1F"/><path d="M20.039 70.752l.753.03c.237.026.525.107.858.183.324.106.683.232 1.062.409.368.187.783.379 1.177.636a17.9 17.9 0 011.248.809c.843.58 1.707 1.243 2.592 1.86.44.307.879.62 1.323.898.223.137.445.278.662.42.223.131.445.252.662.374.43.257.874.444 1.283.651.415.198.829.329 1.198.485.379.132.737.218 1.05.319.314.106.597.136.83.192.47.096.732.156.732.156s-.273 0-.753-.005c-.237-.01-.535.01-.864-.055-.328-.056-.712-.091-1.116-.187-.4-.116-.844-.207-1.289-.379-.44-.177-.924-.334-1.38-.586a12.827 12.827 0 01-1.404-.768c-.47-.278-.92-.591-1.374-.9a79.32 79.32 0 01-2.546-1.94c-.405-.298-.784-.61-1.162-.874-.37-.278-.738-.505-1.072-.727a16.016 16.016 0 00-.96-.52c-.298-.107-.555-.238-.783-.304-.46-.11-.727-.177-.727-.177zm35.149 0s-.257.066-.707.177c-.227.06-.47.192-.758.298-.283.137-.59.319-.924.51-.324.223-.672.445-1.026.728-.359.263-.722.576-1.106.88a78.21 78.21 0 01-2.426 1.96c-.44.308-.864.631-1.318.91-.223.14-.45.277-.672.413-.233.122-.46.238-.687.36-.44.252-.915.403-1.34.58-.434.162-.868.258-1.252.374-.394.086-.768.126-1.087.177-.318.066-.61.035-.843.05-.465 0-.733.005-.733.005l.718-.151c.222-.056.505-.08.808-.187.303-.096.652-.192 1.02-.313.36-.157.758-.293 1.163-.48.394-.207.828-.39 1.237-.647.208-.121.425-.248.637-.374.207-.141.42-.283.632-.42.429-.272.843-.595 1.268-.904.42-.313.838-.626 1.248-.95.409-.318.823-.626 1.222-.924.405-.293.799-.576 1.198-.819.379-.257.778-.454 1.137-.641a7.875 7.875 0 011.035-.404c.329-.076.607-.157.84-.177.449-.02.716-.03.716-.03z" fill="#E8A680"/></g><mask id="mask1" maskUnits="userSpaceOnUse" x="0" y="0" width="76" height="81"><ellipse rx="37.121" ry="39.773" transform="matrix(-1 0 0 1 37.97 40.614)" fill="#FFD15A"/></mask><g mask="url(#mask1)"><path d="M77.647 103.154s-8.791-26.51-13.778-30.896c-4.148-3.648-8.948-2.5-13.667-1.799-1.101.167-3.678.026-4.537-2.192l-8.27.308v20.528l18.683-1.96s3.395 1.247 3.668 1.798c1.02 2.046 3.734 16.693 5.462 19.058 2.91 3.966 12.439-4.845 12.439-4.845z" fill="#F2BB99"/><path d="M-1.803 103.143s8.792-25.56 13.778-29.945c4.148-3.648 8.948-3.451 13.667-2.749 1.102.162 3.678.025 4.537-2.193l8.271.308v20.529l-18.684-1.966s-3.39 1.248-3.668 1.799c-1.02 2.046-3.734 16.693-5.462 19.058-2.91 3.971-12.439-4.841-12.439-4.841z" fill="#F2BB99"/><path opacity=".5" d="M63.869 72.258c-2.375-2.092-4.967-2.607-7.634-2.536 1.697 2.647 5.8 17.466.828 17.188l.167.672c.505.207 1.086.46 1.571.702.005 0 .01.005.015.005.026.015.05.025.076.04.005 0 .005.006.01.006.026.015.05.025.076.04.005 0 .005.005.01.005.05.03.106.056.152.086.005.005.01.005.015.01.02.01.035.02.056.03.01.005.015.005.02.01l.05.03c.005.006.01.006.015.011.046.025.086.056.127.08.005 0 .01.006.015.01.015.011.03.021.04.031.005.005.015.01.02.015.01.005.02.016.03.02.006.006.016.01.021.016.01.01.02.02.035.025.005 0 .005.005.01.01.016.01.03.02.04.035 0 .006.006.006.006.01.01.01.02.02.03.026l.01.01c.01.005.016.015.02.02.006.005.006.01.01.01.006.005.01.016.016.02 0 .006.005.006.005.01.005.01.015.02.015.03 1.02 2.047 3.734 16.694 5.462 19.059 2.905 3.971 12.434-4.841 12.434-4.841s-8.786-26.51-13.773-30.895z" fill="#E8A680"/><path d="M18.321 68.453c-2.041-2.703 2.93-4.042 5.962-2.551 4.108 2.02 6.836 2.521 10.357 1.248 3.517-1.273 3.178-1.46 7.923-.526 4.744.935 9.018-4.981 15.273.566 0 0 4.27-6.058 1.526-13.525-2.748-7.468-8.013-12.141-8.013-12.141L22.666 47.87l-7.397 7.806s-5.643 6.2 3.052 12.777z" fill="#4D2F0E"/><path d="M52.632 42.838c.283-1.44.925-2.35 1.865-2.253.934.096 1.904 2.354 1.43 4.041-.475 1.688-1.233 1.946-.97 3.093.262 1.141-1.521 3.289-2.168 1.53-.652-1.758-.157-6.411-.157-6.411z" fill="#F2BB99"/><path opacity=".5" d="M52.632 42.838c.283-1.44.925-2.35 1.865-2.253.934.096 1.904 2.354 1.43 4.041-.475 1.688-1.233 1.946-.97 3.093.262 1.141-1.521 3.289-2.168 1.53-.652-1.758-.157-6.411-.157-6.411z" fill="#E8A680"/><path d="M54.497 40.584c-.804-.086-1.39.576-1.723 1.677l.556 3.037c-.147-1.303.464-5.457 2.43-3.239-.298-.813-.788-1.424-1.263-1.475zM22.54 42.888c-.283-1.44-.93-2.355-1.864-2.253-.935.1-1.905 2.354-1.43 4.041.475 1.688 1.233 1.946.97 3.093-.263 1.141 1.52 3.289 2.167 1.53.647-1.763.157-6.411.157-6.411z" fill="#F2BB99"/><path opacity=".5" d="M22.54 42.888c-.283-1.44-.93-2.355-1.864-2.253-.935.1-1.905 2.354-1.43 4.041.475 1.688 1.233 1.946.97 3.093-.263 1.141 1.52 3.289 2.167 1.53.647-1.763.157-6.411.157-6.411z" fill="#E8A680"/><path d="M20.675 40.634c.804-.086 1.39.576 1.723 1.678l-.55 3.036c.141-1.303-.465-5.456-2.43-3.238.293-.814.778-1.425 1.258-1.476z" fill="#F2BB99"/><path d="M39.006 64.79c2.521 0 6.806-4.365 9.2-6.886 2.395-2.521 4.79-6.048 5.038-11.343.252-5.29.379-14.111-.632-18.901-1.01-4.79-7.937-10.711-15.374-10.206-7.433.505-17.168 5.169-16.39 16.107.783 11.02.525 14.248 1.621 18.406 1.309 4.972 9.57 12.823 16.537 12.823z" fill="#F2BB99"/><path opacity=".3" d="M59.73 26.675c.45 4.88-6.75 9.534-16.086 10.393-9.332.858-17.264-2.4-17.714-7.281-.45-4.876 6.755-9.529 16.087-10.393 9.332-.859 17.264 2.4 17.714 7.28z" fill="url(#paint5_radial)"/><path d="M15.578 34.041c1.526 3.461-6.255 5.154-2.749 13.122 1.768 4.021-7.17 16.238 5.492 21.29 0 0-5.487-4.097-3.052-9.624 1.774-4.032 6.351-6.361 6.351-12.651s-.773-12.616-.773-12.616l-5.27.48z" fill="#593515"/><path opacity=".3" d="M54.699 48.42c.232 1.915-2.633 3.84-6.402 4.3-3.769.455-7.007-.727-7.24-2.647-.232-1.92 2.633-3.845 6.402-4.3 3.764-.455 7.007.728 7.24 2.647z" fill="url(#paint6_radial)"/><path opacity=".3" d="M33.524 28.019c1.799 3.456-.536 8.235-5.22 10.675-4.683 2.44-9.937 1.612-11.741-1.844-1.799-3.456.536-8.235 5.22-10.676 4.683-2.44 9.942-1.616 11.741 1.845z" fill="url(#paint7_radial)"/><path opacity=".3" d="M20.731 48.42c-.232 1.915 2.632 3.84 6.402 4.3 3.769.455 7.007-.727 7.24-2.647.232-1.92-2.632-3.845-6.402-4.3-3.769-.455-7.012.728-7.24 2.647z" fill="url(#paint8_radial)"/><path d="M33.635 36.608c.152.06.505.126.56.536.092.692.046 1.465-.504 1.349-.46-.102-4.876-1.314-6.513-.85-1.824.516-5.007 2.032-5.007 2.032s2.79-2.961 5.381-3.598c2.193-.545 5.164.162 6.083.53zm8.347 0c-.157.06-.505.126-.561.536-.091.692-.046 1.465.505 1.349.46-.102 4.87-1.314 6.513-.85 1.824.516 5.007 2.032 5.007 2.032s-2.79-2.961-5.381-3.598c-2.193-.545-5.164.162-6.083.53z" fill="#4D2F0E"/><path d="M47.686 23.315c-.536 3.506-4.754 8.998-13.778 9.918-9.029.914-20.948 6.315-12.01 15.895 0 0-10.443-4.512-6.32-15.087C19.695 23.467 33.6 27.58 39.602 26.67c8.084-1.218 8.084-3.355 8.084-3.355z" fill="#593515"/><path d="M47.686 23.77c-2.466 4.729.08 8.24 4.042 10.984 3.966 2.743-3.138 8.038 3.814 15.743 7.67 8.508 2.29 16.693 2.29 16.693s8.477-5.628 2.591-17.446c-3.092-6.204 2.79-11.12 0-22.922-2.223-9.403-11.883-9.873-12.737-8.236 0 0-3.739-9.71-13.51-3.815-10.363 6.255-9.251 1.981-13.829 3.815-4.577 1.829-8.735 10.524-4.77 19.118 0 0 5.745-7.068 13.248-6.76 7.498.303 16.193-3.051 18.86-7.174z" fill="#593515"/><path d="M46.155 22.77s-.01.106-.035.298c-.01.096-.026.217-.046.358-.035.142-.08.298-.131.485-.046.187-.126.38-.212.586-.046.107-.091.213-.137.329l-.187.333c-.065.117-.131.233-.197.36a42.93 42.93 0 01-.237.358c-.157.252-.359.49-.566.737a12.3 12.3 0 01-1.48 1.48c-.581.466-1.213.935-1.915 1.335-.177.1-.354.202-.53.308-.188.09-.375.182-.562.273-.368.197-.768.343-1.162.51-.798.303-1.632.56-2.486.727-.217.04-.419.086-.646.122l-.611.09c-.4.066-.834.102-1.243.152a60.25 60.25 0 01-2.39.192c-.763.056-1.5.096-2.183.167a17.36 17.36 0 00-1.9.278c-.146.03-.288.066-.424.096-.136.04-.268.076-.4.116-.267.06-.5.162-.727.243-.444.181-.843.353-1.147.535-.318.167-.55.324-.717.43l-.253.161s.066-.08.182-.237c.127-.152.293-.394.566-.642a6.773 6.773 0 011.04-.864 8.043 8.043 0 011.562-.838c.298-.137.622-.233.95-.354.333-.096.677-.202 1.036-.283a31.826 31.826 0 012.233-.425c.763-.11 1.551-.227 2.35-.338l1.181-.182.612-.1.566-.117c.763-.142 1.51-.369 2.243-.601.722-.263 1.435-.526 2.097-.854a18.637 18.637 0 001.87-1.016c.565-.369 1.1-.727 1.55-1.111.233-.187.445-.38.637-.566.101-.091.197-.182.293-.273.086-.096.172-.187.248-.278.08-.09.161-.177.237-.263.07-.09.136-.176.197-.262.131-.167.258-.319.339-.47.096-.147.176-.283.252-.4.06-.126.116-.237.157-.323.076-.172.126-.262.126-.262z" fill="#6E431E"/><path d="M44.821 61.269c-2.036 1.864-4.26 3.521-5.815 3.521-2.693 0-5.578-1.177-8.18-2.9.722 3.017-.273 7.953-3.577 9.731h21.21c-3.208-1.728-4.244-7.16-3.638-10.352z" fill="url(#paint9_linear)"/><path d="M58.786 71.874c.904 2.183 3.37 13.869 4.012 19.33.641 5.462.369 17.164 5.29 21.226 4.916 4.057 7.786 2.4 8.695.995.904-1.404 1.627-5.29 1.258-8.311-.283-2.319-1.784-6.932-3.981-11.873-2.82-6.32-8.504-17.734-9.135-19.745-.632-2.006-6.139-1.622-6.139-1.622z" fill="#F2BB99"/><path d="M64.925 73.496c-.516-1.44-.117-2.815-.682-3.522-.566-.707-1.39-2.046-1.642-3.709-.253-1.662-.02-4.905.11-5.668.132-.763.683-3.537-.045-4.194-.727-.657-1.526-3.314-1.925-4.724-.394-1.41-1.682-3.45-2.056-3.961-.374-.515-3.153-3.385-3.4-3.32-.248.066-.945.748-.334 1.971 0 0-.763-.783-.884-.793-.121-.005-1.132 1.106.09 2.324 1.224 1.223 2.896 3.532 3.032 3.946.137.414.829 2.82.829 2.82s-1.44-1.602-2.375-2.194c-.94-.59-3.456-1.859-3.759-1.632-.298.223-.278 1.122 1.562 2.218 1.839 1.102 2.536 2.244 2.536 2.244s1.056 1.859 1.06 2.39c.006.53.163 1.839-.525 3.587-.687 1.743-1.07 3.915 1.036 7.674 2.107 3.764 3.011 9.721 3.011 9.721l5.705-1.94-1.344-3.238z" fill="#F2BB99"/><path opacity=".5" d="M54.951 46.364s.116.147.334.39c.222.242.535.59.934.985.4.394.86.858 1.334 1.359.238.252.465.525.677.803.106.141.207.293.293.434.096.167.172.324.248.486.318.661.59 1.354.854 2 .262.647.51 1.253.722 1.769.207.52.404.944.536 1.248.136.298.222.464.222.464l-.136-.495c-.091-.313-.208-.768-.374-1.303-.167-.536-.354-1.162-.591-1.824a23.79 23.79 0 00-.819-2.056 5.933 5.933 0 00-.601-.99 8.323 8.323 0 00-.743-.82c-.505-.5-1.02-.909-1.445-1.273-.864-.702-1.445-1.177-1.445-1.177zm5.073 10.802l-2.259-2.778c.162.171.258.278.258.278s-.136-.475-.303-1.046l2.304 3.546z" fill="#E8A680"/><path d="M55.355 54.54c.44.454.632.762.632.762s1.056 1.86 1.06 2.39c0 .343.072 1.025-.07 1.94-.217-.632-.904-1.864-1.258-2.4-.349-.535-.99-1.495-.98-2.021.01-.445.308-.611.616-.672z" fill="#F2BB99"/><path opacity=".5" d="M55.355 54.54c.44.454.632.762.632.762s1.056 1.86 1.06 2.39c0 .343.072 1.025-.07 1.94-.217-.632-.904-1.864-1.258-2.4-.349-.535-.99-1.495-.98-2.021.01-.445.308-.611.616-.672z" fill="#E8A680"/><path d="M56.78 45.692c-.146.445-.626.546-1.127.076-.682-.642-.737-1.056-.61-1.288.125-.228.419-.081.792.217.37.298.99.864.945.995zm-1.162 1.238c-.167.44-.652.52-1.132.025-.651-.667-.687-1.086-.555-1.308.136-.222.424-.066.783.247.358.314.955.91.904 1.036zm-1.828 4.572c-.01.47-.435.708-1.057.405-.843-.41-1.015-.788-.965-1.046.05-.258.374-.207.819-.03.444.176 1.202.53 1.202.671z" fill="#F6D9C5"/><path d="M48.727 23.315s-.01.278-.01.748c.005.475.03 1.142.136 1.92.111.778.298 1.662.672 2.516a6.54 6.54 0 001.632 2.319c.364.328.823.717 1.202 1.111.39.394.748.809 1.071 1.228.637.849 1.122 1.738 1.38 2.562.273.818.308 1.56.217 2.056a1.79 1.79 0 01-.182.55c-.06.117-.106.172-.106.172s.086-.272.015-.727c-.066-.455-.283-1.066-.667-1.733-.389-.667-.93-1.39-1.591-2.097a20.96 20.96 0 00-1.061-1.056c-.38-.353-.753-.657-1.198-1.05a6.502 6.502 0 01-1.137-1.365 6.781 6.781 0 01-.712-1.55 7.888 7.888 0 01-.313-2.911 8.29 8.29 0 01.384-1.986c.136-.46.268-.707.268-.707z" fill="#6E431E"/><path d="M49.242 27.584s.03.066.081.187c.045.127.142.298.263.505.126.208.303.44.515.698.222.252.49.52.798.798.617.556 1.395 1.147 2.224 1.814.409.338.843.682 1.258 1.066.414.389.828.793 1.212 1.238.374.454.723.934 1.01 1.45a6.8 6.8 0 01.642 1.606c.142.546.202 1.092.192 1.602-.005.253-.005.5-.045.738-.026.237-.06.465-.116.677-.076.43-.223.808-.329 1.136-.136.324-.253.607-.364.83-.237.444-.373.686-.373.686s.07-.278.202-.753c.065-.237.116-.535.197-.858.045-.339.12-.713.146-1.122a3.77 3.77 0 00.02-.637 5.045 5.045 0 00-.025-.672 6.732 6.732 0 00-.283-1.404c-.141-.475-.384-.935-.631-1.39a9.168 9.168 0 00-.94-1.293c-.697-.834-1.526-1.572-2.299-2.289-.778-.707-1.516-1.394-2.077-2.056a7.374 7.374 0 01-.702-.955 4.34 4.34 0 01-.399-.829 2.744 2.744 0 01-.146-.566 2.363 2.363 0 00-.03-.207zm4.552-2.097s.713.445 1.688 1.228c.495.39 1.04.874 1.602 1.43.267.293.565.57.823.904.273.319.526.662.773 1.01.126.172.222.37.339.546.11.182.217.37.308.561.09.192.192.38.263.576.07.197.136.394.202.591.075.192.106.394.146.586.036.198.086.38.086.571.015.187.025.37.04.546.006.177-.025.349-.035.51-.015.162-.015.319-.05.46-.036.142-.071.278-.106.404-.036.127-.066.243-.096.349-.046.101-.086.197-.127.283-.151.338-.247.52-.247.52s.025-.212.075-.57c.016-.087.026-.188.04-.294 0-.106.006-.222.006-.348.005-.122.01-.253.01-.39 0-.136-.02-.277-.035-.429-.02-.146-.016-.303-.05-.46-.036-.156-.067-.318-.102-.48-.025-.166-.09-.328-.147-.495-.065-.161-.09-.343-.176-.51-.076-.167-.147-.338-.223-.51-.09-.167-.176-.339-.267-.51a4.251 4.251 0 00-.293-.51c-.112-.168-.203-.34-.324-.501a14.79 14.79 0 00-.702-.97c-.238-.319-.49-.617-.733-.915-.252-.283-.48-.58-.717-.838l-.652-.753c-.404-.47-.743-.864-.97-1.152-.222-.268-.349-.44-.349-.44zm-5.461-4.895l.106-.091a1.82 1.82 0 01.343-.212c.157-.066.349-.167.582-.223.116-.035.237-.07.368-.106.132-.03.273-.045.42-.076a6.622 6.622 0 012.026.005c.373.036.742.157 1.121.253.364.142.758.258 1.107.46l.53.288c.172.1.329.227.49.338.334.218.607.49.874.753.278.248.486.546.693.814.1.136.207.262.283.399l.222.404c.136.258.273.485.349.712.085.223.146.42.197.581.1.324.141.51.141.51s-.147-.13-.379-.368a14.48 14.48 0 01-.4-.43c-.146-.166-.353-.328-.535-.52a6.645 6.645 0 00-.641-.581c-.238-.192-.46-.42-.733-.596-.131-.096-.263-.197-.399-.293-.126-.101-.283-.177-.424-.273-.142-.091-.288-.177-.43-.268l-.455-.237a2.963 2.963 0 00-.46-.223c-.156-.065-.308-.141-.464-.207-.324-.1-.627-.242-.94-.318-.308-.101-.616-.172-.914-.243-.294-.06-.582-.12-.844-.161-.268-.036-.516-.071-.733-.086-.222-.026-.414-.026-.576-.036-.146.01-.283-.01-.374.016l-.151.015zm-6.392 5.658s-.116.132-.328.35c-.111.1-.222.247-.404.368-.172.131-.37.278-.592.43-.227.13-.474.277-.747.414a17.26 17.26 0 01-.874.374c-.314.1-.632.217-.97.308-.334.08-.677.166-1.021.227-.687.121-1.384.197-2.031.217-.323.026-.642.01-.935.005a13.527 13.527 0 01-.838-.045c-1.036-.086-1.713-.283-1.713-.283s.692-.111 1.697-.242c.5-.071 1.087-.152 1.718-.238.314-.04.632-.096.96-.147.329-.045.652-.106.98-.166.329-.05.652-.132.975-.187.319-.07.632-.142.935-.212.298-.091.591-.162.864-.238.263-.096.526-.177.763-.252.222-.096.435-.177.627-.248.197-.066.353-.167.49-.227.283-.142.444-.207.444-.207zm2.875-7.028s-.086-.116-.248-.328a6.885 6.885 0 00-.788-.819 6.475 6.475 0 00-1.44-.97 5.462 5.462 0 00-2.096-.57c-.783-.046-1.632.126-2.44.51-.208.08-.395.222-.597.333-.217.121-.43.263-.647.4a14.76 14.76 0 01-1.43.767c-.99.47-2.04.895-3.137 1.223a39.012 39.012 0 01-3.345.844 62.66 62.66 0 01-3.38.55c-.268.04-.576.076-.813.117-.268.04-.556.075-.798.131-.496.096-1.006.227-1.48.389-.956.323-1.85.738-2.613 1.253a8.122 8.122 0 00-1.88 1.774c-.116.166-.237.323-.348.485a58.29 58.29 0 00-.283.495c-.046.08-.091.161-.142.237-.035.08-.07.167-.106.248l-.207.475c-.126.313-.197.621-.293.899-.09.278-.121.55-.177.788-.116.48-.126.87-.161 1.137l-.046.41-.03-.41c-.005-.268-.081-.662-.03-1.167.02-.253.01-.536.06-.839.05-.303.096-.631.182-.98.192-.682.44-1.475.935-2.228a8.062 8.062 0 011.925-2.158 10.56 10.56 0 012.814-1.566 12.605 12.605 0 011.637-.5c.293-.08.55-.116.828-.172.309-.055.556-.086.84-.136a68.683 68.683 0 003.303-.586 36.787 36.787 0 003.234-.763c1.046-.308 2.066-.637 3.016-1.051A21.2 21.2 0 0036 16.797c.228-.116.445-.242.678-.354.247-.116.47-.252.727-.338.98-.4 2.021-.5 2.925-.354.91.137 1.678.5 2.274.9a6.11 6.11 0 011.37 1.232c.328.39.525.738.656.97.121.243.187.37.187.37z" fill="#6E431E"/><path d="M24.55 22.855s.243-.055.668-.141c.207-.05.465-.106.753-.177.288-.081.616-.157.965-.263.348-.096.722-.222 1.116-.354.394-.136.803-.293 1.223-.46.424-.161.844-.363 1.278-.555.435-.192.864-.41 1.293-.637.435-.217.865-.444 1.284-.677.424-.227.844-.454 1.243-.677.813-.44 1.586-.844 2.299-1.111a4.816 4.816 0 011.005-.293c.308-.06.591-.06.819-.026.227.03.394.106.495.162.1.056.156.091.156.091s-.06-.015-.172-.04a1.708 1.708 0 00-.485-.026c-.414.026-.965.253-1.591.612-.627.358-1.334.838-2.112 1.334-.389.242-.793.51-1.218.752-.424.243-.858.49-1.303.723-.45.222-.904.434-1.36.631-.454.198-.914.36-1.363.506-.445.151-.89.262-1.309.358-.42.096-.824.167-1.197.213-.37.055-.718.07-1.021.096-.308.01-.57.015-.788.01-.43-.03-.677-.05-.677-.05zm22.413-2.263l-.192.293c-.126.187-.298.475-.55.823a6.633 6.633 0 01-1.031 1.178c-.455.409-1.05.783-1.743 1.08-.687.299-1.46.541-2.289.733-.823.197-1.708.354-2.617.47-.91.122-1.854.223-2.814.293-.95.071-1.92.142-2.885.212-1.925.152-3.845.364-5.613.688-.88.172-1.723.364-2.501.616-.773.253-1.48.556-2.087.915-.596.368-1.101.783-1.475 1.217a5.72 5.72 0 00-.819 1.253 9.685 9.685 0 00-.384.905c-.076.217-.11.333-.11.333s.024-.121.065-.343c.05-.223.116-.556.268-.96a5.94 5.94 0 01.717-1.39c.344-.505.839-1.005 1.455-1.445a9.882 9.882 0 012.147-1.122c.799-.303 1.663-.56 2.567-.757 1.804-.41 3.754-.647 5.7-.814 1.954-.151 3.88-.217 5.678-.399 1.794-.182 3.466-.43 4.805-.89.667-.232 1.248-.52 1.718-.853.47-.329.823-.702 1.101-1.016.566-.651.89-1.02.89-1.02zM15.547 54.291s-.126.172-.353.455c-.056.071-.121.152-.192.238l-.182.293a5.31 5.31 0 00-.404.707l-.207.414c-.056.152-.117.303-.177.465-.142.308-.197.667-.319 1.016-.065.364-.156.732-.186 1.121-.02.192-.051.384-.061.581l-.01.586c-.015.197.01.395.015.587.01.197.01.394.05.58.03.193.056.38.076.572.04.187.081.368.117.55.03.182.09.354.141.526.05.172.096.338.152.5l.191.455c.056.151.122.293.198.419.141.263.262.515.409.707.141.202.247.394.374.52.232.273.364.44.364.44s-.177-.106-.49-.308c-.167-.09-.324-.248-.516-.43-.202-.166-.389-.398-.586-.656-.217-.243-.369-.561-.566-.88-.152-.338-.344-.687-.444-1.08-.061-.198-.117-.395-.177-.597-.04-.202-.081-.414-.117-.621-.045-.212-.055-.425-.07-.642-.01-.217-.046-.43-.036-.647l.026-.651c.015-.218.055-.43.08-.642l.046-.313.08-.308c.056-.203.102-.405.168-.597.146-.379.272-.752.47-1.07l.262-.476c.106-.141.207-.278.303-.404.101-.126.177-.258.288-.364.106-.106.207-.202.303-.298.091-.09.182-.172.263-.252l.248-.177c.293-.207.47-.319.47-.319z" fill="#6E431E"/><path d="M70.346 36.578c-.222 5.76-4.072 5.76-4.072 5.76s3.845 0 4.072 5.764c.227-5.765 4.072-5.765 4.072-5.765s-3.85.005-4.072-5.76zM3.644 27.686c-.228 5.76-4.072 5.76-4.072 5.76s3.844 0 4.072 5.76c.227-5.76 4.072-5.76 4.072-5.76s-3.85.004-4.072-5.76zm54.531-17.027c-.177 4.522-3.198 4.522-3.198 4.522s3.02 0 3.198 4.522c.177-4.522 3.193-4.522 3.193-4.522s-3.016 0-3.193-4.522zm-30.28-6.154c-.212 5.482-3.875 5.482-3.875 5.482s3.658 0 3.875 5.482c.213-5.482 3.87-5.482 3.87-5.482s-3.657-.005-3.87-5.482zm38.96 20.048c-.096 2.48-1.753 2.48-1.753 2.48s1.657 0 1.753 2.482c.096-2.481 1.753-2.481 1.753-2.481s-1.657-.005-1.753-2.481zM19.154 10.815c-.08 2.107-1.49 2.107-1.49 2.107s1.41 0 1.49 2.107c.081-2.107 1.491-2.107 1.491-2.107s-1.405 0-1.49-2.107zM32.806-.219c-.08 2.107-1.49 2.107-1.49 2.107s1.405 0 1.49 2.107c.081-2.107 1.49-2.107 1.49-2.107s-1.409 0-1.49-2.107zm4.33 5.209c-.096 2.435-1.722 2.435-1.722 2.435s1.627 0 1.722 2.436c.096-2.436 1.723-2.436 1.723-2.436s-1.627-.005-1.723-2.435zM9.439 62.992C9.369 64.79 8.17 64.79 8.17 64.79s1.197 0 1.268 1.798c.07-1.798 1.268-1.798 1.268-1.798s-1.203 0-1.268-1.8zm56.835-15.92c-.142 3.612-2.552 3.612-2.552 3.612s2.41 0 2.552 3.613c.141-3.613 2.551-3.613 2.551-3.613s-2.41 0-2.551-3.612zM8.848 20.309c-.142 3.612-2.552 3.612-2.552 3.612s2.41 0 2.552 3.613c.141-3.613 2.551-3.613 2.551-3.613s-2.41 0-2.551-3.612zM7.716 39.286c-.126 3.223-2.279 3.223-2.279 3.223s2.153 0 2.28 3.224c.125-3.224 2.278-3.224 2.278-3.224s-2.153 0-2.279-3.223zM50.262 8.825c-.106 2.693-1.904 2.693-1.904 2.693s1.798 0 1.904 2.693c.106-2.693 1.905-2.693 1.905-2.693s-1.799 0-1.905-2.693zM8.903 10.558c-.05 1.288-.91 1.288-.91 1.288s.86 0 .91 1.288c.05-1.288.91-1.288.91-1.288s-.86 0-.91-1.288z" fill="#FFE08C"/><path d="M25.319 40.766s.085-.05.242-.136c.152-.086.38-.212.657-.349.556-.267 1.344-.58 2.177-.621.208-.02.415.005.617.01.202.03.404.055.586.111.182.06.369.101.52.187.157.08.314.136.44.227a9.1 9.1 0 00.349.228c.096.08.176.151.242.207l.212.182-.222-.167c-.07-.05-.157-.116-.258-.187-.106-.06-.227-.126-.358-.197-.127-.08-.288-.126-.445-.192-.157-.07-.338-.096-.515-.147-.182-.04-.374-.05-.566-.065-.192.005-.39-.005-.586.03-.783.091-1.511.44-2.021.733-.258.151-.46.288-.612.384l-.232.151-.227-.389z" fill="#E8A680"/><path d="M24.828 43.313c-.136-.415-1.616-1.319-1.793-2.96 0 0 .874.459 2.92.191 2.047-.268 3.193-.268 4.487.692 1.298.955 1.758 2.612 1.778 4.037.02 1.162-7.392-1.96-7.392-1.96z" fill="#4D2F0E"/><path d="M24.677 42.853s.172 3.31 2.617 4.168c2.44.86 4.41-.47 4.41-.47l-7.027-3.698z" fill="#4D2F0E"/><path d="M32.321 46.203c-.93.712-3.455 1.258-5.33.222-1.874-1.036-2.511-4.36-2.511-4.36s2.274-.874 4.017-.692c1.743.181 3.754 2.02 3.824 4.83z" fill="#fff"/><path d="M28.896 46.283a2.632 2.632 0 002.945-2.213c-.712-1.581-2.096-2.571-3.35-2.703a4.827 4.827 0 00-.474-.02 2.627 2.627 0 00-1.385 1.98 2.635 2.635 0 002.264 2.956z" fill="#47ACD1"/><path d="M30.796 43.884a1.569 1.569 0 01-1.759 1.344 1.569 1.569 0 01-1.344-1.759 1.57 1.57 0 011.759-1.343 1.572 1.572 0 011.344 1.758z" fill="#593515"/><path d="M29.154 43.136a.746.746 0 11-1.48-.197.746.746 0 111.48.197z" fill="#fff"/><path d="M49.136 41.18l-.233-.151a11.516 11.516 0 00-.606-.39c-.505-.297-1.228-.65-2.01-.747-.198-.04-.39-.03-.587-.04-.192.015-.384.02-.566.06-.177.046-.358.071-.515.142-.162.065-.318.106-.445.187-.131.07-.252.136-.358.197-.101.07-.187.136-.258.187l-.227.161s.075-.065.212-.177l.247-.207c.101-.065.223-.141.354-.222.126-.09.283-.147.44-.222.156-.086.338-.121.525-.182.182-.06.379-.081.581-.116.202-.005.41-.03.616-.005.84.045 1.622.363 2.173.636.278.142.5.268.652.354l.242.136-.237.4z" fill="#E8A680"/><path d="M49.848 43.338c.142-.414 1.627-1.304 1.819-2.946 0 0-.88.455-2.92.167-2.047-.288-3.188-.293-4.492.652-1.303.945-1.784 2.592-1.819 4.022-.035 1.162 7.412-1.895 7.412-1.895z" fill="#4D2F0E"/><path d="M50 42.878s-.202 3.31-2.653 4.143c-2.45.834-4.406-.51-4.406-.51L50 42.878z" fill="#4D2F0E"/><path d="M42.325 46.157c.924.723 3.446 1.289 5.33.273 1.885-1.016 2.552-4.335 2.552-4.335s-2.269-.894-4.012-.728c-1.743.167-3.774 1.986-3.87 4.79z" fill="#fff"/><path d="M45.75 46.273a2.63 2.63 0 01-2.925-2.238c.728-1.576 2.122-2.551 3.37-2.673a4.96 4.96 0 01.475-.02 2.624 2.624 0 011.37 1.99 2.635 2.635 0 01-2.29 2.941z" fill="#47ACD1"/><path d="M43.87 43.853a1.563 1.563 0 103.103-.383 1.563 1.563 0 00-3.102.383z" fill="#593515"/><path d="M43.75 43.495a.75.75 0 001.485-.182.75.75 0 00-1.485.182z" fill="#fff"/><path d="M35.045 52.134s-.005.03-.01.091c-.01.061-.006.147-.006.253a.91.91 0 00.096.354.722.722 0 00.329.293c.146.065.328.096.52.086.046 0 .096-.01.142-.016.09-.01.106-.015.197-.01.182.01.293.071.42.137.232.131.419.293.605.404.187.111.344.136.51.06.223-.095.4-.212.617-.353.212-.142.48-.263.738-.308.252-.05.515-.036.712-.03a.95.95 0 00.263-.03.455.455 0 00.197-.102c.106-.096.136-.253.141-.389a.999.999 0 00-.07-.369c-.076-.202-.167-.293-.167-.293l.07.056a.83.83 0 01.172.202c.061.096.127.227.162.389.03.156.046.384-.111.576-.137.192-.42.293-.642.303-.237.02-.434.03-.641.086-.208.045-.384.151-.581.283a4.806 4.806 0 01-.677.404.952.952 0 01-.49.066 1.218 1.218 0 01-.43-.172c-.237-.152-.41-.328-.581-.435a.949.949 0 00-.227-.106c-.02-.015-.122-.005-.137-.01-.06 0-.126.005-.187 0a1.32 1.32 0 01-.651-.197.799.799 0 01-.354-.455 1.064 1.064 0 01-.03-.424c.04-.232.11-.339.1-.344z" fill="#E8A680"/><path d="M31.705 55.65c1.885.233 4.552-.317 5.664-.024 1.106.293 1.435-.066 1.98-.137.713-.096 4.38.308 5.174.03 0 0-2.814 2.032-5.285 2.198-2.47.172-6.649-1.222-6.649-1.222l-.884-.844z" fill="#E49084"/><path d="M31.705 55.651c.137.84 1.915 5.18 6.401 5.108 4.487-.07 6.417-5.239 6.417-5.239l-6.159 3.077-6.659-2.946z" fill="#E49084"/><path d="M31.705 55.651c1.071.612 4.25 1.102 7.058.99 2.815-.11 5.033-.788 5.755-1.121 0 0-2.324 3.81-6.492 3.78-4.23-.026-6.32-3.649-6.32-3.649z" fill="#812A1F"/><path d="M42.79 56.702c.071-.177.117-.435.147-.662a20.226 20.226 0 01-4.173.601c-2.006.076-4.189-.146-5.67-.505h-.004c.015.273.768 1.278 1.475 1.53.712.259 3.193.587 5.335.264 2.138-.324 2.739-.844 2.89-1.228z" fill="#fff"/><path d="M42.487 57.09c-.086-.06-8.256.233-8.392.309-.086.045-.248.252-.359.434 1.031.773 2.46 1.46 4.295 1.47 2.061.016 3.668-.909 4.77-1.843-.087-.213-.248-.324-.314-.37z" fill="#fff"/><path opacity=".5" d="M34.09 57.399s.5.197 1.288.359c.197.045.414.075.637.116.232.025.47.066.722.08.5.046 1.041.056 1.577.031.267 0 .535-.035.798-.056.263-.025.52-.07.768-.106.247-.04.485-.1.707-.146.228-.04.43-.116.627-.167.192-.06.374-.096.525-.157.152-.055.288-.1.394-.14.223-.077.344-.122.344-.122l-.339.136c-.106.046-.237.096-.389.157-.146.066-.328.111-.52.172-.192.055-.4.131-.627.177-.227.05-.46.11-.712.156-.253.035-.51.086-.773.116-.263.02-.53.06-.803.066a11.91 11.91 0 01-1.592-.05c-.253-.016-.495-.066-.727-.092-.228-.045-.445-.075-.642-.126a7.556 7.556 0 01-1.263-.404z" fill="#812A1F"/><path d="M20.039 70.752l.753.03c.237.026.525.107.858.183.324.106.683.232 1.062.409.368.187.783.379 1.177.636a17.9 17.9 0 011.248.809c.843.58 1.707 1.243 2.592 1.86.44.307.879.62 1.323.898.223.137.445.278.662.42.223.131.445.252.662.374.43.257.874.444 1.283.651.415.198.829.329 1.198.485.379.132.737.218 1.05.319.314.106.597.136.83.192.47.096.732.156.732.156s-.273 0-.753-.005c-.237-.01-.535.01-.864-.055-.328-.056-.712-.091-1.116-.187-.4-.116-.844-.207-1.289-.379-.44-.177-.924-.334-1.38-.586a12.827 12.827 0 01-1.404-.768c-.47-.278-.92-.591-1.374-.9a79.32 79.32 0 01-2.546-1.94c-.405-.298-.784-.61-1.162-.874-.37-.278-.738-.505-1.072-.727a16.016 16.016 0 00-.96-.52c-.298-.107-.555-.238-.783-.304-.46-.11-.727-.177-.727-.177zm35.149 0s-.257.066-.707.177c-.227.06-.47.192-.758.298-.283.137-.59.319-.924.51-.324.223-.672.445-1.026.728-.359.263-.722.576-1.106.88a78.21 78.21 0 01-2.426 1.96c-.44.308-.864.631-1.318.91-.223.14-.45.277-.672.413-.233.122-.46.238-.687.36-.44.252-.915.403-1.34.58-.434.162-.868.258-1.252.374-.394.086-.768.126-1.087.177-.318.066-.61.035-.843.05-.465 0-.733.005-.733.005l.718-.151c.222-.056.505-.08.808-.187.303-.096.652-.192 1.02-.313.36-.157.758-.293 1.163-.48.394-.207.828-.39 1.237-.647.208-.121.425-.248.637-.374.207-.141.42-.283.632-.42.429-.272.843-.595 1.268-.904.42-.313.838-.626 1.248-.95.409-.318.823-.626 1.222-.924.405-.293.799-.576 1.198-.819.379-.257.778-.454 1.137-.641a7.875 7.875 0 011.035-.404c.329-.076.607-.157.84-.177.449-.02.716-.03.716-.03z" fill="#E8A680"/></g><defs><radialGradient id="paint0_radial" cx="0" cy="0" r="1" gradientUnits="userSpaceOnUse" gradientTransform="matrix(16.89957 -1.55867 .81495 8.8359 42.831 28.232)"><stop stop-color="#E8A680"/><stop offset="1" stop-color="#fff" stop-opacity="0"/></radialGradient><radialGradient id="paint1_radial" cx="0" cy="0" r="1" gradientUnits="userSpaceOnUse" gradientTransform="matrix(6.82105 -.82592 .4204 3.47203 47.877 49.245)"><stop stop-color="#E8A680"/><stop offset="1" stop-color="#fff" stop-opacity="0"/></radialGradient><radialGradient id="paint2_radial" cx="0" cy="0" r="1" gradientUnits="userSpaceOnUse" gradientTransform="matrix(8.47914 -4.41565 3.25997 6.25994 25.045 32.432)"><stop stop-color="#E8A680"/><stop offset="1" stop-color="#fff" stop-opacity="0"/></radialGradient><radialGradient id="paint3_radial" cx="0" cy="0" r="1" gradientUnits="userSpaceOnUse" gradientTransform="matrix(-6.82115 -.82593 .42041 -3.47209 27.55 49.245)"><stop stop-color="#E8A680"/><stop offset="1" stop-color="#fff" stop-opacity="0"/></radialGradient><radialGradient id="paint5_radial" cx="0" cy="0" r="1" gradientUnits="userSpaceOnUse" gradientTransform="matrix(16.89957 -1.55867 .81495 8.8359 42.831 28.232)"><stop stop-color="#E8A680"/><stop offset="1" stop-color="#fff" stop-opacity="0"/></radialGradient><radialGradient id="paint6_radial" cx="0" cy="0" r="1" gradientUnits="userSpaceOnUse" gradientTransform="matrix(6.82105 -.82592 .4204 3.47203 47.877 49.245)"><stop stop-color="#E8A680"/><stop offset="1" stop-color="#fff" stop-opacity="0"/></radialGradient><radialGradient id="paint7_radial" cx="0" cy="0" r="1" gradientUnits="userSpaceOnUse" gradientTransform="matrix(8.47914 -4.41565 3.25997 6.25994 25.045 32.432)"><stop stop-color="#E8A680"/><stop offset="1" stop-color="#fff" stop-opacity="0"/></radialGradient><radialGradient id="paint8_radial" cx="0" cy="0" r="1" gradientUnits="userSpaceOnUse" gradientTransform="matrix(-6.82115 -.82593 .42041 -3.47209 27.55 49.245)"><stop stop-color="#E8A680"/><stop offset="1" stop-color="#fff" stop-opacity="0"/></radialGradient><linearGradient id="paint4_linear" x1="37.854" y1="70.491" x2="37.854" y2="60.136" gradientUnits="userSpaceOnUse"><stop stop-color="#F2BB99"/><stop offset=".874" stop-color="#E8A680"/></linearGradient><linearGradient id="paint9_linear" x1="37.854" y1="70.491" x2="37.854" y2="60.136" gradientUnits="userSpaceOnUse"><stop stop-color="#F2BB99"/><stop offset=".874" stop-color="#E8A680"/></linearGradient></defs></svg>