<svg width="75" height="83" viewBox="0 0 75 83" fill="none" xmlns="http://www.w3.org/2000/svg"><mask id="mask0" maskUnits="userSpaceOnUse" x="3" y="14" width="69" height="69"><circle cx="37.67" cy="48.517" r="34.235" fill="#FFD15A"/></mask><g mask="url(#mask0)"><circle cx="37.67" cy="48.517" r="34.235" fill="#FFD15A"/><path d="M55.456 71.963c-14.046-6.614-22.275-5.382-36.756.776l-6.192-8.133 5.824-22.629 37.28-4.822 3.597 3.44-3.753 31.368z" fill="#4D2F0E"/><path d="M20.39 42.679c-.444-1.587-1.234-2.561-2.276-2.377-1.042.19-1.941 2.8-1.267 4.652.674 1.853 1.546 2.085 1.349 3.386-.198 1.3 1.982 3.562 2.56 1.54.573-2.024-.367-7.201-.367-7.201z" fill="#F2BB99"/><path opacity=".5" d="M20.39 42.679c-.444-1.587-1.234-2.561-2.276-2.377-1.042.19-1.941 2.8-1.267 4.652.674 1.853 1.546 2.085 1.349 3.386-.198 1.3 1.982 3.562 2.56 1.54.573-2.024-.367-7.201-.367-7.201z" fill="#E8A680"/><path d="M18.114 40.302c.892-.164 1.607.531 2.07 1.737l-.367 3.447c.054-1.479-.981-6.083-2.997-3.434.265-.926.762-1.655 1.294-1.75zm34.829 1.948c.238-1.635.906-2.697 1.961-2.643 1.056.054 2.275 2.534 1.84 4.462-.436 1.92-1.267 2.261-.913 3.528.36 1.267-1.52 3.788-2.35 1.846-.825-1.934-.538-7.193-.538-7.193z" fill="#F2BB99"/><path opacity=".5" d="M52.943 42.25c.238-1.635.906-2.697 1.961-2.643 1.056.054 2.275 2.534 1.84 4.462-.436 1.92-1.267 2.261-.913 3.528.36 1.267-1.52 3.788-2.35 1.846-.825-1.934-.538-7.193-.538-7.193z" fill="#E8A680"/><path d="M54.904 39.614c-.906-.048-1.533.729-1.84 1.982l.798 3.379c-.239-1.458.204-6.158 2.54-3.781-.38-.892-.96-1.553-1.498-1.58z" fill="#F2BB99"/><path d="M39.986 16.944c6.124 1.11 11.424 6.035 13.154 10.885 1.73 4.85 1.28 8.787.858 12.547-.422 3.76 1.533 8.938-.34 12.888-2.46 5.19-10.838 11.233-12.241 12.289-1.403 1.049-3.747 1.934-8.345-.13-4.598-2.057-11.43-6.975-12.792-11.825-1.05-3.726.218-7.609-.92-11.423-1.137-3.815-4.141-12.112.02-17.718 4.163-5.606 11.35-9.189 20.606-7.513z" fill="#F2BB99"/><path d="M40.872 24.144c.3 2.718 10.722 8.093 14.577 9.564 0 0 2.255-5.28.722-9.768-2.377-6.99-10.592-16.457-15.544-9.51l.245 9.714z" fill="#593515"/><path d="M40.872 24.144c-.892 4.823-22.18 2.65-22.547 17.827 0 0-6.253 1.123-5.136-8.7 1.117-9.815 6.962-17.86 15.967-21.497 6.437-2.602 12.744-.477 13.562 2.296.817 2.772-1.846 10.074-1.846 10.074z" fill="#593515"/><path d="M13.189 33.279c-.538 3.038-1.758 27.042-2.555 37.778 0 0 4.006 4.598 10.64 2.193 0 0-3.521-27.833-1.777-36.47l-6.308-3.501zM51.26 15.752c9.332 9.448 10.313 31.334 12.902 55.414 0 0-4.776 2.69-9.741 1.825 0 0 1.743-21.757-1.356-42.968L51.26 15.752z" fill="#593515"/><path d="M18.734 35.88c-.382-.306-.586-.054-.974-.367-.382-.306-.184-.558-.566-.872-.381-.306-.585-.054-.967-.36l-.552-.444-.667-.538-.068-.054a.097.097 0 00-.137.013l-.13.164a.097.097 0 00.014.136l.069.054.667.539.552.442c.381.307.586.055.974.368.381.307.177.559.565.872.382.307.586.055.974.368.375.306.191.552.552.858v-.006c.007.006.007.013.014.02l.232.184c.068.116.51.804.83.409.32-.395-.45-.682-.578-.722l-.232-.191c-.007-.007-.014 0-.02-.007l.006-.007c-.388-.252-.184-.558-.558-.858z" fill="#47ACD1"/><path opacity=".5" d="M20.164 37.53c-.32.394-.763-.294-.83-.41l-.232-.183c0-.007 0-.014-.007-.02v.006c-.361-.3-.17-.552-.552-.858-.381-.307-.586-.055-.974-.368-.381-.307-.184-.566-.566-.872-.38-.307-.585-.055-.974-.368l-.551-.443-.668-.538-.068-.054a.12.12 0 01-.034-.048l-.034.048a.097.097 0 00.014.136l.068.054.667.539.552.442c.381.307.586.055.974.368.381.307.177.559.565.872.382.307.586.055.974.368.375.306.191.552.552.858v-.007c.007.007.007.014.014.02l.232.185c.068.116.51.803.83.408a.3.3 0 00.075-.156c-.013 0-.02.013-.027.02z" fill="#47ACD1"/><path d="M18.488 37.168c-.354-.347-.579-.115-.933-.456-.354-.348-.122-.58-.477-.92-.354-.34-.579-.116-.926-.456l-.504-.497-.613-.6-.062-.061c-.04-.034-.102-.034-.136 0l-.15.15c-.034.04-.034.102 0 .136l.062.061.613.6.504.497c.354.347.579.116.933.456.354.348.123.58.477.92.354.347.579.116.933.456.348.34.136.572.463.906l.007-.007c.007.007 0 .014.007.02l.211.212c.061.123.43.852.783.484.355-.361-.381-.722-.504-.777l-.21-.211c-.008-.007-.014-.007-.021-.007l.007-.007c-.355-.279-.123-.565-.464-.899z" fill="#47ACD1"/><path opacity=".5" d="M19.748 38.946c-.354.361-.728-.368-.79-.483l-.21-.212c-.008-.006-.008-.013-.008-.02l-.006.007c-.327-.334-.116-.566-.464-.906-.354-.348-.579-.116-.933-.457-.354-.347-.122-.579-.477-.92-.354-.347-.579-.115-.933-.456l-.504-.497-.613-.6-.061-.06c-.014-.014-.02-.035-.028-.055l-.04.04c-.034.042-.034.103 0 .137l.06.061.614.6.504.497c.354.347.579.116.933.456.354.348.123.58.477.92.354.347.579.116.933.456.348.34.136.572.463.906l.007-.007c0 .007 0 .014.007.02l.211.212c.062.123.43.852.784.484a.349.349 0 00.088-.15c.007.014 0 .02-.014.027z" fill="#47ACD1"/><path d="M53.937 32.032c.381-.306.586-.054.974-.368.381-.306.184-.565.565-.872.382-.306.586-.061.968-.36l.551-.444.668-.538.068-.054a.097.097 0 01.136.014l.13.163a.097.097 0 01-.014.136l-.068.055-.668.538-.551.443c-.382.306-.586.054-.974.367-.389.314-.184.566-.566.872-.381.307-.586.055-.974.368-.375.307-.19.552-.545.858l-.007-.006c-.006.006 0 .013-.006.02l-.232.184c-.068.116-.51.804-.831.409-.32-.395.45-.681.579-.722l.231-.191c.007-.007.014 0 .021-.007l-.007-.007c.375-.252.17-.558.552-.858z" fill="#47ACD1"/><path opacity=".5" d="M52.5 33.68c.32.396.762-.292.83-.408l.232-.184c.007-.007.007-.014.007-.02l.007.006c.36-.3.17-.551.545-.858.381-.306.585-.055.974-.368.381-.306.184-.565.565-.872.382-.306.586-.054.974-.367h.007l.552-.443.667-.538.068-.055a.122.122 0 00.035-.048l.04.048a.097.097 0 01-.013.136l-.068.055-.675.538-.551.443c-.382.306-.586.054-.975.367-.381.307-.183.566-.565.872-.381.307-.586.055-.974.368-.375.307-.19.552-.545.859l-.007-.007c-.007.007 0 .013-.007.02l-.231.184c-.068.116-.511.804-.831.409a.3.3 0 01-.075-.157c.007.007.007.014.014.02z" fill="#47ACD1"/><path d="M54.182 33.32c.354-.348.58-.116.933-.457.354-.347.123-.579.477-.92.354-.347.58-.115.927-.456l.504-.497.613-.6.061-.06a.103.103 0 01.136 0l.15.15a.095.095 0 010 .135l-.061.062-.613.6-.504.496c-.355.348-.58.116-.934.457-.354.347-.122.579-.476.92-.355.347-.58.108-.934.456-.347.34-.136.572-.463.906l-.007-.007c-.006.007 0 .014-.006.02l-.212.212c-.06.122-.436.85-.79.483-.354-.36.382-.722.504-.776l.212-.212c.006-.006.013-.006.02-.006l-.007-.007c.361-.28.13-.559.47-.9z" fill="#47ACD1"/><path opacity=".5" d="M52.915 35.097c.354.361.73-.367.784-.483l.21-.211c.008-.007.008-.014.008-.02l.006.006c.327-.334.116-.565.464-.906.354-.347.579-.109.933-.456.354-.348.122-.58.477-.92.354-.347.579-.116.933-.456l.518-.497.613-.6.06-.061c.014-.014.021-.034.028-.048l.041.04a.098.098 0 010 .137l-.061.061-.613.6-.504.497c-.355.348-.58.116-.934.457-.354.347-.122.579-.477.92-.354.347-.579.115-.933.456-.347.34-.136.572-.463.906l-.007-.007c-.006.007 0 .013-.006.02l-.212.211c-.061.123-.436.852-.79.484a.347.347 0 01-.088-.15c0 .007.006.014.013.02z" fill="#47ACD1"/><path d="M42.316 31.787c-.184.02-.531.157-.647.409-.334.708-.375 1.62.089 1.669.667.074 6-.225 7.554.899 2.036 1.471 4.4 3.712 4.4 3.712s-.885-3.195-4.298-5.524c-2.098-1.43-5.995-1.267-7.098-1.165zm-10.211-.77c.184.014.586-.027.777.388.327.716.524 1.56-.102 1.615-.532.047-5.675.177-7.289 1.205-1.798 1.152-4.734 3.815-4.734 3.815s2.037-4.1 4.618-5.627c2.194-1.28 5.627-1.491 6.73-1.396z" fill="#4D2F0E"/><path d="M38.665 46.705l.15.28c.095.176.238.408.429.687.19.273.429.58.695.906.258.334.551.681.79 1.11.115.212.218.457.245.73a.96.96 0 01-.048.428l-.061.15a2.335 2.335 0 01-.109.184c-.306.416-.702.593-1.035.715a3.82 3.82 0 01-.818.198c-.197.02-.313.02-.313.02s.102-.047.286-.122c.184-.082.436-.198.722-.361a3.35 3.35 0 00.422-.293 1.72 1.72 0 00.348-.395l.054-.096.048-.156c0-.048.02-.143 0-.225a1.454 1.454 0 00-.198-.531c-.197-.368-.477-.73-.701-1.09a6.998 6.998 0 01-.58-1.029 4.42 4.42 0 01-.272-.797l-.054-.313zm-3.821 2.732s-.062.286-.116.688a2.54 2.54 0 000 .64c.02.102.054.204.102.286.04.088.116.15.198.211.013.02.108.068.156.095l.157.075c.116.041.225.089.34.116.232.061.47.096.682.157.218.047.408.157.483.272.082.11.082.191.089.184 0 .007-.048-.054-.157-.102-.102-.054-.252-.068-.456-.054-.198.006-.45.034-.736 0a2.024 2.024 0 01-.66-.198c-.069-.04-.103-.048-.198-.116a1.095 1.095 0 01-.348-.402c-.088-.156-.102-.327-.109-.483a1.777 1.777 0 01.17-.763c.185-.402.403-.606.403-.606z" fill="#E8A680"/><path d="M42.589 43.844s.102-.15.3-.402a8.035 8.035 0 011.593-1.533 5.69 5.69 0 01.872-.524c.327-.15.668-.3 1.05-.382.374-.102.776-.13 1.178-.122.197.007.408.047.592.068.17.034.348.061.518.095.327.048.654.116.974.15.634.075 1.233.11 1.737.082a4.66 4.66 0 00.681-.082c.198-.048.375-.095.511-.157.136-.06.245-.122.307-.177l.102-.081s-.02.04-.061.115a1.19 1.19 0 01-.232.307c-.232.238-.654.504-1.206.654a6.31 6.31 0 01-1.9.238 9.69 9.69 0 01-1.07-.068c-.184-.02-.354-.048-.531-.075-.17-.013-.306-.04-.47-.047a4.247 4.247 0 00-.926.068 5.917 5.917 0 00-.906.238c-.286.109-.573.225-.838.354-.26.13-.511.26-.743.382a53.04 53.04 0 00-1.11.647 4.63 4.63 0 01-.422.252z" fill="#4D2F0E"/><path d="M43.079 41.146s.123-.77.552-1.866c.109-.273.238-.566.401-.865.164-.3.341-.613.586-.906a2.9 2.9 0 01.9-.79c.095-.048.19-.096.292-.137l.327-.075c.143-.034.205-.013.314-.02a1.55 1.55 0 01.306.007c.436.027.81.136 1.192.252.375.122.73.279 1.056.442a10.691 10.691 0 011.703 1.07c.463.361.81.708 1.035.96.116.123.198.232.246.307.054.075.081.116.081.116s-.136-.143-.401-.348c-.26-.218-.654-.49-1.138-.79-.49-.3-1.07-.62-1.723-.906-.32-.15-.668-.265-1.015-.381-.348-.096-.722-.198-1.063-.211a2.307 2.307 0 00-.531 0l-.232.047c-.075.028-.15.068-.225.102a2.635 2.635 0 00-.783.648 6.468 6.468 0 00-.6.803 15.014 15.014 0 00-1.069 2.051c-.136.313-.211.49-.211.49zm1.035 3.414l.055-.055a1.39 1.39 0 01.163-.137 4.15 4.15 0 01.675-.36c.572-.253 1.39-.477 2.227-.56.211-.02.416-.02.627-.033.204-.007.408.013.606.02.395.034.756.11 1.063.19.15.048.286.103.408.144.123.04.218.102.3.143.163.082.252.136.252.136s-.102-.013-.286-.04c-.089-.014-.19-.041-.32-.048-.123-.014-.259-.028-.409-.048-.15-.007-.313-.014-.483-.027-.17 0-.355 0-.539-.007-.374.014-.77.02-1.171.068-.402.027-.797.095-1.165.143a26.48 26.48 0 00-1.015.184c-.3.061-.545.123-.715.17a3.398 3.398 0 00-.273.116zm-13.774-.069s-.095-.048-.265-.095c-.17-.048-.415-.11-.708-.17-.3-.062-.647-.123-1.022-.185-.375-.054-.77-.122-1.172-.17-.395-.054-.797-.095-1.171-.136a15.92 15.92 0 00-1.764-.075c-.184.007-.287.007-.287.007s.096-.041.266-.11c.17-.06.422-.142.736-.19a6.281 6.281 0 011.07-.088c.394-.007.81.027 1.218.074.825.11 1.635.327 2.214.58.293.122.518.251.675.36.081.048.122.103.163.137.027.04.048.061.048.061z" fill="#E8A680"/><path d="M20 40.942l.116.095c.076.055.191.116.348.178.313.115.79.19 1.349.163.279-.014.579-.048.878-.116.157-.034.28-.082.443-.15.157-.068.368-.13.552-.184.75-.218 1.56-.36 2.398-.395a8.567 8.567 0 011.253.041c.211.02.416.055.62.11l.15.04.095.027.068.02c.096.035.17.055.273.096.422.157.722.361 1.028.559.3.197.559.408.79.606.927.804 1.383 1.485 1.383 1.485s-.177-.102-.477-.28a50.28 50.28 0 00-1.246-.715c-.259-.136-.538-.286-.831-.429a7.679 7.679 0 00-.913-.36c-.075-.028-.177-.048-.266-.069l-.068-.014c.02.007-.027 0-.04-.006l-.13-.02c-.17-.021-.347-.042-.531-.055a10.12 10.12 0 00-1.117-.007c-.757.034-1.526.123-2.228.245-.184.034-.327.068-.51.11a3.988 3.988 0 01-1.621.048c-.628-.103-1.118-.349-1.411-.58-.293-.239-.348-.45-.354-.443z" fill="#4D2F0E"/><path d="M22.487 39.736l.102-.123c.068-.081.164-.204.307-.334.279-.279.695-.66 1.253-1.049.28-.197.58-.401.913-.599.334-.204.688-.409 1.076-.586.382-.184.79-.36 1.22-.504a6.27 6.27 0 011.348-.306c.463-.055.974-.028 1.438.177.19.068.422.245.606.395.163.163.327.327.45.51.272.348.456.723.626 1.084.157.36.293.701.395 1.028.218.64.313 1.2.395 1.58.068.389.089.614.089.614s-.068-.211-.184-.586a19.369 19.369 0 00-.566-1.505c-.258-.607-.599-1.308-1.103-1.928-.116-.164-.266-.293-.409-.43-.157-.102-.265-.217-.49-.299-.34-.143-.763-.177-1.186-.116-.415.034-.837.143-1.246.273-.409.136-.81.272-1.185.442a15.87 15.87 0 00-1.076.505c-.341.17-.655.347-.94.517-.566.34-1.043.64-1.343.886-.156.116-.279.21-.354.286a.33.33 0 00-.136.068zm17.881-4.169s-.075.13-.17.368c-.11.232-.225.586-.375 1.002-.136.422-.28.92-.416 1.45-.136.539-.272 1.11-.367 1.69a20.018 20.018 0 00-.26 1.71c-.027.272-.054.538-.074.79l-.041.715c-.007.443-.027.81-.014 1.07v.408s-.02-.15-.047-.409a13.63 13.63 0 01-.082-1.076c0-.45-.007-.967.04-1.526.055-.558.123-1.15.232-1.737a20.1 20.1 0 01.409-1.703c.15-.538.334-1.028.497-1.444.17-.415.334-.75.463-.974.062-.116.123-.197.157-.259.027-.047.048-.075.048-.075z" fill="#E8A680"/><path d="M59.883 56.956s-.047-.265-.143-.715c-.088-.45-.218-1.096-.354-1.873a65.313 65.313 0 01-.409-2.657c-.06-.483-.136-.987-.19-1.505-.055-.511-.116-1.036-.17-1.553-.048-.525-.09-1.042-.137-1.56-.047-.51-.068-1.022-.109-1.512-.061-.981-.095-1.9-.109-2.684-.034-1.574.027-2.636.027-2.636s.28 1.028.56 2.575c.142.776.292 1.682.421 2.656.062.49.143.988.191 1.506.055.51.116 1.035.17 1.553.048.524.089 1.042.137 1.56.047.51.068 1.021.102 1.512.054.98.088 1.9.095 2.69a25.77 25.77 0 01-.034 1.914c-.014.47-.047.73-.047.73zm-.939 11.778s-.048-.34-.157-.913c-.095-.572-.238-1.403-.381-2.398a98.178 98.178 0 01-.45-3.399c-.068-.626-.15-1.267-.211-1.92-.061-.655-.13-1.322-.19-1.99l-.164-1.989c-.062-.654-.089-1.308-.13-1.934a89.706 89.706 0 01-.15-3.433c-.06-2.017-.013-3.372-.013-3.372s.293 1.314.6 3.303c.156.995.32 2.153.462 3.4.069.626.157 1.267.218 1.92.069.654.13 1.322.198 1.99.054.667.102 1.335.157 1.995.054.654.081 1.308.122 1.935a87.01 87.01 0 01.136 3.44c.02 1.008.014 1.846 0 2.445-.013.593-.047.92-.047.92z" fill="#6E431E"/><path d="M67.499 78.019c-2.05-6.158-10.688-7.746-12.336-7.548-4.305.525-7.554 2.69-9.23 1.478-1.975-1.423-3.971-7.792-3.971-7.792l-5.157-2.596v32.642S57.16 96.35 58.051 96.35c.892 0 3.917-2.357 3.917-2.357.116-.395.252-.83.456-1.274l5.075-14.7z" fill="#F2BB99"/><path d="M14.401 51.977s.02.266.075.722c.048.457.123 1.11.177 1.894.061.783.123 1.703.164 2.684.013.49.047 1 .047 1.512.007.517.02 1.042.028 1.56 0 .524-.007 1.049-.007 1.56 0 .517-.02 1.021-.034 1.512-.028.98-.075 1.9-.137 2.684-.109 1.573-.272 2.622-.272 2.622s-.184-1.049-.32-2.615a59.04 59.04 0 01-.184-2.684c-.014-.49-.048-1.002-.055-1.513-.006-.517-.02-1.042-.027-1.566 0-.525.007-1.05.007-1.567 0-.518.027-1.022.04-1.512.035-.981.09-1.9.158-2.69.06-.791.136-1.445.204-1.901.075-.443.136-.702.136-.702zm1.846-6.982s.02.266.075.722a70.137 70.137 0 01.34 4.577c.015.49.049 1.002.049 1.513.006.517.02 1.042.027 1.56 0 .524-.007 1.049-.007 1.566 0 .518-.02 1.022-.034 1.513-.027.98-.075 1.9-.136 2.683a34.168 34.168 0 01-.273 2.623s-.184-1.05-.32-2.616a51.015 51.015 0 01-.177-2.684c-.02-.49-.055-1.001-.055-1.512-.006-.518-.02-1.042-.027-1.567 0-.524.007-1.049.007-1.566 0-.518.027-1.022.034-1.52.034-.98.089-1.9.157-2.69.061-.79.143-1.437.204-1.9.075-.443.136-.702.136-.702z" fill="#6E431E"/><path d="M31.165 63.605s-2.289 7.629-3.052 8.215c-1.743 1.348-3.923-.804-9.659-1.342-3.079-.293-10.245 2.581-11.859 8.044l-3.16 11.69c6.56-1.172 7.656 1.88 8.2 3.78 0 0 3.025 2.357 3.918 2.357.892 0 21.245-2.146 21.245-2.146V61.568l-5.633 2.037z" fill="#F2BB99"/><path d="M40.974 20.023s-.034.095-.095.28c-.075.176-.184.456-.375.769-.375.64-1.083 1.465-2.084 2.241-.988.797-2.255 1.553-3.658 2.22-1.404.675-2.943 1.268-4.503 1.778-.783.246-1.567.484-2.343.695-.375.102-.75.212-1.117.314-.191.054-.375.109-.559.163-.163.061-.334.116-.497.177-.164.055-.327.116-.49.17-.164.069-.32.137-.477.198-.164.068-.32.13-.47.198-.15.075-.3.15-.443.218-.593.286-1.117.606-1.594.933-.457.34-.872.674-1.206 1.008-.34.327-.6.654-.804.933-.19.286-.347.518-.429.688-.088.17-.13.266-.13.266s-.026-.422.192-1.138c.115-.347.272-.783.544-1.233.123-.238.287-.456.45-.708.177-.232.375-.477.593-.715.442-.47.96-.96 1.573-1.376.15-.102.307-.212.463-.32.164-.096.327-.191.498-.293.17-.096.333-.198.51-.293.184-.089.368-.17.552-.26l.566-.258c.184-.068.36-.136.545-.204l.551-.205c.198-.061.395-.13.593-.19.75-.246 1.512-.49 2.275-.736 3.045-.981 6.049-2.003 8.167-3.038 1.05-.525 1.88-1.056 2.405-1.512a5.37 5.37 0 00.586-.566c.143-.13.211-.204.211-.204z" fill="#6E431E"/><path opacity=".5" d="M17.841 76.635c.681-1.171 1.642-1.893 2.132-2.963.402-.879.743-1.86 1.05-2.82a24.113 24.113 0 00-2.569-.374c-1.805-.17-4.809.715-8.065 1.927-.252 1.914-.368 4.156-.565 5.048 0 0 0 5.701-.205 11.634l-.06 1.703c1.198.763 1.688 1.907 1.981 2.868 2.364-.259 4.728-.51 7.091-.763-.885-7.309-1.573-14.918-.79-16.26z" fill="#E8A680"/><path d="M40.817 19.989s-.02.075-.06.211c-.055.13-.137.334-.294.552-.156.225-.395.456-.681.701-.3.232-.654.47-1.07.675-.21.102-.422.211-.66.3a7.53 7.53 0 01-.722.272c-.252.089-.511.177-.777.252a9.976 9.976 0 01-.817.218c-.559.143-1.144.252-1.737.361-.593.089-1.199.19-1.812.252-.606.068-1.206.143-1.798.211-.586.096-1.158.17-1.71.3-.28.055-.545.123-.804.19-.259.069-.524.13-.763.219-.49.15-.947.327-1.355.518-.205.095-.402.183-.58.285a5.064 5.064 0 00-.503.293c-.314.191-.559.396-.763.566-.396.354-.559.613-.559.613s.123-.286.484-.688c.184-.19.422-.422.722-.654a6.22 6.22 0 011.062-.681c.41-.218.865-.43 1.363-.613a11.665 11.665 0 011.594-.497c.558-.15 1.15-.253 1.75-.355.593-.075 1.2-.15 1.805-.224.607-.062 1.2-.15 1.792-.232.586-.102 1.165-.19 1.717-.313.279-.055.544-.123.81-.184.266-.062.525-.13.77-.205a6.8 6.8 0 00.715-.231c.232-.075.45-.164.654-.252.831-.348 1.458-.777 1.798-1.172.177-.197.28-.375.348-.497.047-.116.081-.191.081-.191zm2.092 2.813s.02.048.068.13c.04.088.109.217.211.347.088.143.232.3.381.483.157.178.348.375.552.58.211.204.443.422.702.64.245.231.538.436.81.674.58.45 1.213.913 1.867 1.342.32.225.66.416.98.633.341.184.648.402.975.573.327.163.627.36.933.51.306.144.586.314.858.437.273.122.518.245.736.36l.579.266c.32.15.504.245.504.245s-.204-.013-.558-.047c-.361-.027-.866-.116-1.465-.266-.3-.068-.62-.177-.954-.286-.34-.102-.68-.252-1.035-.402-.354-.15-.709-.334-1.07-.518-.354-.204-.708-.408-1.055-.64-.341-.232-.681-.47-.995-.729-.327-.245-.606-.531-.899-.79-.28-.272-.538-.545-.763-.817a7.524 7.524 0 01-.606-.804 6.746 6.746 0 01-.43-.736 3.745 3.745 0 01-.245-.62c-.06-.177-.068-.313-.075-.408 0-.11-.006-.157-.006-.157zm-1.383-8.61s-.123-.034-.354-.102c-.232-.075-.58-.13-1.015-.204a12.58 12.58 0 00-1.587-.116c-.614-.014-1.308.034-2.058.095-.749.075-1.56.204-2.404.368-.845.177-1.723.395-2.623.667a30.46 30.46 0 00-2.718.975c-.912.36-1.811.797-2.683 1.273-.886.457-1.724.988-2.534 1.54-.784.579-1.58 1.137-2.262 1.77a24.064 24.064 0 00-1.92 1.888c-.287.32-.546.647-.811.953-.252.32-.49.634-.716.934-.429.62-.824 1.192-1.13 1.73-.334.524-.559 1.015-.784 1.403-.395.81-.613 1.274-.613 1.274l.082-.361c.061-.232.123-.586.245-1.022.15-.43.28-.974.538-1.553.123-.293.239-.613.395-.933.157-.32.327-.661.511-1.008.205-.34.409-.695.627-1.063.238-.354.49-.715.763-1.083.558-.715 1.165-1.465 1.887-2.146a20.717 20.717 0 012.323-1.989c.851-.6 1.737-1.185 2.67-1.682.94-.49 1.9-.934 2.867-1.301.968-.382 1.955-.661 2.91-.9.953-.252 1.906-.381 2.799-.497.899-.102 1.757-.13 2.547-.116.79.02 1.513.089 2.14.205a9.662 9.662 0 011.607.402c.218.061.409.156.572.225.164.068.3.136.402.197.211.116.327.177.327.177zm1.954 1.56s.287.075.764.238c.238.089.538.164.858.314.327.143.702.306 1.097.497.388.211.803.436 1.24.702.415.286.878.558 1.307.905.436.341.886.695 1.301 1.104.436.388.831.831 1.233 1.26.375.457.763.9 1.09 1.383.348.463.64.96.927 1.43.265.484.517.954.722 1.417.218.457.388.9.538 1.315.3.824.463 1.54.565 2.037.095.504.123.79.123.79s-.164-.245-.416-.681c-.13-.218-.293-.477-.463-.777-.184-.293-.388-.627-.613-.988-.232-.354-.477-.735-.743-1.137-.258-.402-.572-.804-.865-1.233-.313-.415-.626-.851-.974-1.274-.327-.436-.701-.845-1.056-1.267-.374-.409-.735-.824-1.117-1.212-.368-.402-.763-.763-1.137-1.131-.375-.361-.756-.695-1.11-1.022-.375-.3-.716-.6-1.036-.885-.334-.252-.634-.504-.9-.722-.265-.225-.524-.402-.714-.559-.402-.306-.62-.504-.62-.504zm4.503 0s.178.102.477.286c.15.089.327.211.532.361.204.143.436.307.66.511.239.19.484.416.743.654.265.232.51.51.776.783.245.293.518.58.756.906.252.314.484.647.723.988.224.34.442.688.647 1.035.21.348.388.695.565 1.036.347.68.613 1.342.838 1.914.225.565.354 1.062.456 1.396.096.34.143.538.143.538s-.088-.184-.231-.504c-.143-.327-.368-.776-.627-1.321a31.32 31.32 0 00-.967-1.812c-.184-.327-.389-.66-.593-.995-.204-.34-.422-.667-.647-1.001a26.066 26.066 0 00-1.397-1.887c-.252-.28-.463-.572-.701-.817a9.614 9.614 0 00-.668-.702 19.25 19.25 0 00-1.056-1.001c-.279-.232-.429-.368-.429-.368z" fill="#6E431E"/><path d="M32.412 18.647l-1.022.238c-.327.062-.722.17-1.165.28-.45.102-.947.238-1.492.395a29.23 29.23 0 00-1.744.538c-.306.095-.62.204-.933.334l-.967.36c-.64.287-1.308.56-1.955.907-.668.306-1.287.715-1.92 1.09-.6.429-1.22.824-1.752 1.321-.565.45-1.035.988-1.518 1.478-.402.552-.866 1.042-1.165 1.6-.164.273-.34.525-.477.791-.13.273-.252.531-.368.784-.266.497-.388.994-.552 1.423-.068.218-.15.416-.204.613-.048.19-.082.375-.123.532l-.245 1.021s.007-.381.04-1.049c.008-.17.021-.354.028-.558.014-.205.075-.416.116-.647.102-.464.157-1.002.381-1.54.096-.28.198-.565.3-.865.116-.293.286-.579.43-.879.279-.62.715-1.185 1.13-1.798.49-.545.954-1.165 1.56-1.648.558-.539 1.212-.975 1.846-1.438.674-.395 1.342-.81 2.044-1.124.68-.36 1.396-.585 2.07-.858.695-.218 1.356-.443 2.003-.579.32-.075.633-.15.94-.218.306-.061.606-.102.886-.157.286-.047.558-.095.817-.13.259-.026.51-.053.742-.074.464-.055.872-.082 1.206-.095a28.343 28.343 0 011.063-.048z" fill="#6E431E"/><path d="M44.244 63.387c-1.349 1.07-2.412 1.846-2.834 2.166-1.403 1.049-3.746 1.934-8.344-.13a30.22 30.22 0 01-3.57-1.92c.743 3.358-.334 8.8-3.821 10.762l11.26.007 11.26.007c-3.216-1.812-4.374-7.302-3.951-10.892z" fill="url(#paint0_linear)"/><path opacity=".5" d="M62.07 93.658c.096-.3.211-.62.355-.94V72.065c-2.95-1.07-5.62-1.791-7.269-1.594a19.96 19.96 0 00-2.534.49c.293.927.627 1.86 1.008 2.705.49 1.076 1.451 1.791 2.133 2.963.783 1.342.095 8.95-.79 16.26 2.377.258 4.74.51 7.097.77z" fill="#E8A680"/><path d="M48.542 49.538s-.6-.224-1.185.116c-.593.34-.552 1.138.286 2.46.838 1.32 3.521 4.447 3.862 5.033.34.593 2.2 3.025 2.52 4.326 0 0-1.15-1.683-1.764-2.589-.613-.906-2.473-3.208-2.793-3.78-.327-.573-1.028-1.955-1.784-1.594-.852.408-.859 1.062.054 2.581.913 1.526 2.234 3.788 2.909 4.775.674.995 1.144 2.357 1.512 2.95.51.844 1.24 4.816 2.554 7.718.49 1.076 1.451 1.791 2.133 2.963.783 1.342.095 8.95-.79 16.26 3.065.326 6.123.66 9.188.987-.06-1.655-.122-3.27-.177-4.795-.204-5.933-.21-11.635-.21-11.635-.246-1.097-.362-4.237-.764-6.308-.395-2.064-.116-2.95-.47-5.047-.354-2.098-.47-3.474-.49-4.149-.02-.68-.041-2.186-.382-3.153-.34-.968-.456-3.168-.858-3.393-.409-.224-1.723 1.363-1.465 3.972 0 0-1.341-2.241-2.424-3.651-1.09-1.41-4.271-5.43-4.884-5.77-.614-.34-1.806.225-1.915.988 0 0-.987-1.54-1.777-1.315-.804.225-1.39 1.13-.886 2.05z" fill="#F2BB99"/><path opacity=".5" d="M51.403 48.346c.014.02.034.041.048.068.21.28.517.681.885 1.165.756.954 1.771 2.228 2.78 3.501.497.648 1.021 1.26 1.478 1.887.45.627.81 1.24 1.124 1.771.613 1.063.974 1.792.974 1.792s-.395-.715-1.056-1.737a22.398 22.398 0 00-1.199-1.696c-.477-.586-1.035-1.186-1.567-1.806a83.628 83.628 0 01-2.874-3.44c-.327-.408-.6-.762-.797-1.042a.92.92 0 01.204-.463z" fill="#E8A680"/><path d="M51.192 48.789c-.034-.048-.068-.089-.095-.13-.035-.047-.062-.088-.096-.129.102.13.17.225.19.259z" fill="#E8A680"/><path opacity=".5" d="M48.385 48.571c.239.293.532.66.859 1.104.83 1.083 1.88 2.574 3.03 3.97 1.172 1.418 2.201 2.923 2.95 4.067a35.183 35.183 0 011.172 1.955s-.49-.77-1.301-1.866c-.797-1.104-1.9-2.561-3.12-3.896-1.226-1.37-2.302-2.848-3.126-3.93a14.624 14.624 0 00-.341-.444c.02.007.034.014.034.014a1.416 1.416 0 01-.157-.974zm12.023 7.582a32.138 32.138 0 01.967 2.18c.293.728.559 1.47.716 2.043.081.286.122.524.15.695.013.17.013.272.013.272s-.007-.095-.04-.266a5.053 5.053 0 00-.212-.674c-.204-.545-.538-1.253-.899-1.948a33.812 33.812 0 00-.681-1.253 6.04 6.04 0 01-.014-1.05z" fill="#E8A680"/><path d="M47.834 53.442c-.205.081-.593.327-.552.551.04.225.45.852.75 1.233.299.382.592.26.905.028.252-.191.232-.45-.225-1.11-.408-.593-.51-.852-.879-.702zm1.239-6.002c-.245.15-.715.552-.654.818.062.265.62.92 1.029 1.314.402.396.763.164 1.13-.204.3-.3.26-.613-.36-1.3-.552-.614-.702-.907-1.145-.627zm3.072.164c-.245.15-.715.552-.654.817.062.266.62.92 1.022 1.315.402.388.763.164 1.131-.211.3-.3.259-.613-.361-1.301-.545-.6-.695-.893-1.138-.62zm-4.557 1.778c-.231.122-.674.456-.613.708.055.252.566.913.933 1.315.368.402.702.218 1.05-.096.286-.252.252-.545-.314-1.24-.497-.62-.633-.905-1.056-.687zm14.755 3.617c-.144-.048-.416.136-.477.333-.062.198 0 .559.02 1.029.02.47.232.79.382.79.21.007.3-.218.292-1.001 0-.681.034-1.056-.218-1.151z" fill="#F6D9C5"/><path d="M25.069 49.538s.592-.224 1.185.116c.593.34.552 1.138-.286 2.46-.838 1.32-3.522 4.447-3.862 5.033-.341.593-2.2 3.025-2.52 4.326 0 0 1.15-1.683 1.764-2.589.612-.906 2.472-3.208 2.792-3.78.327-.573 1.029-1.955 1.785-1.594.852.408.858 1.062-.055 2.581-.912 1.526-2.234 3.788-2.908 4.775-.674.995-1.144 2.357-1.505 2.95-.511.844-1.24 4.816-2.555 7.718-.49 1.076-1.45 1.791-2.132 2.963-.783 1.342-.095 8.95.79 16.26-3.065.326-6.124.66-9.189.987.061-1.655.123-3.27.177-4.795.205-5.933.205-11.635.205-11.635.245-1.097.36-4.237.762-6.308.396-2.064.116-2.95.47-5.047.355-2.098.47-3.474.49-4.149.021-.68.035-2.186.382-3.153.34-.968.45-3.168.859-3.393.408-.224 1.723 1.363 1.464 3.972 0 0 1.342-2.241 2.425-3.651 1.09-1.41 4.271-5.43 4.884-5.77.613-.34 1.805.225 1.914.988 0 0 .988-1.54 1.778-1.315.804.225 1.39 1.13.886 2.05z" fill="#F2BB99"/><path opacity=".5" d="M22.207 48.346c-.013.02-.034.041-.047.068-.211.28-.518.681-.886 1.165-.756.954-1.77 2.228-2.779 3.501-.504.648-1.022 1.26-1.478 1.887-.45.627-.81 1.24-1.124 1.771a35.685 35.685 0 00-.974 1.792s.395-.715 1.056-1.737c.333-.511.729-1.104 1.199-1.696.477-.586 1.035-1.186 1.566-1.806a83.628 83.628 0 002.875-3.44c.327-.408.6-.762.797-1.042a.919.919 0 00-.204-.463z" fill="#E8A680"/><path d="M22.419 48.789c.034-.048.068-.089.095-.13.034-.047.061-.088.095-.129-.102.13-.17.225-.19.259z" fill="#E8A680"/><path opacity=".5" d="M25.225 48.571c-.238.293-.531.66-.858 1.104-.831 1.083-1.88 2.574-3.031 3.97-1.172 1.418-2.2 2.923-2.95 4.067-.735 1.152-1.171 1.955-1.171 1.955s.49-.77 1.3-1.866c.798-1.104 1.901-2.561 3.12-3.896 1.227-1.37 2.303-2.848 3.127-3.93.123-.157.232-.307.34-.444-.02.007-.033.014-.033.014.184-.34.224-.674.156-.974zM13.21 56.153c-.035.06-.062.129-.096.197a32.199 32.199 0 00-.872 1.982 20.262 20.262 0 00-.715 2.044 4.5 4.5 0 00-.143.695c-.014.17-.014.272-.014.272s.007-.095.041-.266c.04-.163.102-.401.211-.674.204-.545.538-1.253.9-1.948.224-.436.463-.872.68-1.253a9.03 9.03 0 00.007-1.05z" fill="#E8A680"/><path d="M25.777 53.442c.204.081.593.327.552.551-.041.225-.45.852-.75 1.233-.3.382-.592.26-.905.028-.252-.191-.232-.45.224-1.11.409-.593.511-.852.879-.702zm-1.24-6.002c.245.15.716.552.654.818-.061.265-.62.92-1.028 1.314-.402.396-.763.164-1.131-.204-.3-.3-.259-.613.354-1.3.559-.614.709-.907 1.151-.627zm-3.072.164c.246.15.716.552.654.817-.061.266-.62.92-1.028 1.315-.402.388-.763.164-1.131-.211-.3-.3-.259-.613.361-1.301.552-.6.702-.893 1.144-.62zm4.557 1.778c.232.122.675.456.62.708-.054.252-.565.913-.933 1.315-.368.402-.702.218-1.049-.096-.286-.252-.252-.545.313-1.24.498-.62.627-.905 1.05-.687zm-14.747 3.617c.143-.048.415.136.476.333.062.198 0 .559-.02 1.029-.02.47-.232.79-.381.79-.211.007-.3-.218-.293-1.001-.007-.681-.041-1.056.218-1.151z" fill="#F6D9C5"/><path opacity=".5" d="M31.88 46.405c-.749.79.3 3.01-.701 2.943-1.008-.068-.327-2.085.701-2.943zm-1.199-1.642c-.34.797-2.282.729-1.914 1.438.368.708 1.615-.416 1.915-1.438zm12.479.416c1.397 2.05 1.077 3.072.512 3.154-1.138.163-.157-2.344-.511-3.154z" fill="#47ACD1"/><path d="M31.914 58.407c.75-1.137 3.638-2.8 4.905-2.554 1.267.245 1.165.095 2.118.068.954-.027 3.066 1.308 4.149 2.486 0 0-1.247.886-2.453 1.254-1.403.429-2.452.115-3.27.088-.653-.013-1.927.273-3.078-.184a21.02 21.02 0 01-2.37-1.158z" fill="#E49084"/><path d="M31.24 58.687s.055-.007.143-.034a5.87 5.87 0 00.389-.137c.327-.122.803-.286 1.382-.463a12.342 12.342 0 012.071-.415c.388-.055.797-.075 1.206-.089.415-.014.824 0 1.26.02 1.696.069 3.385.307 4.537.661.286.089.551.177.776.259.225.082.416.17.566.238.15.075.272.13.347.17l.123.062s-.035-.027-.11-.075c-.068-.048-.17-.123-.313-.204-.143-.082-.313-.184-.531-.286a7.027 7.027 0 00-.756-.32 13.563 13.563 0 00-.96-.3 14.602 14.602 0 00-1.125-.245 19.784 19.784 0 00-2.534-.266c-.422-.02-.878-.027-1.307-.014a10.94 10.94 0 00-1.267.116c-.41.055-.784.143-1.138.232-.354.088-.674.19-.96.293-.58.204-1.015.415-1.322.558-.157.075-.272.13-.354.164a.347.347 0 01-.123.075z" fill="#D97F73"/></g><mask id="mask1" maskUnits="userSpaceOnUse" x="0" y="0" width="75" height="80"><ellipse cx="37.67" cy="40.09" rx="36.869" ry="39.502" fill="#FFD15A"/></mask><g mask="url(#mask1)"><path d="M55.456 71.963c-14.046-6.614-22.275-5.382-36.756.776l-6.192-8.133 5.824-22.629 37.28-4.822 3.597 3.44-3.753 31.368z" fill="#4D2F0E"/><path d="M20.39 42.679c-.444-1.587-1.234-2.561-2.276-2.377-1.042.19-1.941 2.8-1.267 4.652.674 1.853 1.546 2.085 1.349 3.386-.198 1.3 1.982 3.562 2.56 1.54.573-2.024-.367-7.201-.367-7.201z" fill="#F2BB99"/><path opacity=".5" d="M20.39 42.679c-.444-1.587-1.234-2.561-2.276-2.377-1.042.19-1.941 2.8-1.267 4.652.674 1.853 1.546 2.085 1.349 3.386-.198 1.3 1.982 3.562 2.56 1.54.573-2.024-.367-7.201-.367-7.201z" fill="#E8A680"/><path d="M18.114 40.302c.892-.164 1.607.531 2.07 1.737l-.367 3.447c.054-1.479-.981-6.083-2.997-3.434.265-.926.762-1.655 1.294-1.75zm34.829 1.948c.238-1.635.906-2.697 1.961-2.643 1.056.054 2.275 2.534 1.84 4.462-.436 1.92-1.267 2.261-.913 3.528.36 1.267-1.52 3.788-2.35 1.846-.825-1.934-.538-7.193-.538-7.193z" fill="#F2BB99"/><path opacity=".5" d="M52.943 42.25c.238-1.635.906-2.697 1.961-2.643 1.056.054 2.275 2.534 1.84 4.462-.436 1.92-1.267 2.261-.913 3.528.36 1.267-1.52 3.788-2.35 1.846-.825-1.934-.538-7.193-.538-7.193z" fill="#E8A680"/><path d="M54.904 39.614c-.906-.048-1.533.729-1.84 1.982l.798 3.379c-.239-1.458.204-6.158 2.54-3.781-.38-.892-.96-1.553-1.498-1.58z" fill="#F2BB99"/><path d="M39.986 16.944c6.124 1.11 11.424 6.035 13.154 10.885 1.73 4.85 1.28 8.787.858 12.547-.422 3.76 1.533 8.938-.34 12.888-2.46 5.19-10.838 11.233-12.241 12.289-1.403 1.049-3.747 1.934-8.345-.13-4.598-2.057-11.43-6.975-12.792-11.825-1.05-3.726.218-7.609-.92-11.423-1.137-3.815-4.141-12.112.02-17.718 4.163-5.606 11.35-9.189 20.606-7.513z" fill="#F2BB99"/><path d="M40.872 24.144c.3 2.718 10.722 8.093 14.577 9.564 0 0 2.255-5.28.722-9.768-2.377-6.99-10.592-16.457-15.544-9.51l.245 9.714z" fill="#593515"/><path d="M40.872 24.144c-.892 4.823-22.18 2.65-22.547 17.827 0 0-6.253 1.123-5.136-8.7 1.117-9.815 6.962-17.86 15.967-21.497 6.437-2.602 12.744-.477 13.562 2.296.817 2.772-1.846 10.074-1.846 10.074z" fill="#593515"/><path d="M13.189 33.279c-.538 3.038-1.758 27.042-2.555 37.778 0 0 4.006 4.598 10.64 2.193 0 0-3.521-27.833-1.777-36.47l-6.308-3.501zM51.26 15.752c9.332 9.448 10.313 31.334 12.902 55.414 0 0-4.776 2.69-9.741 1.825 0 0 1.743-21.757-1.356-42.968L51.26 15.752z" fill="#593515"/><path d="M18.734 35.88c-.382-.306-.586-.054-.974-.367-.382-.306-.184-.558-.566-.872-.381-.306-.585-.054-.967-.36l-.552-.444-.667-.538-.068-.054a.097.097 0 00-.137.013l-.13.164a.097.097 0 00.014.136l.069.054.667.539.552.442c.381.307.586.055.974.368.381.307.177.559.565.872.382.307.586.055.974.368.375.306.191.552.552.858v-.006c.007.006.007.013.014.02l.232.184c.068.116.51.804.83.409.32-.395-.45-.682-.578-.722l-.232-.191c-.007-.007-.014 0-.02-.007l.006-.007c-.388-.252-.184-.558-.558-.858z" fill="#47ACD1"/><path opacity=".5" d="M20.164 37.53c-.32.394-.763-.294-.83-.41l-.232-.183c0-.007 0-.014-.007-.02v.006c-.361-.3-.17-.552-.552-.858-.381-.307-.586-.055-.974-.368-.381-.307-.184-.566-.566-.872-.38-.307-.585-.055-.974-.368l-.551-.443-.668-.538-.068-.054a.12.12 0 01-.034-.048l-.034.048a.097.097 0 00.014.136l.068.054.667.539.552.442c.381.307.586.055.974.368.381.307.177.559.565.872.382.307.586.055.974.368.375.306.191.552.552.858v-.007c.007.007.007.014.014.02l.232.185c.068.116.51.803.83.408a.3.3 0 00.075-.156c-.013 0-.02.013-.027.02z" fill="#47ACD1"/><path d="M18.488 37.168c-.354-.347-.579-.115-.933-.456-.354-.348-.122-.58-.477-.92-.354-.34-.579-.116-.926-.456l-.504-.497-.613-.6-.062-.061c-.04-.034-.102-.034-.136 0l-.15.15c-.034.04-.034.102 0 .136l.062.061.613.6.504.497c.354.347.579.116.933.456.354.348.123.58.477.92.354.347.579.116.933.456.348.34.136.572.463.906l.007-.007c.007.007 0 .014.007.02l.211.212c.061.123.43.852.783.484.355-.361-.381-.722-.504-.777l-.21-.211c-.008-.007-.014-.007-.021-.007l.007-.007c-.355-.279-.123-.565-.464-.899z" fill="#47ACD1"/><path opacity=".5" d="M19.748 38.946c-.354.361-.728-.368-.79-.483l-.21-.212c-.008-.006-.008-.013-.008-.02l-.006.007c-.327-.334-.116-.566-.464-.906-.354-.348-.579-.116-.933-.457-.354-.347-.122-.579-.477-.92-.354-.347-.579-.115-.933-.456l-.504-.497-.613-.6-.061-.06c-.014-.014-.02-.035-.028-.055l-.04.04c-.034.042-.034.103 0 .137l.06.061.614.6.504.497c.354.347.579.116.933.456.354.348.123.58.477.92.354.347.579.116.933.456.348.34.136.572.463.906l.007-.007c0 .007 0 .014.007.02l.211.212c.062.123.43.852.784.484a.349.349 0 00.088-.15c.007.014 0 .02-.014.027z" fill="#47ACD1"/><path d="M53.937 32.032c.381-.306.586-.054.974-.368.381-.306.184-.565.565-.872.382-.306.586-.061.968-.36l.551-.444.668-.538.068-.054a.097.097 0 01.136.014l.13.163a.097.097 0 01-.014.136l-.068.055-.668.538-.551.443c-.382.306-.586.054-.974.367-.389.314-.184.566-.566.872-.381.307-.586.055-.974.368-.375.307-.19.552-.545.858l-.007-.006c-.006.006 0 .013-.006.02l-.232.184c-.068.116-.51.804-.831.409-.32-.395.45-.681.579-.722l.231-.191c.007-.007.014 0 .021-.007l-.007-.007c.375-.252.17-.558.552-.858z" fill="#47ACD1"/><path opacity=".5" d="M52.5 33.68c.32.396.762-.292.83-.408l.232-.184c.007-.007.007-.014.007-.02l.007.006c.36-.3.17-.551.545-.858.381-.306.585-.055.974-.368.381-.306.184-.565.565-.872.382-.306.586-.054.974-.367h.007l.552-.443.667-.538.068-.055a.122.122 0 00.035-.048l.04.048a.097.097 0 01-.013.136l-.068.055-.675.538-.551.443c-.382.306-.586.054-.975.367-.381.307-.183.566-.565.872-.381.307-.586.055-.974.368-.375.307-.19.552-.545.859l-.007-.007c-.007.007 0 .013-.007.02l-.231.184c-.068.116-.511.804-.831.409a.3.3 0 01-.075-.157c.007.007.007.014.014.02z" fill="#47ACD1"/><path d="M54.182 33.32c.354-.348.58-.116.933-.457.354-.347.123-.579.477-.92.354-.347.58-.115.927-.456l.504-.497.613-.6.061-.06a.103.103 0 01.136 0l.15.15a.095.095 0 010 .135l-.061.062-.613.6-.504.496c-.355.348-.58.116-.934.457-.354.347-.122.579-.476.92-.355.347-.58.108-.934.456-.347.34-.136.572-.463.906l-.007-.007c-.006.007 0 .014-.006.02l-.212.212c-.06.122-.436.85-.79.483-.354-.36.382-.722.504-.776l.212-.212c.006-.006.013-.006.02-.006l-.007-.007c.361-.28.13-.559.47-.9z" fill="#47ACD1"/><path opacity=".5" d="M52.915 35.097c.354.361.73-.367.784-.483l.21-.211c.008-.007.008-.014.008-.02l.006.006c.327-.334.116-.565.464-.906.354-.347.579-.109.933-.456.354-.348.122-.58.477-.92.354-.347.579-.116.933-.456l.518-.497.613-.6.06-.061c.014-.014.021-.034.028-.048l.041.04a.098.098 0 010 .137l-.061.061-.613.6-.504.497c-.355.348-.58.116-.934.457-.354.347-.122.579-.477.92-.354.347-.579.115-.933.456-.347.34-.136.572-.463.906l-.007-.007c-.006.007 0 .013-.006.02l-.212.211c-.061.123-.436.852-.79.484a.347.347 0 01-.088-.15c0 .007.006.014.013.02z" fill="#47ACD1"/><path d="M42.316 31.787c-.184.02-.531.157-.647.409-.334.708-.375 1.62.089 1.669.667.074 6-.225 7.554.899 2.036 1.471 4.4 3.712 4.4 3.712s-.885-3.195-4.298-5.524c-2.098-1.43-5.995-1.267-7.098-1.165zm-10.211-.77c.184.014.586-.027.777.388.327.716.524 1.56-.102 1.615-.532.047-5.675.177-7.289 1.205-1.798 1.152-4.734 3.815-4.734 3.815s2.037-4.1 4.618-5.627c2.194-1.28 5.627-1.491 6.73-1.396z" fill="#4D2F0E"/><path d="M38.665 46.705l.15.28c.095.176.238.408.429.687.19.273.429.58.695.906.258.334.551.681.79 1.11.115.212.218.457.245.73a.96.96 0 01-.048.428l-.061.15a2.335 2.335 0 01-.109.184c-.306.416-.702.593-1.035.715a3.82 3.82 0 01-.818.198c-.197.02-.313.02-.313.02s.102-.047.286-.122c.184-.082.436-.198.722-.361a3.35 3.35 0 00.422-.293 1.72 1.72 0 00.348-.395l.054-.096.048-.156c0-.048.02-.143 0-.225a1.454 1.454 0 00-.198-.531c-.197-.368-.477-.73-.701-1.09a6.998 6.998 0 01-.58-1.029 4.42 4.42 0 01-.272-.797l-.054-.313zm-3.821 2.732s-.062.286-.116.688a2.54 2.54 0 000 .64c.02.102.054.204.102.286.04.088.116.15.198.211.013.02.108.068.156.095l.157.075c.116.041.225.089.34.116.232.061.47.096.682.157.218.047.408.157.483.272.082.11.082.191.089.184 0 .007-.048-.054-.157-.102-.102-.054-.252-.068-.456-.054-.198.006-.45.034-.736 0a2.024 2.024 0 01-.66-.198c-.069-.04-.103-.048-.198-.116a1.095 1.095 0 01-.348-.402c-.088-.156-.102-.327-.109-.483a1.777 1.777 0 01.17-.763c.185-.402.403-.606.403-.606z" fill="#E8A680"/><path d="M42.589 43.844s.102-.15.3-.402a8.035 8.035 0 011.593-1.533 5.69 5.69 0 01.872-.524c.327-.15.668-.3 1.05-.382.374-.102.776-.13 1.178-.122.197.007.408.047.592.068.17.034.348.061.518.095.327.048.654.116.974.15.634.075 1.233.11 1.737.082a4.66 4.66 0 00.681-.082c.198-.048.375-.095.511-.157.136-.06.245-.122.307-.177l.102-.081s-.02.04-.061.115a1.19 1.19 0 01-.232.307c-.232.238-.654.504-1.206.654a6.31 6.31 0 01-1.9.238 9.69 9.69 0 01-1.07-.068c-.184-.02-.354-.048-.531-.075-.17-.013-.306-.04-.47-.047a4.247 4.247 0 00-.926.068 5.917 5.917 0 00-.906.238c-.286.109-.573.225-.838.354-.26.13-.511.26-.743.382a53.04 53.04 0 00-1.11.647 4.63 4.63 0 01-.422.252z" fill="#4D2F0E"/><path d="M43.079 41.146s.123-.77.552-1.866c.109-.273.238-.566.401-.865.164-.3.341-.613.586-.906a2.9 2.9 0 01.9-.79c.095-.048.19-.096.292-.137l.327-.075c.143-.034.205-.013.314-.02a1.55 1.55 0 01.306.007c.436.027.81.136 1.192.252.375.122.73.279 1.056.442a10.691 10.691 0 011.703 1.07c.463.361.81.708 1.035.96.116.123.198.232.246.307.054.075.081.116.081.116s-.136-.143-.401-.348c-.26-.218-.654-.49-1.138-.79-.49-.3-1.07-.62-1.723-.906-.32-.15-.668-.265-1.015-.381-.348-.096-.722-.198-1.063-.211a2.307 2.307 0 00-.531 0l-.232.047c-.075.028-.15.068-.225.102a2.635 2.635 0 00-.783.648 6.468 6.468 0 00-.6.803 15.014 15.014 0 00-1.069 2.051c-.136.313-.211.49-.211.49zm1.035 3.414l.055-.055a1.39 1.39 0 01.163-.137 4.15 4.15 0 01.675-.36c.572-.253 1.39-.477 2.227-.56.211-.02.416-.02.627-.033.204-.007.408.013.606.02.395.034.756.11 1.063.19.15.048.286.103.408.144.123.04.218.102.3.143.163.082.252.136.252.136s-.102-.013-.286-.04c-.089-.014-.19-.041-.32-.048-.123-.014-.259-.028-.409-.048-.15-.007-.313-.014-.483-.027-.17 0-.355 0-.539-.007-.374.014-.77.02-1.171.068-.402.027-.797.095-1.165.143a26.48 26.48 0 00-1.015.184c-.3.061-.545.123-.715.17a3.398 3.398 0 00-.273.116zm-13.774-.069s-.095-.048-.265-.095c-.17-.048-.415-.11-.708-.17-.3-.062-.647-.123-1.022-.185-.375-.054-.77-.122-1.172-.17-.395-.054-.797-.095-1.171-.136a15.92 15.92 0 00-1.764-.075c-.184.007-.287.007-.287.007s.096-.041.266-.11c.17-.06.422-.142.736-.19a6.281 6.281 0 011.07-.088c.394-.007.81.027 1.218.074.825.11 1.635.327 2.214.58.293.122.518.251.675.36.081.048.122.103.163.137.027.04.048.061.048.061z" fill="#E8A680"/><path d="M20 40.942l.116.095c.076.055.191.116.348.178.313.115.79.19 1.349.163.279-.014.579-.048.878-.116.157-.034.28-.082.443-.15.157-.068.368-.13.552-.184.75-.218 1.56-.36 2.398-.395a8.567 8.567 0 011.253.041c.211.02.416.055.62.11l.15.04.095.027.068.02c.096.035.17.055.273.096.422.157.722.361 1.028.559.3.197.559.408.79.606.927.804 1.383 1.485 1.383 1.485s-.177-.102-.477-.28a50.28 50.28 0 00-1.246-.715c-.259-.136-.538-.286-.831-.429a7.679 7.679 0 00-.913-.36c-.075-.028-.177-.048-.266-.069l-.068-.014c.02.007-.027 0-.04-.006l-.13-.02c-.17-.021-.347-.042-.531-.055a10.12 10.12 0 00-1.117-.007c-.757.034-1.526.123-2.228.245-.184.034-.327.068-.51.11a3.988 3.988 0 01-1.621.048c-.628-.103-1.118-.349-1.411-.58-.293-.239-.348-.45-.354-.443z" fill="#4D2F0E"/><path d="M22.487 39.736l.102-.123c.068-.081.164-.204.307-.334.279-.279.695-.66 1.253-1.049.28-.197.58-.401.913-.599.334-.204.688-.409 1.076-.586.382-.184.79-.36 1.22-.504a6.27 6.27 0 011.348-.306c.463-.055.974-.028 1.438.177.19.068.422.245.606.395.163.163.327.327.45.51.272.348.456.723.626 1.084.157.36.293.701.395 1.028.218.64.313 1.2.395 1.58.068.389.089.614.089.614s-.068-.211-.184-.586a19.369 19.369 0 00-.566-1.505c-.258-.607-.599-1.308-1.103-1.928-.116-.164-.266-.293-.409-.43-.157-.102-.265-.217-.49-.299-.34-.143-.763-.177-1.186-.116-.415.034-.837.143-1.246.273-.409.136-.81.272-1.185.442a15.87 15.87 0 00-1.076.505c-.341.17-.655.347-.94.517-.566.34-1.043.64-1.343.886-.156.116-.279.21-.354.286a.33.33 0 00-.136.068zm17.881-4.169s-.075.13-.17.368c-.11.232-.225.586-.375 1.002-.136.422-.28.92-.416 1.45-.136.539-.272 1.11-.367 1.69a20.018 20.018 0 00-.26 1.71c-.027.272-.054.538-.074.79l-.041.715c-.007.443-.027.81-.014 1.07v.408s-.02-.15-.047-.409a13.63 13.63 0 01-.082-1.076c0-.45-.007-.967.04-1.526.055-.558.123-1.15.232-1.737a20.1 20.1 0 01.409-1.703c.15-.538.334-1.028.497-1.444.17-.415.334-.75.463-.974.062-.116.123-.197.157-.259.027-.047.048-.075.048-.075z" fill="#E8A680"/><path d="M59.883 56.956s-.047-.265-.143-.715c-.088-.45-.218-1.096-.354-1.873a65.313 65.313 0 01-.409-2.657c-.06-.483-.136-.987-.19-1.505-.055-.511-.116-1.036-.17-1.553-.048-.525-.09-1.042-.137-1.56-.047-.51-.068-1.022-.109-1.512-.061-.981-.095-1.9-.109-2.684-.034-1.574.027-2.636.027-2.636s.28 1.028.56 2.575c.142.776.292 1.682.421 2.656.062.49.143.988.191 1.506.055.51.116 1.035.17 1.553.048.524.089 1.042.137 1.56.047.51.068 1.021.102 1.512.054.98.088 1.9.095 2.69a25.77 25.77 0 01-.034 1.914c-.014.47-.047.73-.047.73zm-.939 11.778s-.048-.34-.157-.913c-.095-.572-.238-1.403-.381-2.398a98.178 98.178 0 01-.45-3.399c-.068-.626-.15-1.267-.211-1.92-.061-.655-.13-1.322-.19-1.99l-.164-1.989c-.062-.654-.089-1.308-.13-1.934a89.706 89.706 0 01-.15-3.433c-.06-2.017-.013-3.372-.013-3.372s.293 1.314.6 3.303c.156.995.32 2.153.462 3.4.069.626.157 1.267.218 1.92.069.654.13 1.322.198 1.99.054.667.102 1.335.157 1.995.054.654.081 1.308.122 1.935a87.01 87.01 0 01.136 3.44c.02 1.008.014 1.846 0 2.445-.013.593-.047.92-.047.92z" fill="#6E431E"/><path d="M67.499 78.019c-2.05-6.158-10.688-7.746-12.336-7.548-4.305.525-7.554 2.69-9.23 1.478-1.975-1.423-3.971-7.792-3.971-7.792l-5.157-2.596v32.642S57.16 96.35 58.051 96.35c.892 0 3.917-2.357 3.917-2.357.116-.395.252-.83.456-1.274l5.075-14.7z" fill="#F2BB99"/><path d="M14.401 51.977s.02.266.075.722c.048.457.123 1.11.177 1.894.061.783.123 1.703.164 2.684.013.49.047 1 .047 1.512.007.517.02 1.042.028 1.56 0 .524-.007 1.049-.007 1.56 0 .517-.02 1.021-.034 1.512-.028.98-.075 1.9-.137 2.684-.109 1.573-.272 2.622-.272 2.622s-.184-1.049-.32-2.615a59.04 59.04 0 01-.184-2.684c-.014-.49-.048-1.002-.055-1.513-.006-.517-.02-1.042-.027-1.566 0-.525.007-1.05.007-1.567 0-.518.027-1.022.04-1.512.035-.981.09-1.9.158-2.69.06-.791.136-1.445.204-1.901.075-.443.136-.702.136-.702zm1.846-6.982s.02.266.075.722a70.137 70.137 0 01.34 4.577c.015.49.049 1.002.049 1.513.006.517.02 1.042.027 1.56 0 .524-.007 1.049-.007 1.566 0 .518-.02 1.022-.034 1.513-.027.98-.075 1.9-.136 2.683a34.168 34.168 0 01-.273 2.623s-.184-1.05-.32-2.616a51.015 51.015 0 01-.177-2.684c-.02-.49-.055-1.001-.055-1.512-.006-.518-.02-1.042-.027-1.567 0-.524.007-1.049.007-1.566 0-.518.027-1.022.034-1.52.034-.98.089-1.9.157-2.69.061-.79.143-1.437.204-1.9.075-.443.136-.702.136-.702z" fill="#6E431E"/><path d="M31.165 63.605s-2.289 7.629-3.052 8.215c-1.743 1.348-3.923-.804-9.659-1.342-3.079-.293-10.245 2.581-11.859 8.044l-3.16 11.69c6.56-1.172 7.656 1.88 8.2 3.78 0 0 3.025 2.357 3.918 2.357.892 0 21.245-2.146 21.245-2.146V61.568l-5.633 2.037z" fill="#F2BB99"/><path d="M40.974 20.023s-.034.095-.095.28c-.075.176-.184.456-.375.769-.375.64-1.083 1.465-2.084 2.241-.988.797-2.255 1.553-3.658 2.22-1.404.675-2.943 1.268-4.503 1.778-.783.246-1.567.484-2.343.695-.375.102-.75.212-1.117.314-.191.054-.375.109-.559.163-.163.061-.334.116-.497.177-.164.055-.327.116-.49.17-.164.069-.32.137-.477.198-.164.068-.32.13-.47.198-.15.075-.3.15-.443.218-.593.286-1.117.606-1.594.933-.457.34-.872.674-1.206 1.008-.34.327-.6.654-.804.933-.19.286-.347.518-.429.688-.088.17-.13.266-.13.266s-.026-.422.192-1.138c.115-.347.272-.783.544-1.233.123-.238.287-.456.45-.708.177-.232.375-.477.593-.715.442-.47.96-.96 1.573-1.376.15-.102.307-.212.463-.32.164-.096.327-.191.498-.293.17-.096.333-.198.51-.293.184-.089.368-.17.552-.26l.566-.258c.184-.068.36-.136.545-.204l.551-.205c.198-.061.395-.13.593-.19.75-.246 1.512-.49 2.275-.736 3.045-.981 6.049-2.003 8.167-3.038 1.05-.525 1.88-1.056 2.405-1.512a5.37 5.37 0 00.586-.566c.143-.13.211-.204.211-.204z" fill="#6E431E"/><path opacity=".5" d="M17.841 76.635c.681-1.171 1.642-1.893 2.132-2.963.402-.879.743-1.86 1.05-2.82a24.113 24.113 0 00-2.569-.374c-1.805-.17-4.809.715-8.065 1.927-.252 1.914-.368 4.156-.565 5.048 0 0 0 5.701-.205 11.634l-.06 1.703c1.198.763 1.688 1.907 1.981 2.868 2.364-.259 4.728-.51 7.091-.763-.885-7.309-1.573-14.918-.79-16.26z" fill="#E8A680"/><path d="M40.817 19.989s-.02.075-.06.211c-.055.13-.137.334-.294.552-.156.225-.395.456-.681.701-.3.232-.654.47-1.07.675-.21.102-.422.211-.66.3a7.53 7.53 0 01-.722.272c-.252.089-.511.177-.777.252a9.976 9.976 0 01-.817.218c-.559.143-1.144.252-1.737.361-.593.089-1.199.19-1.812.252-.606.068-1.206.143-1.798.211-.586.096-1.158.17-1.71.3-.28.055-.545.123-.804.19-.259.069-.524.13-.763.219-.49.15-.947.327-1.355.518-.205.095-.402.183-.58.285a5.064 5.064 0 00-.503.293c-.314.191-.559.396-.763.566-.396.354-.559.613-.559.613s.123-.286.484-.688c.184-.19.422-.422.722-.654a6.22 6.22 0 011.062-.681c.41-.218.865-.43 1.363-.613a11.665 11.665 0 011.594-.497c.558-.15 1.15-.253 1.75-.355.593-.075 1.2-.15 1.805-.224.607-.062 1.2-.15 1.792-.232.586-.102 1.165-.19 1.717-.313.279-.055.544-.123.81-.184.266-.062.525-.13.77-.205a6.8 6.8 0 00.715-.231c.232-.075.45-.164.654-.252.831-.348 1.458-.777 1.798-1.172.177-.197.28-.375.348-.497.047-.116.081-.191.081-.191zm2.092 2.813s.02.048.068.13c.04.088.109.217.211.347.088.143.232.3.381.483.157.178.348.375.552.58.211.204.443.422.702.64.245.231.538.436.81.674.58.45 1.213.913 1.867 1.342.32.225.66.416.98.633.341.184.648.402.975.573.327.163.627.36.933.51.306.144.586.314.858.437.273.122.518.245.736.36l.579.266c.32.15.504.245.504.245s-.204-.013-.558-.047c-.361-.027-.866-.116-1.465-.266-.3-.068-.62-.177-.954-.286-.34-.102-.68-.252-1.035-.402-.354-.15-.709-.334-1.07-.518-.354-.204-.708-.408-1.055-.64-.341-.232-.681-.47-.995-.729-.327-.245-.606-.531-.899-.79-.28-.272-.538-.545-.763-.817a7.524 7.524 0 01-.606-.804 6.746 6.746 0 01-.43-.736 3.745 3.745 0 01-.245-.62c-.06-.177-.068-.313-.075-.408 0-.11-.006-.157-.006-.157zm-1.383-8.61s-.123-.034-.354-.102c-.232-.075-.58-.13-1.015-.204a12.58 12.58 0 00-1.587-.116c-.614-.014-1.308.034-2.058.095-.749.075-1.56.204-2.404.368-.845.177-1.723.395-2.623.667a30.46 30.46 0 00-2.718.975c-.912.36-1.811.797-2.683 1.273-.886.457-1.724.988-2.534 1.54-.784.579-1.58 1.137-2.262 1.77a24.064 24.064 0 00-1.92 1.888c-.287.32-.546.647-.811.953-.252.32-.49.634-.716.934-.429.62-.824 1.192-1.13 1.73-.334.524-.559 1.015-.784 1.403-.395.81-.613 1.274-.613 1.274l.082-.361c.061-.232.123-.586.245-1.022.15-.43.28-.974.538-1.553.123-.293.239-.613.395-.933.157-.32.327-.661.511-1.008.205-.34.409-.695.627-1.063.238-.354.49-.715.763-1.083.558-.715 1.165-1.465 1.887-2.146a20.717 20.717 0 012.323-1.989c.851-.6 1.737-1.185 2.67-1.682.94-.49 1.9-.934 2.867-1.301.968-.382 1.955-.661 2.91-.9.953-.252 1.906-.381 2.799-.497.899-.102 1.757-.13 2.547-.116.79.02 1.513.089 2.14.205a9.662 9.662 0 011.607.402c.218.061.409.156.572.225.164.068.3.136.402.197.211.116.327.177.327.177zm1.954 1.56s.287.075.764.238c.238.089.538.164.858.314.327.143.702.306 1.097.497.388.211.803.436 1.24.702.415.286.878.558 1.307.905.436.341.886.695 1.301 1.104.436.388.831.831 1.233 1.26.375.457.763.9 1.09 1.383.348.463.64.96.927 1.43.265.484.517.954.722 1.417.218.457.388.9.538 1.315.3.824.463 1.54.565 2.037.095.504.123.79.123.79s-.164-.245-.416-.681c-.13-.218-.293-.477-.463-.777-.184-.293-.388-.627-.613-.988-.232-.354-.477-.735-.743-1.137-.258-.402-.572-.804-.865-1.233-.313-.415-.626-.851-.974-1.274-.327-.436-.701-.845-1.056-1.267-.374-.409-.735-.824-1.117-1.212-.368-.402-.763-.763-1.137-1.131-.375-.361-.756-.695-1.11-1.022-.375-.3-.716-.6-1.036-.885-.334-.252-.634-.504-.9-.722-.265-.225-.524-.402-.714-.559-.402-.306-.62-.504-.62-.504zm4.503 0s.178.102.477.286c.15.089.327.211.532.361.204.143.436.307.66.511.239.19.484.416.743.654.265.232.51.51.776.783.245.293.518.58.756.906.252.314.484.647.723.988.224.34.442.688.647 1.035.21.348.388.695.565 1.036.347.68.613 1.342.838 1.914.225.565.354 1.062.456 1.396.096.34.143.538.143.538s-.088-.184-.231-.504c-.143-.327-.368-.776-.627-1.321a31.32 31.32 0 00-.967-1.812c-.184-.327-.389-.66-.593-.995-.204-.34-.422-.667-.647-1.001a26.066 26.066 0 00-1.397-1.887c-.252-.28-.463-.572-.701-.817a9.614 9.614 0 00-.668-.702 19.25 19.25 0 00-1.056-1.001c-.279-.232-.429-.368-.429-.368z" fill="#6E431E"/><path d="M32.412 18.647l-1.022.238c-.327.062-.722.17-1.165.28-.45.102-.947.238-1.492.395a29.23 29.23 0 00-1.744.538c-.306.095-.62.204-.933.334l-.967.36c-.64.287-1.308.56-1.955.907-.668.306-1.287.715-1.92 1.09-.6.429-1.22.824-1.752 1.321-.565.45-1.035.988-1.518 1.478-.402.552-.866 1.042-1.165 1.6-.164.273-.34.525-.477.791-.13.273-.252.531-.368.784-.266.497-.388.994-.552 1.423-.068.218-.15.416-.204.613-.048.19-.082.375-.123.532l-.245 1.021s.007-.381.04-1.049c.008-.17.021-.354.028-.558.014-.205.075-.416.116-.647.102-.464.157-1.002.381-1.54.096-.28.198-.565.3-.865.116-.293.286-.579.43-.879.279-.62.715-1.185 1.13-1.798.49-.545.954-1.165 1.56-1.648.558-.539 1.212-.975 1.846-1.438.674-.395 1.342-.81 2.044-1.124.68-.36 1.396-.585 2.07-.858.695-.218 1.356-.443 2.003-.579.32-.075.633-.15.94-.218.306-.061.606-.102.886-.157.286-.047.558-.095.817-.13.259-.026.51-.053.742-.074.464-.055.872-.082 1.206-.095a28.343 28.343 0 011.063-.048z" fill="#6E431E"/><path d="M44.244 63.387c-1.349 1.07-2.412 1.846-2.834 2.166-1.403 1.049-3.746 1.934-8.344-.13a30.22 30.22 0 01-3.57-1.92c.743 3.358-.334 8.8-3.821 10.762l11.26.007 11.26.007c-3.216-1.812-4.374-7.302-3.951-10.892z" fill="url(#paint1_linear)"/><path opacity=".5" d="M62.07 93.658c.096-.3.211-.62.355-.94V72.065c-2.95-1.07-5.62-1.791-7.269-1.594a19.96 19.96 0 00-2.534.49c.293.927.627 1.86 1.008 2.705.49 1.076 1.451 1.791 2.133 2.963.783 1.342.095 8.95-.79 16.26 2.377.258 4.74.51 7.097.77z" fill="#E8A680"/><path d="M48.542 49.538s-.6-.224-1.185.116c-.593.34-.552 1.138.286 2.46.838 1.32 3.521 4.447 3.862 5.033.34.593 2.2 3.025 2.52 4.326 0 0-1.15-1.683-1.764-2.589-.613-.906-2.473-3.208-2.793-3.78-.327-.573-1.028-1.955-1.784-1.594-.852.408-.859 1.062.054 2.581.913 1.526 2.234 3.788 2.909 4.775.674.995 1.144 2.357 1.512 2.95.51.844 1.24 4.816 2.554 7.718.49 1.076 1.451 1.791 2.133 2.963.783 1.342.095 8.95-.79 16.26 3.065.326 6.123.66 9.188.987-.06-1.655-.122-3.27-.177-4.795-.204-5.933-.21-11.635-.21-11.635-.246-1.097-.362-4.237-.764-6.308-.395-2.064-.116-2.95-.47-5.047-.354-2.098-.47-3.474-.49-4.149-.02-.68-.041-2.186-.382-3.153-.34-.968-.456-3.168-.858-3.393-.409-.224-1.723 1.363-1.465 3.972 0 0-1.341-2.241-2.424-3.651-1.09-1.41-4.271-5.43-4.884-5.77-.614-.34-1.806.225-1.915.988 0 0-.987-1.54-1.777-1.315-.804.225-1.39 1.13-.886 2.05z" fill="#F2BB99"/><path opacity=".5" d="M51.403 48.346c.014.02.034.041.048.068.21.28.517.681.885 1.165.756.954 1.771 2.228 2.78 3.501.497.648 1.021 1.26 1.478 1.887.45.627.81 1.24 1.124 1.771.613 1.063.974 1.792.974 1.792s-.395-.715-1.056-1.737a22.398 22.398 0 00-1.199-1.696c-.477-.586-1.035-1.186-1.567-1.806a83.628 83.628 0 01-2.874-3.44c-.327-.408-.6-.762-.797-1.042a.92.92 0 01.204-.463z" fill="#E8A680"/><path d="M51.192 48.789c-.034-.048-.068-.089-.095-.13-.035-.047-.062-.088-.096-.129.102.13.17.225.19.259z" fill="#E8A680"/><path opacity=".5" d="M48.385 48.571c.239.293.532.66.859 1.104.83 1.083 1.88 2.574 3.03 3.97 1.172 1.418 2.201 2.923 2.95 4.067a35.183 35.183 0 011.172 1.955s-.49-.77-1.301-1.866c-.797-1.104-1.9-2.561-3.12-3.896-1.226-1.37-2.302-2.848-3.126-3.93a14.624 14.624 0 00-.341-.444c.02.007.034.014.034.014a1.416 1.416 0 01-.157-.974zm12.023 7.582a32.138 32.138 0 01.967 2.18c.293.728.559 1.47.716 2.043.081.286.122.524.15.695.013.17.013.272.013.272s-.007-.095-.04-.266a5.053 5.053 0 00-.212-.674c-.204-.545-.538-1.253-.899-1.948a33.812 33.812 0 00-.681-1.253 6.04 6.04 0 01-.014-1.05z" fill="#E8A680"/><path d="M47.834 53.442c-.205.081-.593.327-.552.551.04.225.45.852.75 1.233.299.382.592.26.905.028.252-.191.232-.45-.225-1.11-.408-.593-.51-.852-.879-.702zm1.239-6.002c-.245.15-.715.552-.654.818.062.265.62.92 1.029 1.314.402.396.763.164 1.13-.204.3-.3.26-.613-.36-1.3-.552-.614-.702-.907-1.145-.627zm3.072.164c-.245.15-.715.552-.654.817.062.266.62.92 1.022 1.315.402.388.763.164 1.131-.211.3-.3.259-.613-.361-1.301-.545-.6-.695-.893-1.138-.62zm-4.557 1.778c-.231.122-.674.456-.613.708.055.252.566.913.933 1.315.368.402.702.218 1.05-.096.286-.252.252-.545-.314-1.24-.497-.62-.633-.905-1.056-.687zm14.755 3.617c-.144-.048-.416.136-.477.333-.062.198 0 .559.02 1.029.02.47.232.79.382.79.21.007.3-.218.292-1.001 0-.681.034-1.056-.218-1.151z" fill="#F6D9C5"/><path d="M25.069 49.538s.592-.224 1.185.116c.593.34.552 1.138-.286 2.46-.838 1.32-3.522 4.447-3.862 5.033-.341.593-2.2 3.025-2.52 4.326 0 0 1.15-1.683 1.764-2.589.612-.906 2.472-3.208 2.792-3.78.327-.573 1.029-1.955 1.785-1.594.852.408.858 1.062-.055 2.581-.912 1.526-2.234 3.788-2.908 4.775-.674.995-1.144 2.357-1.505 2.95-.511.844-1.24 4.816-2.555 7.718-.49 1.076-1.45 1.791-2.132 2.963-.783 1.342-.095 8.95.79 16.26-3.065.326-6.124.66-9.189.987.061-1.655.123-3.27.177-4.795.205-5.933.205-11.635.205-11.635.245-1.097.36-4.237.762-6.308.396-2.064.116-2.95.47-5.047.355-2.098.47-3.474.49-4.149.021-.68.035-2.186.382-3.153.34-.968.45-3.168.859-3.393.408-.224 1.723 1.363 1.464 3.972 0 0 1.342-2.241 2.425-3.651 1.09-1.41 4.271-5.43 4.884-5.77.613-.34 1.805.225 1.914.988 0 0 .988-1.54 1.778-1.315.804.225 1.39 1.13.886 2.05z" fill="#F2BB99"/><path opacity=".5" d="M22.207 48.346c-.013.02-.034.041-.047.068-.211.28-.518.681-.886 1.165-.756.954-1.77 2.228-2.779 3.501-.504.648-1.022 1.26-1.478 1.887-.45.627-.81 1.24-1.124 1.771a35.685 35.685 0 00-.974 1.792s.395-.715 1.056-1.737c.333-.511.729-1.104 1.199-1.696.477-.586 1.035-1.186 1.566-1.806a83.628 83.628 0 002.875-3.44c.327-.408.6-.762.797-1.042a.919.919 0 00-.204-.463z" fill="#E8A680"/><path d="M22.419 48.789c.034-.048.068-.089.095-.13.034-.047.061-.088.095-.129-.102.13-.17.225-.19.259z" fill="#E8A680"/><path opacity=".5" d="M25.225 48.571c-.238.293-.531.66-.858 1.104-.831 1.083-1.88 2.574-3.031 3.97-1.172 1.418-2.2 2.923-2.95 4.067-.735 1.152-1.171 1.955-1.171 1.955s.49-.77 1.3-1.866c.798-1.104 1.901-2.561 3.12-3.896 1.227-1.37 2.303-2.848 3.127-3.93.123-.157.232-.307.34-.444-.02.007-.033.014-.033.014.184-.34.224-.674.156-.974zM13.21 56.153c-.035.06-.062.129-.096.197a32.199 32.199 0 00-.872 1.982 20.262 20.262 0 00-.715 2.044 4.5 4.5 0 00-.143.695c-.014.17-.014.272-.014.272s.007-.095.041-.266c.04-.163.102-.401.211-.674.204-.545.538-1.253.9-1.948.224-.436.463-.872.68-1.253a9.03 9.03 0 00.007-1.05z" fill="#E8A680"/><path d="M25.777 53.442c.204.081.593.327.552.551-.041.225-.45.852-.75 1.233-.3.382-.592.26-.905.028-.252-.191-.232-.45.224-1.11.409-.593.511-.852.879-.702zm-1.24-6.002c.245.15.716.552.654.818-.061.265-.62.92-1.028 1.314-.402.396-.763.164-1.131-.204-.3-.3-.259-.613.354-1.3.559-.614.709-.907 1.151-.627zm-3.072.164c.246.15.716.552.654.817-.061.266-.62.92-1.028 1.315-.402.388-.763.164-1.131-.211-.3-.3-.259-.613.361-1.301.552-.6.702-.893 1.144-.62zm4.557 1.778c.232.122.675.456.62.708-.054.252-.565.913-.933 1.315-.368.402-.702.218-1.049-.096-.286-.252-.252-.545.313-1.24.498-.62.627-.905 1.05-.687zm-14.747 3.617c.143-.048.415.136.476.333.062.198 0 .559-.02 1.029-.02.47-.232.79-.381.79-.211.007-.3-.218-.293-1.001-.007-.681-.041-1.056.218-1.151z" fill="#F6D9C5"/><path opacity=".5" d="M32.93 47.463c-1.649 1.131.66 4.31-1.544 4.212-2.218-.098-.72-2.983 1.544-4.212zm-1.58-3.16c-.733 1.771-4.905 1.62-4.115 3.194.79 1.574 3.47-.924 4.115-3.194zm11.733 1.053c3.498 3.416 2.696 5.118 1.28 5.255-2.85.272-.393-3.904-1.28-5.255z" fill="#47ACD1"/><path d="M31.914 58.407c.75-1.137 3.638-2.8 4.905-2.554 1.267.245 1.165.095 2.118.068.954-.027 3.066 1.308 4.149 2.486 0 0-1.247.886-2.453 1.254-1.403.429-2.452.115-3.27.088-.653-.013-1.927.273-3.078-.184a21.02 21.02 0 01-2.37-1.158z" fill="#E49084"/><path d="M31.24 58.687s.055-.007.143-.034a5.87 5.87 0 00.389-.137c.327-.122.803-.286 1.382-.463a12.342 12.342 0 012.071-.415c.388-.055.797-.075 1.206-.089.415-.014.824 0 1.26.02 1.696.069 3.385.307 4.537.661.286.089.551.177.776.259.225.082.416.17.566.238.15.075.272.13.347.17l.123.062s-.035-.027-.11-.075c-.068-.048-.17-.123-.313-.204-.143-.082-.313-.184-.531-.286a7.027 7.027 0 00-.756-.32 13.563 13.563 0 00-.96-.3 14.602 14.602 0 00-1.125-.245 19.784 19.784 0 00-2.534-.266c-.422-.02-.878-.027-1.307-.014a10.94 10.94 0 00-1.267.116c-.41.055-.784.143-1.138.232-.354.088-.674.19-.96.293-.58.204-1.015.415-1.322.558-.157.075-.272.13-.354.164a.347.347 0 01-.123.075z" fill="#D97F73"/></g><defs><linearGradient id="paint0_linear" x1="36.936" y1="71.86" x2="36.936" y2="60.963" gradientUnits="userSpaceOnUse"><stop stop-color="#F2BB99"/><stop offset="1" stop-color="#E8A680"/></linearGradient><linearGradient id="paint1_linear" x1="36.936" y1="71.86" x2="36.936" y2="60.963" gradientUnits="userSpaceOnUse"><stop stop-color="#F2BB99"/><stop offset="1" stop-color="#E8A680"/></linearGradient></defs></svg>