<svg width="75" height="83" viewBox="0 0 75 83" fill="none" xmlns="http://www.w3.org/2000/svg"><mask id="mask0" maskUnits="userSpaceOnUse" x="3" y="14" width="69" height="69"><circle cx="37.67" cy="48.517" r="34.235" fill="#FFD15A"/></mask><g mask="url(#mask0)"><circle cx="37.67" cy="48.517" r="34.235" fill="#FFD15A"/><path d="M15.983 26.055c-2.246 7.108-3.223 18.405-3.332 27.976-.119 9.56-.238 16.31.478 17.027.705.716 4.276 1.812 7.054 1.237 1.052-.217 5.664-4.634 13.044-5.23L23.026 24.85l-7.043 1.204zm39.555-2.148c3.44 6.869 5.665 25.068 6.381 30.483.717 5.415.554 12.75.196 13.228-.358.478-5.036 2.496-6.218 2.616-1.183.119-8.812-4.026-15.8-3.657-5.687.293-4.939-4.287-4.939-4.287l20.38-38.383z" fill="#4D2F0E"/><path d="M25.87 90.537c6.738 1.118 8.898 2.04 11.72 2.04 2.81 0 3.96-.629 11.72-2.04 7.422-1.356 11.069.76 12.36 1.802l.412-.011.206-16.44-24.492-4.645-6.392 1.53-9.637 5.947-7.997 13.445c1.497-1.063 5.122-2.789 12.1-1.628z" fill="#F2BB99"/><path d="M45.728 61.291l-7.574 2.366-7.575-1.41c1.183 2.984.293 8.941-3.483 10.97h22.116c-3.777-2.029-4.677-8.952-3.484-11.925z" fill="url(#paint0_linear)"/><path d="M99.033 112.1c-.684-2.876-9.995-12.599-14.791-19.164-4.797-6.577-13.554-16.571-20.673-19.99-7.119-3.418-11.959 1.682-15.377-.499-.89-.575-1.617-1.15-2.182-1.877-.01 0-.021 0-.032.01-1.509.457-2.984 1.064-4.525 1.433l2.951 9.626 17.678 10.71 14.119 13.186s-1.889-.055-5.003-.109c-2.323-.043-9.93-.651-14.531-1.215v7.498c3.256 1.216 6.49 2.442 8.67 3.202 6.555 2.3 22.866 7.629 27.792 6.945 4.938-.684 6.588-6.88 5.904-9.756zM35.636 69.995c-.011.021-.011.042-.022.064.01-.022.022-.043.022-.064zm-.054.185c-.011.02-.011.042-.022.075 0-.022.01-.043.022-.076zm-.055.227c0 .022-.01.043-.01.076.01-.022.01-.054.01-.076z" fill="#F2BB99"/><path opacity=".3" d="M34.312 71.416c.109-.64.326-.846.673-.76.01 0 .022.011.032.011.185-1.063-.195-1.432-.466-1.519-.315-.108-.543.076-.706.673-.151.597-.412 1.65-.184 1.834.195.163.401.217.586.174.022-.152.043-.293.065-.413z" fill="#F2BB99"/><path d="M25.956 107.412c-.684-1.432-1.052-3.907-1.454-5.448-.5.25-2.702 1.01-3.494 1.237-2.149.63-13.337 2.171-16.463 2.236-3.114.054-5.002.109-5.002.109L13.66 92.339l17.678-10.711 1.27-10.472c-.51-.076.824.173.325.065a36.35 36.35 0 01-3.071-.792c-.467 1.041-1.205 1.812-2.3 2.517-3.42 2.192-8.26-3.418-15.378 0C5.066 76.365-3.702 86.37-8.488 92.936c-4.796 6.576-14.107 16.288-14.791 19.164-.684 2.876.955 9.072 5.893 9.756 4.926.684 21.237-4.656 27.791-6.945 4.005-1.4 12.643-4.894 17.352-6.479-.26-.51-1.551-.51-1.8-1.02zm27.868-64.84c.304-1.552.998-2.529 2.007-2.431 1.01.108 2.051 2.54 1.541 4.352-.51 1.812-1.324 2.094-1.041 3.331.282 1.226-1.639 3.549-2.334 1.65-.705-1.9-.173-6.902-.173-6.902z" fill="#F2BB99"/><path opacity=".5" d="M53.824 42.572c.304-1.552.998-2.529 2.007-2.431 1.01.108 2.051 2.54 1.541 4.352-.51 1.812-1.324 2.094-1.041 3.331.282 1.226-1.639 3.549-2.334 1.65-.705-1.9-.173-6.902-.173-6.902z" fill="#E8A680"/><path d="M55.831 40.141c-.868-.087-1.497.619-1.855 1.812l.596 3.267c-.152-1.4.5-5.882 2.616-3.484-.315-.879-.836-1.54-1.357-1.595zM21.41 43.603c-.305-1.552-1-2.529-2.008-2.431-1.01.109-2.051 2.54-1.541 4.352.51 1.812 1.324 2.094 1.041 3.331-.282 1.226 1.64 3.549 2.334 1.65.705-1.889.173-6.902.173-6.902z" fill="#F2BB99"/><path opacity=".5" d="M21.41 43.603c-.305-1.552-1-2.529-2.008-2.431-1.01.109-2.051 2.54-1.541 4.352.51 1.812 1.324 2.094 1.041 3.331-.282 1.226 1.64 3.549 2.334 1.65.705-1.889.173-6.902.173-6.902z" fill="#E8A680"/><path d="M19.401 41.183c.869-.087 1.498.618 1.856 1.812l-.597 3.267c.152-1.411-.499-5.882-2.615-3.484.315-.89.846-1.54 1.356-1.595z" fill="#F2BB99"/><path d="M38.37 67.01c2.714.109 8.26-4.872 10.842-7.585 2.583-2.713 5.154-6.511 5.426-12.22.054-1.204-.413-4.535-.413-6 0-5.48.087-10.288-.76-14.358-1.084-5.154-8.55-11.535-16.56-10.993-8.008.543-18.003 5.568-17.167 17.353.369 5.122.857 7.227.857 9.994 0 3.646-.151 6.479.684 9.376.781 2.702 2.832 5.6 5.567 8.15 3.581 3.343 7.672 6.131 11.525 6.283z" fill="#F2BB99"/><path d="M21.16 59.403c0-5.567-1.216-22.583-.597-26.913l-3.647-6.587-.933.163c-2.246 7.108-3.43 17.667-3.83 27.976-.38 9.55-.728 16.31-.022 17.027.38.38 2.767 1.769 6.088 1.758 1.866 0 3.385-.933 3.385-.933.445-.706-.444-7.336-.444-12.49zm42.42 5.914c-.109-3.744-.402-9.56-.619-11.741-.434-4.298-1.118-10.082-1.79-14.347-.966-6.163-1.715-11.134-4.374-16.798-2.832-6.067-1.617 1.78-1.866 2.257l-2.04-1.02c-.044.076 1.975 1.183 1.964 1.27l-.792 10.884c-.109 5.165-.022 16.17.076 22.387.054 3.278-.218 11.547.227 12.285.228.39 3.94.065 4.688-.011 1.867-.185 3.517-.76 4.168-1.096a.636.636 0 00.358-.564c.01-.76.021-2.496 0-3.506z" fill="#593515"/><path d="M35.028 52.274s0 .032-.01.097c-.011.065 0 .163 0 .272.01.108.032.25.108.38a.82.82 0 00.347.314c.163.076.358.109.565.087.054 0 .097-.01.152-.022.097-.01.119-.022.206-.01.195.01.314.075.456.14.25.142.455.315.65.435.207.119.37.14.543.065.239-.098.434-.228.662-.38a2.33 2.33 0 01.792-.337 3.1 3.1 0 01.76-.032c.13 0 .195-.011.282-.033a.53.53 0 00.206-.108c.109-.098.152-.272.152-.423a1 1 0 00-.076-.391.8.8 0 00-.184-.315s.021.022.076.065c.043.044.12.109.184.217.065.109.13.24.174.424.032.173.043.412-.12.618-.151.206-.455.315-.683.326-.26.021-.467.032-.695.087-.228.054-.412.162-.63.303a5.138 5.138 0 01-.726.434 1.097 1.097 0 01-.532.076 1.434 1.434 0 01-.456-.184c-.25-.163-.434-.347-.63-.467-.086-.054-.194-.108-.249-.108-.021-.011-.13-.011-.152-.011-.065 0-.13.01-.195 0a1.39 1.39 0 01-.705-.217.907.907 0 01-.38-.489 1.14 1.14 0 01-.033-.455c.076-.239.152-.347.141-.358zM22.44 42.387s.022-.043.076-.13c.054-.087.13-.217.228-.369.195-.315.499-.749.9-1.237.207-.239.435-.5.695-.76.26-.26.553-.51.868-.748.163-.12.337-.228.51-.337.185-.098.37-.195.565-.282.39-.163.813-.293 1.237-.326l.325-.021c.054 0 .098-.011.174 0l.152.021c.206.022.401.033.618.098l.315.087.282.12c.195.064.358.184.532.281.336.207.618.467.879.717.239.26.456.531.63.781a7.925 7.925 0 01.922 1.845s-.076-.196-.228-.521a8.618 8.618 0 00-.781-1.259 6.688 6.688 0 00-.662-.727 4.947 4.947 0 00-.88-.64c-.162-.087-.325-.185-.51-.239l-.27-.098-.283-.054c-.174-.054-.38-.054-.586-.065l-.152-.01c-.022 0-.087.01-.13.01l-.293.032c-.39.055-.76.196-1.107.359-.174.086-.336.195-.5.293-.151.108-.303.227-.455.336a7.222 7.222 0 00-.77.749 10.802 10.802 0 00-1.389 1.964 2.88 2.88 0 00-.185.358l-.065.13-.662-.358zm29.604.163s-.076-.173-.239-.466a9.945 9.945 0 00-.77-1.194c-.347-.467-.803-.998-1.378-1.443-.564-.456-1.27-.814-2.04-.912a3.361 3.361 0 00-1.15.054 3.666 3.666 0 00-1.053.413c-.64.369-1.129.89-1.498 1.367a7.404 7.404 0 00-.998 1.758s.054-.195.195-.52a7.27 7.27 0 01.705-1.292c.348-.5.814-1.064 1.476-1.498a3.76 3.76 0 011.096-.499c.196-.054.413-.087.63-.12.195-.021.423-.021.63-.01.857.054 1.66.423 2.31.879a8.206 8.206 0 011.563 1.465c.402.477.695.911.89 1.226.196.304.293.5.293.5l-.662.292z" fill="#E8A680"/><path d="M42.516 44.916s.044-.022.13-.054c.076-.044.206-.055.38-.098.174-.022.38-.043.608-.043a9.23 9.23 0 01.781 0c.575.01 1.237.032 1.943.021.347-.01.705-.01 1.063-.043a4.32 4.32 0 00.532-.065 2.66 2.66 0 00.51-.109c.336-.087.64-.239.89-.39.325-.218.564-.391.857-.597.543-.402 1.075-.814 1.574-1.129a6.95 6.95 0 01.705-.401c.228-.098.434-.163.597-.217.174-.044.304-.055.401-.066.087 0 .142-.01.142-.01s-.044.021-.12.076c-.087.043-.195.119-.325.206-.272.184-.608.499-.988.911-.38.413-.803.934-1.378 1.411-.271.228-.63.5-.944.662a4.09 4.09 0 01-1.227.412 4.05 4.05 0 01-.607.076c-.206.022-.402.022-.597.022-.39 0-.77-.022-1.129-.065-.727-.087-1.378-.228-1.942-.326a12.88 12.88 0 00-1.357-.227c-.163 0-.293-.022-.38 0-.075.043-.119.043-.119.043zm-10.103 0s-.043-.01-.141-.022c-.087-.021-.217-.01-.38 0a13.71 13.71 0 00-1.357.228c-.564.098-1.215.239-1.942.326a9.428 9.428 0 01-1.129.065c-.195 0-.39 0-.596-.022a6.198 6.198 0 01-.608-.076 3.81 3.81 0 01-1.226-.412 6.409 6.409 0 01-.944-.662c-.576-.478-.999-.999-1.379-1.411a6.381 6.381 0 00-.987-.911 1.53 1.53 0 00-.326-.207 1.25 1.25 0 01-.12-.076s.044 0 .142.011c.098 0 .228.022.401.065.174.044.37.109.597.217.217.109.467.24.716.402.5.315 1.031.727 1.574 1.129.293.206.532.38.857.596.25.152.554.304.89.391.163.043.337.087.521.109.174.032.347.043.532.065.358.032.716.032 1.063.043.695.01 1.368-.01 1.943-.022h.792c.239 0 .445.022.608.044.173.032.303.054.38.097l.119.033z" fill="#4D2F0E"/><path d="M39.9 43.407s-.02.109-.075.294a8.87 8.87 0 00-.13.78 21.72 21.72 0 00-.12 1.108c-.032.412-.065.846-.087 1.28-.032.434-.043.868-.054 1.28-.01.413-.01.793-.01 1.118a14.258 14.258 0 00.043 1.096s-.033-.108-.076-.292a5.147 5.147 0 01-.065-.348 2.564 2.564 0 01-.065-.445 13.27 13.27 0 01-.066-2.42c.022-.445.066-.879.13-1.291a8.9 8.9 0 01.218-1.118c.076-.325.173-.586.239-.77.075-.174.119-.272.119-.272z" fill="#E8A680"/><path d="M45.934 20.944c-2.018 6.164-23.342 6.012-27.01 16.213 0 0-4.84-5.296-2.94-11.102 1.898-5.805 5.696-10.092 12.61-12.816 6.912-2.724 13.89-1.421 15.854 0 1.964 1.433 1.486 7.705 1.486 7.705z" fill="#593515"/><path d="M45.164 22.235c-.054 2.019 4.818 9.018 8.898 11.438 0 0 6.1.716 4.851-4.102-.347-1.335-1.063-5.165-3.07-8.812-3.115-5.643-9.355-8.301-10.19-5.165-1.02 3.809-.49 6.641-.49 6.641z" fill="#593515"/><path d="M33.628 34.987c.163.065.543.13.608.575.098.748.044 1.573-.542 1.454-.5-.109-5.253-1.41-7.01-.912-1.965.554-5.394 2.181-5.394 2.181s3.006-3.19 5.795-3.874c2.365-.586 5.556.174 6.543.576zm7.825 0c-.163.065-.543.13-.608.575-.098.748-.043 1.573.543 1.454.499-.109 5.252-1.41 7.01-.912 1.964.554 5.393 2.181 5.393 2.181s-3.006-3.19-5.795-3.874c-2.355-.586-5.556.174-6.543.576z" fill="#4D2F0E"/><path d="M59.727 56.213s-.043-.25-.14-.684c-.088-.434-.218-1.052-.337-1.79a57.182 57.182 0 01-.39-2.55c-.055-.467-.13-.945-.185-1.444l-.163-1.487-.13-1.486c-.044-.489-.065-.977-.098-1.444a62.854 62.854 0 01-.108-2.572c-.033-1.508.032-2.528.032-2.528s.272.977.532 2.463c.141.738.282 1.606.412 2.54.054.466.13.944.185 1.443l.163 1.487.13 1.497c.043.489.065.977.097 1.444.055.944.087 1.823.087 2.572.011.76-.01 1.389-.032 1.834a9.582 9.582 0 01-.055.705zm-.9 11.275s-.044-.326-.152-.879a85.883 85.883 0 01-.37-2.3c-.14-.956-.292-2.062-.433-3.256-.065-.597-.141-1.215-.206-1.845-.066-.63-.12-1.27-.185-1.899-.054-.64-.098-1.28-.152-1.91-.054-.63-.087-1.248-.12-1.856a81.792 81.792 0 01-.14-3.288c-.055-1.931-.011-3.223-.011-3.223s.282 1.259.575 3.158c.152.955.304 2.062.445 3.256.065.597.152 1.215.206 1.845.065.629.12 1.27.185 1.91.054.64.097 1.28.152 1.91.054.629.076 1.247.119 1.855.065 1.205.108 2.322.13 3.288.022.966.011 1.77 0 2.344-.01.575-.043.89-.043.89zM15.755 49.55s.022.282.076.77c.044.489.109 1.194.163 2.03.055.835.109 1.823.141 2.875.011.521.044 1.064.044 1.617.01.554.01 1.107.021 1.672 0 .564-.01 1.117-.01 1.67 0 .554-.022 1.097-.044 1.618a64.744 64.744 0 01-.14 2.875c-.11 1.682-.272 2.811-.272 2.811s-.174-1.118-.293-2.8a81.251 81.251 0 01-.163-2.876c-.01-.531-.043-1.074-.043-1.616-.011-.554-.011-1.118-.022-1.672 0-.564.01-1.117.01-1.67 0-.554.033-1.097.044-1.629.033-1.052.087-2.04.163-2.875.065-.847.141-1.541.206-2.04.054-.489.12-.76.12-.76zm1.791-7.477s.022.282.076.77c.043.489.108 1.194.163 2.03.054.835.108 1.823.14 2.875.012.521.044 1.064.044 1.617.011.554.011 1.118.022 1.671 0 .565-.011 1.118-.011 1.672 0 .553-.022 1.096-.033 1.617a64.598 64.598 0 01-.14 2.875c-.11 1.682-.272 2.811-.272 2.811s-.174-1.118-.293-2.8a81.006 81.006 0 01-.163-2.876c-.01-.52-.043-1.063-.043-1.617-.011-.553-.011-1.117-.022-1.67 0-.565.011-1.13.011-1.672 0-.553.033-1.096.043-1.628a49.6 49.6 0 01.163-2.875c.065-.847.141-1.541.206-2.04.055-.489.109-.76.109-.76zm25.763-22.898s-.033.098-.087.272a4.338 4.338 0 01-.358.738c-.358.607-1.042 1.4-1.997 2.137-.955.76-2.17 1.476-3.516 2.117-1.346.64-2.822 1.204-4.32 1.692a43.92 43.92 0 01-2.245.662c-.359.098-.717.196-1.064.293-.184.055-.358.098-.543.152-.162.055-.314.109-.477.163-.163.054-.315.109-.467.163a8.05 8.05 0 01-.455.184c-.152.065-.304.12-.456.185-.141.076-.282.14-.424.206a11.35 11.35 0 00-1.53.89c-.434.325-.835.64-1.15.966-.325.314-.575.63-.77.89-.185.27-.337.499-.413.662-.087.162-.12.25-.12.25s-.02-.402.185-1.086c.109-.336.26-.749.521-1.172.12-.228.282-.434.434-.673.174-.228.359-.456.576-.684a9.562 9.562 0 011.508-1.313c.152-.097.293-.206.445-.304.152-.086.315-.184.477-.27.163-.099.326-.185.489-.272.173-.076.358-.163.531-.25.185-.087.359-.163.543-.25.174-.064.347-.13.52-.195.174-.065.359-.13.533-.195.184-.065.38-.12.575-.184.716-.228 1.454-.467 2.181-.706 2.92-.933 5.795-1.899 7.824-2.886 1.01-.5 1.802-1.01 2.312-1.444.25-.217.445-.401.564-.542.108-.12.174-.196.174-.196z" fill="#6E431E"/><path d="M43.157 19.143s-.022.065-.055.206c-.054.13-.13.314-.282.532-.152.216-.38.434-.65.672-.283.217-.63.445-1.032.64a8.426 8.426 0 01-.63.283 6.577 6.577 0 01-.694.26 14.48 14.48 0 01-.738.239c-.25.076-.52.152-.781.206-.532.13-1.096.239-1.66.336-.575.087-1.15.174-1.737.24-.575.064-1.16.13-1.725.195-.564.086-1.107.162-1.639.282-.271.054-.52.108-.77.184-.25.065-.5.12-.727.206a11.27 11.27 0 00-1.303.489c-.195.087-.38.173-.553.271-.174.087-.336.184-.488.271-.304.185-.543.38-.727.543-.38.336-.532.586-.532.586s.12-.271.466-.651c.185-.185.402-.402.695-.619.282-.228.63-.445 1.02-.65a12.452 12.452 0 012.832-1.053c.532-.142 1.107-.24 1.672-.337.564-.065 1.15-.141 1.725-.217.575-.054 1.15-.141 1.715-.217.564-.098 1.117-.174 1.65-.293.27-.043.52-.108.78-.174.26-.054.5-.119.738-.195.24-.065.467-.141.684-.217.217-.076.423-.152.63-.239.792-.325 1.4-.738 1.725-1.117a2.65 2.65 0 00.336-.478.751.751 0 01.055-.184zm3.233 2.247s.011.053.022.14c.01.087.033.228.087.38.043.152.13.337.206.553.098.207.206.445.337.695.13.25.282.51.455.792.152.282.358.554.543.858.401.575.835 1.182 1.313 1.768.228.293.477.575.716.858.26.271.478.553.727.814.25.25.467.52.706.737.238.218.444.456.65.652.207.195.402.38.565.542.174.163.326.293.456.413.25.228.39.369.39.369l-.499-.207a9.81 9.81 0 01-1.259-.662 7.858 7.858 0 01-.78-.542c-.283-.195-.544-.434-.826-.673-.282-.239-.553-.51-.824-.792-.26-.293-.532-.575-.77-.89-.24-.315-.49-.63-.695-.955-.228-.315-.402-.662-.586-.977a8.573 8.573 0 01-.456-.966 5.697 5.697 0 01-.315-.911 4.87 4.87 0 01-.173-.803 3.448 3.448 0 01-.044-.64c-.01-.185.033-.304.054-.402-.01-.098 0-.152 0-.152zm-4.243-6.132l-.347-.098c-.228-.076-.553-.13-.966-.195a11.7 11.7 0 00-1.52-.109c-.585-.01-1.247.033-1.963.087-.716.076-1.487.195-2.3.358-.804.174-1.65.38-2.508.64a26.06 26.06 0 00-2.604.934c-.88.347-1.736.76-2.572 1.215-.847.434-1.65.955-2.43 1.476-.75.553-1.51 1.085-2.171 1.693a26.535 26.535 0 00-1.845 1.801c-.271.304-.521.619-.781.912-.24.304-.467.608-.684.89a26.54 26.54 0 00-1.085 1.66c-.315.5-.532.977-.75 1.346-.368.77-.585 1.215-.585 1.215s.032-.12.076-.347c.054-.228.12-.564.239-.977.14-.412.27-.933.51-1.486.119-.283.227-.587.38-.901.151-.304.314-.63.488-.966.195-.326.39-.662.597-1.01.227-.336.466-.683.727-1.03.531-.684 1.117-1.4 1.812-2.051a18.968 18.968 0 012.225-1.9 25.56 25.56 0 012.56-1.616c.901-.467 1.813-.9 2.746-1.248.923-.37 1.867-.63 2.79-.857.91-.24 1.822-.37 2.68-.478.857-.098 1.682-.13 2.441-.108.76.021 1.444.086 2.051.195.608.087 1.118.25 1.541.39.206.066.39.152.543.218.163.065.282.13.38.184l.325.163zm3.516 1.497s.228.076.63.228c.195.087.434.152.705.304.271.13.575.293.9.478.316.195.663.412 1.01.672.337.272.716.532 1.074.869.358.325.727.662 1.064 1.052.358.37.673.792 1.01 1.205.303.434.629.857.889 1.324.282.445.52.911.76 1.367.217.467.423.912.586 1.356.184.435.314.869.445 1.26.25.791.38 1.475.466 1.953.076.477.098.76.098.76s-.13-.24-.337-.652a39.713 39.713 0 01-.38-.738c-.151-.282-.314-.597-.499-.944a72.03 72.03 0 00-.607-1.085c-.206-.39-.467-.77-.706-1.183-.26-.401-.52-.814-.792-1.215-.271-.413-.575-.814-.857-1.216-.304-.39-.597-.792-.912-1.16-.304-.38-.63-.728-.933-1.086-.304-.347-.619-.662-.912-.977a31.11 31.11 0 01-.846-.846c-.271-.239-.52-.478-.738-.695-.217-.217-.423-.38-.586-.531-.347-.315-.532-.5-.532-.5z" fill="#6E431E"/><path d="M48.778 16.473s.163.109.434.315c.141.098.293.228.477.39a5.2 5.2 0 01.586.543c.217.206.424.434.651.684.228.25.445.531.673.814.207.303.445.596.652.933.217.325.412.662.607.998.185.348.37.695.532 1.042.173.347.315.695.456 1.031.271.673.477 1.335.64 1.888.163.565.25 1.042.326 1.378.065.337.086.532.086.532s-.076-.184-.184-.499c-.109-.325-.282-.77-.489-1.313-.206-.543-.477-1.15-.77-1.812-.141-.326-.315-.662-.477-.999a22.594 22.594 0 00-.532-1.009 28.783 28.783 0 00-1.172-1.91c-.217-.282-.402-.586-.597-.846-.195-.26-.39-.51-.575-.727a16.25 16.25 0 00-.923-1.042 7.709 7.709 0 01-.401-.39zm-15.356 3.05s-.358.086-.976.227c-.315.066-.684.163-1.118.272a24.16 24.16 0 00-1.432.38c-.521.14-1.086.325-1.672.51a9.666 9.666 0 00-.89.314c-.303.109-.607.228-.922.348-.608.27-1.259.531-1.866.868-.64.293-1.227.683-1.834 1.041-.575.413-1.172.793-1.671 1.27-.543.434-.988.944-1.455 1.422-.39.531-.824.998-1.117 1.53-.152.26-.326.499-.456.76-.12.26-.239.51-.358.748-.25.478-.37.955-.521 1.368-.065.206-.141.401-.196.586-.043.184-.075.358-.119.51l-.239.976s.011-.358.044-1.009l.032-.532c.011-.195.065-.401.109-.618.098-.445.152-.955.358-1.476.087-.26.184-.543.282-.825.109-.282.271-.553.412-.846.26-.597.684-1.14 1.086-1.726.466-.52.911-1.117 1.497-1.573.532-.521 1.161-.934 1.77-1.378.65-.38 1.28-.771 1.952-1.075.651-.347 1.346-.564 1.986-.825.662-.206 1.302-.423 1.921-.553.315-.076.608-.141.9-.206.294-.065.576-.098.847-.152.272-.044.532-.098.782-.13.25-.022.488-.055.716-.076a9.934 9.934 0 011.15-.087c.64-.033.998-.043.998-.043z" fill="#6E431E"/><path d="M20.183 33.727c-.38-.303-.575-.054-.955-.358-.38-.303-.174-.553-.553-.857-.38-.304-.576-.054-.955-.358l-.543-.434-.651-.532-.065-.054a.099.099 0 00-.13.01l-.13.164a.099.099 0 00.01.13l.065.054.651.532.543.434c.38.304.575.054.955.358s.174.553.553.857c.38.304.576.054.955.358.37.293.185.543.532.836 0 0 0 .01.011.022l.228.184c.065.109.5.782.814.402.314-.391-.445-.662-.565-.706l-.227-.184h-.022v-.011c-.358-.25-.152-.553-.521-.846z" fill="#47ACD1"/><path opacity=".5" d="M21.583 35.344c-.315.39-.749-.293-.814-.401l-.228-.185s0-.01-.01-.022c-.348-.293-.164-.542-.533-.835-.38-.304-.575-.055-.955-.358-.38-.304-.173-.554-.553-.858-.38-.304-.575-.054-.955-.358l-.543-.434-.65-.532-.066-.054c-.01-.01-.021-.032-.032-.043l-.033.043a.099.099 0 00.01.13l.066.055.651.531.543.434c.38.304.575.055.955.358.38.304.173.554.553.858.38.304.575.054.955.358.37.293.185.543.532.836 0 0 0 .01.01.021l.229.185c.065.108.499.781.814.401a.397.397 0 00.076-.152c-.011 0-.011.011-.022.022z" fill="#47ACD1"/><path d="M19.933 34.987c-.347-.337-.564-.109-.911-.445-.347-.337-.12-.565-.467-.901-.347-.336-.564-.108-.911-.445l-.5-.488-.596-.586-.065-.065c-.033-.033-.098-.033-.13 0l-.142.152a.099.099 0 000 .13l.065.065.597.586.5.488c.347.337.564.109.91.445.348.337.12.564.467.9.348.337.565.11.912.446.337.336.13.553.456.89 0 .01 0 .01.01.021l.207.207c.054.119.423.824.77.477.348-.358-.369-.705-.499-.76l-.206-.206s-.01 0-.022-.01h.011c-.347-.294-.12-.576-.456-.901z" fill="#47ACD1"/><path opacity=".5" d="M21.181 36.733c-.347.358-.716-.358-.77-.477l-.206-.206s0-.011-.011-.022c-.326-.326-.12-.554-.456-.89-.347-.336-.564-.108-.912-.445-.347-.336-.119-.564-.466-.9-.347-.337-.564-.11-.912-.446l-.499-.488-.608-.586-.065-.054a.082.082 0 01-.021-.054l-.044.043a.099.099 0 000 .13l.065.065.597.586.5.489c.347.336.564.108.91.445.348.336.12.564.467.9.348.337.565.109.912.445.337.337.13.554.456.89 0 .01 0 .01.01.022l.207.206c.054.12.423.825.77.477a.363.363 0 00.087-.151s-.01.01-.01.021z" fill="#47ACD1"/><path d="M54.507 32.794c.38-.303.576-.054.955-.358.38-.304.174-.553.554-.857.38-.304.575-.054.955-.358l.542-.434.651-.532.066-.054a.099.099 0 01.13.01l.13.163a.099.099 0 01-.01.13l-.066.055-.651.532-.543.434c-.38.304-.575.054-.955.358s-.173.553-.553.857c-.38.304-.575.054-.955.358-.369.293-.184.543-.543.836 0 0 0 .01-.01.022l-.228.184c-.066.109-.5.781-.814.402-.315-.391.445-.662.564-.706l.228-.184h.022v-.011c.358-.25.162-.543.531-.847z" fill="#47ACD1"/><path opacity=".5" d="M53.108 34.41c.314.392.748-.292.814-.4l.227-.185s0-.011.011-.022c.348-.293.163-.542.543-.835.38-.304.575-.055.955-.359.38-.303.173-.553.553-.857.38-.304.575-.054.955-.358l.543-.434.651-.532.065-.054c.01-.01.022-.033.033-.043l.032.043a.099.099 0 01-.01.13l-.066.054-.65.532-.544.434c-.38.304-.575.054-.954.358-.38.304-.174.554-.554.858-.38.303-.575.054-.955.358-.369.293-.184.542-.542.835 0 0 0 .011-.011.022l-.228.185c-.065.108-.5.78-.814.401a.397.397 0 01-.076-.152c.01.011.01.022.022.022z" fill="#47ACD1"/><path d="M54.747 34.064c.347-.337.564-.109.911-.445.348-.337.12-.564.467-.9.347-.337.564-.11.911-.446l.5-.488.607-.597.066-.054a.099.099 0 01.13 0l.14.152a.099.099 0 010 .13l-.064.054-.597.586-.5.489c-.347.336-.564.108-.91.444-.348.337-.12.565-.468.901-.347.337-.564.109-.911.445-.337.337-.13.554-.456.89 0 0 0 .01-.01.022l-.207.206c-.054.12-.423.835-.77.477-.348-.358.369-.705.488-.76l.206-.206s.011 0 .022-.01c.336-.293.108-.565.445-.89z" fill="#47ACD1"/><path opacity=".5" d="M53.51 35.8c.346.358.715-.359.77-.478l.206-.206s0-.011.01-.022c.326-.325.12-.553.457-.89.347-.336.564-.108.911-.445.347-.336.12-.564.467-.9.347-.337.564-.109.911-.445l.5-.489.596-.586.066-.065a.083.083 0 00.021-.054l.044.043c.032.033.032.098 0 .13l-.066.055-.596.586-.5.488c-.347.337-.564.109-.911.445-.347.337-.12.564-.467.9-.347.337-.564.11-.911.446-.337.336-.13.553-.456.89 0 0 0 .01-.011.021l-.206.207c-.054.119-.423.835-.77.477a.366.366 0 01-.088-.152c.011.033.022.033.022.044z" fill="#47ACD1"/><path d="M32.174 59.284c.76-1.161 3.7-2.854 4.992-2.605 1.291.25 1.183.098 2.16.066.976-.033 3.125 1.324 4.22 2.528 0 0-1.269.9-2.495 1.28-1.433.435-2.496.12-3.332.098-.672-.021-1.964.272-3.136-.195a21.258 21.258 0 01-2.409-1.172z" fill="#E49084"/><path d="M31.49 59.566s.055-.01.152-.032c.098-.033.228-.076.402-.142.336-.13.814-.293 1.41-.466.294-.087.63-.174.977-.239.358-.076.738-.13 1.129-.184.39-.055.814-.076 1.226-.087.423-.011.847 0 1.28.022 1.726.075 3.44.314 4.624.672.293.087.564.174.792.272.228.086.423.173.575.25.152.075.271.13.358.173.076.043.12.065.12.065l-.109-.076c-.065-.054-.174-.12-.315-.206a7.407 7.407 0 00-1.313-.619 11.707 11.707 0 00-.977-.304 10.647 10.647 0 00-1.15-.25 21.402 21.402 0 00-2.583-.27c-.434-.022-.9-.033-1.334-.011-.445.01-.88.054-1.292.119a11.02 11.02 0 00-2.138.52c-.585.207-1.03.424-1.345.576-.152.076-.271.13-.358.174-.087.032-.13.043-.13.043z" fill="#D97F73"/><path d="M30.546 30.743s.89.066 2.214.174c1.324.087 3.093.174 4.851.184.879 0 1.758-.021 2.583-.075a35.06 35.06 0 002.246-.207c.651-.108 1.205-.173 1.574-.27l.596-.12s-.206.076-.575.217c-.369.14-.9.304-1.551.466-.652.13-1.433.293-2.258.38-.835.098-1.725.13-2.626.141-.89-.01-1.79-.043-2.626-.12-.836-.064-1.606-.194-2.268-.292a22.251 22.251 0 01-2.16-.478zm1.986-.879s2.583.12 5.155.12c1.291.01 2.572-.044 3.538-.109.966-.065 1.606-.152 1.606-.152s-.163.033-.434.098-.673.141-1.161.206c-.966.13-2.258.217-3.56.217-1.291-.01-2.593-.076-3.548-.184-.955-.087-1.596-.195-1.596-.195zM24.34 48.43s2.51-.617 4.976-1.347a48.345 48.345 0 003.362-1.107c.908-.336 1.497-.601 1.497-.601s-.147.077-.389.217c-.241.139-.605.326-1.055.527a28.06 28.06 0 01-3.352 1.217c-1.241.356-2.508.663-3.455.83-.94.187-1.585.265-1.585.265zm26.805 0s-2.51-.617-4.977-1.347a48.363 48.363 0 01-3.362-1.107 26.496 26.496 0 01-1.497-.601s.147.077.389.217c.242.139.605.326 1.055.527.89.398 2.103.848 3.352 1.217 1.241.356 2.508.663 3.455.83.94.187 1.585.265 1.585.265z" fill="#C18662"/></g><mask id="mask1" maskUnits="userSpaceOnUse" x="0" y="0" width="75" height="80"><ellipse cx="37.67" cy="40.09" rx="36.869" ry="39.502" fill="#FFD15A"/></mask><g mask="url(#mask1)"><path d="M15.983 26.055c-2.246 7.108-3.223 18.405-3.332 27.976-.119 9.56-.238 16.31.478 17.027.705.716 4.276 1.812 7.054 1.237 1.052-.217 5.664-4.634 13.044-5.23L23.026 24.85l-7.043 1.204zm39.555-2.148c3.44 6.869 5.665 25.068 6.381 30.483.717 5.415.554 12.75.196 13.228-.358.478-5.036 2.496-6.218 2.616-1.183.119-8.812-4.026-15.8-3.657-5.687.293-4.939-4.287-4.939-4.287l20.38-38.383z" fill="#4D2F0E"/><path d="M25.87 90.537c6.738 1.118 8.898 2.04 11.72 2.04 2.81 0 3.96-.629 11.72-2.04 7.422-1.356 11.069.76 12.36 1.802l.412-.011.206-16.44-24.492-4.645-6.392 1.53-9.637 5.947-7.997 13.445c1.497-1.063 5.122-2.789 12.1-1.628z" fill="#F2BB99"/><path d="M45.728 61.291l-7.574 2.366-7.575-1.41c1.183 2.984.293 8.941-3.483 10.97h22.116c-3.777-2.029-4.677-8.952-3.484-11.925z" fill="url(#paint1_linear)"/><path d="M99.033 112.1c-.684-2.876-9.995-12.599-14.791-19.164-4.797-6.577-13.554-16.571-20.673-19.99-7.119-3.418-11.959 1.682-15.377-.499-.89-.575-1.617-1.15-2.182-1.877-.01 0-.021 0-.032.01-1.509.457-2.984 1.064-4.525 1.433l2.951 9.626 17.678 10.71 14.119 13.186s-1.889-.055-5.003-.109c-2.323-.043-9.93-.651-14.531-1.215v7.498c3.256 1.216 6.49 2.442 8.67 3.202 6.555 2.3 22.866 7.629 27.792 6.945 4.938-.684 6.588-6.88 5.904-9.756zM35.636 69.995c-.011.021-.011.042-.022.064.01-.022.022-.043.022-.064zm-.054.185c-.011.02-.011.042-.022.075 0-.022.01-.043.022-.076zm-.055.227c0 .022-.01.043-.01.076.01-.022.01-.054.01-.076z" fill="#F2BB99"/><path opacity=".3" d="M34.312 71.416c.109-.64.326-.846.673-.76.01 0 .022.011.032.011.185-1.063-.195-1.432-.466-1.519-.315-.108-.543.076-.706.673-.151.597-.412 1.65-.184 1.834.195.163.401.217.586.174.022-.152.043-.293.065-.413z" fill="#F2BB99"/><path d="M25.956 107.412c-.684-1.432-1.052-3.907-1.454-5.448-.5.25-2.702 1.01-3.494 1.237-2.149.63-13.337 2.171-16.463 2.236-3.114.054-5.002.109-5.002.109L13.66 92.339l17.678-10.711 1.27-10.472c-.51-.076.824.173.325.065a36.35 36.35 0 01-3.071-.792c-.467 1.041-1.205 1.812-2.3 2.517-3.42 2.192-8.26-3.418-15.378 0C5.066 76.365-3.702 86.37-8.488 92.936c-4.796 6.576-14.107 16.288-14.791 19.164-.684 2.876.955 9.072 5.893 9.756 4.926.684 21.237-4.656 27.791-6.945 4.005-1.4 12.643-4.894 17.352-6.479-.26-.51-1.551-.51-1.8-1.02zm27.868-64.84c.304-1.552.998-2.529 2.007-2.431 1.01.108 2.051 2.54 1.541 4.352-.51 1.812-1.324 2.094-1.041 3.331.282 1.226-1.639 3.549-2.334 1.65-.705-1.9-.173-6.902-.173-6.902z" fill="#F2BB99"/><path opacity=".5" d="M53.824 42.572c.304-1.552.998-2.529 2.007-2.431 1.01.108 2.051 2.54 1.541 4.352-.51 1.812-1.324 2.094-1.041 3.331.282 1.226-1.639 3.549-2.334 1.65-.705-1.9-.173-6.902-.173-6.902z" fill="#E8A680"/><path d="M55.831 40.141c-.868-.087-1.497.619-1.855 1.812l.596 3.267c-.152-1.4.5-5.882 2.616-3.484-.315-.879-.836-1.54-1.357-1.595zM21.41 43.603c-.305-1.552-1-2.529-2.008-2.431-1.01.109-2.051 2.54-1.541 4.352.51 1.812 1.324 2.094 1.041 3.331-.282 1.226 1.64 3.549 2.334 1.65.705-1.889.173-6.902.173-6.902z" fill="#F2BB99"/><path opacity=".5" d="M21.41 43.603c-.305-1.552-1-2.529-2.008-2.431-1.01.109-2.051 2.54-1.541 4.352.51 1.812 1.324 2.094 1.041 3.331-.282 1.226 1.64 3.549 2.334 1.65.705-1.889.173-6.902.173-6.902z" fill="#E8A680"/><path d="M19.401 41.183c.869-.087 1.498.618 1.856 1.812l-.597 3.267c.152-1.411-.499-5.882-2.615-3.484.315-.89.846-1.54 1.356-1.595z" fill="#F2BB99"/><path d="M38.37 67.01c2.714.109 8.26-4.872 10.842-7.585 2.583-2.713 5.154-6.511 5.426-12.22.054-1.204-.413-4.535-.413-6 0-5.48.087-10.288-.76-14.358-1.084-5.154-8.55-11.535-16.56-10.993-8.008.543-18.003 5.568-17.167 17.353.369 5.122.857 7.227.857 9.994 0 3.646-.151 6.479.684 9.376.781 2.702 2.832 5.6 5.567 8.15 3.581 3.343 7.672 6.131 11.525 6.283z" fill="#F2BB99"/><path d="M21.16 59.403c0-5.567-1.216-22.583-.597-26.913l-3.647-6.587-.933.163c-2.246 7.108-3.43 17.667-3.83 27.976-.38 9.55-.728 16.31-.022 17.027.38.38 2.767 1.769 6.088 1.758 1.866 0 3.385-.933 3.385-.933.445-.706-.444-7.336-.444-12.49zm42.42 5.914c-.109-3.744-.402-9.56-.619-11.741-.434-4.298-1.118-10.082-1.79-14.347-.966-6.163-1.715-11.134-4.374-16.798-2.832-6.067-1.617 1.78-1.866 2.257l-2.04-1.02c-.044.076 1.975 1.183 1.964 1.27l-.792 10.884c-.109 5.165-.022 16.17.076 22.387.054 3.278-.218 11.547.227 12.285.228.39 3.94.065 4.688-.011 1.867-.185 3.517-.76 4.168-1.096a.636.636 0 00.358-.564c.01-.76.021-2.496 0-3.506z" fill="#593515"/><path d="M35.028 52.274s0 .032-.01.097c-.011.065 0 .163 0 .272.01.108.032.25.108.38a.82.82 0 00.347.314c.163.076.358.109.565.087.054 0 .097-.01.152-.022.097-.01.119-.022.206-.01.195.01.314.075.456.14.25.142.455.315.65.435.207.119.37.14.543.065.239-.098.434-.228.662-.38a2.33 2.33 0 01.792-.337 3.1 3.1 0 01.76-.032c.13 0 .195-.011.282-.033a.53.53 0 00.206-.108c.109-.098.152-.272.152-.423a1 1 0 00-.076-.391.8.8 0 00-.184-.315s.021.022.076.065c.043.044.12.109.184.217.065.109.13.24.174.424.032.173.043.412-.12.618-.151.206-.455.315-.683.326-.26.021-.467.032-.695.087-.228.054-.412.162-.63.303a5.138 5.138 0 01-.726.434 1.097 1.097 0 01-.532.076 1.434 1.434 0 01-.456-.184c-.25-.163-.434-.347-.63-.467-.086-.054-.194-.108-.249-.108-.021-.011-.13-.011-.152-.011-.065 0-.13.01-.195 0a1.39 1.39 0 01-.705-.217.907.907 0 01-.38-.489 1.14 1.14 0 01-.033-.455c.076-.239.152-.347.141-.358zM22.44 42.387s.022-.043.076-.13c.054-.087.13-.217.228-.369.195-.315.499-.749.9-1.237.207-.239.435-.5.695-.76.26-.26.553-.51.868-.748.163-.12.337-.228.51-.337.185-.098.37-.195.565-.282.39-.163.813-.293 1.237-.326l.325-.021c.054 0 .098-.011.174 0l.152.021c.206.022.401.033.618.098l.315.087.282.12c.195.064.358.184.532.281.336.207.618.467.879.717.239.26.456.531.63.781a7.925 7.925 0 01.922 1.845s-.076-.196-.228-.521a8.618 8.618 0 00-.781-1.259 6.688 6.688 0 00-.662-.727 4.947 4.947 0 00-.88-.64c-.162-.087-.325-.185-.51-.239l-.27-.098-.283-.054c-.174-.054-.38-.054-.586-.065l-.152-.01c-.022 0-.087.01-.13.01l-.293.032c-.39.055-.76.196-1.107.359-.174.086-.336.195-.5.293-.151.108-.303.227-.455.336a7.222 7.222 0 00-.77.749 10.802 10.802 0 00-1.389 1.964 2.88 2.88 0 00-.185.358l-.065.13-.662-.358zm29.604.163s-.076-.173-.239-.466a9.945 9.945 0 00-.77-1.194c-.347-.467-.803-.998-1.378-1.443-.564-.456-1.27-.814-2.04-.912a3.361 3.361 0 00-1.15.054 3.666 3.666 0 00-1.053.413c-.64.369-1.129.89-1.498 1.367a7.404 7.404 0 00-.998 1.758s.054-.195.195-.52a7.27 7.27 0 01.705-1.292c.348-.5.814-1.064 1.476-1.498a3.76 3.76 0 011.096-.499c.196-.054.413-.087.63-.12.195-.021.423-.021.63-.01.857.054 1.66.423 2.31.879a8.206 8.206 0 011.563 1.465c.402.477.695.911.89 1.226.196.304.293.5.293.5l-.662.292z" fill="#E8A680"/><path d="M42.516 44.916s.044-.022.13-.054c.076-.044.206-.055.38-.098.174-.022.38-.043.608-.043a9.23 9.23 0 01.781 0c.575.01 1.237.032 1.943.021.347-.01.705-.01 1.063-.043a4.32 4.32 0 00.532-.065 2.66 2.66 0 00.51-.109c.336-.087.64-.239.89-.39.325-.218.564-.391.857-.597.543-.402 1.075-.814 1.574-1.129a6.95 6.95 0 01.705-.401c.228-.098.434-.163.597-.217.174-.044.304-.055.401-.066.087 0 .142-.01.142-.01s-.044.021-.12.076c-.087.043-.195.119-.325.206-.272.184-.608.499-.988.911-.38.413-.803.934-1.378 1.411-.271.228-.63.5-.944.662a4.09 4.09 0 01-1.227.412 4.05 4.05 0 01-.607.076c-.206.022-.402.022-.597.022-.39 0-.77-.022-1.129-.065-.727-.087-1.378-.228-1.942-.326a12.88 12.88 0 00-1.357-.227c-.163 0-.293-.022-.38 0-.075.043-.119.043-.119.043zm-10.103 0s-.043-.01-.141-.022c-.087-.021-.217-.01-.38 0a13.71 13.71 0 00-1.357.228c-.564.098-1.215.239-1.942.326a9.428 9.428 0 01-1.129.065c-.195 0-.39 0-.596-.022a6.198 6.198 0 01-.608-.076 3.81 3.81 0 01-1.226-.412 6.409 6.409 0 01-.944-.662c-.576-.478-.999-.999-1.379-1.411a6.381 6.381 0 00-.987-.911 1.53 1.53 0 00-.326-.207 1.25 1.25 0 01-.12-.076s.044 0 .142.011c.098 0 .228.022.401.065.174.044.37.109.597.217.217.109.467.24.716.402.5.315 1.031.727 1.574 1.129.293.206.532.38.857.596.25.152.554.304.89.391.163.043.337.087.521.109.174.032.347.043.532.065.358.032.716.032 1.063.043.695.01 1.368-.01 1.943-.022h.792c.239 0 .445.022.608.044.173.032.303.054.38.097l.119.033z" fill="#4D2F0E"/><path d="M39.9 43.407s-.02.109-.075.294a8.87 8.87 0 00-.13.78 21.72 21.72 0 00-.12 1.108c-.032.412-.065.846-.087 1.28-.032.434-.043.868-.054 1.28-.01.413-.01.793-.01 1.118a14.258 14.258 0 00.043 1.096s-.033-.108-.076-.292a5.147 5.147 0 01-.065-.348 2.564 2.564 0 01-.065-.445 13.27 13.27 0 01-.066-2.42c.022-.445.066-.879.13-1.291a8.9 8.9 0 01.218-1.118c.076-.325.173-.586.239-.77.075-.174.119-.272.119-.272z" fill="#E8A680"/><path d="M45.934 20.944c-2.018 6.164-23.342 6.012-27.01 16.213 0 0-4.84-5.296-2.94-11.102 1.898-5.805 5.696-10.092 12.61-12.816 6.912-2.724 13.89-1.421 15.854 0 1.964 1.433 1.486 7.705 1.486 7.705z" fill="#593515"/><path d="M45.164 22.235c-.054 2.019 4.818 9.018 8.898 11.438 0 0 6.1.716 4.851-4.102-.347-1.335-1.063-5.165-3.07-8.812-3.115-5.643-9.355-8.301-10.19-5.165-1.02 3.809-.49 6.641-.49 6.641z" fill="#593515"/><path d="M33.628 34.987c.163.065.543.13.608.575.098.748.044 1.573-.542 1.454-.5-.109-5.253-1.41-7.01-.912-1.965.554-5.394 2.181-5.394 2.181s3.006-3.19 5.795-3.874c2.365-.586 5.556.174 6.543.576zm7.825 0c-.163.065-.543.13-.608.575-.098.748-.043 1.573.543 1.454.499-.109 5.252-1.41 7.01-.912 1.964.554 5.393 2.181 5.393 2.181s-3.006-3.19-5.795-3.874c-2.355-.586-5.556.174-6.543.576z" fill="#4D2F0E"/><path d="M59.727 56.213s-.043-.25-.14-.684c-.088-.434-.218-1.052-.337-1.79a57.182 57.182 0 01-.39-2.55c-.055-.467-.13-.945-.185-1.444l-.163-1.487-.13-1.486c-.044-.489-.065-.977-.098-1.444a62.854 62.854 0 01-.108-2.572c-.033-1.508.032-2.528.032-2.528s.272.977.532 2.463c.141.738.282 1.606.412 2.54.054.466.13.944.185 1.443l.163 1.487.13 1.497c.043.489.065.977.097 1.444.055.944.087 1.823.087 2.572.011.76-.01 1.389-.032 1.834a9.582 9.582 0 01-.055.705zm-.9 11.275s-.044-.326-.152-.879a85.883 85.883 0 01-.37-2.3c-.14-.956-.292-2.062-.433-3.256-.065-.597-.141-1.215-.206-1.845-.066-.63-.12-1.27-.185-1.899-.054-.64-.098-1.28-.152-1.91-.054-.63-.087-1.248-.12-1.856a81.792 81.792 0 01-.14-3.288c-.055-1.931-.011-3.223-.011-3.223s.282 1.259.575 3.158c.152.955.304 2.062.445 3.256.065.597.152 1.215.206 1.845.065.629.12 1.27.185 1.91.054.64.097 1.28.152 1.91.054.629.076 1.247.119 1.855.065 1.205.108 2.322.13 3.288.022.966.011 1.77 0 2.344-.01.575-.043.89-.043.89zM15.755 49.55s.022.282.076.77c.044.489.109 1.194.163 2.03.055.835.109 1.823.141 2.875.011.521.044 1.064.044 1.617.01.554.01 1.107.021 1.672 0 .564-.01 1.117-.01 1.67 0 .554-.022 1.097-.044 1.618a64.744 64.744 0 01-.14 2.875c-.11 1.682-.272 2.811-.272 2.811s-.174-1.118-.293-2.8a81.251 81.251 0 01-.163-2.876c-.01-.531-.043-1.074-.043-1.616-.011-.554-.011-1.118-.022-1.672 0-.564.01-1.117.01-1.67 0-.554.033-1.097.044-1.629.033-1.052.087-2.04.163-2.875.065-.847.141-1.541.206-2.04.054-.489.12-.76.12-.76zm1.791-7.477s.022.282.076.77c.043.489.108 1.194.163 2.03.054.835.108 1.823.14 2.875.012.521.044 1.064.044 1.617.011.554.011 1.118.022 1.671 0 .565-.011 1.118-.011 1.672 0 .553-.022 1.096-.033 1.617a64.598 64.598 0 01-.14 2.875c-.11 1.682-.272 2.811-.272 2.811s-.174-1.118-.293-2.8a81.006 81.006 0 01-.163-2.876c-.01-.52-.043-1.063-.043-1.617-.011-.553-.011-1.117-.022-1.67 0-.565.011-1.13.011-1.672 0-.553.033-1.096.043-1.628a49.6 49.6 0 01.163-2.875c.065-.847.141-1.541.206-2.04.055-.489.109-.76.109-.76zm25.763-22.898s-.033.098-.087.272a4.338 4.338 0 01-.358.738c-.358.607-1.042 1.4-1.997 2.137-.955.76-2.17 1.476-3.516 2.117-1.346.64-2.822 1.204-4.32 1.692a43.92 43.92 0 01-2.245.662c-.359.098-.717.196-1.064.293-.184.055-.358.098-.543.152-.162.055-.314.109-.477.163-.163.054-.315.109-.467.163a8.05 8.05 0 01-.455.184c-.152.065-.304.12-.456.185-.141.076-.282.14-.424.206a11.35 11.35 0 00-1.53.89c-.434.325-.835.64-1.15.966-.325.314-.575.63-.77.89-.185.27-.337.499-.413.662-.087.162-.12.25-.12.25s-.02-.402.185-1.086c.109-.336.26-.749.521-1.172.12-.228.282-.434.434-.673.174-.228.359-.456.576-.684a9.562 9.562 0 011.508-1.313c.152-.097.293-.206.445-.304.152-.086.315-.184.477-.27.163-.099.326-.185.489-.272.173-.076.358-.163.531-.25.185-.087.359-.163.543-.25.174-.064.347-.13.52-.195.174-.065.359-.13.533-.195.184-.065.38-.12.575-.184.716-.228 1.454-.467 2.181-.706 2.92-.933 5.795-1.899 7.824-2.886 1.01-.5 1.802-1.01 2.312-1.444.25-.217.445-.401.564-.542.108-.12.174-.196.174-.196z" fill="#6E431E"/><path d="M43.157 19.143s-.022.065-.055.206c-.054.13-.13.314-.282.532-.152.216-.38.434-.65.672-.283.217-.63.445-1.032.64a8.426 8.426 0 01-.63.283 6.577 6.577 0 01-.694.26 14.48 14.48 0 01-.738.239c-.25.076-.52.152-.781.206-.532.13-1.096.239-1.66.336-.575.087-1.15.174-1.737.24-.575.064-1.16.13-1.725.195-.564.086-1.107.162-1.639.282-.271.054-.52.108-.77.184-.25.065-.5.12-.727.206a11.27 11.27 0 00-1.303.489c-.195.087-.38.173-.553.271-.174.087-.336.184-.488.271-.304.185-.543.38-.727.543-.38.336-.532.586-.532.586s.12-.271.466-.651c.185-.185.402-.402.695-.619.282-.228.63-.445 1.02-.65a12.452 12.452 0 012.832-1.053c.532-.142 1.107-.24 1.672-.337.564-.065 1.15-.141 1.725-.217.575-.054 1.15-.141 1.715-.217.564-.098 1.117-.174 1.65-.293.27-.043.52-.108.78-.174.26-.054.5-.119.738-.195.24-.065.467-.141.684-.217.217-.076.423-.152.63-.239.792-.325 1.4-.738 1.725-1.117a2.65 2.65 0 00.336-.478.751.751 0 01.055-.184zm3.233 2.247s.011.053.022.14c.01.087.033.228.087.38.043.152.13.337.206.553.098.207.206.445.337.695.13.25.282.51.455.792.152.282.358.554.543.858.401.575.835 1.182 1.313 1.768.228.293.477.575.716.858.26.271.478.553.727.814.25.25.467.52.706.737.238.218.444.456.65.652.207.195.402.38.565.542.174.163.326.293.456.413.25.228.39.369.39.369l-.499-.207a9.81 9.81 0 01-1.259-.662 7.858 7.858 0 01-.78-.542c-.283-.195-.544-.434-.826-.673-.282-.239-.553-.51-.824-.792-.26-.293-.532-.575-.77-.89-.24-.315-.49-.63-.695-.955-.228-.315-.402-.662-.586-.977a8.573 8.573 0 01-.456-.966 5.697 5.697 0 01-.315-.911 4.87 4.87 0 01-.173-.803 3.448 3.448 0 01-.044-.64c-.01-.185.033-.304.054-.402-.01-.098 0-.152 0-.152zm-4.243-6.132l-.347-.098c-.228-.076-.553-.13-.966-.195a11.7 11.7 0 00-1.52-.109c-.585-.01-1.247.033-1.963.087-.716.076-1.487.195-2.3.358-.804.174-1.65.38-2.508.64a26.06 26.06 0 00-2.604.934c-.88.347-1.736.76-2.572 1.215-.847.434-1.65.955-2.43 1.476-.75.553-1.51 1.085-2.171 1.693a26.535 26.535 0 00-1.845 1.801c-.271.304-.521.619-.781.912-.24.304-.467.608-.684.89a26.54 26.54 0 00-1.085 1.66c-.315.5-.532.977-.75 1.346-.368.77-.585 1.215-.585 1.215s.032-.12.076-.347c.054-.228.12-.564.239-.977.14-.412.27-.933.51-1.486.119-.283.227-.587.38-.901.151-.304.314-.63.488-.966.195-.326.39-.662.597-1.01.227-.336.466-.683.727-1.03.531-.684 1.117-1.4 1.812-2.051a18.968 18.968 0 012.225-1.9 25.56 25.56 0 012.56-1.616c.901-.467 1.813-.9 2.746-1.248.923-.37 1.867-.63 2.79-.857.91-.24 1.822-.37 2.68-.478.857-.098 1.682-.13 2.441-.108.76.021 1.444.086 2.051.195.608.087 1.118.25 1.541.39.206.066.39.152.543.218.163.065.282.13.38.184l.325.163zm3.516 1.497s.228.076.63.228c.195.087.434.152.705.304.271.13.575.293.9.478.316.195.663.412 1.01.672.337.272.716.532 1.074.869.358.325.727.662 1.064 1.052.358.37.673.792 1.01 1.205.303.434.629.857.889 1.324.282.445.52.911.76 1.367.217.467.423.912.586 1.356.184.435.314.869.445 1.26.25.791.38 1.475.466 1.953.076.477.098.76.098.76s-.13-.24-.337-.652a39.713 39.713 0 01-.38-.738c-.151-.282-.314-.597-.499-.944a72.03 72.03 0 00-.607-1.085c-.206-.39-.467-.77-.706-1.183-.26-.401-.52-.814-.792-1.215-.271-.413-.575-.814-.857-1.216-.304-.39-.597-.792-.912-1.16-.304-.38-.63-.728-.933-1.086-.304-.347-.619-.662-.912-.977a31.11 31.11 0 01-.846-.846c-.271-.239-.52-.478-.738-.695-.217-.217-.423-.38-.586-.531-.347-.315-.532-.5-.532-.5z" fill="#6E431E"/><path d="M48.778 16.473s.163.109.434.315c.141.098.293.228.477.39a5.2 5.2 0 01.586.543c.217.206.424.434.651.684.228.25.445.531.673.814.207.303.445.596.652.933.217.325.412.662.607.998.185.348.37.695.532 1.042.173.347.315.695.456 1.031.271.673.477 1.335.64 1.888.163.565.25 1.042.326 1.378.065.337.086.532.086.532s-.076-.184-.184-.499c-.109-.325-.282-.77-.489-1.313-.206-.543-.477-1.15-.77-1.812-.141-.326-.315-.662-.477-.999a22.594 22.594 0 00-.532-1.009 28.783 28.783 0 00-1.172-1.91c-.217-.282-.402-.586-.597-.846-.195-.26-.39-.51-.575-.727a16.25 16.25 0 00-.923-1.042 7.709 7.709 0 01-.401-.39zm-15.356 3.05s-.358.086-.976.227c-.315.066-.684.163-1.118.272a24.16 24.16 0 00-1.432.38c-.521.14-1.086.325-1.672.51a9.666 9.666 0 00-.89.314c-.303.109-.607.228-.922.348-.608.27-1.259.531-1.866.868-.64.293-1.227.683-1.834 1.041-.575.413-1.172.793-1.671 1.27-.543.434-.988.944-1.455 1.422-.39.531-.824.998-1.117 1.53-.152.26-.326.499-.456.76-.12.26-.239.51-.358.748-.25.478-.37.955-.521 1.368-.065.206-.141.401-.196.586-.043.184-.075.358-.119.51l-.239.976s.011-.358.044-1.009l.032-.532c.011-.195.065-.401.109-.618.098-.445.152-.955.358-1.476.087-.26.184-.543.282-.825.109-.282.271-.553.412-.846.26-.597.684-1.14 1.086-1.726.466-.52.911-1.117 1.497-1.573.532-.521 1.161-.934 1.77-1.378.65-.38 1.28-.771 1.952-1.075.651-.347 1.346-.564 1.986-.825.662-.206 1.302-.423 1.921-.553.315-.076.608-.141.9-.206.294-.065.576-.098.847-.152.272-.044.532-.098.782-.13.25-.022.488-.055.716-.076a9.934 9.934 0 011.15-.087c.64-.033.998-.043.998-.043z" fill="#6E431E"/><path d="M20.183 33.727c-.38-.303-.575-.054-.955-.358-.38-.303-.174-.553-.553-.857-.38-.304-.576-.054-.955-.358l-.543-.434-.651-.532-.065-.054a.099.099 0 00-.13.01l-.13.164a.099.099 0 00.01.13l.065.054.651.532.543.434c.38.304.575.054.955.358s.174.553.553.857c.38.304.576.054.955.358.37.293.185.543.532.836 0 0 0 .01.011.022l.228.184c.065.109.5.782.814.402.314-.391-.445-.662-.565-.706l-.227-.184h-.022v-.011c-.358-.25-.152-.553-.521-.846z" fill="#47ACD1"/><path opacity=".5" d="M21.583 35.344c-.315.39-.749-.293-.814-.401l-.228-.185s0-.01-.01-.022c-.348-.293-.164-.542-.533-.835-.38-.304-.575-.055-.955-.358-.38-.304-.173-.554-.553-.858-.38-.304-.575-.054-.955-.358l-.543-.434-.65-.532-.066-.054c-.01-.01-.021-.032-.032-.043l-.033.043a.099.099 0 00.01.13l.066.055.651.531.543.434c.38.304.575.055.955.358.38.304.173.554.553.858.38.304.575.054.955.358.37.293.185.543.532.836 0 0 0 .01.01.021l.229.185c.065.108.499.781.814.401a.397.397 0 00.076-.152c-.011 0-.011.011-.022.022z" fill="#47ACD1"/><path d="M19.933 34.987c-.347-.337-.564-.109-.911-.445-.347-.337-.12-.565-.467-.901-.347-.336-.564-.108-.911-.445l-.5-.488-.596-.586-.065-.065c-.033-.033-.098-.033-.13 0l-.142.152a.099.099 0 000 .13l.065.065.597.586.5.488c.347.337.564.109.91.445.348.337.12.564.467.9.348.337.565.11.912.446.337.336.13.553.456.89 0 .01 0 .01.01.021l.207.207c.054.119.423.824.77.477.348-.358-.369-.705-.499-.76l-.206-.206s-.01 0-.022-.01h.011c-.347-.294-.12-.576-.456-.901z" fill="#47ACD1"/><path opacity=".5" d="M21.181 36.733c-.347.358-.716-.358-.77-.477l-.206-.206s0-.011-.011-.022c-.326-.326-.12-.554-.456-.89-.347-.336-.564-.108-.912-.445-.347-.336-.119-.564-.466-.9-.347-.337-.564-.11-.912-.446l-.499-.488-.608-.586-.065-.054a.082.082 0 01-.021-.054l-.044.043a.099.099 0 000 .13l.065.065.597.586.5.489c.347.336.564.108.91.445.348.336.12.564.467.9.348.337.565.109.912.445.337.337.13.554.456.89 0 .01 0 .01.01.022l.207.206c.054.12.423.825.77.477a.363.363 0 00.087-.151s-.01.01-.01.021z" fill="#47ACD1"/><path d="M54.507 32.794c.38-.303.576-.054.955-.358.38-.304.174-.553.554-.857.38-.304.575-.054.955-.358l.542-.434.651-.532.066-.054a.099.099 0 01.13.01l.13.163a.099.099 0 01-.01.13l-.066.055-.651.532-.543.434c-.38.304-.575.054-.955.358s-.173.553-.553.857c-.38.304-.575.054-.955.358-.369.293-.184.543-.543.836 0 0 0 .01-.01.022l-.228.184c-.066.109-.5.781-.814.402-.315-.391.445-.662.564-.706l.228-.184h.022v-.011c.358-.25.162-.543.531-.847z" fill="#47ACD1"/><path opacity=".5" d="M53.108 34.41c.314.392.748-.292.814-.4l.227-.185s0-.011.011-.022c.348-.293.163-.542.543-.835.38-.304.575-.055.955-.359.38-.303.173-.553.553-.857.38-.304.575-.054.955-.358l.543-.434.651-.532.065-.054c.01-.01.022-.033.033-.043l.032.043a.099.099 0 01-.01.13l-.066.054-.65.532-.544.434c-.38.304-.575.054-.954.358-.38.304-.174.554-.554.858-.38.303-.575.054-.955.358-.369.293-.184.542-.542.835 0 0 0 .011-.011.022l-.228.185c-.065.108-.5.78-.814.401a.397.397 0 01-.076-.152c.01.011.01.022.022.022z" fill="#47ACD1"/><path d="M54.747 34.064c.347-.337.564-.109.911-.445.348-.337.12-.564.467-.9.347-.337.564-.11.911-.446l.5-.488.607-.597.066-.054a.099.099 0 01.13 0l.14.152a.099.099 0 010 .13l-.064.054-.597.586-.5.489c-.347.336-.564.108-.91.444-.348.337-.12.565-.468.901-.347.337-.564.109-.911.445-.337.337-.13.554-.456.89 0 0 0 .01-.01.022l-.207.206c-.054.12-.423.835-.77.477-.348-.358.369-.705.488-.76l.206-.206s.011 0 .022-.01c.336-.293.108-.565.445-.89z" fill="#47ACD1"/><path opacity=".5" d="M53.51 35.8c.346.358.715-.359.77-.478l.206-.206s0-.011.01-.022c.326-.325.12-.553.457-.89.347-.336.564-.108.911-.445.347-.336.12-.564.467-.9.347-.337.564-.109.911-.445l.5-.489.596-.586.066-.065a.083.083 0 00.021-.054l.044.043c.032.033.032.098 0 .13l-.066.055-.596.586-.5.488c-.347.337-.564.109-.911.445-.347.337-.12.564-.467.9-.347.337-.564.11-.911.446-.337.336-.13.553-.456.89 0 0 0 .01-.011.021l-.206.207c-.054.119-.423.835-.77.477a.366.366 0 01-.088-.152c.011.033.022.033.022.044z" fill="#47ACD1"/><path d="M32.174 59.284c.76-1.161 3.7-2.854 4.992-2.605 1.291.25 1.183.098 2.16.066.976-.033 3.125 1.324 4.22 2.528 0 0-1.269.9-2.495 1.28-1.433.435-2.496.12-3.332.098-.672-.021-1.964.272-3.136-.195a21.258 21.258 0 01-2.409-1.172z" fill="#E49084"/><path d="M31.49 59.566s.055-.01.152-.032c.098-.033.228-.076.402-.142.336-.13.814-.293 1.41-.466.294-.087.63-.174.977-.239.358-.076.738-.13 1.129-.184.39-.055.814-.076 1.226-.087.423-.011.847 0 1.28.022 1.726.075 3.44.314 4.624.672.293.087.564.174.792.272.228.086.423.173.575.25.152.075.271.13.358.173.076.043.12.065.12.065l-.109-.076c-.065-.054-.174-.12-.315-.206a7.407 7.407 0 00-1.313-.619 11.707 11.707 0 00-.977-.304 10.647 10.647 0 00-1.15-.25 21.402 21.402 0 00-2.583-.27c-.434-.022-.9-.033-1.334-.011-.445.01-.88.054-1.292.119a11.02 11.02 0 00-2.138.52c-.585.207-1.03.424-1.345.576-.152.076-.271.13-.358.174-.087.032-.13.043-.13.043z" fill="#D97F73"/><path d="M28.19 31.022s1.199.085 2.984.228c1.785.114 4.17.227 6.54.242 1.185 0 2.37-.029 3.482-.1a48.496 48.496 0 003.028-.27c.878-.143 1.624-.228 2.122-.356l.804-.157s-.278.1-.775.285a19.59 19.59 0 01-2.092.612c-.878.17-1.931.384-3.043.498-1.127.128-2.327.171-3.541.185a47.232 47.232 0 01-3.54-.156c-1.127-.086-2.166-.257-3.058-.385-1.756-.299-2.912-.626-2.912-.626zm4.213-1.181s2.642.241 5.272.241a24.972 24.972 0 003.619-.22c.988-.13 1.643-.306 1.643-.306s-.167.066-.444.197a7.076 7.076 0 01-1.188.417c-.988.263-2.309.44-3.64.44-1.322-.023-2.654-.155-3.63-.374-.977-.176-1.632-.395-1.632-.395zm-8.045 18.653s2.526-.565 4.993-1.294c1.242-.35 2.448-.79 3.347-1.156.899-.365 1.477-.67 1.477-.67s-.143.093-.376.261a8.41 8.41 0 01-1.027.62c-.872.457-2.075.946-3.323 1.315-1.243.35-2.52.629-3.48.746a16.13 16.13 0 01-1.611.178zm26.752.058s-2.542-.515-5.008-1.244a25.624 25.624 0 01-3.334-1.201c-.891-.392-1.459-.732-1.459-.732s.139.105.364.3c.225.196.57.448 1.002.705.857.511 2.048 1.035 3.297 1.405 1.244.346 2.528.597 3.502.67.963.113 1.635.097 1.635.097zM46.09 59.4s-.459-.837-1.07-1.536a3.81 3.81 0 00-.979-.84c-.313-.188-.578-.264-.578-.264s.081.007.23.007c.148 0 .342.024.542.083.398.115.816.368 1.126.722.292.364.517.791.603 1.173.114.358.126.655.126.655zm-16.131-.018s.441-.852 1.051-1.551c.291-.365.673-.645.996-.826.323-.18.6-.245.6-.245s-.086.003-.244-.005a2.054 2.054 0 00-.572.057c-.417.099-.848.34-1.157.695-.29.364-.506.8-.577 1.196-.101.368-.097.679-.097.679z" fill="#C18662"/></g><defs><linearGradient id="paint0_linear" x1="38.145" y1="71.072" x2="38.145" y2="62.929" gradientUnits="userSpaceOnUse"><stop stop-color="#F2BB99"/><stop offset="1" stop-color="#E8A680"/></linearGradient><linearGradient id="paint1_linear" x1="38.145" y1="71.072" x2="38.145" y2="62.929" gradientUnits="userSpaceOnUse"><stop stop-color="#F2BB99"/><stop offset="1" stop-color="#E8A680"/></linearGradient></defs></svg>