<svg width="62" height="62" viewBox="0 0 62 62" fill="none" xmlns="http://www.w3.org/2000/svg"><path d="M60.59 31c0 16.343-13.247 29.59-29.59 29.59C14.657 60.591 1.41 47.343 1.41 31S14.656 1.41 31 1.41c16.342 0 29.59 13.247 29.59 29.59z" fill="#CBE558"/><path d="M41.184 16.91L27.017 31.365l-6.2-6.328L14.09 31.9l6.201 6.328 6.725 6.862L47.91 23.772l-6.725-6.863z" fill="#fff"/><path d="M26.969 46.5c-.32 0-.625-.13-.85-.36L13.033 32.78a1.247 1.247 0 010-1.737l6.807-6.95c.47-.48 1.232-.48 1.702 0l5.426 5.54L40.457 15.86c.226-.23.532-.36.851-.36.319 0 .626.13.851.36l6.807 6.95c.47.48.47 1.258 0 1.738L27.82 46.141a1.19 1.19 0 01-.851.359zM15.587 31.912L26.97 43.534l19.444-19.855-5.105-5.213L27.82 32.24c-.47.48-1.232.48-1.702 0l-5.426-5.54-5.105 5.213z" fill="#571501"/><path d="M30.992 62A31.003 31.003 0 019.08 52.92C3.226 47.066 0 39.28 0 31c0-8.28 3.225-16.065 9.08-21.92S22.72 0 31 0c8.28 0 16.065 3.225 21.92 9.08a31.003 31.003 0 018.99 19.536c.558 7.287-1.471 14.55-5.714 20.453a1.211 1.211 0 01-1.967-1.414c8.201-11.408 6.93-26.91-3.021-36.863-11.143-11.143-29.273-11.143-40.416 0-11.143 11.143-11.143 29.273 0 40.416 9.952 9.951 25.456 11.223 36.864 3.02a1.211 1.211 0 011.413 1.968A30.995 30.995 0 0130.992 62z" fill="#571501"/><path d="M52.136 53.545a1.42 1.42 0 01-.996-.412 1.421 1.421 0 01-.413-.997c0-.37.151-.734.413-.996a1.42 1.42 0 01.996-.413c.37 0 .734.151.997.413.262.262.412.625.412.996 0 .37-.15.734-.412.997a1.421 1.421 0 01-.997.412z" fill="#571501"/></svg>