<svg width="83" height="83" viewBox="0 0 83 83" fill="none" xmlns="http://www.w3.org/2000/svg"><circle cx="41.307" cy="41.307" r="38.804" fill="#fff" stroke="#FEC22C" stroke-width="5.007"/><path d="M37.402 47.6h5.107l.55-3.053c5.458-1.102 9.864-3.705 9.864-10.064v-.1c0-6.66-4.907-10.365-12.117-10.365-5.457 0-9.362 2.203-12.266 5.408l4.606 5.057c2.303-2.303 4.706-3.455 7.51-3.455 2.904 0 4.607 1.302 4.607 3.555v.1c0 2.654-2.454 4.306-8.762 4.556l-.25.25 1.15 8.112zm-1.653 11.917h8.112v-8.01H35.75v8.01z" fill="#FF5C00"/></svg>